<svg id="Group_6018" data-name="Group 6018" xmlns="http://www.w3.org/2000/svg" xmlns:xlink="http://www.w3.org/1999/xlink" width="137.225" height="137.291" viewBox="0 0 137.225 137.291">
  <defs>
    <clipPath id="clip-path">
      <rect id="Rectangle_624" data-name="Rectangle 624" width="137.225" height="137.291" fill="none"/>
    </clipPath>
  </defs>
  <g id="Group_6017" data-name="Group 6017" clip-path="url(#clip-path)">
    <path id="Path_8516" data-name="Path 8516" d="M8.311,137.291A8.311,8.311,0,0,1,2.431,123.1l21.855-21.853,2.109,2.109L4.541,125.21a5.331,5.331,0,0,0,7.54,7.54L35.6,109.233a5.34,5.34,0,0,0,.243-7.28,1.971,1.971,0,0,1,.075-2.686l5.813-5.814a3.928,3.928,0,0,1,5.443-.131A52,52,0,1,0,30.307,54.836l.055.356a3.6,3.6,0,0,0,.723,2.072C50.41,81.427,68.031,84.036,74.71,84.036c12.982,0,24.757-8.074,32.349-14.848a99.329,99.329,0,0,0,13.032-14.2,99.335,99.335,0,0,0-13.032-14.2C99.467,34.008,87.691,25.933,74.71,25.933c-13.4,0-25.533,8.567-33.351,15.755l-2.018-2.2C47.549,31.945,60.348,22.95,74.71,22.95c11.036,0,22.927,5.412,34.386,15.65A97.878,97.878,0,0,1,123.16,54.135l.587.849-.587.849A97.854,97.854,0,0,1,109.1,71.368C97.637,81.606,85.746,87.019,74.71,87.019c-21.343,0-39.247-19.506-45.954-27.892a6.578,6.578,0,0,1-1.367-3.67l-.065-.321v-.151A54.984,54.984,0,0,1,82.277,0c.36,0,.719,0,1.08.01a54.577,54.577,0,0,1,39.314,17.637A54.984,54.984,0,0,1,45.156,95.519a.952.952,0,0,0-1.317.043l-5.171,5.172a8.335,8.335,0,0,1-.961,10.609L14.189,134.859a8.29,8.29,0,0,1-5.879,2.432" transform="translate(0)" fill="#ed2525"/>
    <path id="Path_8517" data-name="Path 8517" d="M130.721,110.354A20.058,20.058,0,1,1,141.748,73.52l.536.352-4.9,10.664,10.61-4.5.325.59a20.051,20.051,0,0,1-17.6,29.726m.069-38.631a18.747,18.747,0,0,0-3.823.4,18.572,18.572,0,1,0,20.363,9.823l-12.9,5.469,5.961-12.985a18.42,18.42,0,0,0-9.6-2.7" transform="translate(-55.656 -35.315)" fill="#ed2525"/>
  </g>
</svg>
