<svg xmlns="http://www.w3.org/2000/svg" xmlns:xlink="http://www.w3.org/1999/xlink" width="130.848" height="142.622" viewBox="0 0 130.848 142.622">
  <defs>
    <clipPath id="clip-path">
      <rect id="Rectangle_680" data-name="Rectangle 680" width="130.848" height="142.622" fill="none"/>
    </clipPath>
  </defs>
  <g id="Group_6035" data-name="Group 6035" clip-path="url(#clip-path)">
    <path id="Path_8583" data-name="Path 8583" d="M81.937,256.187H49.48v-1.832H81.937a58.246,58.246,0,0,0,29.124-7.816L141.4,224.8a5.946,5.946,0,0,0,2.775-6.557l-.075-.3a5.91,5.91,0,0,0-2.443-3.479,5.516,5.516,0,0,0-5.434-.28l-27.947,13.366A45.17,45.17,0,0,1,88.9,231.942H76.2a1.671,1.671,0,0,1-.327-3.311l18.157-3.614a4.887,4.887,0,0,0-.954-9.68H72.3A61.763,61.763,0,0,0,42.21,223.18l-15.456,8.645-.895-1.6,15.456-8.645A63.6,63.6,0,0,1,72.3,213.5h20.78a6.719,6.719,0,0,1,1.312,13.309l-16.558,3.3H88.9a43.325,43.325,0,0,0,18.58-4.214l27.946-13.366a7.353,7.353,0,0,1,7.247.412,7.736,7.736,0,0,1,3.2,4.555l.075.3a7.788,7.788,0,0,1-3.594,8.564L112.018,248.1a60.083,60.083,0,0,1-30.081,8.084" transform="translate(-15.33 -125.54)" fill="#ed2525"/>
    <path id="Path_8584" data-name="Path 8584" d="M26.426,293.986l-1.14-1.435,5.339-4.24L6.479,257.905l-5.339,4.24L0,260.71l6.774-5.379L33.2,288.606Z" transform="translate(0 -151.363)" fill="#ed2525"/>
    <path id="Path_8585" data-name="Path 8585" d="M98.679,44.887a22.444,22.444,0,1,1,22.443-22.443A22.469,22.469,0,0,1,98.679,44.887m0-43.055a20.611,20.611,0,1,0,20.611,20.611A20.635,20.635,0,0,0,98.679,1.832" transform="translate(-45.193 0)" fill="#ed2525"/>
    <path id="Path_8586" data-name="Path 8586" d="M120.471,49.66h-4.944c-3.695,0-6.7-2.462-6.7-5.489h1.832c0,1.982,2.23,3.657,4.869,3.657h4.944c2.639,0,4.869-1.675,4.869-3.657V42.258c0-1.982-2.23-3.657-4.869-3.657h-4.944c-3.695,0-6.7-2.463-6.7-5.489V31.2c0-3.027,3.006-5.489,6.7-5.489h4.944c3.695,0,6.7,2.462,6.7,5.489h-1.832c0-1.982-2.23-3.657-4.869-3.657h-4.944c-2.639,0-4.869,1.674-4.869,3.657v1.913c0,1.982,2.23,3.657,4.869,3.657h4.944c3.695,0,6.7,2.462,6.7,5.489v1.913c0,3.027-3.006,5.489-6.7,5.489" transform="translate(-64.513 -15.242)" fill="#ed2525"/>
    <rect id="Rectangle_679" data-name="Rectangle 679" width="1.832" height="30.598" transform="translate(52.569 7.145)" fill="#ed2525"/>
    <path id="Path_8587" data-name="Path 8587" d="M227.4,100.768a5.164,5.164,0,1,1,5.164-5.164,5.17,5.17,0,0,1-5.164,5.164m0-8.495A3.331,3.331,0,1,0,230.73,95.6a3.335,3.335,0,0,0-3.331-3.331" transform="translate(-131.744 -53.615)" fill="#ed2525"/>
    <path id="Path_8588" data-name="Path 8588" d="M127.053,100.529h-4.047a7.8,7.8,0,0,1-7.724-6.776,45.791,45.791,0,0,1-9.135-.029,7.8,7.8,0,0,1-7.724,6.805H94.376a7.8,7.8,0,0,1-7.789-7.789V86.588c-8.106-5.73-12.745-14-12.745-22.745a24.583,24.583,0,0,1,.205-3.156L70.874,62.8l-2.345-5.109L64.85,60.455l-2.555-4.064,1.551-.975,1.494,2.377,3.905-2.937,2.4,5.228,5.043-3.352-.481,2.209a23.106,23.106,0,0,0-.533,4.9c0,8.279,4.5,16.12,12.348,21.512l.4.273v7.112A5.964,5.964,0,0,0,94.376,98.7h4.047a5.964,5.964,0,0,0,5.957-5.957V91.7l1.03.093a44.011,44.011,0,0,0,10.615.035l1.024-.122v1.032a5.964,5.964,0,0,0,5.957,5.957h4.047a5.964,5.964,0,0,0,5.957-5.957V85.783l.4-.272a28.65,28.65,0,0,0,11.066-13.552l.222-.6h5.253a.832.832,0,0,0,.831-.831V57.156a.832.832,0,0,0-.831-.831H144.82l-.227-.584a27.246,27.246,0,0,0-8.4-11.46l-.4-.323,1.777-13.333-13.177,7.529-.377-.113a44.569,44.569,0,0,0-6.113-1.37l.275-1.812a46.509,46.509,0,0,1,5.985,1.314L139.877,27.2l-2.131,15.988a29,29,0,0,1,8.32,11.308h3.886a2.667,2.667,0,0,1,2.664,2.664V70.531a2.666,2.666,0,0,1-2.664,2.663h-3.988a30.509,30.509,0,0,1-11.122,13.556v5.989a7.8,7.8,0,0,1-7.79,7.789" transform="translate(-36.929 -16.122)" fill="#ed2525"/>
  </g>
</svg>
