<svg id="Component_24_2" data-name="Component 24 – 2" xmlns="http://www.w3.org/2000/svg" xmlns:xlink="http://www.w3.org/1999/xlink" width="812" height="599.178" viewBox="0 0 812 599.178">
  <defs>
    <clipPath id="clip-path">
      <rect id="Rectangle_106" data-name="Rectangle 106" width="812" height="599.177" fill="none"/>
    </clipPath>
    <clipPath id="clip-path-3">
      <path id="Path_206" data-name="Path 206" d="M244.069,220.288s-.682-22.558-13.647-29.587c0,0-3.183,27.542,13.647,29.587" transform="translate(-230.183 -190.701)" fill="none"/>
    </clipPath>
    <linearGradient id="linear-gradient" x1="-19.668" y1="10.902" x2="-19.582" y2="10.902" gradientUnits="objectBoundingBox">
      <stop offset="0" stop-color="#836ceb"/>
      <stop offset="1" stop-color="#c3a4eb"/>
    </linearGradient>
    <clipPath id="clip-path-5">
      <path id="Path_212" data-name="Path 212" d="M292.295,108.441a87.273,87.273,0,0,0-10.755,15.774c-6.362,11.356-11.669,23.5-11.669,23.5a62.654,62.654,0,0,1-7.9,10.445c-5.451,6.072-20.335,13.275-20.335,13.275s-.432-2.5,2.594-7.2c3.048-4.705,13.8-11.6,14.718-19.325s-3.411-17-5.378-16.541-7.827,13.589-11.765,22.976c-3.938,9.41-19.4,26.7-19.4,33.969s14.094,27.9,14.406,32.747c.287,4.849-2.881,10.131-2.881,10.131-4.85,20.166,10.755,30.969,10.755,30.969s15.029-34.738,17.6-38.674,13.18-12.726,25.928-31.091c12.724-18.342,15.748-24.2,15.748-24.2,0-4.178-2.736-7.322-6.793-7.322-.865,0-1.873.888-2.617,1.777a5.768,5.768,0,0,0,1.079-3.1c-.287-4.177-5.232-6.53-7.417-7.3-1.458-.509-3.307-.042-4.85.425-1.657.5-2.961,1-3.05.295-.071-.647,2.041-4.3,4.561-8.593,2.738-4.682,5.93-10.083,7.275-13.084,2.568-5.763,6.675-18.8,6.075-19.855-.332-.561-1.731-.913-3.1-.913-1.21,0-2.4.273-2.826.913" transform="translate(-222.408 -107.528)" fill="none"/>
    </clipPath>
    <linearGradient id="linear-gradient-2" x1="-3.957" y1="2.923" x2="-3.939" y2="2.923" gradientUnits="objectBoundingBox">
      <stop offset="0" stop-color="#ffc2a9"/>
      <stop offset="0.016" stop-color="#ffc2a9"/>
      <stop offset="1" stop-color="#ff9595"/>
    </linearGradient>
    <clipPath id="clip-path-7">
      <path id="Path_215" data-name="Path 215" d="M165.972,301.106c12.131,39.421,39.758,52.916,39.758,52.916,13.222-17.283,67.29-133.733,67.29-133.733-14.1-5-13.647-29.587-13.647-29.587-24.866,49.712-93.4,110.4-93.4,110.4" transform="translate(-165.972 -190.701)" fill="none"/>
    </clipPath>
    <linearGradient id="linear-gradient-3" x1="-2.249" y1="1.975" x2="-2.236" y2="1.975" gradientUnits="objectBoundingBox">
      <stop offset="0" stop-color="#b9acf4"/>
      <stop offset="1" stop-color="#e1d1f5"/>
    </linearGradient>
    <clipPath id="clip-path-9">
      <rect id="Rectangle_26" data-name="Rectangle 26" width="13.02" height="42.088" fill="none"/>
    </clipPath>
    <clipPath id="clip-path-10">
      <path id="Path_222" data-name="Path 222" d="M188.1,80.43S199.839,62.7,197.21,51.2s-12.636-12.862-12.636-12.862,3.379,32.769,3.53,42.088" transform="translate(-184.574 -38.342)" fill="none"/>
    </clipPath>
    <linearGradient id="linear-gradient-4" x1="-17.543" y1="12.914" x2="-17.448" y2="12.914" gradientUnits="objectBoundingBox">
      <stop offset="0" stop-color="#9e2525"/>
      <stop offset="1" stop-color="#ed4625"/>
    </linearGradient>
    <clipPath id="clip-path-11">
      <path id="Path_223" data-name="Path 223" d="M128.686,60.163c-11.372,14.557-23.655,61.863-9.552,100.983s47.307,60.044,70.051,54.586,41.395-64.594,40.485-70.962-7.278-11.827-9.1-17.74,4.2-71.564-6.822-79.6c-6.848-4.992-16.643-7.032-27.221-7.032-23.153,0-50.036,9.779-57.842,19.769" transform="translate(-112.806 -40.394)" fill="none"/>
    </clipPath>
    <linearGradient id="linear-gradient-5" x1="-1.242" y1="2.99" x2="-1.23" y2="2.99" xlink:href="#linear-gradient-2"/>
    <clipPath id="clip-path-13">
      <rect id="Rectangle_30" data-name="Rectangle 30" width="137.988" height="128.512" fill="none"/>
    </clipPath>
    <clipPath id="clip-path-14">
      <path id="Path_225" data-name="Path 225" d="M220.011,87.31c-2.281-12.268-12.747-22.063-12.747-22.063a35.728,35.728,0,0,1-4.9,1.3c-7.61,1.489-16.924,1.008-32.17.073-13.2-.794-23.527,4.152-28.953,5.737-.312.1-.6.168-.888.241-5.978,1.416-2.688,4.945-2.688,4.945a33.481,33.481,0,0,1,.239,28.425c-4.345,9.219-4.728,22.207-4.369,30.873.216,5.449.72,9.171.72,9.171l-6.362-2.977A284.879,284.879,0,0,1,110.945,119.5a74.9,74.9,0,0,1-6.362-11.957c-2.424-6.29-4.369-11.428-5.21-15.653-.863-4.345-.576-7.73,1.536-10.491,4.154-5.449,30.178-13.348,30.178-13.348a11.335,11.335,0,0,1-8.882-7.13c-2.713-6.578,2.185-19.086,2.185-19.086a43.022,43.022,0,0,0,8.017,23.119c-.071-.145-.239-.5-.457-1.008l-.023-.025a.077.077,0,0,0-.023-.048.819.819,0,0,1-.073-.144c-1.008-2.305-2.977-7.154-2.664-9.6a3.3,3.3,0,0,1,.094-.48,2.248,2.248,0,0,1,.216-.551,2.881,2.881,0,0,1,.145-.266,4.5,4.5,0,0,1,.384-.551,2.355,2.355,0,0,1,.527-.576c1.249-1.152,3.578-2.426,8-4.154a.8.8,0,0,0,.216-.071c4.464-1.729,11.067-3.89,20.766-6.8A116.385,116.385,0,0,0,201.357,17.5s16.685,2.233,27.2,13.275c0,0,.048.049.144.17A29.261,29.261,0,0,1,235.953,44.1c5.689,22.758-15.942,43.212-15.942,43.212" transform="translate(-98.918 -17.496)" fill="none"/>
    </clipPath>
    <linearGradient id="linear-gradient-6" x1="-1" y1="4.465" x2="-0.99" y2="4.465" xlink:href="#linear-gradient-4"/>
    <clipPath id="clip-path-15">
      <rect id="Rectangle_32" data-name="Rectangle 32" width="75.764" height="31.906" fill="none"/>
    </clipPath>
    <clipPath id="clip-path-16">
      <path id="Path_226" data-name="Path 226" d="M201.389,65.01c-8.643,2.976-16.316,0-35.916-3.809-13.74-2.671-32.453,1.478-37.16,3.809l-2.688-.625s9.988-8.45,27.3-24.775c17.333-16.325,43.929,8.811,48.468,25.4" transform="translate(-125.625 -34.317)" fill="none"/>
    </clipPath>
    <linearGradient id="linear-gradient-7" x1="-2.406" y1="12.537" x2="-2.387" y2="12.537" xlink:href="#linear-gradient-4"/>
    <clipPath id="clip-path-17">
      <path id="Path_227" data-name="Path 227" d="M88.637,171.17s43.939,11.315,72.613,40.505c0,0,9.734-15.389,5.625-27.756,0,0-25.013-15.334-70.052-27.755Z" transform="translate(-88.637 -156.164)" fill="none"/>
    </clipPath>
    <linearGradient id="linear-gradient-8" x1="-1.562" y1="6.712" x2="-1.544" y2="6.712" gradientUnits="objectBoundingBox">
      <stop offset="0" stop-color="#d5cdf8"/>
      <stop offset="1" stop-color="#f3edfb"/>
    </linearGradient>
    <clipPath id="clip-path-18">
      <path id="Path_228" data-name="Path 228" d="M124.949,112.665c3.639,12.975,32.282,63.543,32.282,63.543s5.927-25.756,0-46.522S123,91.448,123,91.448s-1.693,8.242,1.947,21.217" transform="translate(-122.609 -91.448)" fill="none"/>
    </clipPath>
    <linearGradient id="linear-gradient-9" x1="-4.22" y1="5.504" x2="-4.185" y2="5.504" gradientUnits="objectBoundingBox">
      <stop offset="0" stop-color="#ff7c7c"/>
      <stop offset="0.984" stop-color="#ff9e8b"/>
      <stop offset="1" stop-color="#ff9e8b"/>
    </linearGradient>
    <clipPath id="clip-path-19">
      <path id="Path_229" data-name="Path 229" d="M84.7,212.193c-3.169,6.147-7.658,82.779-25.232,145.366C42.713,417.17.126,478.563,0,508.532v.293a25.9,25.9,0,0,0,.312,3.991c1.358,8.348,10.87,12.036,24.937,12.09h.633c33.286-.128,91.262-20.135,127.383-46.8l-8.907-6.6.046-.048c1.561-2.041,51.616-67.966,72.767-121.189a152.581,152.581,0,0,0,7.25-22.5c12.749-55.577-11.907-114.972-11.907-114.972S169.638,176.135,130,164.731c0,0-30.49,18.822-45.3,47.462" transform="translate(0 -164.731)" fill="none"/>
    </clipPath>
    <linearGradient id="linear-gradient-10" y1="1" x2="0.006" y2="1" gradientUnits="objectBoundingBox">
      <stop offset="0" stop-color="#ed2525"/>
      <stop offset="1" stop-color="#c14325"/>
    </linearGradient>
    <clipPath id="clip-path-21">
      <rect id="Rectangle_38" data-name="Rectangle 38" width="69.904" height="183.297" fill="none"/>
    </clipPath>
    <clipPath id="clip-path-22">
      <path id="Path_230" data-name="Path 230" d="M168.662,205.023l-1.912-5.764s-9.859-9.861-23.536-.408-33.31,39.627-39.794,75.561,3.845,82.637,25.519,103.638c0,0,33.242-14.037,42.468-41.325l-23.3-63.677Z" transform="translate(-101.503 -194.752)" fill="none"/>
    </clipPath>
    <linearGradient id="linear-gradient-11" x1="-1.916" y1="1.707" x2="-1.897" y2="1.707" gradientUnits="objectBoundingBox">
      <stop offset="0" stop-color="#ed2525"/>
      <stop offset="1" stop-color="#ccedff"/>
    </linearGradient>
    <clipPath id="clip-path-23">
      <path id="Path_232" data-name="Path 232" d="M163.472,73.14c-6.909.229-20.015,7.735-22.062,10.918,0,0-3.05,13.891-1.3,25.709,0,0,21.312,12.448,34.957,7.13,0,0,6.419-25.56,2.527-50.806,0,0-7.218,6.825-14.126,7.05" transform="translate(-139.57 -66.09)" fill="none"/>
    </clipPath>
    <linearGradient id="linear-gradient-12" x1="-4.667" y1="8.967" x2="-4.634" y2="8.967" gradientUnits="objectBoundingBox">
      <stop offset="0" stop-color="#ff9e8b"/>
      <stop offset="0.016" stop-color="#ff9e8b"/>
      <stop offset="1" stop-color="#ff7c7c"/>
    </linearGradient>
    <clipPath id="clip-path-25">
      <path id="Path_234" data-name="Path 234" d="M343.157,334.073c-11.045,5.547-24.3,23.1-24.3,23.1l37.307-1.682s11.978,6.53,32.145,4.921c15.916-1.272,43.668-15.144,43.668-15.144C448.509,357.023,457,354.625,457,352.342c0-1.127-15.8-12.643-18.7-13.387a25.282,25.282,0,0,0-3.624-.578c4.546-.651,7.875-.918,7.875-.918s7.394,6.146,12.485,8.641a35.606,35.606,0,0,0,7.608,2.329c2.281.409,4.251.457,4.657-.358.553-1.129-.19-2.233-.865-2.929a5.337,5.337,0,0,0-.718-.673,11.324,11.324,0,0,0,5.616,1.538c1.418-.025,2.5-.457,2.5-1.584,0-2.713-10.005-14.62-10.005-14.62,2.112,1.079,13.067-1.365,12.054-5.541-.638-2.636-18.876-4.544-29.8-6.825a13.674,13.674,0,0,0-2.615-.19c-18.455,0-100.3,16.827-100.3,16.827" transform="translate(-318.861 -317.246)" fill="none"/>
    </clipPath>
    <linearGradient id="linear-gradient-13" x1="-2.927" y1="3.102" x2="-2.918" y2="3.102" xlink:href="#linear-gradient-2"/>
    <clipPath id="clip-path-26">
      <path id="Path_235" data-name="Path 235" d="M158.4,197.47c-1.2.575-39.372,19.709-51.735,72.549-14.189,60.62,21.846,98.239,21.846,98.239,28.762-4.081,37.4-34.116,37.4-34.116.023.025.073.048.12.1,34.307,26.41,80.016,76.032,80.016,76.032,49.743,7.874,172.564,2.112,172.564,2.112,7.562-18.487,26.073-26.673,26.073-26.673-5.666-.408-11.98-1.056-18.749-1.895h-.025c-58.409-7.179-150.43-28.113-150.43-28.113-35.941-27.8-78.193-106.546-91.2-131.873-2.593-5.042-4.033-7.971-4.033-7.971-7.275-10.034-21.822-18.414-21.822-18.414Z" transform="translate(-103.356 -197.444)" fill="none"/>
    </clipPath>
    <linearGradient id="linear-gradient-14" x1="-0.395" y1="1.417" x2="-0.391" y2="1.417" xlink:href="#linear-gradient-3"/>
    <clipPath id="clip-path-27">
      <path id="Path_236" data-name="Path 236" d="M125.856,312.945a175.827,175.827,0,0,0,4.009,25.59s22.159-12.653,26.145-9.555c.023.025.073.048.12.1,34.307,26.41,80.017,76.032,80.017,76.032,49.743,7.874,172.564,2.112,172.564,2.112,7.562-18.487,26.073-26.673,26.073-26.673-5.666-.408-11.98-1.056-18.75-1.895h-.025C357.6,371.474,265.58,350.54,265.58,350.54c-35.941-27.8-78.193-106.546-91.2-131.873l-2.809-1.129s-8.524-8.186-15.558-8.643c0,0-35.411,38.844-30.153,104.05" transform="translate(-125.324 -208.895)" fill="none"/>
    </clipPath>
    <linearGradient id="linear-gradient-15" x1="-0.564" y1="1.451" x2="-0.559" y2="1.451" xlink:href="#linear-gradient-8"/>
    <clipPath id="clip-path-28">
      <path id="Path_237" data-name="Path 237" d="M170.947,163.793c-7.179-4.538-6.674-24.1-3.626-27.513,4.659-5.235,11.932-5.019,11.932-5.019a55.13,55.13,0,0,0,19.109,10.275c11.836,3.649,18.655-3.217,18.655-3.217,3.624,16.612-9.1,28.881-13.422,28.881s-2.736-12.051-9.1-13.181c-2.886-.522-6.522,2.378-10.3,5.278-3.479,2.668-7.086,5.338-10.342,5.338a5.291,5.291,0,0,1-2.9-.843M122.62,106.726c1.127,10.925-5.451,27.057-5.451,27.057s2.5,18.87,26.145,40.692a62.844,62.844,0,0,0,52.1,15.843.079.079,0,0,0,.049-.023c22.686-12.147,29.96-56.513,29.239-59.034-.744-2.5-3.144.913-14.741,2.522-11.6,1.584-29.336-7.514-29.336-7.514-13.419-.456-28.665,8.618-28.665,8.618-9.46-.025-17.982-14.716-22.712-24.7v-.025c-2.424-5.161-3.839-9.05-3.839-9.05-3.362,2.617-2.786,5.618-2.786,5.618" transform="translate(-117.169 -101.108)" fill="none"/>
    </clipPath>
    <linearGradient id="linear-gradient-16" x1="-1.57" y1="4.752" x2="-1.557" y2="4.752" gradientUnits="objectBoundingBox">
      <stop offset="0" stop-color="#ed2525"/>
      <stop offset="1" stop-color="#ed2525"/>
    </linearGradient>
    <clipPath id="clip-path-30">
      <path id="Path_239" data-name="Path 239" d="M165.069,115.4a22.412,22.412,0,0,0,12.972,7.6c8.221,1.4,14.263-4.667,15.321-7.354.239-.609-7.291-1.033-14.808-1.033-5.539,0-11.072.231-13.486.785" transform="translate(-165.069 -114.612)" fill="none"/>
    </clipPath>
    <linearGradient id="linear-gradient-17" x1="-16.427" y1="14.835" x2="-16.33" y2="14.835" gradientUnits="objectBoundingBox">
      <stop offset="0" stop-color="#e1616a"/>
      <stop offset="1" stop-color="#ff8883"/>
    </linearGradient>
    <clipPath id="clip-path-32">
      <path id="Path_243" data-name="Path 243" d="M186.108,74.13s-9.657,24.2-9.727,31.183.4,8.06.4,8.06,11.716,5.107,15.127-1.033c0,0-1.319-19.1.023-31.388,0,0-.489-7.975-3.574-7.975a3.479,3.479,0,0,0-2.252,1.153" transform="translate(-176.374 -72.977)" fill="none"/>
    </clipPath>
    <linearGradient id="linear-gradient-18" x1="-16.377" y1="10.841" x2="-16.284" y2="10.841" xlink:href="#linear-gradient-12"/>
    <clipPath id="clip-path-34">
      <path id="Path_245" data-name="Path 245" d="M145.541,100.185h.682s5.117-7.581,18.8-10.955c0,0-2.657-5.313-3.453-6.108,0,0-12.621,4.707-16.033,17.064" transform="translate(-145.541 -83.121)" fill="none"/>
    </clipPath>
    <linearGradient id="linear-gradient-19" x1="-10.836" y1="28.047" x2="-10.762" y2="28.047" gradientUnits="objectBoundingBox">
      <stop offset="0" stop-color="#cf6074"/>
      <stop offset="1" stop-color="#ff817f"/>
    </linearGradient>
    <clipPath id="clip-path-36">
      <path id="Path_247" data-name="Path 247" d="M183.849,83.121c-1.387.033-7.108,7.943-7.806,18.967A23.715,23.715,0,0,1,188.42,88.245s-2.388-5.124-4.541-5.124h-.03" transform="translate(-176.043 -83.121)" fill="none"/>
    </clipPath>
    <linearGradient id="linear-gradient-20" x1="-20.636" y1="25.232" x2="-20.518" y2="25.232" xlink:href="#linear-gradient-19"/>
    <clipPath id="clip-path-38">
      <path id="Path_252" data-name="Path 252" d="M155.051,124.383s11.22,13.225,23.669,14.066,17-6.919,17-6.919-4.432,5.622-17,4.068-20.547-11.215-20.547-11.215Z" transform="translate(-155.051 -124.383)" fill="none"/>
    </clipPath>
    <linearGradient id="linear-gradient-21" x1="-10.494" y1="10.117" x2="-10.429" y2="10.117" xlink:href="#linear-gradient-17"/>
    <clipPath id="clip-path-40">
      <path id="Path_258" data-name="Path 258" d="M376.729,221.292a3.785,3.785,0,0,1,1.143,2.76,3.914,3.914,0,0,1-3.88,3.949h-.068a3.785,3.785,0,0,1-2.76-1.145,3.883,3.883,0,0,1-1.145-2.8,3.783,3.783,0,0,1,1.146-2.762,3.487,3.487,0,0,1,2.761-1.143,3.569,3.569,0,0,1,2.8,1.143m-3.185-7.9a10.9,10.9,0,0,0-1.188.128c-.126.894-.212,1.828-.255,2.761a1.789,1.789,0,0,0-.467.084.16.16,0,0,0-.128.042,5.217,5.217,0,0,0-1.019.427,4.783,4.783,0,0,0-.805.424c-.724-.593-1.4-1.143-2.124-1.74l-.044-.044a4.505,4.505,0,0,0-.467.382,4.047,4.047,0,0,0-.763.723,9.132,9.132,0,0,0-1.02,1.187h.044c.551.723,1.145,1.4,1.74,2.124a8.1,8.1,0,0,0-.467.807,5.371,5.371,0,0,0-.383,1.059,1.092,1.092,0,0,0-.128.467c-.933.084-1.867.171-2.758.3a6.564,6.564,0,0,0-.128,1.316,9.1,9.1,0,0,0,.17,1.87c.894.084,1.783.17,2.717.254a.872.872,0,0,0,.128.467,5.879,5.879,0,0,0,.382,1.1,5.77,5.77,0,0,0,.509.849c-.593.721-1.188,1.4-1.74,2.124a9.812,9.812,0,0,0,2.291,2.291v-.042c.68-.554,1.4-1.146,2.081-1.741h.045c.212.126.467.252.679.382a6.768,6.768,0,0,0,1.187.425c.171.044.3.084.427.126.084.892.17,1.827.3,2.76a10.5,10.5,0,0,0,1.19.086h.635a7.86,7.86,0,0,0,1.4-.129c.083-.891.17-1.825.252-2.758l.383-.129a4.376,4.376,0,0,0,1.062-.38,4.88,4.88,0,0,0,.892-.508c0,.042,0,.042.042.042.68.595,1.4,1.187,2.126,1.741.125-.084.252-.171.422-.3a5.676,5.676,0,0,0,.723-.724,10.477,10.477,0,0,0,1.1-1.272c-.595-.721-1.19-1.445-1.782-2.124v-.042c.125-.213.252-.469.382-.724a9.961,9.961,0,0,0,.38-1.018c0-.044,0-.084.045-.084A.846.846,0,0,1,381.7,226c.933-.086,1.867-.17,2.76-.255.084-.422.084-.849.126-1.274v-.721c-.044-.425-.044-.85-.126-1.272-.892-.086-1.827-.171-2.76-.257a1.193,1.193,0,0,1-.084-.383,11.916,11.916,0,0,0-.425-1.142c-.128-.257-.3-.553-.425-.807.551-.678,1.145-1.4,1.74-2.123v-.044a11.575,11.575,0,0,0-2.292-2.25v.045c-.721.55-1.444,1.142-2.123,1.738-.3-.17-.553-.3-.807-.424a4.6,4.6,0,0,0-1.062-.425,1.193,1.193,0,0,0-.382-.084c-.084-.934-.17-1.869-.3-2.8-.438-.065-.876-.1-1.316-.128Z" transform="translate(-363.182 -213.394)" fill="none"/>
    </clipPath>
    <linearGradient id="linear-gradient-22" x1="-24.614" y1="13.533" x2="-24.546" y2="13.533" gradientUnits="objectBoundingBox">
      <stop offset="0" stop-color="#ed2525"/>
      <stop offset="1" stop-color="#fe117e"/>
    </linearGradient>
    <clipPath id="clip-path-41">
      <path id="Path_259" data-name="Path 259" d="M369.9,223.59a2.51,2.51,0,0,1-.744-1.808A2.506,2.506,0,0,1,373.44,220a2.338,2.338,0,0,1,.723,1.782,2.276,2.276,0,0,1-.723,1.783,2.508,2.508,0,0,1-3.544.025m1.763-5.161a3.362,3.362,0,0,0-2.376,5.731,3.284,3.284,0,0,0,4.643.112c.038-.035.074-.074.11-.112a3.375,3.375,0,0,0,0-4.752,3.337,3.337,0,0,0-2.362-.979h-.015" transform="translate(-368.305 -218.429)" fill="none"/>
    </clipPath>
    <linearGradient id="linear-gradient-23" x1="-79.341" y1="39.788" x2="-79.126" y2="39.788" xlink:href="#linear-gradient-22"/>
    <clipPath id="clip-path-42">
      <path id="Path_260" data-name="Path 260" d="M363.681,241.573a4.826,4.826,0,0,1-3.1-2.333,4.752,4.752,0,0,1-.508-3.865,4.849,4.849,0,0,1,2.375-3.1,5.013,5.013,0,0,1,3.822-.508,4.891,4.891,0,0,1,3.1,2.375,5.072,5.072,0,0,1-1.828,6.921,4.8,4.8,0,0,1-3.864.509m1.613-15.283h-.765c-.508.044-.976.086-1.444.17a5.865,5.865,0,0,0-1.143.3c-.679-.976-1.4-1.951-2.081-2.886l-.045-.044a3.545,3.545,0,0,0-.721.3,6.448,6.448,0,0,0-1.188.635,7.2,7.2,0,0,0-1.657,1.145v.042c.511,1.062.978,2.126,1.487,3.186a7.856,7.856,0,0,0-.808.892,6.26,6.26,0,0,0-.892,1.19,2.322,2.322,0,0,0-.3.551c-1.188-.212-2.377-.425-3.565-.6-.21.511-.424,1.02-.593,1.571-.173.852-.342,1.658-.427,2.464l3.311,1.275v.593a6.114,6.114,0,0,0,.17,1.487,6.95,6.95,0,0,0,.3,1.272c-.976.68-1.909,1.359-2.886,2.081a15.041,15.041,0,0,0,2.079,3.565h.045c1.061-.509,2.124-.976,3.228-1.486.252.254.508.469.763.721a8.37,8.37,0,0,0,1.355.936c.129.084.3.17.467.3-.212,1.145-.382,2.334-.551,3.524a8.32,8.32,0,0,0,1.444.509,6.032,6.032,0,0,0,.805.212,13.973,13.973,0,0,0,1.741.34c.467-1.143.892-2.25,1.275-3.4h.55a7.79,7.79,0,0,0,1.445-.126c.424-.084.85-.212,1.272-.339a.041.041,0,0,0,.039.044h.006c.681.976,1.4,1.953,2.081,2.929.212-.128.424-.212.595-.3a10.209,10.209,0,0,0,1.188-.595,13.521,13.521,0,0,0,1.782-1.272c-.467-1.1-.976-2.166-1.484-3.27.254-.255.467-.509.721-.765.3-.38.595-.807.85-1.188,0-.044.044-.084.044-.126.084-.128.17-.3.254-.425,1.188.212,2.378.382,3.565.595.213-.511.383-1.02.553-1.57.044-.129.083-.257.126-.427a2.494,2.494,0,0,1,.128-.424c.086-.551.212-1.106.255-1.613-1.107-.469-2.249-.849-3.354-1.277v-.508a6.6,6.6,0,0,0-.171-1.574,11.369,11.369,0,0,0-.255-1.142c.976-.68,1.954-1.4,2.887-2.126h.045a12.859,12.859,0,0,0-2.125-3.565c-1.1.469-2.166.979-3.225,1.487-.3-.3-.595-.595-.892-.85a7.341,7.341,0,0,0-1.188-.805,2.64,2.64,0,0,0-.425-.3c.17-1.187.382-2.377.551-3.563-.508-.212-1.059-.425-1.613-.595a1.506,1.506,0,0,0-.425-.086h0a.95.95,0,0,0-.425-.129c-.509-.126-1.018-.21-1.528-.3-.467,1.145-.849,2.252-1.232,3.354" transform="translate(-351.156 -222.935)" fill="none"/>
    </clipPath>
    <linearGradient id="linear-gradient-24" x1="-18.519" y1="9.991" x2="-18.466" y2="9.991" xlink:href="#linear-gradient-22"/>
    <clipPath id="clip-path-43">
      <path id="Path_261" data-name="Path 261" d="M361.237,236.917a3.017,3.017,0,0,1-1.992-1.529,3.3,3.3,0,0,1-.341-2.465,3.354,3.354,0,0,1,1.529-1.949,2.988,2.988,0,0,1,2.465-.339,3.286,3.286,0,0,1,2.334,3.99,3.215,3.215,0,0,1-1.529,1.95v.046a3.152,3.152,0,0,1-2.466.3M359.883,230a4.481,4.481,0,0,0-1.615,5.946h.045a4.243,4.243,0,0,0,2.632,2.038,4.363,4.363,0,0,0,5.349-3.057v-.044a4.2,4.2,0,0,0-.467-3.27A4.3,4.3,0,0,0,359.883,230" transform="translate(-357.7 -229.4)" fill="none"/>
    </clipPath>
    <linearGradient id="linear-gradient-25" x1="-57.325" y1="28.915" x2="-57.164" y2="28.915" xlink:href="#linear-gradient-22"/>
    <clipPath id="clip-path-45">
      <rect id="Rectangle_63" data-name="Rectangle 63" width="46.856" height="56.369" fill="none"/>
    </clipPath>
    <clipPath id="clip-path-46">
      <path id="Path_262" data-name="Path 262" d="M191.692,83.132c-2.281-12.268-12.747-22.063-12.747-22.063a35.729,35.729,0,0,1-4.9,1.3L161.73,41.022c17.479,7.154,25.088,25.905,25.088,25.905s7.443,6.649,8.235-7.923c.769-14.14-8-25.088-8.522-25.735,11.018,9.722,14.86,20.4,14.86,20.4,5.09-18.149-.048-25.711-1.008-26.911a29.261,29.261,0,0,1,7.251,13.156c5.689,22.758-15.942,43.212-15.942,43.212" transform="translate(-161.73 -26.763)" fill="none"/>
    </clipPath>
    <linearGradient id="linear-gradient-26" x1="-4.548" y1="9.94" x2="-4.52" y2="9.94" gradientUnits="objectBoundingBox">
      <stop offset="0" stop-color="#ccedff"/>
      <stop offset="1" stop-color="#9d68c2"/>
    </linearGradient>
    <clipPath id="clip-path-47">
      <path id="Path_263" data-name="Path 263" d="M138.389,38.237c-1.032.287-5.666,1.776-7.994,4.152a2.394,2.394,0,0,0-.53.576,4.49,4.49,0,0,0-.383.551,2.578,2.578,0,0,0-.144.266,2.229,2.229,0,0,0-.218.551,3.3,3.3,0,0,0-.094.48c-.649,3.457,2.04,8.522,2.664,9.6a.9.9,0,0,0,.073.145.072.072,0,0,1,.023.046l.023.025,6.628,4.826s-4.321,8.306-20.694,16.036a119.155,119.155,0,0,1-18.512,7.082c.841,4.225,2.786,9.364,5.21,15.653a74.9,74.9,0,0,0,6.362,11.957l8.932,4.968L130.37,132.8l3.025-5.283c-.36-8.666.023-21.654,4.369-30.873a33.481,33.481,0,0,0-.239-28.425s-3.289-3.528,2.69-4.946c.287-.071.576-.144.888-.238v-.145c3.433-5.161,16.588-18.294,17.4-19.109-.888.408-14.716,7.009-18.461,3.048a7.682,7.682,0,0,1-1.441-8.667.8.8,0,0,1-.216.074" transform="translate(-99.232 -38.163)" fill="none"/>
    </clipPath>
    <linearGradient id="linear-gradient-27" x1="-2.429" y1="5.746" x2="-2.404" y2="5.746" xlink:href="#linear-gradient-16"/>
    <clipPath id="clip-path-48">
      <path id="Path_264" data-name="Path 264" d="M99.146,93.037c-9.043,11.089,1.377,47.82,17.457,47.863s20.61-28.247,10.609-42.461c0,0-8.731-10.687-18.047-10.688-3.394,0-6.864,1.417-10.018,5.287" transform="translate(-95.796 -87.75)" fill="none"/>
    </clipPath>
    <linearGradient id="linear-gradient-28" x1="-2.768" y1="8.75" x2="-2.738" y2="8.75" gradientUnits="objectBoundingBox">
      <stop offset="0" stop-color="#ffac8b"/>
      <stop offset="0.016" stop-color="#ffac8b"/>
      <stop offset="1" stop-color="#ff9595"/>
    </linearGradient>
    <clipPath id="clip-path-49">
      <path id="Path_266" data-name="Path 266" d="M100.285,98.174a14.7,14.7,0,0,1,11.067,6.137s.3,16.778,4.035,21.085,10.22-6.906,9.042-12.926c0,0-4.654-14.826-19.2-14.826a24.282,24.282,0,0,0-4.942.53" transform="translate(-100.285 -97.644)" fill="none"/>
    </clipPath>
    <linearGradient id="linear-gradient-29" x1="-2.12" y1="8.591" x2="-2.096" y2="8.591" gradientUnits="objectBoundingBox">
      <stop offset="0" stop-color="#ff817f"/>
      <stop offset="1" stop-color="#cf6074"/>
    </linearGradient>
    <clipPath id="clip-path-50">
      <path id="Path_267" data-name="Path 267" d="M131.55,111.052l-.01-.042.01.042M96.615,97.781s5.233-6.715,18.522-3.523c12.865,3.092,16.2,15.936,16.4,16.752-.25-1.027-5.3-21.213-18.43-24.269a13.434,13.434,0,0,0-3.038-.363c-9.581,0-13.457,11.4-13.457,11.4" transform="translate(-96.615 -86.379)" fill="none"/>
    </clipPath>
    <linearGradient id="linear-gradient-30" x1="-3.96" y1="18.774" x2="-3.919" y2="18.774" gradientUnits="objectBoundingBox">
      <stop offset="0" stop-color="#ffa795"/>
      <stop offset="0.984" stop-color="#ffc2a9"/>
      <stop offset="1" stop-color="#ffc2a9"/>
    </linearGradient>
    <clipPath id="clip-path-51">
      <path id="Path_268" data-name="Path 268" d="M103.771,119.8s.772-11.523,7.208-18.8l-3.99-3.214s-6.555,11.1-3.218,22.015" transform="translate(-102.824 -97.788)" fill="none"/>
    </clipPath>
    <linearGradient id="linear-gradient-31" x1="-6.384" y1="19.314" x2="-6.318" y2="19.314" xlink:href="#linear-gradient-29"/>
    <clipPath id="clip-path-53">
      <rect id="Rectangle_70" data-name="Rectangle 70" width="82.007" height="89.967" fill="none"/>
    </clipPath>
    <clipPath id="clip-path-54">
      <path id="Path_269" data-name="Path 269" d="M195.458,190.3a.072.072,0,0,1-.048.025,62.848,62.848,0,0,1-52.1-15.845c-23.648-21.822-26.145-40.692-26.145-40.692s6.58-16.134,5.451-27.057c0,0-.576-3,2.784-5.618,0,0,1.416,3.89,3.842,9.05v.025c-.073.817-1.37,15.772.192,29.265,1.609,13.876,25.257,40.26,25.257,40.26s29.239-3.241,39.564,0c9.938,3.121,1.848,10.036,1.2,10.587" transform="translate(-117.169 -101.108)" fill="none"/>
    </clipPath>
    <linearGradient id="linear-gradient-32" x1="-1.953" y1="4.752" x2="-1.937" y2="4.752" xlink:href="#linear-gradient-4"/>
    <clipPath id="clip-path-55">
      <rect id="Rectangle_72" data-name="Rectangle 72" width="37.763" height="11.251" fill="none"/>
    </clipPath>
    <clipPath id="clip-path-56">
      <path id="Path_270" data-name="Path 270" d="M159.96,121.891s24.35,14.335,37.763,7.058c0,0-10.707,13.12-37.763-7.058" transform="translate(-159.96 -121.891)" fill="none"/>
    </clipPath>
    <linearGradient id="linear-gradient-33" x1="-6.146" y1="20.93" x2="-6.107" y2="20.93" gradientUnits="objectBoundingBox">
      <stop offset="0" stop-color="#776d7e"/>
      <stop offset="1" stop-color="#9d68c2"/>
    </linearGradient>
    <clipPath id="clip-path-57">
      <path id="Path_271" data-name="Path 271" d="M245.073,213.679l12.736-27.542c-9.6,10.631-25.471-2.426-25.471-2.426.458,21.982,12.736,29.968,12.736,29.968" transform="translate(-232.337 -183.711)" fill="none"/>
    </clipPath>
    <linearGradient id="linear-gradient-34" x1="-13.234" y1="11.1" x2="-13.177" y2="11.1" xlink:href="#linear-gradient-9"/>
    <clipPath id="clip-path-59">
      <rect id="Rectangle_76" data-name="Rectangle 76" width="14.04" height="35.597" fill="none"/>
    </clipPath>
    <clipPath id="clip-path-60">
      <path id="Path_272" data-name="Path 272" d="M226.465,198.867s1.016,24.8,11.885,35.6c0,0-9.837-2.48-14.04-32.116Z" transform="translate(-224.31 -198.867)" fill="none"/>
    </clipPath>
    <linearGradient id="linear-gradient-35" x1="-23.18" y1="8.727" x2="-23.076" y2="8.727" xlink:href="#linear-gradient-26"/>
    <clipPath id="clip-path-61">
      <rect id="Rectangle_78" data-name="Rectangle 78" width="70.39" height="103.335" fill="none"/>
    </clipPath>
    <clipPath id="clip-path-62">
      <path id="Path_273" data-name="Path 273" d="M229.452,215.464c-4.518,9.8-28.549,37.085-34.571,49.837C190.254,279.858,212.886,281,212.886,281s28.868-19.584,38.136-39.188c0,0-32.187,67.031-37.968,76.99,0,0-26.921-33.631-32.422-48.833,22.583-22.42,33.689-35.368,48.82-54.5" transform="translate(-180.632 -215.464)" fill="none"/>
    </clipPath>
    <linearGradient id="linear-gradient-36" x1="-3.723" y1="2.773" x2="-3.703" y2="2.773" gradientUnits="objectBoundingBox">
      <stop offset="0" stop-color="#9d68c2"/>
      <stop offset="1" stop-color="#ccedff"/>
    </linearGradient>
    <clipPath id="clip-path-63">
      <rect id="Rectangle_79" data-name="Rectangle 79" width="37.524" height="34.833" fill="none"/>
    </clipPath>
    <clipPath id="clip-path-64">
      <rect id="Rectangle_81" data-name="Rectangle 81" width="341.333" height="216.948" fill="none"/>
    </clipPath>
    <clipPath id="clip-path-65">
      <path id="Path_275" data-name="Path 275" d="M444.689,385.7s-18.51,8.187-26.072,26.673c0,0-122.821,5.761-172.566-2.112,0,0-45.709-49.622-80.016-76.032-.048-.048-.1-.071-.12-.1,0,0-8.641,30.034-37.4,34.116,0,0-36.035-37.619-21.847-98.238,12.364-52.842,50.536-71.976,51.736-72.552-1.056,1.152-35.027,38.029-41.341,71.854-4.9,26.265,10.948,42.542,18.7,48.784a41.886,41.886,0,0,0,4.01,2.857l28.784,5.954s54.737,54.976,82.106,68.182c27.392,13.2,151.583-2.546,175.254-11.285h.025c6.77.84,13.082,1.489,18.75,1.9" transform="translate(-103.356 -197.461)" fill="none"/>
    </clipPath>
    <linearGradient id="linear-gradient-37" x1="-0.395" y1="1.417" x2="-0.391" y2="1.417" xlink:href="#linear-gradient-36"/>
    <clipPath id="clip-path-66">
      <rect id="Rectangle_83" data-name="Rectangle 83" width="25.508" height="29.285" fill="none"/>
    </clipPath>
    <clipPath id="clip-path-67">
      <path id="Path_276" data-name="Path 276" d="M308.1,355.185s8.65-17.658,25.508-29.286c0,0-19.36,17.032-21.407,29.286Z" transform="translate(-308.097 -325.899)" fill="none"/>
    </clipPath>
    <linearGradient id="linear-gradient-38" x1="-17.524" y1="4.314" x2="-17.467" y2="4.314" xlink:href="#linear-gradient-26"/>
    <clipPath id="clip-path-68">
      <rect id="Rectangle_85" data-name="Rectangle 85" width="217.171" height="312.712" fill="none"/>
    </clipPath>
    <clipPath id="clip-path-69">
      <path id="Path_277" data-name="Path 277" d="M73.247,491.967c2.809-.84,48.375-14.523,80.017-28.615C101.5,501.571,4.874,526.107.312,498.065-4.225,470,41.869,405.42,59.467,342.81,77.041,280.223,81.53,203.591,84.7,197.445c0,0-10.217,112.868-30.706,177.631C33.075,441.2,63.7,432.106,100.25,421.73c0,0,53.012-17.513,82.014-53.016,18.742-22.942,30.249-34.571,30.249-34.571l4.657,1.368C196.02,388.735,145.966,454.66,144.4,456.7l-.046.048s-28.5,17.238-71.111,35.218" transform="translate(0 -197.445)" fill="none"/>
    </clipPath>
    <linearGradient id="linear-gradient-39" x1="0.019" y1="0.951" x2="0.026" y2="0.951" gradientUnits="objectBoundingBox">
      <stop offset="0" stop-color="#755cbb"/>
      <stop offset="1" stop-color="#ccedff"/>
    </linearGradient>
    <clipPath id="clip-path-70">
      <rect id="Rectangle_86" data-name="Rectangle 86" width="116.509" height="65.904" fill="none"/>
    </clipPath>
    <clipPath id="clip-path-71">
      <rect id="Rectangle_88" data-name="Rectangle 88" width="124.715" height="52.074" fill="none"/>
    </clipPath>
    <clipPath id="clip-path-72">
      <path id="Path_279" data-name="Path 279" d="M111.145,262.507s67.229,44.73,124.715,52.074c0,0-74.347-37.045-124.715-52.074" transform="translate(-111.145 -262.507)" fill="none"/>
    </clipPath>
    <linearGradient id="linear-gradient-40" x1="-1.181" y1="2.974" x2="-1.17" y2="2.974" xlink:href="#linear-gradient-36"/>
    <clipPath id="clip-path-73">
      <rect id="Rectangle_90" data-name="Rectangle 90" width="73.273" height="75.413" fill="none"/>
    </clipPath>
    <clipPath id="clip-path-74">
      <path id="Path_280" data-name="Path 280" d="M40.1,366.579s41.615-11.545,73.273-75.411c0,0-45.619,55.255-73.273,75.411" transform="translate(-40.097 -291.168)" fill="none"/>
    </clipPath>
    <linearGradient id="linear-gradient-41" x1="-0.536" y1="2.044" x2="-0.52" y2="2.044" xlink:href="#linear-gradient-39"/>
    <clipPath id="clip-path-75">
      <rect id="Rectangle_92" data-name="Rectangle 92" width="77.543" height="42.722" fill="none"/>
    </clipPath>
    <clipPath id="clip-path-76">
      <path id="Path_281" data-name="Path 281" d="M166.44,180.878s-33.862-2.046-49.2-6.282A96.451,96.451,0,0,1,91.05,162.909L89.6,165.552s37.825,12.454,72.5,40.079a33.76,33.76,0,0,0,4.342-24.753" transform="translate(-89.602 -162.909)" fill="none"/>
    </clipPath>
    <linearGradient id="linear-gradient-42" x1="-1.629" y1="8.492" x2="-1.611" y2="8.492" xlink:href="#linear-gradient-36"/>
    <clipPath id="clip-path-77">
      <rect id="Rectangle_94" data-name="Rectangle 94" width="96.452" height="136.177" fill="none"/>
    </clipPath>
    <clipPath id="clip-path-78">
      <path id="Path_282" data-name="Path 282" d="M137.541,334.356s-42.3,44.061-55.117,93.483l24.818-13.618s59.909-83.346,71.633-118.414l-3.524-4.145s-11.362,28.192-37.4,34.116Z" transform="translate(-82.424 -291.663)" fill="none"/>
    </clipPath>
    <linearGradient id="linear-gradient-43" x1="-1.24" y1="1.293" x2="-1.225" y2="1.293" xlink:href="#linear-gradient-39"/>
    <clipPath id="clip-path-79">
      <path id="Path_283" data-name="Path 283" d="M317.952,261.6l-8.34,21.145,115.947,2.571,8.386-23.716Z" transform="translate(-309.612 -261.603)" fill="none"/>
    </clipPath>
    <linearGradient id="linear-gradient-44" x1="-3.613" y1="9.261" x2="-3.601" y2="9.261" xlink:href="#linear-gradient-22"/>
    <clipPath id="clip-path-81">
      <rect id="Rectangle_97" data-name="Rectangle 97" width="36.153" height="6.896" fill="none"/>
    </clipPath>
    <clipPath id="clip-path-82">
      <rect id="Rectangle_99" data-name="Rectangle 99" width="353.009" height="165.807" fill="none"/>
    </clipPath>
    <clipPath id="clip-path-83">
      <path id="Path_285" data-name="Path 285" d="M606.855,178.432,253.846,344.24l67.211-154.865Z" transform="translate(-253.846 -178.432)" fill="none"/>
    </clipPath>
    <linearGradient id="linear-gradient-45" x1="-1.043" y1="2.052" x2="-1.039" y2="2.052" gradientUnits="objectBoundingBox">
      <stop offset="0"/>
      <stop offset="1" stop-color="#6a9bff"/>
    </linearGradient>
    <clipPath id="clip-path-84">
      <path id="Path_286" data-name="Path 286" d="M342.54,328.791c-14.462,7.08-21.492,23.177-21.492,23.177l34.134-1.528c-12.131-13.191-11.221-21.985-11.221-21.985Z" transform="translate(-321.048 -328.456)" fill="none"/>
    </clipPath>
    <linearGradient id="linear-gradient-46" x1="-13.646" y1="5.216" x2="-13.603" y2="5.216" xlink:href="#linear-gradient-9"/>
    <clipPath id="clip-path-86">
      <rect id="Rectangle_103" data-name="Rectangle 103" width="46.738" height="118.419" fill="none"/>
    </clipPath>
    <clipPath id="clip-path-87">
      <path id="Path_289" data-name="Path 289" d="M453.376,329.513l-2.353-8.746,46.738-109.674v10.464Z" transform="translate(-451.023 -211.094)" fill="none"/>
    </clipPath>
    <linearGradient id="linear-gradient-47" x1="-14.001" y1="2.473" x2="-13.97" y2="2.473" gradientUnits="objectBoundingBox">
      <stop offset="0" stop-color="#e5afae"/>
      <stop offset="1" stop-color="#673e3e"/>
    </linearGradient>
  </defs>
  <g id="Group_200" data-name="Group 200" clip-path="url(#clip-path)">
    <g id="Group_8" data-name="Group 8">
      <g id="Group_7" data-name="Group 7" clip-path="url(#clip-path)">
        <path id="Path_204" data-name="Path 204" d="M560.193,353.038v31.324s-1.695-.734-1.695-1.615V351.512Z" transform="translate(251.806 158.484)" fill="#a02424"/>
        <path id="Path_205" data-name="Path 205" d="M268.468,478.68C152.706,487.938,55.015,495.719,21.64,415.626s64.877-72.787,64.877-126.17S-4.443,132.515,57.4,43.954c69.142-99.01,427.684-20.666,551.683,134.4,145.037,181.375,29.939,356.539-57.431,376.77-97.447,22.564-164.313-85.951-283.188-76.445" transform="translate(6.638 0)" fill="#ef9a9a"/>
      </g>
    </g>
    <g id="Group_10" data-name="Group 10" transform="translate(333.964 276.681)">
      <g id="Group_9" data-name="Group 9" clip-path="url(#clip-path-3)">
        <rect id="Rectangle_20" data-name="Rectangle 20" width="16.83" height="29.587" transform="translate(-2.943)" fill="url(#linear-gradient)"/>
      </g>
    </g>
    <g id="Group_12" data-name="Group 12">
      <g id="Group_11" data-name="Group 11" clip-path="url(#clip-path)">
        <path id="Path_207" data-name="Path 207" d="M127.486,123.622s-8.643,26.731-33.206,55.442c0,0,30.021,4.6,40.939,20.522,0,0,6.488-21.094,23.487-32.38,0,0-26.227-23.366-31.22-43.584" transform="translate(42.507 55.737)" fill="#fe9083"/>
        <path id="Path_208" data-name="Path 208" d="M115.673,129.3s1.419,42.738,19.533,51.62c0,0,7.318-9.483,13.854-13.719,0,0-22.57-12.4-31.215-43.572Z" transform="translate(52.153 55.74)" fill="#cb4d7a"/>
        <path id="Path_209" data-name="Path 209" d="M433.615,394.763,525.8,178.432s2.041,5.776,0,10.771C492.49,270.72,439.83,394.891,439.83,394.891Z" transform="translate(195.501 80.448)" fill="#a02424"/>
        <path id="Path_210" data-name="Path 210" d="M614.025,178.432l-285.8,10.942L237.944,397.4l283.892-2.636Z" transform="translate(107.28 80.448)" fill="#ed2525"/>
        <path id="Path_211" data-name="Path 211" d="M326.678,195.454,591.26,184.915l-85.631,197.57-251.783-8.952Z" transform="translate(114.45 83.371)" fill="#c48383"/>
      </g>
    </g>
    <g id="Group_14" data-name="Group 14" transform="translate(322.684 156.008)">
      <g id="Group_13" data-name="Group 13" clip-path="url(#clip-path-5)">
        <rect id="Rectangle_22" data-name="Rectangle 22" width="81.553" height="151.631" transform="translate(0 0)" fill="url(#linear-gradient-2)"/>
      </g>
    </g>
    <g id="Group_16" data-name="Group 16">
      <g id="Group_15" data-name="Group 15" clip-path="url(#clip-path)">
        <path id="Path_213" data-name="Path 213" d="M285.6,168.34l-12.48,11.652c-38.7,14.57-35.089-10.294-35.089-10.294,5.473-6.05,24.833-21.981,24.833-21.981s5.307-12.147,11.668-23.5a87.519,87.519,0,0,1,10.755-15.774c.913-1.368,5.306-1.056,5.93,0,.6,1.056-3.505,14.092-6.073,19.855-1.345,3-4.537,8.4-7.273,13.084-3.867,1.969-9.461,4.992-9.555,5.882-.144,1.368,3.1,5.785,3.1,5.785l9.483,7.707a40.713,40.713,0,0,1-2.16,4.657c-.384.266,6.867,2.929,6.867,2.929" transform="translate(107.28 48.48)" fill="#fe9083"/>
        <path id="Path_214" data-name="Path 214" d="M244.176,121.9s-3.7,15.952,3.534,21.5a15.733,15.733,0,0,0,1.7-12.028c-1.667-7.279-5.23-9.477-5.23-9.477" transform="translate(109.663 54.959)" fill="#fe9083"/>
      </g>
    </g>
    <g id="Group_18" data-name="Group 18" transform="translate(240.803 276.681)">
      <g id="Group_17" data-name="Group 17" clip-path="url(#clip-path-7)">
        <rect id="Rectangle_24" data-name="Rectangle 24" width="107.048" height="163.321" transform="translate(0 0)" fill="url(#linear-gradient-3)"/>
      </g>
    </g>
    <g id="Group_25" data-name="Group 25">
      <g id="Group_24" data-name="Group 24" clip-path="url(#clip-path)">
        <path id="Path_216" data-name="Path 216" d="M260.006,130.979s-1.249,6.823-2.59,12.408a6.42,6.42,0,0,0,6.665.048c3.874-2.02,5.01-10.942,4.669-14.668s-8.744,2.213-8.744,2.213" transform="translate(116.059 57.502)" fill="#fea297"/>
        <path id="Path_217" data-name="Path 217" d="M273.225,142.41s3.956-9.14,2.363-15.964a19.152,19.152,0,0,0-4.435-3.3s-12.963-1.251-27.1-1.251c0,0-1.695,1.928.921,7.273s12.988,5.027,19.359,4.483c7.634-.653,9.892-1.322,9.892-1.322a54.185,54.185,0,0,1-1,10.078" transform="translate(109.79 54.959)" fill="#feb1a8"/>
        <path id="Path_218" data-name="Path 218" d="M271,135.813s-10.992,6.3-17.133,14.028c0,0-.847,8.357,7.394,3.878,10.044-5.458,20.782-10.593,20.782-10.593s-.637-6.912-11.043-7.314" transform="translate(114.449 61.233)" fill="#feb1a8"/>
        <path id="Path_219" data-name="Path 219" d="M277.486,141.193s-12.834,7.949-14.882,10.381,3.779,5.554,11.469,3.456,10.792-7.192,10.792-7.192,1.264-8.958-7.379-6.645" transform="translate(118.212 63.486)" fill="#feb1a8"/>
        <path id="Path_220" data-name="Path 220" d="M235.734,154.517c-.924-2.33,4.94,11.208,5.931,23.134,0,0,4.255-17.856-4.163-30.094,0,0-2.774,4.453-1.769,6.96" transform="translate(106.185 66.528)" fill="#fe9083"/>
        <path id="Path_221" data-name="Path 221" d="M243.511,168.4s6.149-12.829,24.344-10.69c0,0-16.62,6.823-24.344,10.69" transform="translate(109.79 70.999)" fill="#fe9083"/>
        <g id="Group_23" data-name="Group 23" transform="translate(267.792 55.629)" opacity="0.5" style="mix-blend-mode: multiply;isolation: isolate">
          <g id="Group_22" data-name="Group 22">
            <g id="Group_21" data-name="Group 21" clip-path="url(#clip-path-9)">
              <g id="Group_20" data-name="Group 20" transform="translate(0 0)">
                <g id="Group_19" data-name="Group 19" clip-path="url(#clip-path-10)">
                  <rect id="Rectangle_25" data-name="Rectangle 25" width="15.265" height="42.088" transform="translate(0 0)" fill="url(#linear-gradient-4)"/>
                </g>
              </g>
            </g>
          </g>
        </g>
      </g>
    </g>
    <g id="Group_27" data-name="Group 27" transform="translate(163.666 58.606)">
      <g id="Group_26" data-name="Group 26" clip-path="url(#clip-path-11)">
        <rect id="Rectangle_28" data-name="Rectangle 28" width="125.548" height="180.796" transform="translate(-7.775 0)" fill="url(#linear-gradient-5)"/>
      </g>
    </g>
    <g id="Group_39" data-name="Group 39">
      <g id="Group_38" data-name="Group 38" clip-path="url(#clip-path)">
        <path id="Path_224" data-name="Path 224" d="M216.743,72.969l-6.549,1.8s-14.1-8.18-41-13.5c-34.491-6.828-43.432,35.153-44.4,43.247l-4.107-22.458.576-26.539,48.1-10.2L211.21,56.244l4.859,5.021s.509,7.385.673,11.7" transform="translate(54.416 20.43)" fill="#e4688e"/>
        <g id="Group_32" data-name="Group 32" transform="translate(143.517 25.384)" opacity="0.5" style="mix-blend-mode: multiply;isolation: isolate">
          <g id="Group_31" data-name="Group 31">
            <g id="Group_30" data-name="Group 30" clip-path="url(#clip-path-13)">
              <g id="Group_29" data-name="Group 29" transform="translate(0 0)">
                <g id="Group_28" data-name="Group 28" clip-path="url(#clip-path-14)">
                  <rect id="Rectangle_29" data-name="Rectangle 29" width="143.132" height="128.512" transform="translate(-0.408 0)" fill="url(#linear-gradient-6)"/>
                </g>
              </g>
            </g>
          </g>
        </g>
        <g id="Group_37" data-name="Group 37" transform="translate(182.265 49.789)" opacity="0.5" style="mix-blend-mode: multiply;isolation: isolate">
          <g id="Group_36" data-name="Group 36">
            <g id="Group_35" data-name="Group 35" clip-path="url(#clip-path-15)">
              <g id="Group_34" data-name="Group 34" transform="translate(0 0)">
                <g id="Group_33" data-name="Group 33" clip-path="url(#clip-path-16)">
                  <rect id="Rectangle_31" data-name="Rectangle 31" width="75.764" height="44.701" transform="translate(0 -11.032)" fill="url(#linear-gradient-7)"/>
                </g>
              </g>
            </g>
          </g>
        </g>
      </g>
    </g>
    <g id="Group_41" data-name="Group 41" transform="translate(128.6 226.573)">
      <g id="Group_40" data-name="Group 40" clip-path="url(#clip-path-17)">
        <rect id="Rectangle_34" data-name="Rectangle 34" width="82.347" height="55.511" transform="translate(0 0)" fill="url(#linear-gradient-8)"/>
      </g>
    </g>
    <g id="Group_43" data-name="Group 43" transform="translate(177.889 132.678)">
      <g id="Group_42" data-name="Group 42" clip-path="url(#clip-path-18)">
        <rect id="Rectangle_35" data-name="Rectangle 35" width="41.849" height="84.761" transform="translate(-1.3 0)" fill="url(#linear-gradient-9)"/>
      </g>
    </g>
    <g id="Group_45" data-name="Group 45" transform="translate(0 239.002)">
      <g id="Group_44" data-name="Group 44" clip-path="url(#clip-path-19)">
        <rect id="Rectangle_36" data-name="Rectangle 36" width="237.17" height="360.175" transform="translate(0)" fill="url(#linear-gradient-10)"/>
      </g>
    </g>
    <g id="Group_52" data-name="Group 52">
      <g id="Group_51" data-name="Group 51" clip-path="url(#clip-path)">
        <g id="Group_50" data-name="Group 50" transform="translate(147.267 282.558)" opacity="0.5" style="mix-blend-mode: multiply;isolation: isolate">
          <g id="Group_49" data-name="Group 49">
            <g id="Group_48" data-name="Group 48" clip-path="url(#clip-path-21)">
              <g id="Group_47" data-name="Group 47" transform="translate(0 0)">
                <g id="Group_46" data-name="Group 46" clip-path="url(#clip-path-22)">
                  <rect id="Rectangle_37" data-name="Rectangle 37" width="74.471" height="188.653" transform="translate(-4.567 -5.355)" fill="url(#linear-gradient-11)"/>
                </g>
              </g>
            </g>
          </g>
        </g>
        <rect id="Rectangle_39" data-name="Rectangle 39" width="251.091" height="15.163" transform="translate(231.553 477.849)" fill="#720f0f"/>
        <path id="Path_231" data-name="Path 231" d="M479.131,327.537V341.7l-146.47,3.639V330.173Z" transform="translate(149.984 147.674)" fill="#ed2525"/>
      </g>
    </g>
    <g id="Group_54" data-name="Group 54" transform="translate(202.496 95.888)">
      <g id="Group_53" data-name="Group 53" clip-path="url(#clip-path-23)">
        <rect id="Rectangle_41" data-name="Rectangle 41" width="43.128" height="56.125" transform="translate(-1.21)" fill="url(#linear-gradient-12)"/>
      </g>
    </g>
    <g id="Group_56" data-name="Group 56">
      <g id="Group_55" data-name="Group 55" clip-path="url(#clip-path)">
        <path id="Path_233" data-name="Path 233" d="M358.892,356.721h97.041s-14.1-28.414-48.521-31.143-48.52,31.143-48.52,31.143" transform="translate(161.811 146.721)" fill="#720f0f"/>
      </g>
    </g>
    <g id="Group_58" data-name="Group 58" transform="translate(462.624 460.28)">
      <g id="Group_57" data-name="Group 57" clip-path="url(#clip-path-25)">
        <rect id="Rectangle_43" data-name="Rectangle 43" width="158.028" height="44.772" fill="url(#linear-gradient-13)"/>
      </g>
    </g>
    <g id="Group_60" data-name="Group 60" transform="translate(149.956 286.464)">
      <g id="Group_59" data-name="Group 59" clip-path="url(#clip-path-26)">
        <rect id="Rectangle_44" data-name="Rectangle 44" width="352.213" height="220.701" transform="translate(-10.88 0)" fill="url(#linear-gradient-14)"/>
      </g>
    </g>
    <g id="Group_62" data-name="Group 62" transform="translate(181.828 303.078)">
      <g id="Group_61" data-name="Group 61" clip-path="url(#clip-path-27)">
        <rect id="Rectangle_45" data-name="Rectangle 45" width="314.186" height="204.087" transform="translate(-4.725 0)" fill="url(#linear-gradient-15)"/>
      </g>
    </g>
    <g id="Group_64" data-name="Group 64" transform="translate(169.996 146.694)">
      <g id="Group_63" data-name="Group 63" clip-path="url(#clip-path-28)">
        <rect id="Rectangle_46" data-name="Rectangle 46" width="108.25" height="95.214" fill="url(#linear-gradient-16)"/>
      </g>
    </g>
    <g id="Group_66" data-name="Group 66">
      <g id="Group_65" data-name="Group 65" clip-path="url(#clip-path)">
        <path id="Path_238" data-name="Path 238" d="M193.362,119.836s-4.228-13.051-12.373-14.433-15.92,14.187-15.92,14.187Z" transform="translate(74.423 47.483)" fill="#ff9b98"/>
      </g>
    </g>
    <g id="Group_68" data-name="Group 68" transform="translate(239.492 166.286)">
      <g id="Group_67" data-name="Group 67" clip-path="url(#clip-path-30)">
        <rect id="Rectangle_48" data-name="Rectangle 48" width="14.991" height="29.866" transform="translate(-1.812 9.438) rotate(-79.129)" fill="url(#linear-gradient-17)"/>
      </g>
    </g>
    <g id="Group_70" data-name="Group 70">
      <g id="Group_69" data-name="Group 69" clip-path="url(#clip-path)">
        <path id="Path_240" data-name="Path 240" d="M173.885,121.331s-3.028-5.29-8.1-5.381c0,0,4.268,4.316,8.1,5.381" transform="translate(74.744 52.278)" fill="#9f4a8b"/>
        <path id="Path_241" data-name="Path 241" d="M178.8,125.741s7.147-2.7,8.366-6.818a38.672,38.672,0,0,0-6.57-11.582s4.572,8.015,4.429,11.294c0,0-2.464,5.242-6.226,7.106" transform="translate(80.616 48.396)" fill="#cb4d7a"/>
        <path id="Path_242" data-name="Path 242" d="M177.025,66.09a20.99,20.99,0,0,1-6.166,10.234s-18.2,1.137-30.021,7.733c0,0,3.456-7.058,13.7-10.234,12.356-3.832,22.49-7.733,22.49-7.733" transform="translate(63.499 29.798)" fill="#ed2525"/>
      </g>
    </g>
    <g id="Group_72" data-name="Group 72" transform="translate(255.895 105.88)">
      <g id="Group_71" data-name="Group 71" clip-path="url(#clip-path-32)">
        <rect id="Rectangle_50" data-name="Rectangle 50" width="15.621" height="45.503" transform="translate(-0.063 0)" fill="url(#linear-gradient-18)"/>
      </g>
    </g>
    <g id="Group_74" data-name="Group 74">
      <g id="Group_73" data-name="Group 73" clip-path="url(#clip-path)">
        <path id="Path_244" data-name="Path 244" d="M165.328,88.664s5,9.021.292,18.063c0,0-13.2,2.179-20.078-9.042,0,0,5.458-9.021,19.787-9.021" transform="translate(65.619 39.975)" fill="#ffebed"/>
      </g>
    </g>
    <g id="Group_76" data-name="Group 76" transform="translate(211.16 120.597)">
      <g id="Group_75" data-name="Group 75" clip-path="url(#clip-path-34)">
        <rect id="Rectangle_52" data-name="Rectangle 52" width="19.487" height="17.064" transform="translate(0 0)" fill="url(#linear-gradient-19)"/>
      </g>
    </g>
    <g id="Group_78" data-name="Group 78">
      <g id="Group_77" data-name="Group 77" clip-path="url(#clip-path)">
        <path id="Path_246" data-name="Path 246" d="M175.8,100.542s4.537-11.646,12.731-12.1c0,0,2.166,7.279.914,13.191,0,0-1,5.914-5.1,5.686s-8.548-6.776-8.548-6.776" transform="translate(79.259 39.874)" fill="#ffebed"/>
      </g>
    </g>
    <g id="Group_80" data-name="Group 80" transform="translate(255.414 120.597)">
      <g id="Group_79" data-name="Group 79" clip-path="url(#clip-path-36)">
        <rect id="Rectangle_54" data-name="Rectangle 54" width="12.377" height="18.967" transform="translate(0)" fill="url(#linear-gradient-20)"/>
      </g>
    </g>
    <g id="Group_82" data-name="Group 82">
      <g id="Group_81" data-name="Group 81" clip-path="url(#clip-path)">
        <path id="Path_248" data-name="Path 248" d="M159.238,89.564s1.207,13.252-4.711,15.354c0,0-6.826-2.482-8.987-7.639,0,0,4.086-6.659,13.7-7.716" transform="translate(65.619 40.381)" fill="#9b1616"/>
        <path id="Path_249" data-name="Path 249" d="M184.665,89.564S187,102.836,181.684,105.9c0,0-4.978-3.183-5.888-5.861,0,0,3.069-8.142,8.869-10.471" transform="translate(79.26 40.381)" fill="#9b1616"/>
        <path id="Path_250" data-name="Path 250" d="M145.54,98.542s6.874-7.315,19.787-9.021l.959,2.208s5.191-3.412,3.98-4.575c-1.364-1.31-16.765.242-24.726,11.388" transform="translate(65.619 39.119)" fill="#131163"/>
        <path id="Path_251" data-name="Path 251" d="M175.8,101.589s3.4-9.47,12.731-12.1l.573,2.4s5.345-4.572,4.74-5.384c-1.026-1.374-13.679.357-18.044,15.09" transform="translate(79.259 38.826)" fill="#131163"/>
      </g>
    </g>
    <g id="Group_84" data-name="Group 84" transform="translate(224.958 180.463)">
      <g id="Group_83" data-name="Group 83" clip-path="url(#clip-path-38)">
        <rect id="Rectangle_56" data-name="Rectangle 56" width="22.312" height="42.753" transform="matrix(0.189, -0.982, 0.982, 0.189, -2.762, 14.379)" fill="url(#linear-gradient-21)"/>
      </g>
    </g>
    <g id="Group_86" data-name="Group 86">
      <g id="Group_85" data-name="Group 85" clip-path="url(#clip-path)">
        <path id="Path_253" data-name="Path 253" d="M151.807,95s4.151-1.248,7.069,0c0,0-4.483,1.426-7.069,0" transform="translate(68.444 42.582)" fill="#fff"/>
        <path id="Path_254" data-name="Path 254" d="M179.825,95.092s4.151-1.248,7.069,0c0,0-4.483,1.426-7.069,0" transform="translate(81.076 42.624)" fill="#fff"/>
        <path id="Path_255" data-name="Path 255" d="M184.784,75.108s-10.011,23.574-9.963,28.784,7.573,17.981,7.573,17.981-5.6-11.064-5.314-17.519,8.535-25.693,8.535-25.693Z" transform="translate(78.82 33.863)" fill="#cb4d7a"/>
        <path id="Path_256" data-name="Path 256" d="M178.8,90.589s4.846-18.764,9.963-21.641c3.768-2.117,2.07,13.908,2.07,13.908s.193-5-3.668-4.093S178.8,90.589,178.8,90.589" transform="translate(80.616 30.999)" fill="#ed2525"/>
        <path id="Path_257" data-name="Path 257" d="M342.819,210.67l118.572-4.094-24.109,62.773H318.017Z" transform="translate(143.382 93.137)" fill="#fff"/>
      </g>
    </g>
    <g id="Group_88" data-name="Group 88" transform="translate(526.928 309.605)">
      <g id="Group_87" data-name="Group 87" clip-path="url(#clip-path-40)">
        <rect id="Rectangle_58" data-name="Rectangle 58" width="21.407" height="21.397" transform="translate(-0.008 0)" fill="url(#linear-gradient-22)"/>
      </g>
    </g>
    <g id="Group_90" data-name="Group 90" transform="translate(534.36 316.91)">
      <g id="Group_89" data-name="Group 89" clip-path="url(#clip-path-41)">
        <rect id="Rectangle_59" data-name="Rectangle 59" width="6.735" height="7.093" transform="translate(-0.004 0)" fill="url(#linear-gradient-23)"/>
      </g>
    </g>
    <g id="Group_92" data-name="Group 92" transform="translate(509.479 323.448)">
      <g id="Group_91" data-name="Group 91" clip-path="url(#clip-path-42)">
        <rect id="Rectangle_60" data-name="Rectangle 60" width="27.511" height="27.597" transform="translate(0 0)" fill="url(#linear-gradient-24)"/>
      </g>
    </g>
    <g id="Group_94" data-name="Group 94" transform="translate(518.974 332.828)">
      <g id="Group_93" data-name="Group 93" clip-path="url(#clip-path-43)">
        <rect id="Rectangle_61" data-name="Rectangle 61" width="9.05" height="9.21" transform="translate(-0.158 0)" fill="url(#linear-gradient-25)"/>
      </g>
    </g>
    <g id="Group_101" data-name="Group 101">
      <g id="Group_100" data-name="Group 100" clip-path="url(#clip-path)">
        <g id="Group_99" data-name="Group 99" transform="translate(234.649 38.829)" opacity="0.5" style="mix-blend-mode: multiply;isolation: isolate">
          <g id="Group_98" data-name="Group 98">
            <g id="Group_97" data-name="Group 97" clip-path="url(#clip-path-45)">
              <g id="Group_96" data-name="Group 96" transform="translate(-0.001)">
                <g id="Group_95" data-name="Group 95" clip-path="url(#clip-path-46)">
                  <rect id="Rectangle_62" data-name="Rectangle 62" width="51.593" height="56.369" transform="translate(0)" fill="url(#linear-gradient-26)"/>
                </g>
              </g>
            </g>
          </g>
        </g>
      </g>
    </g>
    <g id="Group_103" data-name="Group 103" transform="translate(143.972 55.369)">
      <g id="Group_102" data-name="Group 102" clip-path="url(#clip-path-47)">
        <rect id="Rectangle_65" data-name="Rectangle 65" width="59.275" height="94.638" transform="translate(0 0)" fill="url(#linear-gradient-27)"/>
      </g>
    </g>
    <g id="Group_105" data-name="Group 105" transform="translate(138.987 127.313)">
      <g id="Group_104" data-name="Group 104" clip-path="url(#clip-path-48)">
        <rect id="Rectangle_66" data-name="Rectangle 66" width="47.994" height="53.974" transform="translate(-6.584 0.015) rotate(-0.959)" fill="url(#linear-gradient-28)"/>
      </g>
    </g>
    <g id="Group_107" data-name="Group 107" transform="translate(145.5 141.668)">
      <g id="Group_106" data-name="Group 106" clip-path="url(#clip-path-49)">
        <path id="Path_265" data-name="Path 265" d="M116.275,144.461,88.206,114.493l32.3-24.608,28.069,29.969Z" transform="translate(-105.731 -101.142)" fill="url(#linear-gradient-29)"/>
      </g>
    </g>
    <g id="Group_109" data-name="Group 109" transform="translate(140.175 125.324)">
      <g id="Group_108" data-name="Group 108" clip-path="url(#clip-path-50)">
        <rect id="Rectangle_67" data-name="Rectangle 67" width="35.344" height="25.255" transform="matrix(1, -0.017, 0.017, 1, -0.413, 0.007)" fill="url(#linear-gradient-30)"/>
      </g>
    </g>
    <g id="Group_111" data-name="Group 111" transform="translate(149.184 141.877)">
      <g id="Group_110" data-name="Group 110" clip-path="url(#clip-path-51)">
        <rect id="Rectangle_68" data-name="Rectangle 68" width="22.09" height="23.723" transform="matrix(0.775, -0.632, 0.632, 0.775, -13.175, 8.803)" fill="url(#linear-gradient-31)"/>
      </g>
    </g>
    <g id="Group_123" data-name="Group 123">
      <g id="Group_122" data-name="Group 122" clip-path="url(#clip-path)">
        <g id="Group_116" data-name="Group 116" transform="translate(169.996 146.694)" opacity="0.5" style="mix-blend-mode: multiply;isolation: isolate">
          <g id="Group_115" data-name="Group 115">
            <g id="Group_114" data-name="Group 114" clip-path="url(#clip-path-53)">
              <g id="Group_113" data-name="Group 113">
                <g id="Group_112" data-name="Group 112" clip-path="url(#clip-path-54)">
                  <rect id="Rectangle_69" data-name="Rectangle 69" width="87.027" height="95.214" transform="translate(0)" fill="url(#linear-gradient-32)"/>
                </g>
              </g>
            </g>
          </g>
        </g>
        <g id="Group_121" data-name="Group 121" transform="translate(232.08 176.847)" opacity="0.5" style="mix-blend-mode: multiply;isolation: isolate">
          <g id="Group_120" data-name="Group 120">
            <g id="Group_119" data-name="Group 119" clip-path="url(#clip-path-55)">
              <g id="Group_118" data-name="Group 118" transform="translate(0 0)">
                <g id="Group_117" data-name="Group 117" clip-path="url(#clip-path-56)">
                  <rect id="Rectangle_71" data-name="Rectangle 71" width="37.763" height="20.179" transform="translate(0 0)" fill="url(#linear-gradient-33)"/>
                </g>
              </g>
            </g>
          </g>
        </g>
      </g>
    </g>
    <g id="Group_125" data-name="Group 125" transform="translate(337.089 266.539)">
      <g id="Group_124" data-name="Group 124" clip-path="url(#clip-path-57)">
        <rect id="Rectangle_74" data-name="Rectangle 74" width="25.471" height="29.968" transform="translate(0 0)" fill="url(#linear-gradient-34)"/>
      </g>
    </g>
    <g id="Group_178" data-name="Group 178">
      <g id="Group_177" data-name="Group 177" clip-path="url(#clip-path)">
        <g id="Group_130" data-name="Group 130" transform="translate(325.443 288.529)" opacity="0.5" style="mix-blend-mode: multiply;isolation: isolate">
          <g id="Group_129" data-name="Group 129">
            <g id="Group_128" data-name="Group 128" clip-path="url(#clip-path-59)">
              <g id="Group_127" data-name="Group 127">
                <g id="Group_126" data-name="Group 126" clip-path="url(#clip-path-60)">
                  <rect id="Rectangle_75" data-name="Rectangle 75" width="14.04" height="35.597" transform="translate(0 0)" fill="url(#linear-gradient-35)"/>
                </g>
              </g>
            </g>
          </g>
        </g>
        <g id="Group_135" data-name="Group 135" transform="translate(262.072 312.609)" opacity="0.3" style="mix-blend-mode: multiply;isolation: isolate">
          <g id="Group_134" data-name="Group 134">
            <g id="Group_133" data-name="Group 133" clip-path="url(#clip-path-61)">
              <g id="Group_132" data-name="Group 132">
                <g id="Group_131" data-name="Group 131" clip-path="url(#clip-path-62)">
                  <rect id="Rectangle_77" data-name="Rectangle 77" width="70.39" height="103.333" transform="translate(0 0)" fill="url(#linear-gradient-36)"/>
                </g>
              </g>
            </g>
          </g>
        </g>
        <g id="Group_138" data-name="Group 138" transform="translate(175.11 422.445)" opacity="0.5">
          <g id="Group_137" data-name="Group 137">
            <g id="Group_136" data-name="Group 136" clip-path="url(#clip-path-63)">
              <path id="Path_274" data-name="Path 274" d="M158.218,291.983S148.555,321.9,120.694,326c0,0,3.755-17.969,11.259-24.559s22.413-12.483,26.265-9.46" transform="translate(-120.694 -291.168)" fill="#4723a9"/>
            </g>
          </g>
        </g>
        <g id="Group_143" data-name="Group 143" transform="translate(149.955 286.489)" opacity="0.3" style="mix-blend-mode: multiply;isolation: isolate">
          <g id="Group_142" data-name="Group 142">
            <g id="Group_141" data-name="Group 141" clip-path="url(#clip-path-64)">
              <g id="Group_140" data-name="Group 140" transform="translate(-0.001 0)">
                <g id="Group_139" data-name="Group 139" clip-path="url(#clip-path-65)">
                  <rect id="Rectangle_80" data-name="Rectangle 80" width="352.213" height="220.676" transform="translate(-10.879 0)" fill="url(#linear-gradient-37)"/>
                </g>
              </g>
            </g>
          </g>
        </g>
        <g id="Group_148" data-name="Group 148" transform="translate(447.006 472.835)" opacity="0.5" style="mix-blend-mode: multiply;isolation: isolate">
          <g id="Group_147" data-name="Group 147">
            <g id="Group_146" data-name="Group 146" clip-path="url(#clip-path-66)">
              <g id="Group_145" data-name="Group 145" transform="translate(0 0)">
                <g id="Group_144" data-name="Group 144" clip-path="url(#clip-path-67)">
                  <rect id="Rectangle_82" data-name="Rectangle 82" width="25.508" height="29.286" transform="translate(0 0)" fill="url(#linear-gradient-38)"/>
                </g>
              </g>
            </g>
          </g>
        </g>
        <g id="Group_153" data-name="Group 153" transform="translate(0 286.466)" opacity="0.5" style="mix-blend-mode: multiply;isolation: isolate">
          <g id="Group_152" data-name="Group 152">
            <g id="Group_151" data-name="Group 151" clip-path="url(#clip-path-68)">
              <g id="Group_150" data-name="Group 150" transform="translate(0)">
                <g id="Group_149" data-name="Group 149" clip-path="url(#clip-path-69)">
                  <rect id="Rectangle_84" data-name="Rectangle 84" width="221.396" height="328.662" transform="translate(-4.224)" fill="url(#linear-gradient-39)"/>
                </g>
              </g>
            </g>
          </g>
        </g>
        <g id="Group_156" data-name="Group 156" transform="translate(84.698 239.002)" opacity="0.5">
          <g id="Group_155" data-name="Group 155">
            <g id="Group_154" data-name="Group 154" clip-path="url(#clip-path-70)">
              <path id="Path_278" data-name="Path 278" d="M174.887,207.8s-59.874,23.743-87.171,22.808c-27.3-.913-29.338-18.414-29.338-18.414,14.813-28.64,45.3-47.462,45.3-47.462,36.877,12.34,71.207,43.069,71.207,43.069" transform="translate(-58.378 -164.731)" fill="#ed2525"/>
            </g>
          </g>
        </g>
        <g id="Group_161" data-name="Group 161" transform="translate(161.256 380.862)" opacity="0.3" style="mix-blend-mode: multiply;isolation: isolate">
          <g id="Group_160" data-name="Group 160">
            <g id="Group_159" data-name="Group 159" clip-path="url(#clip-path-71)">
              <g id="Group_158" data-name="Group 158" transform="translate(0 0)">
                <g id="Group_157" data-name="Group 157" clip-path="url(#clip-path-72)">
                  <rect id="Rectangle_87" data-name="Rectangle 87" width="133.006" height="77.727" transform="translate(-10.958 2.418) rotate(-12.445)" fill="url(#linear-gradient-40)"/>
                </g>
              </g>
            </g>
          </g>
        </g>
        <g id="Group_166" data-name="Group 166" transform="translate(58.175 422.445)" opacity="0.5" style="mix-blend-mode: multiply;isolation: isolate">
          <g id="Group_165" data-name="Group 165">
            <g id="Group_164" data-name="Group 164" clip-path="url(#clip-path-73)">
              <g id="Group_163" data-name="Group 163" transform="translate(0.001 0)">
                <g id="Group_162" data-name="Group 162" clip-path="url(#clip-path-74)">
                  <rect id="Rectangle_89" data-name="Rectangle 89" width="91.553" height="90.024" transform="matrix(0.254, -0.967, 0.967, 0.254, -18.527, 70.548)" fill="url(#linear-gradient-41)"/>
                </g>
              </g>
            </g>
          </g>
        </g>
        <g id="Group_171" data-name="Group 171" transform="translate(130 236.359)" opacity="0.3" style="mix-blend-mode: multiply;isolation: isolate">
          <g id="Group_170" data-name="Group 170">
            <g id="Group_169" data-name="Group 169" clip-path="url(#clip-path-75)">
              <g id="Group_168" data-name="Group 168" transform="translate(0 0)">
                <g id="Group_167" data-name="Group 167" clip-path="url(#clip-path-76)">
                  <rect id="Rectangle_91" data-name="Rectangle 91" width="79.795" height="42.722" transform="translate(0 0)" fill="url(#linear-gradient-42)"/>
                </g>
              </g>
            </g>
          </g>
        </g>
        <g id="Group_176" data-name="Group 176" transform="translate(119.586 423.163)" opacity="0.5" style="mix-blend-mode: multiply;isolation: isolate">
          <g id="Group_175" data-name="Group 175">
            <g id="Group_174" data-name="Group 174" clip-path="url(#clip-path-77)">
              <g id="Group_173" data-name="Group 173" transform="translate(0 0)">
                <g id="Group_172" data-name="Group 172" clip-path="url(#clip-path-78)">
                  <rect id="Rectangle_93" data-name="Rectangle 93" width="96.452" height="136.176" transform="translate(0 0)" fill="url(#linear-gradient-43)"/>
                </g>
              </g>
            </g>
          </g>
        </g>
      </g>
    </g>
    <g id="Group_180" data-name="Group 180" transform="translate(449.205 379.55)">
      <g id="Group_179" data-name="Group 179" clip-path="url(#clip-path-79)">
        <rect id="Rectangle_96" data-name="Rectangle 96" width="124.333" height="23.716" transform="translate(0)" fill="url(#linear-gradient-44)"/>
      </g>
    </g>
    <g id="Group_190" data-name="Group 190">
      <g id="Group_189" data-name="Group 189" clip-path="url(#clip-path)">
        <g id="Group_183" data-name="Group 183" transform="translate(493.295 387.959)" style="mix-blend-mode: soft-light;isolation: isolate">
          <g id="Group_182" data-name="Group 182">
            <g id="Group_181" data-name="Group 181" clip-path="url(#clip-path-81)">
              <path id="Path_284" data-name="Path 284" d="M342.426,267.4,340,273.548l33.715.747,2.439-6.9Z" transform="translate(-340.001 -267.399)" fill="#fff"/>
            </g>
          </g>
        </g>
        <g id="Group_188" data-name="Group 188" transform="translate(368.296 258.88)" opacity="0.82" style="mix-blend-mode: color-dodge;isolation: isolate">
          <g id="Group_187" data-name="Group 187">
            <g id="Group_186" data-name="Group 186" clip-path="url(#clip-path-82)">
              <g id="Group_185" data-name="Group 185">
                <g id="Group_184" data-name="Group 184" clip-path="url(#clip-path-83)">
                  <rect id="Rectangle_98" data-name="Rectangle 98" width="353.009" height="165.807" fill="url(#linear-gradient-45)"/>
                </g>
              </g>
            </g>
          </g>
        </g>
      </g>
    </g>
    <g id="Group_192" data-name="Group 192" transform="translate(465.797 476.545)">
      <g id="Group_191" data-name="Group 191" clip-path="url(#clip-path-84)">
        <rect id="Rectangle_101" data-name="Rectangle 101" width="34.134" height="23.513" transform="translate(0)" fill="url(#linear-gradient-46)"/>
      </g>
    </g>
    <g id="Group_199" data-name="Group 199">
      <g id="Group_198" data-name="Group 198" clip-path="url(#clip-path)">
        <path id="Path_287" data-name="Path 287" d="M433.28,342.8h-.145a21.861,21.861,0,0,1-8.37-3.188c-4.557-3.372-12.3-9.381-12.3-9.381s-10.294-1.047-16.512-.113L384.3,333.5l21.377-.7,7.363-.972s7.933,9.322,20.238,10.971" transform="translate(173.267 148.663)" fill="#e4688e"/>
        <path id="Path_288" data-name="Path 288" d="M422.921,329.081s-7.279-6.752-13.342-10.24c0,0,18.538,4.57,22.379,8.67,0,0-4.337,3.015-9.037,1.57" transform="translate(184.664 143.753)" fill="#e4688e"/>
        <g id="Group_197" data-name="Group 197" transform="translate(654.372 306.268)" opacity="0.2" style="mix-blend-mode: color-dodge;isolation: isolate">
          <g id="Group_196" data-name="Group 196">
            <g id="Group_195" data-name="Group 195" clip-path="url(#clip-path-86)">
              <g id="Group_194" data-name="Group 194">
                <g id="Group_193" data-name="Group 193" clip-path="url(#clip-path-87)">
                  <rect id="Rectangle_102" data-name="Rectangle 102" width="46.738" height="118.419" transform="translate(0 0)" fill="url(#linear-gradient-47)"/>
                </g>
              </g>
            </g>
          </g>
        </g>
        <path id="Path_290" data-name="Path 290" d="M315.542,396.629c-7.436,0-15.014-.884-19.62-2.607-3.383-1.268-5.1-2.961-5.111-5.036-.007-1.782,1.278-3.576,3.957-5.458-11.433-.788-24.045-1.454-36.1-2.091-61.882-3.266-102.434-6.168-102.289-16.36.051-3.488.184-12.762,137.175-18.716,67.172-2.921,135.186-3.575,135.865-3.579l.023,2.4c-.679,0-68.656.659-135.789,3.578-121.594,5.287-134.827,13.2-134.872,16.356-.125,8.641,57.753,11.7,100.014,13.925,15.327.81,28.566,1.535,39.591,2.332a80.067,80.067,0,0,1,8.329-3.659c43.983-16.862,186.053-8.5,192.083-8.133l-.146,2.394c-1.471-.086-147.576-8.692-191.077,7.98-1.626.627-3.071,1.219-4.354,1.783,20.949,1.66,32.747,3.7,34.3,7.379a2.859,2.859,0,0,1-.689,3.115c-2.6,2.97-11.832,4.4-21.286,4.4m-16.633-12.8c-5.177,2.816-5.7,4.561-5.7,5.151,0,.933,1.3,1.954,3.553,2.8,9.967,3.732,34.639,3,38.259-1.127.164-.189.348-.444.281-.6-1.207-2.867-16.6-4.762-36.395-6.224" transform="translate(70.504 154.548)" fill="#720f0f"/>
        <path id="Path_291" data-name="Path 291" d="M126.458,64.226a79.052,79.052,0,0,1-.216-18.448,23.9,23.9,0,0,1,2.751-9.026,7.52,7.52,0,0,1,3.758-3.318,14.091,14.091,0,0,1,4.776-1.011,62.606,62.606,0,0,1,9.32.457c3.042.271,6.065.512,9.081.506a59.315,59.315,0,0,0,17.764-2.651c2.887-.8,5.577-2.112,8.871-2.81a15.552,15.552,0,0,1,9.687,1.049,20.672,20.672,0,0,1,7.5,6.031,36.044,36.044,0,0,1,4.847,8.087,69.133,69.133,0,0,1,5.035,17.869c.788,6.11,1.129,12.363-.016,18.417a63.221,63.221,0,0,0-1.2-18.213,68.216,68.216,0,0,0-5.568-17.246c-2.684-5.277-6.233-10.548-11.529-12.852a13.173,13.173,0,0,0-8.292-.785c-2.712.58-5.609,1.979-8.612,2.857a61.683,61.683,0,0,1-18.51,2.53c-6.227-.015-12.408-1.258-18.3-1.323-2.922.1-5.837.7-7.288,3.26a22.982,22.982,0,0,0-2.871,8.358,87.809,87.809,0,0,0-1,18.261" transform="translate(56.719 12.439)" fill="#ff4a4a"/>
        <path id="Path_292" data-name="Path 292" d="M122.608,47.142l32.483-12.908L171.327,27.8c2.719-1.061,5.365-2.205,8.125-3.238l4.3-1.39c1.464-.355,2.983-.5,4.474-.762a29.262,29.262,0,0,1,17.48,3.838A31.655,31.655,0,0,1,217.88,39.241a38.332,38.332,0,0,1,4.19,17.174,47.634,47.634,0,0,1-3.536,17.142,50.538,50.538,0,0,0,2.3-17.1,36.965,36.965,0,0,0-4.662-16.293A31.291,31.291,0,0,0,204.57,28.234a26.933,26.933,0,0,0-16.094-3.322c-1.377.226-2.777.337-4.139.649L180.309,26.8c-2.707.971-5.428,2.1-8.148,3.125-5.449,2.076-10.881,4.192-16.39,6.107-10.977,3.922-22.005,7.707-33.162,11.106" transform="translate(55.279 10.047)" fill="#ff4a4a"/>
        <path id="Path_293" data-name="Path 293" d="M250.514,201.371s33.576-42.416,40.776-54.1c0,0-19.413,36.24-40.776,54.1" transform="translate(112.947 66.4)" fill="#ff4a4a"/>
        <path id="Path_294" data-name="Path 294" d="M270.381,154.3s6.648-1.28,9.571-4.84v2.6l2.379-2.6s-.553-5.48-1.835-7.016c0,0-1.172,6.617-10.115,11.856" transform="translate(121.905 64.22)" fill="#ff4a4a"/>
        <path id="Path_295" data-name="Path 295" d="M277.638,108.157l-9.57,26.435s8.813-14.182,9.57-26.435" transform="translate(120.862 48.764)" fill="#ff4a4a"/>
        <path id="Path_296" data-name="Path 296" d="M205.765,311.724s35.906-88.758,49.313-100.63c0,0-40.256,87.439-49.313,100.63" transform="translate(92.772 95.174)" fill="#ff4a4a"/>
        <path id="Path_297" data-name="Path 297" d="M199.539,121.891s-6.368,40.592-26.565,57.39c0,0,26.668-19.414,26.565-57.39" transform="translate(77.988 54.956)" fill="#ff4a4a"/>
        <path id="Path_298" data-name="Path 298" d="M222,306.522s16.74,5.328,62.711,15.843S391.2,336.532,391.2,336.532s-99-13.066-169.2-30.01" transform="translate(100.089 138.199)" fill="#ff4a4a"/>
        <path id="Path_299" data-name="Path 299" d="M350.387,329.857s75.665-13.243,79.989-12.527c0,0-18.417-2.867-79.989,12.527" transform="translate(157.976 142.977)" fill="#ff4a4a"/>
        <path id="Path_300" data-name="Path 300" d="M386.547,373v1.67H637.638l-1.613-1.615H386.631l-.084,1.615" transform="translate(174.28 168.173)" fill="#720f0f"/>
        <rect id="Rectangle_104" data-name="Rectangle 104" width="251.092" height="31.233" transform="translate(559.212 509.999)" fill="#ed2525"/>
        <line id="Line_1" data-name="Line 1" y1="1.663" transform="translate(810.305 509.997)" fill="#a02424"/>
        <path id="Path_301" data-name="Path 301" d="M482.905,351.489s56.922,1.761,56.922,31.269h52.755V351.524s-109.346.3-109.677-.035" transform="translate(217.724 158.473)"/>
        <path id="Path_302" data-name="Path 302" d="M387.049,374.656l-1.615-1.615h1.7s-.084,1.55-.084,1.615" transform="translate(173.778 168.19)" fill="#720f0f"/>
        <path id="Path_303" data-name="Path 303" d="M558.5,351.513l1.7,1.526-1.7.091s0-1.552,0-1.618" transform="translate(251.805 158.484)" fill="#a02424"/>
      </g>
    </g>
  </g>
</svg>
