<svg id="Group_6021" data-name="Group 6021" xmlns="http://www.w3.org/2000/svg" xmlns:xlink="http://www.w3.org/1999/xlink" width="138.374" height="121.507" viewBox="0 0 138.374 121.507">
  <defs>
    <clipPath id="clip-path">
      <rect id="Rectangle_637" data-name="Rectangle 637" width="138.374" height="121.507" fill="none"/>
    </clipPath>
  </defs>
  <path id="Path_8518" data-name="Path 8518" d="M9.684,32.4H6.944V13.69H3.235V10.95H9.684Z" transform="translate(-1.758 -5.949)" fill="#ed2525"/>
  <rect id="Rectangle_625" data-name="Rectangle 625" width="8.779" height="2.74" transform="translate(2.166 25.076)" fill="#ed2525"/>
  <path id="Path_8519" data-name="Path 8519" d="M47.986,33.9H36.933V12.45H47.986ZM38.3,32.526h8.313V13.82H38.3Z" transform="translate(-20.066 -6.764)" fill="#ed2525"/>
  <path id="Path_8520" data-name="Path 8520" d="M80.549,32.4h-2.74V13.69H74.1V10.95h6.448Z" transform="translate(-40.26 -5.949)" fill="#ed2525"/>
  <rect id="Rectangle_626" data-name="Rectangle 626" width="8.779" height="2.74" transform="translate(34.529 25.076)" fill="#ed2525"/>
  <path id="Path_8521" data-name="Path 8521" d="M189.717,33.9H178.664V12.45h11.053Zm-9.683-1.37h8.313V13.82h-8.313Z" transform="translate(-97.072 -6.764)" fill="#ed2525"/>
  <path id="Path_8522" data-name="Path 8522" d="M229.579,33.9H218.526V12.45h11.053Zm-9.683-1.37h8.313V13.82H219.9Z" transform="translate(-118.73 -6.764)" fill="#ed2525"/>
  <path id="Path_8523" data-name="Path 8523" d="M262.142,32.4H259.4V13.69h-3.708V10.95h6.448Z" transform="translate(-138.923 -5.949)" fill="#ed2525"/>
  <rect id="Rectangle_627" data-name="Rectangle 627" width="8.779" height="2.74" transform="translate(117.458 25.076)" fill="#ed2525"/>
  <path id="Path_8524" data-name="Path 8524" d="M111.553,100.78h-2.74V82.075H105.1v-2.74h6.448Z" transform="translate(-57.105 -43.104)" fill="#ed2525"/>
  <rect id="Rectangle_628" data-name="Rectangle 628" width="8.779" height="2.74" transform="translate(48.688 56.306)" fill="#ed2525"/>
  <path id="Path_8525" data-name="Path 8525" d="M149.855,102.281H138.8V80.835h11.053Zm-9.683-1.37h8.313V82.205h-8.313Z" transform="translate(-75.414 -43.919)" fill="#ed2525"/>
  <path id="Path_8526" data-name="Path 8526" d="M181.733,101.6h-1.37V82.2H175.97v-1.37h5.763Z" transform="translate(-95.608 -43.919)" fill="#ed2525"/>
  <rect id="Rectangle_629" data-name="Rectangle 629" width="8.779" height="1.37" transform="translate(81.051 56.991)" fill="#ed2525"/>
  <path id="Path_8527" data-name="Path 8527" d="M212.737,101.6h-1.37V82.2h-4.393v-1.37h5.763Z" transform="translate(-112.453 -43.919)" fill="#ed2525"/>
  <rect id="Rectangle_630" data-name="Rectangle 630" width="8.779" height="1.37" transform="translate(95.209 56.991)" fill="#ed2525"/>
  <path id="Path_8528" data-name="Path 8528" d="M244.426,100.78h-2.74V82.075h-3.708v-2.74h6.448Z" transform="translate(-129.298 -43.104)" fill="#ed2525"/>
  <rect id="Rectangle_631" data-name="Rectangle 631" width="8.779" height="2.74" transform="translate(109.368 56.306)" fill="#ed2525"/>
  <path id="Path_8529" data-name="Path 8529" d="M282.6,102.151H270.174V79.335H282.6Zm-9.683-2.74h6.943V82.075h-6.943Z" transform="translate(-146.791 -43.104)" fill="#ed2525"/>
  <path id="Path_8530" data-name="Path 8530" d="M12.553,170.666H1.5V149.22H12.553ZM2.87,169.3h8.313V150.59H2.87Z" transform="translate(-0.815 -81.074)" fill="#ed2525"/>
  <path id="Path_8531" data-name="Path 8531" d="M146.986,169.166h-2.74V150.46h-3.708v-2.74h6.448Z" transform="translate(-76.357 -80.259)" fill="#ed2525"/>
  <rect id="Rectangle_632" data-name="Rectangle 632" width="8.779" height="2.74" transform="translate(64.869 87.536)" fill="#ed2525"/>
  <path id="Path_8532" data-name="Path 8532" d="M185.157,170.536H172.734V147.72h12.423Zm-9.683-2.74h6.943V150.46h-6.943Z" transform="translate(-93.85 -80.259)" fill="#ed2525"/>
  <path id="Path_8533" data-name="Path 8533" d="M217.851,169.166h-2.74V150.46H211.4v-2.74h6.448Z" transform="translate(-114.859 -80.259)" fill="#ed2525"/>
  <rect id="Rectangle_633" data-name="Rectangle 633" width="8.779" height="2.74" transform="translate(97.232 87.536)" fill="#ed2525"/>
  <path id="Path_8534" data-name="Path 8534" d="M256.153,170.666H245.1V149.22h11.053Zm-9.683-1.37h8.313V150.59H246.47Z" transform="translate(-133.168 -81.074)" fill="#ed2525"/>
  <path id="Path_8535" data-name="Path 8535" d="M288.031,169.981h-1.37V150.59h-4.393v-1.37h5.763Z" transform="translate(-153.362 -81.074)" fill="#ed2525"/>
  <rect id="Rectangle_634" data-name="Rectangle 634" width="8.779" height="1.37" transform="translate(129.595 88.221)" fill="#ed2525"/>
  <path id="Path_8536" data-name="Path 8536" d="M2.74,218.846H9.683v17.335H2.74ZM0,238.922H12.423V216.106H0Z" transform="translate(0 -117.415)" fill="#ed2525"/>
  <path id="Path_8537" data-name="Path 8537" d="M185.287,239.052H174.234V217.606h11.053Zm-9.683-1.37h8.313V218.976H175.6Z" transform="translate(-94.665 -118.23)" fill="#ed2525"/>
  <path id="Path_8538" data-name="Path 8538" d="M217.166,238.367H215.8V218.976H211.4v-1.37h5.763Z" transform="translate(-114.859 -118.23)" fill="#ed2525"/>
  <rect id="Rectangle_635" data-name="Rectangle 635" width="8.779" height="1.37" transform="translate(97.232 119.452)" fill="#ed2525"/>
  <path id="Path_8539" data-name="Path 8539" d="M248.855,237.552h-2.74V218.846h-3.708v-2.74h6.448Z" transform="translate(-131.704 -117.415)" fill="#ed2525"/>
  <rect id="Rectangle_636" data-name="Rectangle 636" width="8.779" height="2.74" transform="translate(111.391 118.767)" fill="#ed2525"/>
  <g id="Group_6020" data-name="Group 6020">
    <g id="Group_6019" data-name="Group 6019" clip-path="url(#clip-path)">
      <path id="Path_8540" data-name="Path 8540" d="M71.341,214.857a11.741,11.741,0,1,1,4.478-.894,11.76,11.76,0,0,1-4.478.894m-.029-22.113a10.371,10.371,0,1,0,9.6,6.4,10.32,10.32,0,0,0-9.6-6.4" transform="translate(-32.373 -103.977)" fill="#ed2525"/>
      <path id="Path_8541" data-name="Path 8541" d="M63.4,212.921l-.418-1.012a4.008,4.008,0,0,0-3.733-2.45h-.091a4.019,4.019,0,0,0-3.752,2.451l-.419,1.01-.56-.123a22.347,22.347,0,0,1-7.29-3.02l-.484-.309.419-1.011a4.02,4.02,0,0,0-.928-4.394l-.053-.053a4.009,4.009,0,0,0-4.375-.911l-1.011.42-.31-.483a22.139,22.139,0,0,1-3.02-7.29l-.123-.56,1.012-.419a4.006,4.006,0,0,0,2.45-3.737v-.074a4.02,4.02,0,0,0-2.451-3.765l-1.011-.419.123-.56a22.388,22.388,0,0,1,3.02-7.29l.309-.483,1.011.418a4.02,4.02,0,0,0,4.394-.928l.053-.053a4.006,4.006,0,0,0,.911-4.375l-.419-1.012.483-.309a22.132,22.132,0,0,1,7.29-3.02l.56-.123.419,1.012a4.008,4.008,0,0,0,3.734,2.451h.089a4.02,4.02,0,0,0,3.753-2.451l.419-1.011.56.123a22.368,22.368,0,0,1,7.29,3.02l.483.31-.419,1.01a4.02,4.02,0,0,0,.928,4.394l.053.053a4,4,0,0,0,4.375.91l1.012-.42.309.484a22.125,22.125,0,0,1,3.02,7.291l.123.56-1.012.419a4.006,4.006,0,0,0-2.45,3.738v.079a4.018,4.018,0,0,0,2.451,3.758h0l1.01.419-.122.56a22.38,22.38,0,0,1-3.02,7.29l-.309.482-1.011-.417a4.019,4.019,0,0,0-4.395.928l-.053.053a4.006,4.006,0,0,0-.911,4.375l.419,1.012-.484.309a22.141,22.141,0,0,1-7.29,3.02Zm-4.15-4.831a5.374,5.374,0,0,1,4.975,3.24,20.681,20.681,0,0,0,5.8-2.4,5.372,5.372,0,0,1,1.231-5.814l.535.434-.486-.483a5.385,5.385,0,0,1,5.833-1.251,20.99,20.99,0,0,0,2.4-5.8A5.387,5.387,0,0,1,76.3,191v-.064a5.374,5.374,0,0,1,3.241-4.987,20.649,20.649,0,0,0-2.4-5.8,5.373,5.373,0,0,1-5.814-1.231l.434-.535-.483.486a5.387,5.387,0,0,1-1.251-5.833,20.987,20.987,0,0,0-5.8-2.4,5.387,5.387,0,0,1-4.993,3.24h-.091a5.374,5.374,0,0,1-4.976-3.241,20.628,20.628,0,0,0-5.8,2.4,5.373,5.373,0,0,1-1.231,5.814l-.535-.433.486.483a5.388,5.388,0,0,1-5.833,1.25,20.992,20.992,0,0,0-2.4,5.8,5.384,5.384,0,0,1,3.241,5.008v.071a5.375,5.375,0,0,1-3.241,4.981,20.657,20.657,0,0,0,2.4,5.8,5.377,5.377,0,0,1,5.814,1.231l-.434.535.483-.485a5.385,5.385,0,0,1,1.251,5.833,20.976,20.976,0,0,0,5.8,2.4,5.386,5.386,0,0,1,4.992-3.24h.094Z" transform="translate(-20.238 -91.842)" fill="#ed2525"/>
      <path id="Path_8542" data-name="Path 8542" d="M42.905,109.5a9.038,9.038,0,1,1,9.038-9.038,9.048,9.048,0,0,1-9.038,9.038m0-16.706a7.668,7.668,0,1,0,7.668,7.668,7.677,7.677,0,0,0-7.668-7.668" transform="translate(-18.401 -49.671)" fill="#ed2525"/>
      <path id="Path_8543" data-name="Path 8543" d="M32.773,107.878a17.6,17.6,0,0,1-3.006-.274l-.569-.1v-1.478a2.859,2.859,0,0,0-1.8-2.636l-.053-.022a2.874,2.874,0,0,0-3.152.586L23.149,105l-.471-.332a17.572,17.572,0,0,1-4.252-4.252l-.332-.471L19.14,98.9a2.869,2.869,0,0,0,.586-3.152l-.022-.053a2.86,2.86,0,0,0-2.636-1.8H15.591l-.1-.569a16.6,16.6,0,0,1,0-6.013l.1-.569h1.478a2.859,2.859,0,0,0,2.636-1.8l.022-.053a2.869,2.869,0,0,0-.586-3.152L18.093,80.7l.332-.472a17.579,17.579,0,0,1,4.252-4.252l.471-.333L24.2,76.69a2.872,2.872,0,0,0,3.152.587l.053-.022a2.859,2.859,0,0,0,1.8-2.636V73.141l.568-.1a16.429,16.429,0,0,1,6.013,0l.569.1v1.478a2.86,2.86,0,0,0,1.8,2.636l.053.022a2.87,2.87,0,0,0,3.152-.587L42.4,75.642l.471.333a17.587,17.587,0,0,1,4.252,4.252l.332.472-1.047,1.048a2.87,2.87,0,0,0-.587,3.152l.023.056a2.859,2.859,0,0,0,2.635,1.794h1.479l.1.569a16.575,16.575,0,0,1,0,6.013l-.1.569H48.477a2.86,2.86,0,0,0-2.636,1.8l-.022.053a2.869,2.869,0,0,0,.587,3.152l1.047,1.048-.332.471a17.58,17.58,0,0,1-4.252,4.252L42.4,105l-1.048-1.048a2.87,2.87,0,0,0-3.152-.586l-.053.022a2.86,2.86,0,0,0-1.8,2.636v1.478l-.569.1a17.593,17.593,0,0,1-3.006.274m-2.2-1.535a14.715,14.715,0,0,0,4.41,0v-.316a4.224,4.224,0,0,1,2.645-3.9l.311.612-.264-.632a4.234,4.234,0,0,1,4.649.881l.225.225a16.173,16.173,0,0,0,3.118-3.119l-.225-.225a4.234,4.234,0,0,1-.883-4.647l.016-.038a4.231,4.231,0,0,1,3.907-2.656h.316a14.827,14.827,0,0,0,0-4.41h-.316a4.226,4.226,0,0,1-3.9-2.644l-.019-.046a4.236,4.236,0,0,1,.881-4.65l.225-.225a16.21,16.21,0,0,0-3.118-3.118l-.225.225a4.235,4.235,0,0,1-4.649.882l.214-.653-.261.633a4.224,4.224,0,0,1-2.645-3.9V74.3a14.686,14.686,0,0,0-4.41,0v.316a4.225,4.225,0,0,1-2.644,3.9l-.063.026a4.227,4.227,0,0,1-4.633-.888L23,77.434a16.2,16.2,0,0,0-3.118,3.118l.225.225a4.235,4.235,0,0,1,.882,4.649l-.653-.214.633.262a4.226,4.226,0,0,1-3.9,2.644h-.316a14.826,14.826,0,0,0,0,4.41h.316a4.226,4.226,0,0,1,3.9,2.644l-.612.312.632-.264a4.234,4.234,0,0,1-.882,4.649l-.225.225A16.175,16.175,0,0,0,23,103.211l.224-.225a4.236,4.236,0,0,1,4.649-.881l-.213.653.261-.633a4.224,4.224,0,0,1,2.645,3.9Z" transform="translate(-8.268 -39.535)" fill="#ed2525"/>
      <path id="Path_8544" data-name="Path 8544" d="M125.877,32.766a8.1,8.1,0,1,1,8.1-8.1,8.111,8.111,0,0,1-8.1,8.1m0-14.832a6.731,6.731,0,1,0,6.731,6.731,6.739,6.739,0,0,0-6.731-6.731" transform="translate(-63.99 -8.999)" fill="#ed2525"/>
      <path id="Path_8545" data-name="Path 8545" d="M116.88,31.328a15.656,15.656,0,0,1-2.683-.245l-.568-.1V29.607a2.462,2.462,0,0,0-1.548-2.269l-.063-.027a2.466,2.466,0,0,0-2.7.511l-.975.976-.471-.333a15.687,15.687,0,0,1-3.794-3.793l-.332-.472.976-.975a2.472,2.472,0,0,0,.5-2.715l-.02-.047a2.463,2.463,0,0,0-2.269-1.548H101.56l-.1-.568a14.822,14.822,0,0,1,0-5.365l.1-.568h1.377a2.462,2.462,0,0,0,2.269-1.548l.02-.047a2.473,2.473,0,0,0-.5-2.715l-.976-.975.332-.472a15.687,15.687,0,0,1,3.794-3.793l.471-.332.975.975a2.473,2.473,0,0,0,2.715.5l.061-.025a2.459,2.459,0,0,0,1.534-2.264V.345l.568-.1a14.716,14.716,0,0,1,5.366,0l.568.1V1.722a2.462,2.462,0,0,0,1.548,2.269l.051.021a2.468,2.468,0,0,0,2.711-.506l.976-.975.471.332a15.677,15.677,0,0,1,3.794,3.793l.332.472-.976.975a2.473,2.473,0,0,0-.5,2.715l.021.049a2.461,2.461,0,0,0,2.268,1.546H132.2l.1.569a14.789,14.789,0,0,1,0,5.364l-.1.569h-1.377a2.462,2.462,0,0,0-2.269,1.548l-.02.047a2.472,2.472,0,0,0,.5,2.715l.976.975-.332.472a15.677,15.677,0,0,1-3.794,3.793l-.471.332-.976-.976a2.473,2.473,0,0,0-2.715-.5l-.047.02a2.462,2.462,0,0,0-1.548,2.269v1.377l-.568.1a15.66,15.66,0,0,1-2.683.245M115,29.822a12.979,12.979,0,0,0,3.762,0v-.214a3.829,3.829,0,0,1,2.395-3.536l.306.615-.264-.632a3.838,3.838,0,0,1,4.211.8l.153.152a14.31,14.31,0,0,0,2.66-2.66l-.152-.152a3.837,3.837,0,0,1-.8-4.212l.02-.048a3.825,3.825,0,0,1,3.533-2.389h.214a13.018,13.018,0,0,0,0-3.761h-.214a3.828,3.828,0,0,1-3.536-2.4,3.856,3.856,0,0,1,.782-4.254l.153-.152a14.34,14.34,0,0,0-2.66-2.66l-.152.153a3.836,3.836,0,0,1-4.211.8,3.846,3.846,0,0,1-2.437-3.553V1.508a13,13,0,0,0-3.762,0v.214A3.83,3.83,0,0,1,112.6,5.258a3.855,3.855,0,0,1-4.254-.783l-.152-.152a14.308,14.308,0,0,0-2.66,2.659l.152.152a3.839,3.839,0,0,1,.8,4.212,3.845,3.845,0,0,1-3.553,2.437h-.214a13.063,13.063,0,0,0,0,3.761h.214a3.828,3.828,0,0,1,3.536,2.395l-.615.306.632-.264a3.837,3.837,0,0,1-.8,4.212l-.152.152a14.324,14.324,0,0,0,2.66,2.66l.152-.152a3.843,3.843,0,0,1,4.211-.8l-.219.651.262-.633A3.83,3.83,0,0,1,115,29.607Z" transform="translate(-54.993)" fill="#ed2525"/>
    </g>
  </g>
</svg>
