<svg xmlns="http://www.w3.org/2000/svg" xmlns:xlink="http://www.w3.org/1999/xlink" width="957.578" height="759.039" viewBox="0 0 957.578 759.039">
  <defs>
    <linearGradient id="linear-gradient" y1="0.5" x2="1" y2="0.5" gradientUnits="objectBoundingBox">
      <stop offset="0" stop-color="#d4088c"/>
      <stop offset="0.226" stop-color="#d4088c"/>
      <stop offset="0.511" stop-color="#6ee1f8"/>
      <stop offset="0.78" stop-color="#6ee8fc"/>
      <stop offset="1" stop-color="#6ee8fc"/>
    </linearGradient>
    <linearGradient id="linear-gradient-2" x1="-0.095" y1="0.5" x2="1.124" y2="0.5" gradientUnits="objectBoundingBox">
      <stop offset="0" stop-color="#a31fa9"/>
      <stop offset="0.067" stop-color="#8a16a0"/>
      <stop offset="0.149" stop-color="#740f98"/>
      <stop offset="0.239" stop-color="#640a92"/>
      <stop offset="0.341" stop-color="#5a068f"/>
      <stop offset="0.478" stop-color="#58068e"/>
      <stop offset="0.626" stop-color="#4d21a3"/>
      <stop offset="0.944" stop-color="#3167d9"/>
      <stop offset="1" stop-color="#2c75e4"/>
    </linearGradient>
    <linearGradient id="linear-gradient-3" x1="3.646" y1="11.546" x2="4.22" y2="10.684" gradientUnits="objectBoundingBox">
      <stop offset="0" stop-color="#8d139b"/>
      <stop offset="0.165" stop-color="#841ba1"/>
      <stop offset="0.428" stop-color="#6d32b1"/>
      <stop offset="0.755" stop-color="#4958cc"/>
      <stop offset="1" stop-color="#2979e4"/>
    </linearGradient>
    <linearGradient id="linear-gradient-5" x1="3.451" y1="11.592" x2="4.026" y2="10.73" xlink:href="#linear-gradient-3"/>
    <linearGradient id="linear-gradient-7" x1="3.256" y1="11.637" x2="3.831" y2="10.775" xlink:href="#linear-gradient-3"/>
    <radialGradient id="radial-gradient" cx="0.5" cy="0.5" r="0.707" gradientTransform="translate(0.211) scale(0.577 1)" gradientUnits="objectBoundingBox">
      <stop offset="0" stop-color="#ed3237"/>
      <stop offset="0.488" stop-color="#ea3237"/>
      <stop offset="0.696" stop-color="#e33237"/>
      <stop offset="0.851" stop-color="#d73237"/>
      <stop offset="0.979" stop-color="#c53237"/>
      <stop offset="1" stop-color="#c23237"/>
    </radialGradient>
    <radialGradient id="radial-gradient-2" cx="0.5" cy="0.5" r="0.5" gradientTransform="matrix(0.408, 0.707, -0.471, 0.817, 7.15, -0.1)" xlink:href="#radial-gradient"/>
    <linearGradient id="linear-gradient-9" x1="3.784" y1="10.857" x2="4.359" y2="9.995" xlink:href="#linear-gradient-3"/>
    <linearGradient id="linear-gradient-11" x1="3.589" y1="10.902" x2="4.164" y2="10.04" xlink:href="#linear-gradient-3"/>
    <linearGradient id="linear-gradient-13" x1="3.394" y1="10.947" x2="3.969" y2="10.085" xlink:href="#linear-gradient-3"/>
    <linearGradient id="linear-gradient-15" x1="3.199" y1="10.992" x2="3.774" y2="10.13" gradientUnits="objectBoundingBox">
      <stop offset="0" stop-color="#267fe5"/>
      <stop offset="0.17" stop-color="#2c87e6"/>
      <stop offset="0.441" stop-color="#3d9eeb"/>
      <stop offset="0.777" stop-color="#58c4f2"/>
      <stop offset="1" stop-color="#6ee1f8"/>
    </linearGradient>
    <linearGradient id="linear-gradient-16" y1="0.5" x2="1" y2="0.5" gradientUnits="objectBoundingBox">
      <stop offset="0" stop-color="#6de0f6"/>
      <stop offset="0.159" stop-color="#67d7f4"/>
      <stop offset="0.414" stop-color="#59c0f0"/>
      <stop offset="0.729" stop-color="#429aea"/>
      <stop offset="1" stop-color="#2c75e4"/>
    </linearGradient>
    <linearGradient id="linear-gradient-18" x1="4.327" y1="12.05" x2="4.902" y2="11.188" xlink:href="#linear-gradient-3"/>
    <linearGradient id="linear-gradient-20" x1="4.132" y1="12.095" x2="4.707" y2="11.233" xlink:href="#linear-gradient-3"/>
    <linearGradient id="linear-gradient-22" x1="3.938" y1="12.14" x2="4.512" y2="11.278" xlink:href="#linear-gradient-3"/>
    <linearGradient id="linear-gradient-24" x1="3.743" y1="12.185" x2="4.317" y2="11.323" xlink:href="#linear-gradient-15"/>
    <linearGradient id="linear-gradient-27" x1="4.466" y1="11.36" x2="5.04" y2="10.498" xlink:href="#linear-gradient-3"/>
    <linearGradient id="linear-gradient-29" x1="4.271" y1="11.405" x2="4.845" y2="10.543" xlink:href="#linear-gradient-3"/>
    <linearGradient id="linear-gradient-31" x1="4.076" y1="11.45" x2="4.651" y2="10.588" xlink:href="#linear-gradient-3"/>
    <linearGradient id="linear-gradient-33" x1="3.881" y1="11.496" x2="4.456" y2="10.634" xlink:href="#linear-gradient-15"/>
    <linearGradient id="linear-gradient-36" x1="-0.095" y1="0.5" x2="1.124" y2="0.5" xlink:href="#linear-gradient"/>
    <linearGradient id="linear-gradient-37" x1="4.472" y1="16.419" x2="5.046" y2="15.557" xlink:href="#linear-gradient-3"/>
  </defs>
  <g id="Group_6660" data-name="Group 6660" transform="translate(-267.811 -138.05)">
    <path id="Path_9812" data-name="Path 9812" d="M551.556,486.5c-7.124,0-13.929-1.438-19.012-4.37l-151.491-87.46c-5.182-2.995-8.03-7.2-8.03-11.857,0-5.5,4.027-10.986,11.049-15.04L529.522,283.8c12.838-7.408,32.37-8.192,43.541-1.742l151.5,87.464c5.178,2.991,8.03,7.2,8.03,11.853,0,5.5-4.027,10.99-11.049,15.04L576.089,480.4C569.087,484.435,560.095,486.5,551.556,486.5Zm2.5-205.825a47.308,47.308,0,0,0-23.016,5.753L385.588,370.408c-6.052,3.5-9.528,8.019-9.528,12.408,0,3.523,2.313,6.8,6.513,9.224L534.065,479.5c10.336,5.974,28.5,5.186,40.5-1.738l145.451-83.981c6.056-3.5,9.532-8.019,9.532-12.408,0-3.523-2.313-6.8-6.513-9.221L571.546,284.689C566.884,281.994,560.623,280.678,554.058,280.678Z" transform="translate(309.359 410.586)" fill="url(#linear-gradient)"/>
    <g id="Group_6652" data-name="Group 6652" transform="translate(507.328 138.05)">
      <g id="Group_6632" data-name="Group 6632" transform="translate(208.036)">
        <path id="Path_9813" data-name="Path 9813" d="M516.419,399.748,387.585,325.366c-9.157-5.288-8.011-14.524,2.565-20.632l123.7-71.415c10.58-6.108,26.578-6.77,35.739-1.482l128.83,74.378c9.161,5.292,8.011,14.528-2.565,20.636l-123.7,71.415C541.578,404.374,525.576,405.036,516.419,399.748Z" transform="translate(-381.365 127.219)" fill="#0c0f38"/>
        <g id="Group_6628" data-name="Group 6628" transform="translate(0 261.879)" opacity="0.4">
          <path id="Path_9814" data-name="Path 9814" d="M684.571,260.031H620.678l-71.124-41.063c-9.157-5.292-25.159-4.626-35.735,1.482l-68.558,39.581H381.4v42.891h.024c-.264,3.578,1.734,7.034,6.135,9.575l128.83,74.382c9.161,5.288,25.159,4.622,35.739-1.481l123.7-71.415c5.493-3.176,8.417-7.191,8.7-11.061h.047Z" transform="translate(-381.373 -172.503)" fill="url(#linear-gradient-2)"/>
          <path id="Path_9815" data-name="Path 9815" d="M385.454,305.877h-.02V262.986h63.858l68.558-39.581c10.576-6.108,26.578-6.77,35.739-1.482l71.124,41.063h59.858v-2.955H620.678l-71.124-41.063c-9.157-5.292-25.159-4.626-35.735,1.482l-68.558,39.581H381.4v42.891h.024c-.264,3.578,1.734,7.034,6.135,9.575l.725.418A8.971,8.971,0,0,1,385.454,305.877Z" transform="translate(-381.373 -172.503)" fill="#d4088c"/>
          <path id="Path_9816" data-name="Path 9816" d="M516.407,375.992l-128.83-74.378c-9.161-5.292-8.011-14.528,2.565-20.636l123.7-71.415c10.576-6.108,26.578-6.77,35.735-1.482l128.834,74.382c9.157,5.288,8.011,14.524-2.565,20.632l-123.7,71.415C541.566,380.618,525.568,381.28,516.407,375.992Z" transform="translate(-381.392 -204.511)" fill="url(#linear-gradient-3)"/>
          <path id="Path_9817" data-name="Path 9817" d="M567.96,282.453,439.126,208.07c-4.744-2.739-11.325-3.866-18.035-3.483a29.941,29.941,0,0,1,13,3.483l128.83,74.382c9.161,5.288,8.011,14.524-2.565,20.632L436.655,374.5a40.768,40.768,0,0,1-17.7,4.969c7.735.465,16.258-1.222,22.744-4.969l123.7-71.415C575.971,296.977,577.117,287.741,567.96,282.453Z" transform="translate(-270.945 -204.5)" fill="#6ee8fc"/>
          <path id="Path_9818" data-name="Path 9818" d="M504.114,342.4a24.682,24.682,0,0,1-12.1-2.782L396.1,284.235c-3.322-1.919-5.154-4.63-5.154-7.625,0-3.538,2.577-7.049,7.065-9.646L490.1,213.8c8.164-4.713,20.6-5.205,27.709-1.1l95.912,55.378c3.326,1.919,5.158,4.622,5.158,7.621,0,3.539-2.577,7.053-7.069,9.65l-92.09,53.167A32.065,32.065,0,0,1,504.114,342.4Zm-11-4.693c6.505,3.759,17.948,3.267,25.506-1.1l92.09-53.167c3.791-2.191,5.962-5.008,5.962-7.739,0-2.171-1.438-4.2-4.051-5.714L516.7,214.6c-6.509-3.755-17.948-3.259-25.5,1.107l-92.09,53.167c-3.791,2.183-5.966,5-5.966,7.735,0,2.175,1.438,4.208,4.055,5.717Z" transform="translate(-353.311 -188.626)" fill="#480689"/>
          <path id="Path_9819" data-name="Path 9819" d="M522.188,375.991l-128.83-74.378c-9.161-5.292-8.015-14.528,2.565-20.636l123.692-71.415a40.635,40.635,0,0,1,17.42-4.945c-7.853-.563-16.585,1.127-23.2,4.945l-123.7,71.415c-10.576,6.108-11.727,15.344-2.565,20.636l128.83,74.378c4.811,2.778,11.51,3.9,18.319,3.468A29.621,29.621,0,0,1,522.188,375.991Z" transform="translate(-381.392 -204.51)" fill="#d4088c"/>
        </g>
        <g id="Group_6629" data-name="Group 6629" transform="translate(0 202.797)" opacity="0.5">
          <path id="Path_9820" data-name="Path 9820" d="M684.571,245.034H620.678l-71.124-41.063c-9.157-5.288-25.159-4.622-35.735,1.482l-68.558,39.581H381.4v42.895h.024c-.264,3.578,1.734,7.034,6.135,9.575l128.83,74.378c9.161,5.288,25.159,4.626,35.739-1.482l123.7-71.415c5.493-3.172,8.417-7.187,8.7-11.057h.047Z" transform="translate(-381.373 -157.51)" fill="url(#linear-gradient-2)"/>
          <path id="Path_9821" data-name="Path 9821" d="M385.454,290.884h-.02V247.993h63.858l68.558-39.581c10.576-6.108,26.578-6.773,35.739-1.482l71.124,41.062h59.858v-2.959H620.678l-71.124-41.063c-9.157-5.288-25.159-4.622-35.735,1.482l-68.558,39.581H381.4v42.895h.024c-.264,3.578,1.734,7.034,6.135,9.575l.725.418A8.976,8.976,0,0,1,385.454,290.884Z" transform="translate(-381.373 -157.51)" fill="#d4088c"/>
          <path id="Path_9822" data-name="Path 9822" d="M516.407,361l-128.83-74.382c-9.161-5.288-8.011-14.524,2.565-20.632l123.7-71.415c10.576-6.108,26.578-6.77,35.735-1.482L678.407,267.47c9.157,5.288,8.011,14.524-2.565,20.632l-123.7,71.415C541.566,365.624,525.568,366.286,516.407,361Z" transform="translate(-381.392 -189.517)" fill="url(#linear-gradient-5)"/>
          <path id="Path_9823" data-name="Path 9823" d="M567.96,267.46,439.126,193.077c-4.744-2.739-11.325-3.869-18.035-3.483a29.89,29.89,0,0,1,13,3.483l128.83,74.382c9.161,5.288,8.011,14.524-2.565,20.632l-123.7,71.415a40.712,40.712,0,0,1-17.7,4.965c7.735.469,16.258-1.221,22.744-4.965l123.7-71.415C575.971,281.984,577.117,272.747,567.96,267.46Z" transform="translate(-270.945 -189.507)" fill="#6ee8fc"/>
          <path id="Path_9824" data-name="Path 9824" d="M504.11,327.4a24.709,24.709,0,0,1-12.1-2.782L396.1,269.242c-3.322-1.919-5.154-4.63-5.154-7.633,0-3.531,2.577-7.049,7.065-9.638L490.1,198.8c8.164-4.7,20.592-5.205,27.709-1.1l95.912,55.378c3.326,1.919,5.158,4.622,5.158,7.621,0,3.538-2.577,7.053-7.069,9.646l-92.09,53.171A32.079,32.079,0,0,1,504.11,327.4Zm-11-4.693c6.505,3.759,17.944,3.263,25.506-1.1l92.09-53.167c3.791-2.191,5.962-5.012,5.962-7.739,0-2.175-1.438-4.2-4.051-5.714L516.7,199.608c-6.506-3.751-17.945-3.263-25.5,1.1l-92.09,53.175c-3.791,2.183-5.966,5-5.966,7.727,0,2.183,1.438,4.216,4.055,5.725Z" transform="translate(-353.311 -173.633)" fill="#480689"/>
          <path id="Path_9825" data-name="Path 9825" d="M522.188,361l-128.83-74.382c-9.161-5.288-8.015-14.524,2.565-20.632l123.692-71.415a40.636,40.636,0,0,1,17.42-4.945c-7.853-.563-16.585,1.127-23.2,4.945l-123.7,71.415c-10.576,6.108-11.727,15.344-2.565,20.632L516.407,361c4.811,2.778,11.51,3.9,18.319,3.464A29.563,29.563,0,0,1,522.188,361Z" transform="translate(-381.392 -189.516)" fill="#d4088c"/>
        </g>
        <g id="Group_6630" data-name="Group 6630" transform="translate(0 143.713)" opacity="0.7">
          <path id="Path_9826" data-name="Path 9826" d="M684.571,230.041H620.678l-71.124-41.063c-9.157-5.288-25.159-4.626-35.735,1.482l-68.558,39.581H381.4v42.891h.024c-.264,3.582,1.734,7.034,6.135,9.575l128.83,74.382c9.161,5.288,25.159,4.626,35.739-1.482l123.7-71.415c5.493-3.172,8.417-7.187,8.7-11.061h.047Z" transform="translate(-381.373 -142.515)" fill="url(#linear-gradient-2)"/>
          <path id="Path_9827" data-name="Path 9827" d="M385.454,275.891h-.02V233h63.858l68.558-39.581c10.576-6.108,26.578-6.77,35.739-1.482L624.713,233h59.858v-2.955H620.678l-71.124-41.063c-9.157-5.288-25.159-4.626-35.735,1.482l-68.558,39.581H381.4v42.891h.024c-.264,3.582,1.734,7.034,6.135,9.575l.725.418A8.968,8.968,0,0,1,385.454,275.891Z" transform="translate(-381.373 -142.515)" fill="#d4088c"/>
          <path id="Path_9828" data-name="Path 9828" d="M516.407,346.005l-128.83-74.382c-9.161-5.288-8.011-14.528,2.565-20.632l123.7-71.415c10.576-6.108,26.578-6.773,35.735-1.482l128.834,74.378c9.157,5.288,8.011,14.528-2.565,20.636l-123.7,71.415C541.566,350.627,525.568,351.293,516.407,346.005Z" transform="translate(-381.392 -174.522)" fill="url(#linear-gradient-7)"/>
          <path id="Path_9829" data-name="Path 9829" d="M567.96,252.464,439.126,178.085c-4.744-2.743-11.325-3.869-18.035-3.487a29.89,29.89,0,0,1,13,3.487l128.83,74.378c9.161,5.288,8.011,14.528-2.565,20.636l-123.7,71.415a40.765,40.765,0,0,1-17.7,4.965c7.735.465,16.258-1.222,22.744-4.965l123.7-71.415C575.971,266.992,577.117,257.752,567.96,252.464Z" transform="translate(-270.945 -174.513)" fill="#6ee8fc"/>
          <path id="Path_9830" data-name="Path 9830" d="M504.114,312.413a24.725,24.725,0,0,1-12.1-2.786L396.1,254.249c-3.322-1.919-5.154-4.626-5.154-7.625,0-3.535,2.577-7.053,7.065-9.646l92.09-53.167c8.164-4.717,20.6-5.213,27.709-1.1l95.912,55.374c3.326,1.923,5.158,4.626,5.158,7.625,0,3.535-2.577,7.053-7.069,9.646l-92.09,53.167A32.067,32.067,0,0,1,504.114,312.413Zm1.588-130.32a29.809,29.809,0,0,0-14.5,3.625l-92.09,53.167c-3.791,2.191-5.966,5.012-5.966,7.739,0,2.179,1.442,4.208,4.055,5.717l95.913,55.374c6.505,3.755,17.948,3.267,25.506-1.1l92.09-53.167c3.791-2.191,5.962-5.012,5.962-7.739,0-2.175-1.438-4.2-4.051-5.714L516.7,184.619A22.374,22.374,0,0,0,505.7,182.093Z" transform="translate(-353.311 -158.642)" fill="#480689"/>
          <path id="Path_9831" data-name="Path 9831" d="M522.188,346.005l-128.83-74.382c-9.161-5.288-8.015-14.528,2.565-20.632l123.692-71.415a40.64,40.64,0,0,1,17.42-4.949c-7.853-.56-16.585,1.131-23.2,4.949l-123.7,71.415c-10.576,6.1-11.727,15.344-2.565,20.632l128.83,74.382c4.811,2.778,11.51,3.9,18.319,3.464A29.563,29.563,0,0,1,522.188,346.005Z" transform="translate(-381.392 -174.522)" fill="#d4088c"/>
        </g>
        <g id="Group_6631" data-name="Group 6631">
          <path id="Path_9832" data-name="Path 9832" d="M684.571,193.569H620.678l-71.124-41.063c-9.157-5.288-25.159-4.626-35.735,1.482l-68.558,39.581H381.4V236.46h.024c-.264,3.582,1.734,7.034,6.135,9.575l128.83,74.382c9.161,5.288,25.159,4.626,35.739-1.482l123.7-71.415c5.493-3.172,8.417-7.187,8.7-11.061h.047Z" transform="translate(-381.373 -106.043)" fill="url(#radial-gradient)"/>
          <path id="Path_9833" data-name="Path 9833" d="M385.454,239.419h-.02V196.524h63.858l68.558-39.581c10.576-6.108,26.578-6.77,35.739-1.482l71.124,41.063h59.858v-2.955H620.678l-71.124-41.063c-9.157-5.288-25.159-4.626-35.735,1.482l-68.558,39.581H381.4V236.46h.024c-.264,3.582,1.734,7.034,6.135,9.575l.725.422A8.98,8.98,0,0,1,385.454,239.419Z" transform="translate(-381.373 -106.043)"/>
          <path id="Path_9834" data-name="Path 9834" d="M516.407,309.532,387.577,235.15c-9.161-5.288-8.011-14.528,2.565-20.632l123.7-71.415c10.576-6.107,26.578-6.769,35.735-1.482L678.407,216c9.157,5.288,8.011,14.528-2.565,20.636l-123.7,71.415C541.566,314.154,525.568,314.82,516.407,309.532Z" transform="translate(-381.392 -138.049)" fill="url(#radial-gradient-2)"/>
          <path id="Path_9835" data-name="Path 9835" d="M567.96,215.992,439.126,141.613c-4.744-2.742-11.325-3.869-18.035-3.487a29.944,29.944,0,0,1,13,3.487l128.83,74.378c9.161,5.288,8.011,14.528-2.565,20.636l-123.7,71.415a40.765,40.765,0,0,1-17.7,4.965c7.735.465,16.258-1.221,22.744-4.965l123.7-71.415C575.971,230.52,577.117,221.28,567.96,215.992Z" transform="translate(-270.945 -138.041)"/>
          <path id="Path_9836" data-name="Path 9836" d="M491.744,271.394l-95.917-55.378c-6.821-3.936-5.966-10.812,1.911-15.36l92.09-53.171c7.873-4.543,19.785-5.04,26.605-1.1L612.35,201.76c6.817,3.936,5.962,10.816-1.911,15.363l-92.09,53.167C510.472,274.838,498.56,275.331,491.744,271.394Z" transform="translate(-352.489 -121.363)" fill="#ed2525"/>
          <path id="Path_9837" data-name="Path 9837" d="M522.188,309.533l-128.83-74.382c-9.161-5.288-8.015-14.528,2.565-20.632L519.615,143.1a40.639,40.639,0,0,1,17.42-4.949c-7.853-.56-16.585,1.131-23.2,4.949l-123.7,71.415c-10.576,6.1-11.727,15.344-2.565,20.632l128.83,74.382c4.811,2.778,11.51,3.9,18.319,3.464A29.563,29.563,0,0,1,522.188,309.533Z" transform="translate(-381.392 -138.05)"/>
        </g>
      </g>
      <g id="Group_6638" data-name="Group 6638" transform="translate(414.862 213.962)">
        <g id="Group_6633" data-name="Group 6633" transform="translate(0 177.25)" opacity="0.4">
          <path id="Path_9838" data-name="Path 9838" d="M737.059,292.852H673.166l-71.12-41.063c-9.161-5.288-25.163-4.626-35.739,1.482l-68.558,39.581H433.892v42.895h.02c-.264,3.578,1.734,7.034,6.135,9.571L568.877,419.7c9.161,5.288,25.163,4.626,35.739-1.482l123.7-71.415c5.493-3.172,8.42-7.187,8.7-11.057h.047Z" transform="translate(-433.862 -205.326)" fill="url(#linear-gradient-2)"/>
          <path id="Path_9839" data-name="Path 9839" d="M437.943,338.7h-.02V295.811h63.858l68.558-39.585c10.58-6.1,26.578-6.77,35.739-1.478L677.2,295.811H737.06v-2.959H673.167l-71.12-41.063c-9.161-5.288-25.163-4.626-35.739,1.482L497.75,292.852H433.888v42.895h.024c-.264,3.578,1.734,7.034,6.135,9.571l.725.422A8.989,8.989,0,0,1,437.943,338.7Z" transform="translate(-433.862 -205.326)" fill="#d4088c"/>
          <path id="Path_9840" data-name="Path 9840" d="M568.9,408.815l-128.83-74.382c-9.161-5.288-8.011-14.524,2.565-20.632l123.7-71.415c10.576-6.108,26.578-6.77,35.739-1.482L730.9,315.287c9.161,5.288,8.011,14.524-2.565,20.632l-123.7,71.415C594.06,413.441,578.058,414.1,568.9,408.815Z" transform="translate(-433.882 -237.332)" fill="url(#linear-gradient-9)"/>
          <path id="Path_9841" data-name="Path 9841" d="M620.449,315.278,491.619,240.9c-4.744-2.739-11.325-3.869-18.035-3.487a29.94,29.94,0,0,1,12.991,3.487l128.83,74.382c9.161,5.288,8.011,14.524-2.565,20.632l-123.7,71.415a40.766,40.766,0,0,1-17.7,4.965c7.735.465,16.258-1.221,22.744-4.965l123.7-71.415C628.46,329.8,629.61,320.566,620.449,315.278Z" transform="translate(-323.434 -237.324)" fill="#6ee8fc"/>
          <path id="Path_9842" data-name="Path 9842" d="M556.6,375.219a24.682,24.682,0,0,1-12.1-2.782L448.59,317.06c-3.326-1.919-5.158-4.622-5.158-7.621,0-3.538,2.573-7.053,7.065-9.646l92.09-53.171c8.164-4.717,20.6-5.209,27.709-1.1L666.213,300.9c3.322,1.919,5.154,4.63,5.154,7.629,0,3.535-2.577,7.049-7.065,9.642l-92.09,53.167A32.081,32.081,0,0,1,556.6,375.219Zm-11-4.689c6.51,3.755,17.952,3.267,25.506-1.1L663.2,316.256c3.787-2.183,5.962-5,5.962-7.731,0-2.179-1.442-4.212-4.055-5.721L569.2,247.429c-6.513-3.759-17.952-3.259-25.51,1.1L451.6,301.7c-3.791,2.191-5.962,5.008-5.962,7.739,0,2.179,1.442,4.2,4.055,5.714Z" transform="translate(-405.799 -221.452)" fill="#480689"/>
          <path id="Path_9843" data-name="Path 9843" d="M574.677,408.816l-128.83-74.382c-9.161-5.288-8.011-14.524,2.565-20.632l123.7-71.415a40.662,40.662,0,0,1,17.417-4.949c-7.853-.56-16.585,1.131-23.2,4.949L442.631,313.8c-10.576,6.108-11.726,15.344-2.565,20.632L568.9,408.816c4.811,2.778,11.51,3.9,18.319,3.464A29.563,29.563,0,0,1,574.677,408.816Z" transform="translate(-433.882 -237.333)" fill="#d4088c"/>
        </g>
        <g id="Group_6634" data-name="Group 6634" transform="translate(0 118.168)" opacity="0.5">
          <path id="Path_9844" data-name="Path 9844" d="M737.059,277.858H673.166L602.047,236.8c-9.161-5.288-25.163-4.626-35.739,1.482l-68.558,39.581H433.892v42.891h.02c-.264,3.582,1.734,7.034,6.135,9.575l128.83,74.382c9.161,5.288,25.163,4.626,35.739-1.481l123.7-71.415c5.493-3.172,8.42-7.191,8.7-11.061h.047Z" transform="translate(-433.862 -190.332)" fill="url(#linear-gradient-2)"/>
          <path id="Path_9845" data-name="Path 9845" d="M437.943,323.708h-.02V280.813h63.858l68.558-39.581c10.58-6.108,26.578-6.77,35.739-1.482L677.2,280.813H737.06v-2.955H673.167L602.047,236.8c-9.161-5.288-25.163-4.626-35.739,1.482L497.75,277.858H433.888v42.891h.024c-.264,3.582,1.734,7.034,6.135,9.575l.725.418A8.981,8.981,0,0,1,437.943,323.708Z" transform="translate(-433.862 -190.332)" fill="#d4088c"/>
          <path id="Path_9846" data-name="Path 9846" d="M568.9,393.819,440.066,319.44c-9.161-5.288-8.011-14.528,2.565-20.636l123.7-71.415c10.576-6.1,26.578-6.77,35.739-1.478L730.9,300.29c9.161,5.288,8.011,14.528-2.565,20.632l-123.7,71.419C594.06,398.445,578.058,399.111,568.9,393.819Z" transform="translate(-433.882 -222.339)" fill="url(#linear-gradient-11)"/>
          <path id="Path_9847" data-name="Path 9847" d="M620.449,300.281,491.619,225.9c-4.744-2.742-11.325-3.869-18.035-3.487a29.887,29.887,0,0,1,12.991,3.487l128.83,74.378c9.161,5.288,8.011,14.528-2.565,20.632l-123.7,71.419a40.767,40.767,0,0,1-17.7,4.965c7.735.465,16.258-1.222,22.744-4.965l123.7-71.419C628.46,314.809,629.61,305.569,620.449,300.281Z" transform="translate(-323.434 -222.33)" fill="#6ee8fc"/>
          <path id="Path_9848" data-name="Path 9848" d="M556.6,360.224a24.681,24.681,0,0,1-12.1-2.782L448.59,302.064c-3.326-1.919-5.158-4.626-5.158-7.625,0-3.538,2.577-7.049,7.065-9.646l92.09-53.167c8.164-4.717,20.6-5.205,27.709-1.1L666.213,285.9c3.322,1.919,5.154,4.626,5.154,7.621,0,3.538-2.577,7.053-7.065,9.65l-92.09,53.167A32.081,32.081,0,0,1,556.6,360.224Zm-11-4.689c6.51,3.755,17.952,3.263,25.506-1.107L663.2,301.261c3.787-2.187,5.962-5.008,5.962-7.739,0-2.171-1.442-4.2-4.055-5.714L569.2,232.43c-6.513-3.755-17.952-3.263-25.51,1.107L451.6,286.7c-3.787,2.187-5.962,5-5.962,7.735,0,2.175,1.438,4.208,4.055,5.717Z" transform="translate(-405.799 -206.457)" fill="#480689"/>
          <path id="Path_9849" data-name="Path 9849" d="M574.677,393.818,445.846,319.44c-9.161-5.288-8.011-14.528,2.565-20.636l123.7-71.415a40.657,40.657,0,0,1,17.417-4.945c-7.853-.56-16.585,1.131-23.2,4.945L442.631,298.8c-10.576,6.108-11.726,15.348-2.565,20.636L568.9,393.818c4.811,2.778,11.51,3.9,18.319,3.468A29.563,29.563,0,0,1,574.677,393.818Z" transform="translate(-433.882 -222.339)" fill="#d4088c"/>
        </g>
        <g id="Group_6635" data-name="Group 6635" transform="translate(0 59.084)" opacity="0.7">
          <path id="Path_9850" data-name="Path 9850" d="M737.059,262.866H673.166L602.047,221.8c-9.161-5.288-25.163-4.622-35.739,1.482l-68.558,39.585H433.892v42.891h.02c-.264,3.578,1.734,7.034,6.135,9.575l128.83,74.378c9.161,5.292,25.163,4.626,35.739-1.482l123.7-71.415c5.493-3.172,8.42-7.187,8.7-11.057h.047Z" transform="translate(-433.862 -175.338)" fill="url(#linear-gradient-2)"/>
          <path id="Path_9851" data-name="Path 9851" d="M437.943,308.712h-.02V265.821h63.858l68.558-39.581c10.58-6.108,26.578-6.77,35.739-1.482L677.2,265.821H737.06v-2.955H673.167L602.047,221.8c-9.161-5.288-25.163-4.622-35.739,1.482L497.75,262.866H433.888v42.891h.024c-.264,3.578,1.734,7.034,6.135,9.575l.725.418A8.989,8.989,0,0,1,437.943,308.712Z" transform="translate(-433.862 -175.338)" fill="#d4088c"/>
          <path id="Path_9852" data-name="Path 9852" d="M568.9,378.826l-128.83-74.382c-9.161-5.288-8.011-14.524,2.565-20.632l123.7-71.415c10.576-6.108,26.578-6.77,35.739-1.482L730.9,285.3c9.161,5.288,8.011,14.524-2.565,20.632l-123.7,71.415C594.06,383.452,578.058,384.114,568.9,378.826Z" transform="translate(-433.882 -207.345)" fill="url(#linear-gradient-13)"/>
          <path id="Path_9853" data-name="Path 9853" d="M620.449,285.288l-128.83-74.382c-4.744-2.739-11.325-3.869-18.035-3.483a29.884,29.884,0,0,1,12.991,3.483l128.83,74.382c9.161,5.288,8.011,14.524-2.565,20.632l-123.7,71.415a40.712,40.712,0,0,1-17.7,4.965c7.735.469,16.258-1.218,22.744-4.965l123.7-71.415C628.46,299.812,629.61,290.575,620.449,285.288Z" transform="translate(-323.434 -207.335)" fill="#6ee8fc"/>
          <path id="Path_9854" data-name="Path 9854" d="M556.6,345.229a24.666,24.666,0,0,1-12.1-2.782L448.59,287.069c-3.326-1.919-5.158-4.63-5.158-7.629,0-3.535,2.577-7.049,7.065-9.642l92.09-53.171c8.164-4.7,20.6-5.2,27.709-1.1l95.917,55.378c3.322,1.919,5.154,4.626,5.154,7.621,0,3.538-2.577,7.053-7.065,9.646l-92.09,53.171A32.1,32.1,0,0,1,556.6,345.229Zm-11-4.689c6.506,3.755,17.948,3.259,25.506-1.107L663.2,286.265c3.787-2.191,5.962-5.008,5.962-7.739,0-2.175-1.442-4.2-4.055-5.714L569.2,217.435c-6.505-3.751-17.948-3.263-25.51,1.1L451.6,271.709c-3.787,2.183-5.962,5-5.962,7.731,0,2.179,1.438,4.212,4.055,5.721Z" transform="translate(-405.799 -191.459)" fill="#480689"/>
          <path id="Path_9855" data-name="Path 9855" d="M574.677,378.825l-128.83-74.382c-9.161-5.288-8.011-14.524,2.565-20.632l123.7-71.415a40.6,40.6,0,0,1,17.417-4.945c-7.853-.563-16.585,1.127-23.2,4.945l-123.7,71.415c-10.576,6.108-11.726,15.344-2.565,20.632L568.9,378.825c4.811,2.778,11.51,3.9,18.319,3.468A29.62,29.62,0,0,1,574.677,378.825Z" transform="translate(-433.882 -207.344)" fill="#d4088c"/>
        </g>
        <g id="Group_6637" data-name="Group 6637">
          <path id="Path_9856" data-name="Path 9856" d="M737.059,247.869H673.166l-71.12-41.063c-9.161-5.288-25.163-4.626-35.739,1.482l-68.558,39.581H433.892v42.895h.02c-.264,3.578,1.734,7.034,6.135,9.571l128.83,74.382c9.161,5.288,25.163,4.626,35.739-1.482l123.7-71.415c5.493-3.172,8.42-7.187,8.7-11.057h.047Z" transform="translate(-433.862 -160.343)" fill="url(#linear-gradient-2)"/>
          <path id="Path_9857" data-name="Path 9857" d="M437.943,293.719h-.02V250.828h63.858l68.558-39.585c10.58-6.1,26.578-6.77,35.739-1.482L677.2,250.828H737.06v-2.959H673.167l-71.12-41.063c-9.161-5.288-25.163-4.626-35.739,1.482L497.75,247.869H433.888v42.895h.024c-.264,3.578,1.734,7.034,6.135,9.571l.725.422A8.989,8.989,0,0,1,437.943,293.719Z" transform="translate(-433.862 -160.343)" fill="#d4088c"/>
          <path id="Path_9858" data-name="Path 9858" d="M568.9,363.832,440.066,289.45c-9.161-5.288-8.011-14.524,2.565-20.632l123.7-71.415c10.576-6.108,26.578-6.77,35.739-1.482L730.9,270.3c9.161,5.292,8.011,14.528-2.565,20.636l-123.7,71.415C594.06,368.458,578.058,369.12,568.9,363.832Z" transform="translate(-433.882 -192.349)" fill="url(#linear-gradient-15)"/>
          <path id="Path_9859" data-name="Path 9859" d="M620.449,270.291l-128.83-74.378c-4.744-2.739-11.325-3.869-18.035-3.487a29.942,29.942,0,0,1,12.991,3.487l128.83,74.378c9.161,5.292,8.011,14.528-2.565,20.636l-123.7,71.415a40.767,40.767,0,0,1-17.7,4.965c7.735.465,16.258-1.221,22.744-4.965l123.7-71.415C628.46,284.82,629.61,275.583,620.449,270.291Z" transform="translate(-323.434 -192.341)" fill="#6ee8fc"/>
          <path id="Path_9860" data-name="Path 9860" d="M556.607,330.237a24.731,24.731,0,0,1-12.1-2.786L448.59,272.073c-3.326-1.919-5.158-4.626-5.158-7.621,0-3.538,2.573-7.057,7.065-9.65l92.09-53.167c8.164-4.713,20.6-5.2,27.709-1.1l95.917,55.374c3.322,1.923,5.154,4.626,5.154,7.625,0,3.534-2.577,7.053-7.065,9.646l-92.09,53.167A32.091,32.091,0,0,1,556.607,330.237Zm1.584-130.316a29.831,29.831,0,0,0-14.5,3.621L451.6,256.713c-3.791,2.187-5.962,5.008-5.962,7.739,0,2.175,1.442,4.2,4.055,5.714L545.6,325.54c6.51,3.759,17.945,3.267,25.506-1.1L663.2,271.273c3.787-2.191,5.962-5.012,5.962-7.739,0-2.175-1.442-4.2-4.055-5.714L569.2,202.442A22.4,22.4,0,0,0,558.191,199.921Z" transform="translate(-405.799 -176.465)" fill="url(#linear-gradient-16)"/>
          <path id="Path_9861" data-name="Path 9861" d="M574.677,363.833l-128.83-74.382c-9.161-5.288-8.011-14.524,2.565-20.632l123.7-71.415a40.662,40.662,0,0,1,17.417-4.949c-7.853-.56-16.585,1.131-23.2,4.949l-123.7,71.415c-10.576,6.108-11.726,15.344-2.565,20.632L568.9,363.833c4.811,2.778,11.51,3.9,18.319,3.464A29.563,29.563,0,0,1,574.677,363.833Z" transform="translate(-433.882 -192.35)" fill="#25bfec"/>
          <g id="Group_6636" data-name="Group 6636" transform="translate(172.626 122.142)">
            <path id="Path_9862" data-name="Path 9862" d="M479.5,296.572l108.979-63.038a4.332,4.332,0,0,0,1.8-3.448v-5.158c0-1.328-.812-1.939-1.8-1.363L479.5,286.6a4.322,4.322,0,0,0-1.8,3.448V295.2C477.691,296.536,478.5,297.147,479.5,296.572Z" transform="translate(-477.691 -223.348)" fill="#6de0f6"/>
            <path id="Path_9863" data-name="Path 9863" d="M586.087,232.17a4.322,4.322,0,0,0,1.8-3.448V223.9l.583-.335c.993-.575,1.8.035,1.8,1.363v5.158a4.332,4.332,0,0,1-1.8,3.448L479.5,296.572c-1,.575-1.8-.035-1.8-1.367v-.335Z" transform="translate(-477.691 -223.348)" fill="#267fe5"/>
          </g>
        </g>
      </g>
      <g id="Group_6644" data-name="Group 6644" transform="translate(0 203.37)">
        <g id="Group_6639" data-name="Group 6639" transform="translate(0 177.25)" opacity="0.4">
          <path id="Path_9864" data-name="Path 9864" d="M631.777,290.164H567.884L496.76,249.1c-9.157-5.288-25.159-4.626-35.735,1.482l-68.559,39.581H328.605v42.891h.02c-.26,3.582,1.738,7.034,6.139,9.575l128.83,74.382c9.161,5.288,25.159,4.626,35.739-1.481l123.692-71.415c5.5-3.172,8.421-7.191,8.7-11.06h.047Z" transform="translate(-328.579 -202.638)" fill="url(#linear-gradient-2)"/>
          <path id="Path_9865" data-name="Path 9865" d="M332.66,336.014h-.02V293.119H396.5l68.558-39.581c10.576-6.108,26.578-6.77,35.735-1.482l71.124,41.063h59.862v-2.955H567.884L496.76,249.1c-9.157-5.288-25.159-4.626-35.735,1.482l-68.559,39.581H328.605v42.891h.02c-.26,3.582,1.738,7.034,6.139,9.575l.725.418A8.968,8.968,0,0,1,332.66,336.014Z" transform="translate(-328.579 -202.638)" fill="#d4088c"/>
          <path id="Path_9866" data-name="Path 9866" d="M463.611,406.125l-128.83-74.378c-9.161-5.288-8.011-14.528,2.565-20.632l123.7-71.419c10.576-6.1,26.578-6.77,35.735-1.478L625.612,312.6c9.157,5.288,8.011,14.528-2.569,20.632L499.35,404.647C488.77,410.751,472.773,411.416,463.611,406.125Z" transform="translate(-328.596 -234.645)" fill="url(#linear-gradient-18)"/>
          <path id="Path_9867" data-name="Path 9867" d="M515.164,312.587,386.33,238.208c-4.744-2.742-11.325-3.869-18.035-3.487a29.889,29.889,0,0,1,13,3.487l128.83,74.378c9.161,5.288,8.011,14.528-2.565,20.632l-123.7,71.419a40.766,40.766,0,0,1-17.7,4.965c7.735.465,16.258-1.221,22.744-4.965l123.692-71.419C523.175,327.115,524.321,317.875,515.164,312.587Z" transform="translate(-218.149 -234.636)" fill="#6ee8fc"/>
          <path id="Path_9868" data-name="Path 9868" d="M451.322,372.532a24.73,24.73,0,0,1-12.1-2.782L343.3,314.372c-3.326-1.919-5.154-4.626-5.154-7.625,0-3.534,2.573-7.053,7.065-9.646l92.09-53.167c8.164-4.717,20.592-5.209,27.709-1.1L560.923,298.2c3.326,1.923,5.158,4.63,5.158,7.633,0,3.531-2.577,7.049-7.065,9.638l-92.094,53.171A32.062,32.062,0,0,1,451.322,372.532Zm-11.005-4.693c6.51,3.755,17.949,3.271,25.506-1.1l92.09-53.171c3.791-2.187,5.962-5.008,5.962-7.731,0-2.183-1.438-4.212-4.051-5.721l-95.917-55.378c-6.506-3.755-17.948-3.259-25.506,1.1l-92.09,53.171c-3.791,2.187-5.962,5.008-5.962,7.735,0,2.175,1.438,4.208,4.051,5.717Z" transform="translate(-300.514 -218.764)" fill="#480689"/>
          <path id="Path_9869" data-name="Path 9869" d="M469.392,406.124,340.557,331.746c-9.157-5.288-8.011-14.528,2.569-20.636L466.819,239.7a40.69,40.69,0,0,1,17.42-4.945c-7.853-.56-16.585,1.131-23.2,4.945l-123.7,71.415c-10.576,6.108-11.726,15.348-2.565,20.636l128.83,74.378c4.811,2.778,11.51,3.9,18.319,3.468A29.562,29.562,0,0,1,469.392,406.124Z" transform="translate(-328.596 -234.645)" fill="#d4088c"/>
        </g>
        <g id="Group_6640" data-name="Group 6640" transform="translate(0 118.166)" opacity="0.5">
          <path id="Path_9870" data-name="Path 9870" d="M631.777,275.172H567.884L496.76,234.105c-9.157-5.288-25.159-4.622-35.735,1.482l-68.559,39.585H328.605v42.891h.02c-.26,3.578,1.738,7.034,6.139,9.575l128.83,74.382c9.161,5.288,25.159,4.622,35.739-1.482l123.692-71.415c5.5-3.176,8.421-7.191,8.7-11.061h.047Z" transform="translate(-328.579 -187.644)" fill="url(#linear-gradient-2)"/>
          <path id="Path_9871" data-name="Path 9871" d="M332.66,321.018h-.02V278.127H396.5l68.558-39.581c10.576-6.108,26.578-6.77,35.735-1.482l71.124,41.063h59.862v-2.955H567.884L496.76,234.105c-9.157-5.288-25.159-4.622-35.735,1.482l-68.559,39.585H328.605v42.891h.02c-.26,3.578,1.738,7.034,6.139,9.575l.725.418A8.976,8.976,0,0,1,332.66,321.018Z" transform="translate(-328.579 -187.644)" fill="#d4088c"/>
          <path id="Path_9872" data-name="Path 9872" d="M463.611,391.132,334.781,316.75c-9.161-5.288-8.011-14.524,2.565-20.632l123.7-71.415c10.576-6.108,26.578-6.77,35.735-1.482L625.612,297.6c9.157,5.288,8.011,14.524-2.569,20.632L499.35,389.651C488.77,395.758,472.773,396.42,463.611,391.132Z" transform="translate(-328.596 -219.651)" fill="url(#linear-gradient-20)"/>
          <path id="Path_9873" data-name="Path 9873" d="M515.164,297.593,386.33,223.21c-4.744-2.739-11.325-3.866-18.035-3.483a29.887,29.887,0,0,1,13,3.483l128.83,74.382c9.161,5.288,8.011,14.524-2.565,20.632l-123.7,71.415a40.772,40.772,0,0,1-17.7,4.969c7.735.465,16.258-1.221,22.744-4.969l123.692-71.415C523.175,312.117,524.321,302.881,515.164,297.593Z" transform="translate(-218.149 -219.64)" fill="#6ee8fc"/>
          <path id="Path_9874" data-name="Path 9874" d="M451.318,357.537a24.726,24.726,0,0,1-12.1-2.782L343.3,299.378c-3.326-1.919-5.154-4.626-5.154-7.625,0-3.535,2.573-7.053,7.065-9.646L437.3,228.94c8.161-4.717,20.592-5.209,27.709-1.1l95.912,55.374c3.326,1.923,5.158,4.63,5.158,7.629,0,3.535-2.577,7.049-7.065,9.642l-92.094,53.167A32.024,32.024,0,0,1,451.318,357.537Zm-11-4.693c6.51,3.755,17.949,3.263,25.506-1.1l92.09-53.167c3.791-2.187,5.962-5.008,5.962-7.735,0-2.179-1.438-4.208-4.051-5.717l-95.917-55.378c-6.509-3.755-17.948-3.259-25.506,1.1l-92.09,53.167c-3.791,2.191-5.962,5.012-5.962,7.739,0,2.175,1.438,4.208,4.051,5.717Z" transform="translate(-300.514 -203.768)" fill="#480689"/>
          <path id="Path_9875" data-name="Path 9875" d="M469.392,391.132,340.557,316.749c-9.157-5.288-8.011-14.524,2.569-20.632L466.819,224.7a40.637,40.637,0,0,1,17.42-4.945c-7.853-.563-16.585,1.127-23.2,4.945l-123.7,71.415c-10.576,6.108-11.726,15.344-2.565,20.632l128.83,74.382c4.811,2.778,11.51,3.9,18.319,3.464A29.564,29.564,0,0,1,469.392,391.132Z" transform="translate(-328.596 -219.65)" fill="#d4088c"/>
        </g>
        <g id="Group_6641" data-name="Group 6641" transform="translate(0 59.083)" opacity="0.7">
          <path id="Path_9876" data-name="Path 9876" d="M631.777,260.175H567.884L496.76,219.112c-9.157-5.288-25.159-4.626-35.735,1.482l-68.559,39.581H328.605V303.07h.02c-.26,3.578,1.738,7.034,6.139,9.571l128.83,74.382c9.161,5.288,25.159,4.626,35.739-1.482l123.692-71.415c5.5-3.172,8.421-7.187,8.7-11.057h.047Z" transform="translate(-328.579 -172.649)" fill="url(#linear-gradient-2)"/>
          <path id="Path_9877" data-name="Path 9877" d="M332.66,306.025h-.02V263.134H396.5l68.558-39.585c10.576-6.1,26.578-6.77,35.735-1.482l71.124,41.066h59.862v-2.959H567.884L496.76,219.112c-9.157-5.288-25.159-4.626-35.735,1.482l-68.559,39.581H328.605V303.07h.02c-.26,3.578,1.738,7.034,6.139,9.571l.725.422A8.975,8.975,0,0,1,332.66,306.025Z" transform="translate(-328.579 -172.649)" fill="#d4088c"/>
          <path id="Path_9878" data-name="Path 9878" d="M463.611,376.138l-128.83-74.382c-9.161-5.288-8.011-14.524,2.565-20.632l123.7-71.415c10.576-6.108,26.578-6.77,35.735-1.482l128.834,74.378c9.157,5.292,8.011,14.528-2.569,20.636L499.35,374.656C488.77,380.764,472.773,381.426,463.611,376.138Z" transform="translate(-328.596 -204.655)" fill="url(#linear-gradient-22)"/>
          <path id="Path_9879" data-name="Path 9879" d="M515.164,282.6,386.33,208.217c-4.744-2.739-11.325-3.869-18.035-3.483a29.888,29.888,0,0,1,13,3.483L510.12,282.6c9.161,5.292,8.011,14.528-2.565,20.636l-123.7,71.415a40.714,40.714,0,0,1-17.7,4.965c7.735.465,16.258-1.222,22.744-4.965l123.692-71.415C523.175,297.124,524.321,287.887,515.164,282.6Z" transform="translate(-218.149 -204.645)" fill="#6ee8fc"/>
          <path id="Path_9880" data-name="Path 9880" d="M451.318,342.546a24.682,24.682,0,0,1-12.1-2.786L343.3,284.386c-3.326-1.923-5.154-4.63-5.154-7.629,0-3.535,2.573-7.053,7.065-9.642l92.09-53.167c8.161-4.721,20.592-5.213,27.709-1.107l95.912,55.378c3.326,1.919,5.154,4.626,5.158,7.625,0,3.534-2.577,7.053-7.065,9.646l-92.094,53.167A32.069,32.069,0,0,1,451.318,342.546Zm-11-4.693c6.51,3.755,17.949,3.259,25.506-1.1l92.09-53.167c3.791-2.191,5.962-5.012,5.962-7.739,0-2.179-1.438-4.208-4.051-5.714l-95.917-55.378c-6.509-3.755-17.948-3.263-25.506,1.1l-92.09,53.167c-3.791,2.187-5.962,5.008-5.962,7.735,0,2.179,1.438,4.212,4.051,5.717Z" transform="translate(-300.514 -188.775)" fill="#480689"/>
          <path id="Path_9881" data-name="Path 9881" d="M469.392,376.139,340.557,301.757c-9.157-5.288-8.011-14.524,2.569-20.632L466.819,209.71a40.7,40.7,0,0,1,17.42-4.949c-7.853-.56-16.585,1.131-23.2,4.949l-123.7,71.415c-10.576,6.108-11.726,15.344-2.565,20.632l128.83,74.382c4.811,2.778,11.51,3.9,18.319,3.464A29.561,29.561,0,0,1,469.392,376.139Z" transform="translate(-328.596 -204.656)" fill="#d4088c"/>
        </g>
        <g id="Group_6643" data-name="Group 6643">
          <path id="Path_9882" data-name="Path 9882" d="M631.777,245.181H567.884L496.76,204.118c-9.157-5.288-25.159-4.626-35.735,1.482l-68.559,39.581H328.605v42.891h.02c-.26,3.582,1.738,7.034,6.139,9.575l128.83,74.382c9.161,5.288,25.159,4.626,35.739-1.482l123.692-71.415c5.5-3.172,8.421-7.191,8.7-11.061h.047Z" transform="translate(-328.579 -157.654)" fill="url(#linear-gradient-2)"/>
          <path id="Path_9883" data-name="Path 9883" d="M332.66,291.031h-.02V248.136H396.5l68.558-39.581c10.576-6.108,26.578-6.77,35.735-1.482l71.124,41.063h59.862v-2.955H567.884L496.76,204.118c-9.157-5.288-25.159-4.626-35.735,1.482l-68.559,39.581H328.605v42.891h.02c-.26,3.582,1.738,7.034,6.139,9.575l.725.418A8.968,8.968,0,0,1,332.66,291.031Z" transform="translate(-328.579 -157.654)" fill="#d4088c"/>
          <path id="Path_9884" data-name="Path 9884" d="M463.611,361.142l-128.83-74.378c-9.161-5.288-8.011-14.528,2.565-20.632l123.7-71.419c10.576-6.1,26.578-6.77,35.735-1.482l128.834,74.382c9.157,5.288,8.011,14.528-2.569,20.632L499.35,359.664C488.77,365.768,472.773,366.434,463.611,361.142Z" transform="translate(-328.596 -189.662)" fill="url(#linear-gradient-24)"/>
          <path id="Path_9885" data-name="Path 9885" d="M515.164,267.6,386.33,193.221c-4.744-2.739-11.325-3.865-18.035-3.483a29.942,29.942,0,0,1,13,3.483L510.12,267.6c9.161,5.288,8.011,14.528-2.565,20.632l-123.7,71.419a40.767,40.767,0,0,1-17.7,4.965c7.735.465,16.258-1.222,22.744-4.965l123.692-71.419C523.175,282.132,524.321,272.892,515.164,267.6Z" transform="translate(-218.149 -189.652)" fill="#6ee8fc"/>
          <path id="Path_9886" data-name="Path 9886" d="M451.314,327.548a24.655,24.655,0,0,1-12.1-2.782L343.3,269.392c-3.326-1.923-5.158-4.634-5.154-7.632,0-3.535,2.577-7.049,7.065-9.638L437.3,198.95c8.161-4.713,20.592-5.209,27.709-1.1l95.912,55.378c3.326,1.919,5.154,4.626,5.158,7.625,0,3.534-2.577,7.053-7.065,9.646l-92.094,53.167A32.091,32.091,0,0,1,451.314,327.548Zm-11-4.689c6.506,3.755,17.949,3.259,25.506-1.1l92.09-53.171c3.791-2.187,5.962-5.008,5.962-7.735,0-2.179-1.438-4.208-4.051-5.718l-95.917-55.374c-6.5-3.751-17.944-3.255-25.506,1.1l-92.09,53.171c-3.787,2.187-5.962,5-5.962,7.731,0,2.183,1.438,4.212,4.051,5.721Z" transform="translate(-300.514 -173.78)" fill="url(#linear-gradient-16)"/>
          <path id="Path_9887" data-name="Path 9887" d="M469.392,361.142,340.557,286.763c-9.157-5.288-8.011-14.528,2.569-20.636l123.692-71.415a40.691,40.691,0,0,1,17.42-4.945c-7.853-.56-16.585,1.131-23.2,4.945l-123.7,71.415c-10.576,6.108-11.726,15.348-2.565,20.636l128.83,74.378c4.811,2.778,11.51,3.9,18.319,3.468A29.565,29.565,0,0,1,469.392,361.142Z" transform="translate(-328.596 -189.662)" fill="#25bfec"/>
          <g id="Group_6642" data-name="Group 6642" transform="translate(18.526 122.143)">
            <path id="Path_9888" data-name="Path 9888" d="M444.081,293.88,335.1,230.846a4.322,4.322,0,0,1-1.8-3.448V222.24c0-1.328.808-1.939,1.8-1.363l108.979,63.034a4.322,4.322,0,0,1,1.8,3.448v5.158C445.886,293.844,445.078,294.455,444.081,293.88Z" transform="translate(-333.298 -220.66)" fill="#6de0f6"/>
            <path id="Path_9889" data-name="Path 9889" d="M337.487,229.482a4.322,4.322,0,0,1-1.8-3.448v-4.823l-.579-.335c-1-.575-1.8.035-1.8,1.363V227.4a4.322,4.322,0,0,0,1.8,3.448L444.081,293.88c1,.575,1.8-.035,1.8-1.363v-.335Z" transform="translate(-333.298 -220.66)" fill="#267fe5"/>
          </g>
        </g>
      </g>
      <g id="Group_6651" data-name="Group 6651" transform="translate(206.826 332.703)">
        <g id="Group_6645" data-name="Group 6645" transform="translate(0 177.25)" opacity="0.4">
          <path id="Path_9890" data-name="Path 9890" d="M684.264,322.99H620.371l-71.124-41.066c-9.157-5.288-25.159-4.626-35.735,1.482L444.954,322.99H381.092v42.891h.024c-.264,3.578,1.734,7.034,6.135,9.575l128.83,74.378c9.161,5.288,25.159,4.626,35.739-1.482l123.7-71.415c5.493-3.172,8.421-7.187,8.7-11.057h.047Z" transform="translate(-381.066 -235.462)" fill="url(#linear-gradient-2)"/>
          <path id="Path_9891" data-name="Path 9891" d="M385.147,368.836h-.02V325.945h63.858l68.559-39.581c10.576-6.107,26.578-6.773,35.739-1.481l71.124,41.063h59.858V322.99H620.371l-71.124-41.066c-9.157-5.288-25.159-4.626-35.735,1.482L444.954,322.99H381.092v42.891h.024c-.264,3.578,1.734,7.034,6.135,9.575l.725.418A8.989,8.989,0,0,1,385.147,368.836Z" transform="translate(-381.066 -235.462)" fill="#d4088c"/>
          <path id="Path_9892" data-name="Path 9892" d="M516.1,438.949,387.27,364.567c-9.161-5.288-8.011-14.524,2.565-20.632l123.7-71.415c10.576-6.108,26.578-6.769,35.735-1.482L678.1,345.421c9.157,5.288,8.011,14.524-2.565,20.632l-123.7,71.415C541.259,443.575,525.261,444.237,516.1,438.949Z" transform="translate(-381.086 -267.468)" fill="url(#linear-gradient-27)"/>
          <path id="Path_9893" data-name="Path 9893" d="M567.653,345.41,438.819,271.028c-4.74-2.739-11.321-3.869-18.031-3.483a29.888,29.888,0,0,1,12.991,3.483l128.83,74.382c9.161,5.288,8.011,14.524-2.565,20.632l-123.7,71.415a40.713,40.713,0,0,1-17.7,4.965c7.735.469,16.258-1.222,22.744-4.965l123.7-71.415C575.664,359.935,576.814,350.7,567.653,345.41Z" transform="translate(-270.638 -267.458)" fill="#6ee8fc"/>
          <path id="Path_9894" data-name="Path 9894" d="M503.807,405.353a24.638,24.638,0,0,1-12.1-2.786L395.79,347.189c-3.322-1.919-5.154-4.626-5.154-7.621,0-3.538,2.573-7.053,7.065-9.646l92.09-53.171c8.172-4.717,20.6-5.2,27.709-1.1l95.912,55.378c3.326,1.919,5.154,4.626,5.154,7.621,0,3.539-2.573,7.053-7.065,9.646l-92.09,53.171A32.076,32.076,0,0,1,503.807,405.353ZM505.4,275.038a29.791,29.791,0,0,0-14.5,3.625L398.8,331.83c-3.791,2.187-5.962,5.008-5.962,7.739,0,2.175,1.438,4.2,4.055,5.714l95.913,55.378c6.506,3.763,17.944,3.267,25.506-1.1L610.4,346.39c3.791-2.191,5.966-5.008,5.966-7.739,0-2.175-1.442-4.2-4.055-5.713L516.4,277.559A22.487,22.487,0,0,0,505.4,275.038Z" transform="translate(-353.004 -251.584)" fill="#480689"/>
          <path id="Path_9895" data-name="Path 9895" d="M521.881,438.948,393.05,364.566c-9.161-5.288-8.015-14.524,2.565-20.632l123.7-71.415a40.6,40.6,0,0,1,17.416-4.945c-7.853-.563-16.585,1.127-23.2,4.945l-123.7,71.415c-10.576,6.108-11.727,15.344-2.565,20.632L516.1,438.948c4.811,2.778,11.51,3.9,18.319,3.464A29.561,29.561,0,0,1,521.881,438.948Z" transform="translate(-381.086 -267.467)" fill="#d4088c"/>
        </g>
        <g id="Group_6646" data-name="Group 6646" transform="translate(0 118.166)" opacity="0.5">
          <path id="Path_9896" data-name="Path 9896" d="M684.264,307.992H620.371l-71.124-41.062c-9.157-5.288-25.159-4.626-35.735,1.481l-68.558,39.581H381.092v42.895h.024c-.264,3.578,1.734,7.03,6.135,9.571l128.83,74.382c9.161,5.288,25.159,4.626,35.739-1.482l123.7-71.415c5.493-3.172,8.421-7.187,8.7-11.057h.047Z" transform="translate(-381.066 -220.466)" fill="url(#linear-gradient-2)"/>
          <path id="Path_9897" data-name="Path 9897" d="M385.147,353.842h-.02V310.947h63.858l68.559-39.581c10.576-6.1,26.578-6.77,35.739-1.482l71.124,41.063h59.858v-2.955H620.371l-71.124-41.062c-9.157-5.288-25.159-4.626-35.735,1.481l-68.558,39.581H381.092v42.895h.024c-.264,3.578,1.734,7.03,6.135,9.571l.725.422A8.989,8.989,0,0,1,385.147,353.842Z" transform="translate(-381.066 -220.466)" fill="#d4088c"/>
          <path id="Path_9898" data-name="Path 9898" d="M516.1,423.955,387.27,349.573c-9.161-5.288-8.011-14.524,2.565-20.632l123.7-71.415c10.576-6.108,26.578-6.77,35.735-1.482L678.1,330.423c9.157,5.292,8.011,14.528-2.565,20.636l-123.7,71.415C541.259,428.577,525.261,429.243,516.1,423.955Z" transform="translate(-381.086 -252.472)" fill="url(#linear-gradient-29)"/>
          <path id="Path_9899" data-name="Path 9899" d="M567.653,330.415,438.819,256.036c-4.74-2.743-11.321-3.869-18.031-3.487a29.942,29.942,0,0,1,12.991,3.487l128.83,74.378c9.161,5.292,8.011,14.528-2.565,20.636l-123.7,71.415a40.767,40.767,0,0,1-17.7,4.965c7.735.465,16.258-1.222,22.744-4.965l123.7-71.415C575.664,344.943,576.814,335.707,567.653,330.415Z" transform="translate(-270.638 -252.464)" fill="#6ee8fc"/>
          <path id="Path_9900" data-name="Path 9900" d="M503.811,390.359a24.729,24.729,0,0,1-12.1-2.782L395.79,332.2c-3.322-1.919-5.154-4.626-5.154-7.621,0-3.538,2.573-7.057,7.065-9.65l92.09-53.167c8.165-4.713,20.592-5.209,27.709-1.1l95.912,55.378c3.326,1.919,5.158,4.626,5.154,7.629,0,3.534-2.573,7.049-7.065,9.638l-92.09,53.175A32.091,32.091,0,0,1,503.811,390.359Zm-11.005-4.693c6.51,3.759,17.948,3.274,25.506-1.1l92.09-53.171c3.791-2.187,5.962-5.008,5.966-7.731,0-2.183-1.442-4.212-4.055-5.721L516.4,262.564c-6.505-3.755-17.948-3.259-25.51,1.1L398.8,316.839c-3.791,2.187-5.962,5.008-5.962,7.739,0,2.171,1.438,4.2,4.055,5.714Z" transform="translate(-353.004 -236.591)" fill="#480689"/>
          <path id="Path_9901" data-name="Path 9901" d="M521.881,423.957,393.05,349.574c-9.161-5.288-8.015-14.524,2.565-20.632l123.7-71.415a40.663,40.663,0,0,1,17.416-4.949c-7.853-.56-16.585,1.131-23.2,4.949l-123.7,71.415c-10.576,6.108-11.727,15.344-2.565,20.632L516.1,423.957c4.811,2.778,11.51,3.9,18.319,3.464A29.566,29.566,0,0,1,521.881,423.957Z" transform="translate(-381.086 -252.473)" fill="#d4088c"/>
        </g>
        <g id="Group_6647" data-name="Group 6647" transform="translate(0 59.082)" opacity="0.7">
          <path id="Path_9902" data-name="Path 9902" d="M684.264,293H620.371l-71.124-41.062c-9.157-5.288-25.159-4.626-35.735,1.482L444.954,293H381.092v42.891h.024c-.264,3.578,1.734,7.034,6.135,9.575l128.83,74.382c9.161,5.288,25.159,4.622,35.739-1.482l123.7-71.415c5.493-3.176,8.421-7.191,8.7-11.061h.047Z" transform="translate(-381.066 -205.47)" fill="url(#linear-gradient-2)"/>
          <path id="Path_9903" data-name="Path 9903" d="M385.147,338.844h-.02V295.953h63.858l68.559-39.581c10.576-6.108,26.578-6.77,35.739-1.482l71.124,41.063h59.858V293H620.371l-71.124-41.062c-9.157-5.288-25.159-4.626-35.735,1.482L444.954,293H381.092v42.891h.024c-.264,3.578,1.734,7.034,6.135,9.575l.725.418A8.989,8.989,0,0,1,385.147,338.844Z" transform="translate(-381.066 -205.47)" fill="#d4088c"/>
          <path id="Path_9904" data-name="Path 9904" d="M516.1,408.96,387.27,334.582c-9.161-5.288-8.011-14.528,2.565-20.636l123.7-71.415c10.576-6.108,26.578-6.77,35.735-1.482L678.1,315.432c9.157,5.288,8.011,14.528-2.565,20.632l-123.7,71.415C541.259,413.586,525.261,414.252,516.1,408.96Z" transform="translate(-381.086 -237.479)" fill="url(#linear-gradient-31)"/>
          <path id="Path_9905" data-name="Path 9905" d="M567.653,315.421,438.819,241.038c-4.74-2.739-11.321-3.865-18.031-3.483a29.94,29.94,0,0,1,12.991,3.483l128.83,74.382c9.161,5.288,8.011,14.528-2.565,20.632l-123.7,71.415a40.771,40.771,0,0,1-17.7,4.969c7.735.465,16.258-1.221,22.744-4.969l123.7-71.415C575.664,329.949,576.814,320.709,567.653,315.421Z" transform="translate(-270.638 -237.468)" fill="#6ee8fc"/>
          <path id="Path_9906" data-name="Path 9906" d="M503.807,375.367a24.724,24.724,0,0,1-12.1-2.782L395.79,317.207c-3.322-1.919-5.154-4.626-5.154-7.625,0-3.534,2.573-7.053,7.065-9.646l92.09-53.167c8.161-4.717,20.588-5.213,27.709-1.1l95.912,55.374c3.326,1.923,5.158,4.63,5.154,7.628,0,3.538-2.573,7.049-7.065,9.642l-92.09,53.167A32.024,32.024,0,0,1,503.807,375.367Zm-11-4.693c6.513,3.755,17.948,3.259,25.506-1.1L610.4,316.4c3.791-2.187,5.966-5.008,5.966-7.735,0-2.179-1.442-4.208-4.055-5.717L516.4,247.573c-6.509-3.759-17.952-3.259-25.51,1.1L398.8,301.843c-3.791,2.191-5.962,5.012-5.962,7.739,0,2.175,1.438,4.208,4.055,5.717Z" transform="translate(-353.004 -221.597)" fill="#480689"/>
          <path id="Path_9907" data-name="Path 9907" d="M521.881,408.959,393.05,334.58c-9.161-5.288-8.015-14.528,2.565-20.636l123.7-71.415a40.6,40.6,0,0,1,17.416-4.945c-7.853-.56-16.585,1.127-23.2,4.945l-123.7,71.415c-10.576,6.108-11.727,15.348-2.565,20.636L516.1,408.959c4.811,2.778,11.51,3.9,18.319,3.468A29.618,29.618,0,0,1,521.881,408.959Z" transform="translate(-381.086 -237.477)" fill="#d4088c"/>
        </g>
        <g id="Group_6650" data-name="Group 6650">
          <path id="Path_9908" data-name="Path 9908" d="M684.264,278.007H620.371L549.247,236.94c-9.157-5.288-25.159-4.626-35.735,1.482l-68.558,39.585H381.092V320.9h.024c-.264,3.578,1.734,7.034,6.135,9.575l128.83,74.378c9.161,5.288,25.159,4.626,35.739-1.482l123.7-71.415c5.493-3.172,8.421-7.187,8.7-11.057h.047Z" transform="translate(-381.066 -190.479)" fill="url(#linear-gradient-2)"/>
          <path id="Path_9909" data-name="Path 9909" d="M385.147,323.853h-.02V280.962h63.858l68.559-39.581c10.576-6.108,26.578-6.773,35.739-1.482l71.124,41.063h59.858v-2.955H620.371L549.247,236.94c-9.157-5.288-25.159-4.626-35.735,1.482l-68.558,39.585H381.092V320.9h.024c-.264,3.578,1.734,7.034,6.135,9.575l.725.418A8.989,8.989,0,0,1,385.147,323.853Z" transform="translate(-381.066 -190.479)" fill="#d4088c"/>
          <path id="Path_9910" data-name="Path 9910" d="M516.1,393.966,387.27,319.584c-9.161-5.288-8.011-14.524,2.565-20.632l123.7-71.415c10.576-6.108,26.578-6.77,35.735-1.482L678.1,300.438c9.157,5.288,8.011,14.524-2.565,20.632l-123.7,71.415C541.259,398.592,525.261,399.254,516.1,393.966Z" transform="translate(-381.086 -222.485)" fill="url(#linear-gradient-33)"/>
          <path id="Path_9911" data-name="Path 9911" d="M567.653,300.427,438.819,226.045c-4.74-2.739-11.321-3.869-18.031-3.483a29.886,29.886,0,0,1,12.991,3.483l128.83,74.382c9.161,5.288,8.011,14.524-2.565,20.632l-123.7,71.415a40.713,40.713,0,0,1-17.7,4.965c7.735.469,16.258-1.222,22.744-4.965l123.7-71.415C575.664,314.952,576.814,305.715,567.653,300.427Z" transform="translate(-270.638 -222.475)" fill="#6ee8fc"/>
          <path id="Path_9912" data-name="Path 9912" d="M503.481,359.618a24.209,24.209,0,0,1-11.884-2.731L395.68,301.51c-3.18-1.836-4.933-4.409-4.933-7.246,0-3.377,2.494-6.754,6.844-9.26l92.09-53.171c8.046-4.65,20.277-5.142,27.275-1.1l95.912,55.378c3.184,1.836,4.933,4.409,4.933,7.242,0,3.373-2.494,6.754-6.844,9.264l-92.09,53.171A31.6,31.6,0,0,1,503.481,359.618Zm-11.218-3.877c6.624,3.826,18.263,3.334,25.939-1.1l92.09-53.171c3.932-2.27,6.186-5.229,6.186-8.117,0-2.34-1.521-4.5-4.275-6.1l-95.912-55.378c-6.624-3.818-18.26-3.322-25.943,1.107l-92.09,53.167c-3.929,2.27-6.183,5.225-6.183,8.113,0,2.345,1.517,4.508,4.271,6.1Z" transform="translate(-352.677 -206.283)" fill="url(#linear-gradient-16)"/>
          <path id="Path_9913" data-name="Path 9913" d="M521.881,393.965,393.05,319.583c-9.161-5.288-8.015-14.524,2.565-20.632l123.7-71.415a40.6,40.6,0,0,1,17.416-4.945c-7.853-.563-16.585,1.127-23.2,4.945l-123.7,71.415c-10.576,6.108-11.727,15.344-2.565,20.632L516.1,393.965c4.811,2.778,11.51,3.9,18.319,3.464A29.561,29.561,0,0,1,521.881,393.965Z" transform="translate(-381.086 -222.484)" fill="#25bfec"/>
          <g id="Group_6648" data-name="Group 6648" transform="translate(172.622 122.14)">
            <path id="Path_9914" data-name="Path 9914" d="M426.7,326.706l108.979-63.034a4.324,4.324,0,0,0,1.8-3.452v-5.154c0-1.332-.808-1.943-1.8-1.367L426.7,316.733a4.341,4.341,0,0,0-1.8,3.452v5.154C424.894,326.67,425.706,327.281,426.7,326.706Z" transform="translate(-424.894 -253.482)" fill="#6de0f6"/>
            <path id="Path_9915" data-name="Path 9915" d="M533.293,262.308a4.329,4.329,0,0,0,1.8-3.452v-4.823l.579-.335c1-.575,1.8.035,1.8,1.363v5.158a4.324,4.324,0,0,1-1.8,3.452L426.7,326.706c-.993.575-1.8-.035-1.8-1.367v-.331Z" transform="translate(-424.894 -253.482)" fill="#267fe5"/>
          </g>
          <g id="Group_6649" data-name="Group 6649" transform="translate(18.778 122.14)">
            <path id="Path_9916" data-name="Path 9916" d="M496.634,326.706,387.656,263.672a4.324,4.324,0,0,1-1.8-3.452v-5.154c0-1.332.808-1.943,1.8-1.367l108.979,63.034a4.33,4.33,0,0,1,1.8,3.452v5.154C498.439,326.67,497.631,327.281,496.634,326.706Z" transform="translate(-385.851 -253.482)" fill="#6de0f6"/>
            <path id="Path_9917" data-name="Path 9917" d="M390.04,262.308a4.341,4.341,0,0,1-1.8-3.452v-4.823l-.579-.335c-1-.575-1.8.035-1.8,1.363v5.158a4.324,4.324,0,0,0,1.8,3.452l108.979,63.034c1,.575,1.8-.035,1.8-1.367v-.331Z" transform="translate(-385.851 -253.482)" fill="#267fe5"/>
          </g>
        </g>
      </g>
    </g>
    <g id="Group_6653" data-name="Group 6653" transform="translate(391.824 211.342)" opacity="0.5">
      <path id="Path_9918" data-name="Path 9918" d="M530.277,198.949H481.6L427.41,167.666c-6.978-4.031-19.17-3.527-27.228,1.127l-52.234,30.156H299.293v19.1h.012c-.2,2.727,1.324,5.359,4.677,7.294l98.159,56.674c6.978,4.027,19.17,3.523,27.228-1.131l94.246-54.412c4.185-2.415,6.415-5.477,6.628-8.425h.035Z" transform="translate(-299.271 -132.264)" fill="url(#linear-gradient-2)"/>
      <path id="Path_9919" data-name="Path 9919" d="M523.614,186.277,429.368,240.69c-8.058,4.65-20.249,5.158-27.228,1.127l-98.159-56.67c-3.353-1.939-4.874-4.571-4.677-7.3h-.012V180.1h.012c-.2,2.727,1.324,5.359,4.677,7.294l98.159,56.674c6.978,4.027,19.17,3.523,27.228-1.131l94.246-54.412c4.185-2.415,6.415-5.477,6.628-8.425h.035v-2.254h-.035C530.029,180.8,527.8,183.858,523.614,186.277Z" transform="translate(-299.271 -94.319)" fill="url(#linear-gradient-36)"/>
      <path id="Path_9920" data-name="Path 9920" d="M302.378,220.3h-.016V201.2h48.656l52.234-30.156c8.062-4.654,20.25-5.158,27.232-1.131L484.671,201.2h45.606v-2.254H481.6L427.41,167.666c-6.978-4.031-19.17-3.527-27.228,1.127l-52.234,30.156H299.293v19.1h.012c-.2,2.727,1.324,5.359,4.677,7.294l.552.319A6.84,6.84,0,0,1,302.378,220.3Z" transform="translate(-299.271 -132.264)" fill="#d4088c"/>
      <path id="Path_9921" data-name="Path 9921" d="M358.969,175.944v18.937h-.035a8.611,8.611,0,0,1-2.325,4.981c3.192-2.234,4.9-4.878,5.087-7.439h.035V173.659A14.567,14.567,0,0,0,358.969,175.944Z" transform="translate(-130.725 -106.64)" fill="#6ee8fc"/>
      <path id="Path_9922" data-name="Path 9922" d="M402.153,287.3l-98.159-56.67c-6.978-4.031-6.1-11.068,1.954-15.722L400.195,160.5c8.058-4.65,20.25-5.158,27.228-1.127l98.158,56.67c6.978,4.031,6.1,11.068-1.954,15.722l-94.246,54.413C421.323,290.826,409.132,291.334,402.153,287.3Z" transform="translate(-299.283 -156.651)" fill="url(#linear-gradient-37)"/>
      <path id="Path_9923" data-name="Path 9923" d="M441.432,216.034l-98.158-56.67c-3.613-2.088-8.629-2.947-13.74-2.656a22.778,22.778,0,0,1,9.9,2.656l98.158,56.67c6.978,4.031,6.1,11.068-1.954,15.722L341.39,286.169a31.056,31.056,0,0,1-13.488,3.783,32.05,32.05,0,0,0,17.33-3.783l94.246-54.413C447.535,227.1,448.41,220.065,441.432,216.034Z" transform="translate(-215.134 -156.643)" fill="#6ee8fc"/>
      <path id="Path_9924" data-name="Path 9924" d="M406.554,287.3,308.4,230.632c-6.978-4.031-6.1-11.068,1.958-15.722L404.6,160.5a31.021,31.021,0,0,1,13.271-3.767,32.124,32.124,0,0,0-17.673,3.767L305.949,214.91c-8.058,4.654-8.933,11.691-1.954,15.722l98.159,56.67c3.664,2.116,8.767,2.971,13.957,2.64A22.56,22.56,0,0,1,406.554,287.3Z" transform="translate(-299.283 -156.65)" fill="#d4088c"/>
    </g>
    <g id="Group_6654" data-name="Group 6654" transform="translate(267.811 575.847)">
      <path id="Path_9925" data-name="Path 9925" d="M446.341,480c-7.12,0-13.925-1.438-19-4.37l-151.5-87.465c-5.174-2.991-8.03-7.2-8.03-11.853,0-5.5,4.031-10.99,11.053-15.04L424.314,277.3c12.842-7.408,32.37-8.2,43.541-1.742l151.5,87.464c5.178,2.991,8.03,7.2,8.03,11.853,0,5.5-4.027,10.986-11.049,15.04L470.882,473.89C463.88,477.929,454.884,480,446.341,480Zm-17.483-7c10.336,5.978,28.5,5.189,40.5-1.742l145.451-83.977c6.06-3.491,9.532-8.019,9.532-12.408,0-3.523-2.313-6.8-6.513-9.22L466.339,278.188c-10.336-5.97-28.5-5.182-40.507,1.742L280.381,363.906c-6.056,3.491-9.528,8.019-9.532,12.408,0,3.523,2.313,6.8,6.513,9.22Z" transform="translate(-267.811 -184.383)" fill="url(#linear-gradient)"/>
      <path id="Path_9926" data-name="Path 9926" d="M446.341,469.252c-7.12,0-13.925-1.438-19-4.37l-151.5-87.464c-5.174-2.991-8.03-7.2-8.03-11.853,0-5.5,4.031-10.99,11.053-15.04l145.451-83.981c12.834-7.412,32.366-8.188,43.541-1.738l151.5,87.464c5.178,2.991,8.03,7.2,8.03,11.853,0,5.5-4.027,10.986-11.049,15.04L470.882,463.141C463.88,467.18,454.884,469.252,446.341,469.252Zm-17.483-7c10.336,5.974,28.5,5.185,40.5-1.742l145.451-83.977c6.06-3.5,9.532-8.023,9.532-12.408,0-3.523-2.313-6.8-6.513-9.221L466.339,267.439c-10.34-5.97-28.513-5.19-40.507,1.738L280.381,353.158c-6.056,3.491-9.528,8.019-9.532,12.408,0,3.523,2.313,6.8,6.513,9.221Z" transform="translate(-267.811 -215.993)" opacity="0.5" fill="url(#linear-gradient)"/>
      <path id="Path_9927" data-name="Path 9927" d="M446.341,457.968c-7.12,0-13.925-1.434-19-4.366l-151.5-87.464c-5.174-2.991-8.03-7.2-8.03-11.853,0-5.509,4.031-10.99,11.053-15.044l145.451-83.973c12.842-7.408,32.37-8.192,43.541-1.746l151.5,87.468c5.178,2.987,8.03,7.2,8.03,11.849,0,5.509-4.027,10.99-11.049,15.044L470.882,451.86C463.88,455.9,454.884,457.968,446.341,457.968Zm-17.483-7c10.336,5.97,28.5,5.185,40.5-1.742l145.451-83.977c6.06-3.5,9.532-8.018,9.532-12.412,0-3.519-2.313-6.793-6.513-9.217L466.339,256.154c-10.336-5.966-28.5-5.182-40.507,1.746L280.381,341.873c-6.056,3.5-9.528,8.019-9.532,12.412,0,3.519,2.313,6.793,6.513,9.22Z" transform="translate(-267.811 -249.156)" opacity="0.2" fill="url(#linear-gradient)"/>
    </g>
    <g id="Group_6659" data-name="Group 6659" transform="translate(826.017 186.377)">
      <g id="Group_6658" data-name="Group 6658">
        <g id="Group_6655" data-name="Group 6655" transform="translate(23.544 44.654)">
          <path id="Path_9928" data-name="Path 9928" d="M479.656,173.822c.977.528,1.029,1.316-.173,2.053l-25.23,13.689a25.19,25.19,0,0,1-11.2,2.829,15.324,15.324,0,0,1-7.3-1.415c-.083-.047-1.694-.95-3.137-1.71l-16.479-8.905c-.973-.528-.965-1.6.323-2.3a5.142,5.142,0,0,1,2.333-.556,4.077,4.077,0,0,1,1.923.366c.954.516,19.107,10.324,19.529,10.58a8.629,8.629,0,0,0,4.133.812,14.284,14.284,0,0,0,6.352-1.616l8.034-4.35a14.588,14.588,0,0,1-6.478-1.466l-13.551-7.317c-3.755-2.049-3.44-5.611.3-8.555a15.814,15.814,0,0,1,2.262-1.474,22.133,22.133,0,0,1,2.116-1,25.73,25.73,0,0,1,9.039-1.844,15.228,15.228,0,0,1,7.333,1.45l13.515,7.317c1.742.93,2.64,2.155,2.707,3.507a4.135,4.135,0,0,1,1.9-.5A3.591,3.591,0,0,1,479.656,173.822Zm-12.262,4.784c3.29-1.789,3.925-4.338,1.454-5.666L455.3,165.622a8.639,8.639,0,0,0-4.161-.82,14.176,14.176,0,0,0-6.316,1.6c-3.255,1.785-3.921,4.334-1.43,5.682l13.555,7.317a8.582,8.582,0,0,0,4.118.8,14.256,14.256,0,0,0,6.332-1.6" transform="translate(-415.45 -161.647)"/>
        </g>
        <g id="Group_6656" data-name="Group 6656" transform="translate(19.678 10.469)">
          <path id="Path_9929" data-name="Path 9929" d="M457.038,152.973a3.181,3.181,0,0,1,1.592.331l.217.122,4.953,2.683c3.775,2.021,4.5,5.221,2.585,8.377a33.955,33.955,0,0,1,5.607-.583,20.574,20.574,0,0,1,9.89,1.966l5.095,2.746c.977.528.749,1.493-.54,2.191a5.406,5.406,0,0,1-2.4.623,3.353,3.353,0,0,1-1.6-.327l-5.122-2.766a13.926,13.926,0,0,0-6.683-1.308,23.05,23.05,0,0,0-10.245,2.6l-15.281,8.294c-5.245,2.853-6.387,6.99-2.317,9.173L446.3,189a22.129,22.129,0,0,0-2.116,1,15.816,15.816,0,0,0-2.262,1.474l-3.613-1.95c-3.767-2.041-4.547-5.26-2.585-8.377a33.319,33.319,0,0,1-5.532.571,20.737,20.737,0,0,1-9.93-1.954l-5.174-2.806c-1.009-.528-.757-1.47.532-2.171a5.458,5.458,0,0,1,2.435-.63,3.259,3.259,0,0,1,1.576.315l5.205,2.806a13.857,13.857,0,0,0,6.675,1.308A23.152,23.152,0,0,0,441.757,176l15.158-8.251c5.28-2.857,6.415-6.974,2.352-9.177l-5.209-2.806a1.361,1.361,0,0,1-.126-.079c-.82-.536-.532-1.426.694-2.092A5.423,5.423,0,0,1,457.038,152.973Z" transform="translate(-414.469 -152.972)" fill="#2d0505"/>
        </g>
        <g id="Group_6657" data-name="Group 6657">
          <path id="Path_9930" data-name="Path 9930" d="M447.395,150.319a19.514,19.514,0,0,1,9.362,1.84l16.64,8.992a1.1,1.1,0,0,1,.134.087l-.217-.122a3.181,3.181,0,0,0-1.592-.331,5.423,5.423,0,0,0-2.411.627c-1.225.666-1.513,1.556-.694,2.092l-16.4-8.858a12.873,12.873,0,0,0-6.226-1.237,21.213,21.213,0,0,0-9.485,2.431l-22.428,12.176a6.146,6.146,0,0,1-2.478.595,3.128,3.128,0,0,1-1.521-.3c-.977-.528-.757-1.474.563-2.171l22.4-12.176A32.426,32.426,0,0,1,447.395,150.319Z" transform="translate(-409.475 -150.315)"/>
        </g>
      </g>
    </g>
  </g>
</svg>
