<svg xmlns="http://www.w3.org/2000/svg" xmlns:xlink="http://www.w3.org/1999/xlink" width="1501.789" height="351.55" viewBox="0 0 1501.789 351.55">
  <defs>
    <clipPath id="clip-path">
      <rect id="Rectangle_637" data-name="Rectangle 637" width="260.244" height="228.522" fill="none"/>
    </clipPath>
    <clipPath id="clip-path-2">
      <rect id="Rectangle_624" data-name="Rectangle 624" width="258.083" height="258.208" fill="none"/>
    </clipPath>
    <clipPath id="clip-path-3">
      <rect id="Rectangle_622" data-name="Rectangle 622" width="260.023" height="257.162" fill="none"/>
    </clipPath>
    <clipPath id="clip-path-4">
      <rect id="Rectangle_623" data-name="Rectangle 623" width="260.511" height="225.129" fill="none"/>
    </clipPath>
  </defs>
  <g id="Group_6038" data-name="Group 6038" transform="translate(-208.988 -3385)">
    <g id="Component_39_1" data-name="Component 39 – 1" transform="translate(1450.533 3385)">
      <g id="Group_6021" data-name="Group 6021">
        <path id="Path_8518" data-name="Path 8518" d="M15.363,51.283H10.21V16.1H3.235V10.95H15.363Z" transform="translate(-0.457 -1.545)" fill="#ed2525"/>
        <rect id="Rectangle_625" data-name="Rectangle 625" width="16.511" height="5.153" transform="translate(4.074 47.162)" fill="#ed2525"/>
        <path id="Path_8519" data-name="Path 8519" d="M57.721,52.784H36.933V12.45H57.721ZM39.51,50.207H55.144V15.027H39.51Z" transform="translate(-5.212 -1.757)" fill="#ed2525"/>
        <path id="Path_8520" data-name="Path 8520" d="M86.228,51.283H81.075V16.1H74.1V10.95H86.228Z" transform="translate(-10.456 -1.545)" fill="#ed2525"/>
        <rect id="Rectangle_626" data-name="Rectangle 626" width="16.511" height="5.153" transform="translate(64.94 47.162)" fill="#ed2525"/>
        <path id="Path_8521" data-name="Path 8521" d="M199.452,52.784H178.664V12.45h20.788Zm-18.211-2.577h15.634V15.027H181.241Z" transform="translate(-25.211 -1.757)" fill="#ed2525"/>
        <path id="Path_8522" data-name="Path 8522" d="M239.314,52.784H218.526V12.45h20.788ZM221.1,50.207h15.634V15.027H221.1Z" transform="translate(-30.836 -1.757)" fill="#ed2525"/>
        <path id="Path_8523" data-name="Path 8523" d="M267.821,51.283h-5.153V16.1h-6.974V10.95h12.128Z" transform="translate(-36.08 -1.545)" fill="#ed2525"/>
        <rect id="Rectangle_627" data-name="Rectangle 627" width="16.511" height="5.153" transform="translate(220.908 47.162)" fill="#ed2525"/>
        <path id="Path_8524" data-name="Path 8524" d="M117.232,119.668h-5.153V84.488H105.1V79.335h12.128Z" transform="translate(-14.831 -11.195)" fill="#ed2525"/>
        <rect id="Rectangle_628" data-name="Rectangle 628" width="16.511" height="5.153" transform="translate(91.568 105.897)" fill="#ed2525"/>
        <path id="Path_8525" data-name="Path 8525" d="M159.59,121.169H138.8V80.835H159.59Zm-18.211-2.577h15.634V83.412H141.379Z" transform="translate(-19.586 -11.406)" fill="#ed2525"/>
        <path id="Path_8526" data-name="Path 8526" d="M186.809,119.88h-2.577V83.411H175.97V80.835h10.839Z" transform="translate(-24.831 -11.406)" fill="#ed2525"/>
        <rect id="Rectangle_629" data-name="Rectangle 629" width="16.511" height="2.577" transform="translate(152.434 107.185)" fill="#ed2525"/>
        <path id="Path_8527" data-name="Path 8527" d="M217.813,119.88h-2.577V83.411h-8.263V80.835h10.839Z" transform="translate(-29.206 -11.406)" fill="#ed2525"/>
        <rect id="Rectangle_630" data-name="Rectangle 630" width="16.511" height="2.577" transform="translate(179.064 107.185)" fill="#ed2525"/>
        <path id="Path_8528" data-name="Path 8528" d="M250.1,119.668h-5.153V84.488h-6.974V79.335H250.1Z" transform="translate(-33.581 -11.195)" fill="#ed2525"/>
        <rect id="Rectangle_631" data-name="Rectangle 631" width="16.511" height="5.153" transform="translate(205.692 105.897)" fill="#ed2525"/>
        <path id="Path_8529" data-name="Path 8529" d="M293.538,122.245H270.174V79.335h23.364Zm-18.211-5.153h13.058v-32.6H275.327Z" transform="translate(-38.124 -11.195)" fill="#ed2525"/>
        <path id="Path_8530" data-name="Path 8530" d="M22.288,189.554H1.5V149.22H22.288ZM4.077,186.977H19.711V151.8H4.077Z" transform="translate(-0.212 -21.056)" fill="#ed2525"/>
        <path id="Path_8531" data-name="Path 8531" d="M152.665,188.054h-5.153v-35.18h-6.974V147.72h12.128Z" transform="translate(-19.831 -20.845)" fill="#ed2525"/>
        <rect id="Rectangle_632" data-name="Rectangle 632" width="16.511" height="5.153" transform="translate(122.001 164.632)" fill="#ed2525"/>
        <path id="Path_8532" data-name="Path 8532" d="M196.1,190.63H172.734V147.72H196.1Zm-18.211-5.153h13.058v-32.6H177.887Z" transform="translate(-24.374 -20.844)" fill="#ed2525"/>
        <path id="Path_8533" data-name="Path 8533" d="M223.53,188.054h-5.153v-35.18H211.4V147.72H223.53Z" transform="translate(-29.831 -20.845)" fill="#ed2525"/>
        <rect id="Rectangle_633" data-name="Rectangle 633" width="16.511" height="5.153" transform="translate(182.868 164.632)" fill="#ed2525"/>
        <path id="Path_8534" data-name="Path 8534" d="M265.888,189.554H245.1V149.22h20.788Zm-18.211-2.577h15.634V151.8H247.677Z" transform="translate(-34.586 -21.056)" fill="#ed2525"/>
        <path id="Path_8535" data-name="Path 8535" d="M293.107,188.266H290.53V151.8h-8.263V149.22h10.839Z" transform="translate(-39.83 -21.056)" fill="#ed2525"/>
        <rect id="Rectangle_634" data-name="Rectangle 634" width="16.511" height="2.577" transform="translate(243.733 165.921)" fill="#ed2525"/>
        <path id="Path_8536" data-name="Path 8536" d="M5.153,221.259H18.211v32.6H5.153ZM0,259.016H23.364v-42.91H0Z" transform="translate(0 -30.494)" fill="#ed2525"/>
        <path id="Path_8537" data-name="Path 8537" d="M195.022,257.94H174.234V217.606h20.788Zm-18.211-2.577h15.634v-35.18H176.811Z" transform="translate(-24.586 -30.706)" fill="#ed2525"/>
        <path id="Path_8538" data-name="Path 8538" d="M222.242,256.651h-2.577V220.183H211.4v-2.577h10.839Z" transform="translate(-29.831 -30.706)" fill="#ed2525"/>
        <rect id="Rectangle_635" data-name="Rectangle 635" width="16.511" height="2.577" transform="translate(182.868 224.657)" fill="#ed2525"/>
        <path id="Path_8539" data-name="Path 8539" d="M254.534,256.44h-5.153v-35.18h-6.974v-5.153h12.128Z" transform="translate(-34.206 -30.494)" fill="#ed2525"/>
        <rect id="Rectangle_636" data-name="Rectangle 636" width="16.511" height="5.153" transform="translate(209.496 223.369)" fill="#ed2525"/>
        <g id="Group_6020" data-name="Group 6020">
          <g id="Group_6019" data-name="Group 6019" clip-path="url(#clip-path)">
            <path id="Path_8540" data-name="Path 8540" d="M81.7,235.54a22.082,22.082,0,1,1,8.421-1.681A22.117,22.117,0,0,1,81.7,235.54m-.055-41.588a19.506,19.506,0,1,0,18.047,12.042A19.408,19.408,0,0,0,81.64,193.952" transform="translate(-8.408 -27.004)" fill="#ed2525"/>
            <path id="Path_8541" data-name="Path 8541" d="M86.425,251.571l-.787-1.9a7.537,7.537,0,0,0-7.021-4.607h-.172a7.559,7.559,0,0,0-7.056,4.609l-.788,1.9-1.054-.231a42.028,42.028,0,0,1-13.711-5.679l-.91-.581.788-1.9a7.561,7.561,0,0,0-1.746-8.263l-.1-.1a7.541,7.541,0,0,0-8.229-1.713l-1.9.789-.582-.909a41.637,41.637,0,0,1-5.679-13.711l-.231-1.054,1.9-.788a7.535,7.535,0,0,0,4.608-7.029v-.138a7.56,7.56,0,0,0-4.609-7.081l-1.9-.788.231-1.053a42.106,42.106,0,0,1,5.679-13.711l.581-.909,1.9.787a7.56,7.56,0,0,0,8.264-1.744l.1-.1a7.534,7.534,0,0,0,1.713-8.229l-.788-1.9.909-.581a41.623,41.623,0,0,1,13.711-5.679l1.054-.232.788,1.9a7.538,7.538,0,0,0,7.023,4.609h.167a7.56,7.56,0,0,0,7.058-4.61l.788-1.9,1.054.232a42.069,42.069,0,0,1,13.71,5.679l.909.582-.788,1.9a7.56,7.56,0,0,0,1.746,8.264l.1.1a7.532,7.532,0,0,0,8.228,1.712l1.9-.789.581.91a41.611,41.611,0,0,1,5.679,13.712l.231,1.053-1.9.788a7.534,7.534,0,0,0-4.608,7.03v.149a7.556,7.556,0,0,0,4.609,7.069h0l1.9.788-.23,1.054a42.091,42.091,0,0,1-5.679,13.71l-.581.907-1.9-.784a7.559,7.559,0,0,0-8.265,1.744l-.1.1a7.534,7.534,0,0,0-1.713,8.229l.788,1.9-.91.581a41.642,41.642,0,0,1-13.71,5.679Zm-7.806-9.086a10.107,10.107,0,0,1,9.356,6.094,38.9,38.9,0,0,0,10.913-4.52,10.1,10.1,0,0,1,2.315-10.934l1.007.816-.914-.909a10.127,10.127,0,0,1,10.971-2.353,39.475,39.475,0,0,0,4.521-10.914,10.131,10.131,0,0,1-6.095-9.42v-.121a10.106,10.106,0,0,1,6.095-9.379,38.835,38.835,0,0,0-4.52-10.914,10.1,10.1,0,0,1-10.935-2.315l.816-1.007-.909.914a10.131,10.131,0,0,1-2.352-10.971,39.471,39.471,0,0,0-10.913-4.52,10.132,10.132,0,0,1-9.391,6.094h-.172a10.106,10.106,0,0,1-9.358-6.095,38.8,38.8,0,0,0-10.914,4.52,10.1,10.1,0,0,1-2.316,10.935l-1.006-.815.914.908a10.133,10.133,0,0,1-10.971,2.352,39.481,39.481,0,0,0-4.521,10.915,10.125,10.125,0,0,1,6.095,9.419v.133a10.108,10.108,0,0,1-6.095,9.368,38.851,38.851,0,0,0,4.52,10.912A10.112,10.112,0,0,1,55.7,232.994L54.879,234l.908-.913a10.128,10.128,0,0,1,2.353,10.97,39.45,39.45,0,0,0,10.913,4.52,10.129,10.129,0,0,1,9.389-6.093h.177Z" transform="translate(-5.256 -23.853)" fill="#ed2525"/>
            <path id="Path_8542" data-name="Path 8542" d="M50.865,125.417a17,17,0,1,1,17-17,17.017,17.017,0,0,1-17,17m0-31.419a14.421,14.421,0,1,0,14.422,14.421A14.438,14.438,0,0,0,50.865,94" transform="translate(-4.779 -12.9)" fill="#ed2525"/>
            <path id="Path_8543" data-name="Path 8543" d="M48.234,138.8a33.1,33.1,0,0,1-5.654-.516L41.51,138.1v-2.78a5.377,5.377,0,0,0-3.379-4.958l-.1-.042a5.4,5.4,0,0,0-5.928,1.1L30.134,133.4l-.886-.625a33.049,33.049,0,0,1-8-8l-.625-.886,1.97-1.97a5.4,5.4,0,0,0,1.1-5.928l-.041-.1a5.379,5.379,0,0,0-4.958-3.38h-2.78l-.185-1.069a31.224,31.224,0,0,1,0-11.308l.185-1.069H18.7a5.378,5.378,0,0,0,4.958-3.379l.041-.1a5.4,5.4,0,0,0-1.1-5.928l-1.97-1.97.625-.887a33.061,33.061,0,0,1,8-8l.886-.626,1.97,1.971a5.4,5.4,0,0,0,5.927,1.1l.1-.042a5.378,5.378,0,0,0,3.379-4.958V73.473l1.068-.186a30.9,30.9,0,0,1,11.309,0l1.069.185v2.78a5.379,5.379,0,0,0,3.379,4.958l.1.042a5.4,5.4,0,0,0,5.928-1.1l1.97-1.971.886.626a33.076,33.076,0,0,1,8,8l.624.887-1.969,1.97a5.4,5.4,0,0,0-1.1,5.928l.043.1a5.377,5.377,0,0,0,4.956,3.374H80.55l.184,1.069a31.173,31.173,0,0,1,0,11.308l-.184,1.069H77.769a5.379,5.379,0,0,0-4.958,3.381l-.041.1a5.4,5.4,0,0,0,1.1,5.928l1.969,1.97-.624.886a33.064,33.064,0,0,1-8,8l-.886.625-1.97-1.971a5.4,5.4,0,0,0-5.928-1.1l-.1.042a5.378,5.378,0,0,0-3.379,4.958v2.78l-1.069.185a33.088,33.088,0,0,1-5.654.516m-4.147-2.887a27.676,27.676,0,0,0,8.293,0v-.594a7.944,7.944,0,0,1,4.974-7.339l.585,1.152-.5-1.189a7.962,7.962,0,0,1,8.744,1.658l.423.423a30.417,30.417,0,0,0,5.864-5.865l-.423-.423A7.964,7.964,0,0,1,70.391,115l.029-.071a7.957,7.957,0,0,1,7.349-5h.6a27.884,27.884,0,0,0,0-8.293h-.6a7.948,7.948,0,0,1-7.339-4.972l-.036-.087a7.966,7.966,0,0,1,1.658-8.746l.423-.423a30.486,30.486,0,0,0-5.864-5.865l-.423.423a7.965,7.965,0,0,1-8.744,1.659l.4-1.228-.491,1.191a7.945,7.945,0,0,1-4.974-7.339v-.594a27.62,27.62,0,0,0-8.293,0v.593a7.945,7.945,0,0,1-4.973,7.339L39,83.639a7.95,7.95,0,0,1-8.714-1.671l-.423-.423a30.466,30.466,0,0,0-5.865,5.865l.423.423a7.965,7.965,0,0,1,1.659,8.743l-1.228-.4,1.19.492a7.948,7.948,0,0,1-7.339,4.972H18.1a27.884,27.884,0,0,0,0,8.293H18.7a7.947,7.947,0,0,1,7.339,4.973l-1.151.587,1.189-.5a7.963,7.963,0,0,1-1.659,8.743l-.423.423a30.421,30.421,0,0,0,5.865,5.865l.422-.423a7.966,7.966,0,0,1,8.744-1.658l-.4,1.227.49-1.19a7.944,7.944,0,0,1,4.974,7.339Z" transform="translate(-2.147 -10.268)" fill="#ed2525"/>
            <path id="Path_8544" data-name="Path 8544" d="M133.012,47.036A15.236,15.236,0,1,1,148.248,31.8a15.254,15.254,0,0,1-15.236,15.237m0-27.9A12.66,12.66,0,1,0,145.671,31.8,12.674,12.674,0,0,0,133.012,19.14" transform="translate(-16.619 -2.337)" fill="#ed2525"/>
            <path id="Path_8545" data-name="Path 8545" d="M130.675,58.92a29.445,29.445,0,0,1-5.046-.461l-1.068-.186v-2.59a4.631,4.631,0,0,0-2.912-4.267l-.119-.051a4.638,4.638,0,0,0-5.076.961l-1.835,1.836-.886-.626A29.5,29.5,0,0,1,106.6,46.4l-.624-.887,1.835-1.835a4.649,4.649,0,0,0,.948-5.106l-.037-.089a4.632,4.632,0,0,0-4.268-2.911h-2.59l-.186-1.068a27.875,27.875,0,0,1,0-10.09l.186-1.068h2.59a4.631,4.631,0,0,0,4.268-2.912l.037-.088a4.651,4.651,0,0,0-.948-5.107l-1.836-1.834.625-.887a29.5,29.5,0,0,1,7.136-7.134l.886-.625L116.455,6.6a4.652,4.652,0,0,0,5.106.948l.115-.046a4.625,4.625,0,0,0,2.885-4.258V.649l1.068-.186a27.677,27.677,0,0,1,10.091,0l1.068.186v2.59A4.631,4.631,0,0,0,139.7,7.507l.1.04a4.642,4.642,0,0,0,5.1-.951l1.836-1.835.886.625a29.485,29.485,0,0,1,7.135,7.134l.625.887-1.836,1.835a4.651,4.651,0,0,0-.947,5.106l.039.092a4.628,4.628,0,0,0,4.266,2.908h2.59l.185,1.069a27.813,27.813,0,0,1,0,10.089l-.185,1.069H156.9a4.63,4.63,0,0,0-4.268,2.912l-.037.088a4.65,4.65,0,0,0,.948,5.106l1.835,1.835-.625.887a29.485,29.485,0,0,1-7.135,7.134l-.886.625-1.835-1.835a4.651,4.651,0,0,0-5.106-.948l-.088.038a4.63,4.63,0,0,0-2.911,4.267v2.59l-1.068.186a29.451,29.451,0,0,1-5.045.461m-3.538-2.833a24.41,24.41,0,0,0,7.075,0v-.4a7.2,7.2,0,0,1,4.5-6.65l.575,1.156L138.8,49a7.218,7.218,0,0,1,7.921,1.5l.287.286a26.912,26.912,0,0,0,5-5l-.286-.286a7.216,7.216,0,0,1-1.5-7.921l.038-.09A7.194,7.194,0,0,1,156.9,33h.4a24.485,24.485,0,0,0,0-7.074h-.4a7.2,7.2,0,0,1-6.65-4.5,7.252,7.252,0,0,1,1.47-8l.287-.286a26.97,26.97,0,0,0-5-5l-.286.287a7.215,7.215,0,0,1-7.921,1.5,7.232,7.232,0,0,1-4.583-6.682v-.4a24.44,24.44,0,0,0-7.075,0v.4a7.2,7.2,0,0,1-4.5,6.65,7.25,7.25,0,0,1-8-1.472l-.286-.285a26.909,26.909,0,0,0-5,5l.286.285a7.219,7.219,0,0,1,1.5,7.922,7.231,7.231,0,0,1-6.682,4.584h-.4a24.567,24.567,0,0,0,0,7.074h.4a7.2,7.2,0,0,1,6.65,4.5l-1.156.576,1.189-.5a7.216,7.216,0,0,1-1.5,7.921l-.286.286a26.939,26.939,0,0,0,5,5l.286-.286a7.227,7.227,0,0,1,7.921-1.5l-.412,1.225.492-1.191a7.2,7.2,0,0,1,4.5,6.65Z" transform="translate(-14.283 0)" fill="#ed2525"/>
          </g>
        </g>
      </g>
      <text id="Core_Services" data-name="Core Services" transform="translate(0 254.893)" fill="#ed2525" font-size="24" font-family="Arial-BoldMT, Arial" font-weight="700"><tspan x="-80.051" y="22">Core Services</tspan></text>
      <text id="DHCP_DNS_RADIUS_server" data-name="DHCP, DNS, RADIUS server" transform="translate(0 286.893)" fill="#ed2525" font-size="16" font-family="ArialMT, Arial"><tspan x="-102.094" y="14">DHCP, DNS, RADIUS server</tspan></text>
    </g>
    <g id="Component_38_1" data-name="Component 38 – 1" transform="translate(1036.522 3385)">
      <g id="Group_6018" data-name="Group 6018" transform="translate(1.928)">
        <g id="Group_6017" data-name="Group 6017" clip-path="url(#clip-path-2)">
          <path id="Path_8516" data-name="Path 8516" d="M15.63,258.208A15.631,15.631,0,0,1,4.572,231.521l41.1-41.1,3.966,3.966-41.1,41.1a10.027,10.027,0,0,0,14.18,14.181l44.232-44.23a10.043,10.043,0,0,0,.456-13.692,3.707,3.707,0,0,1,.141-5.052L78.481,175.76a7.387,7.387,0,0,1,10.238-.247c39.508,36.263,101.359,33.707,137.879-5.694C261.11,132.581,261.11,74.241,226.6,37A97.8,97.8,0,0,0,57,103.131l.1.669a6.776,6.776,0,0,0,1.36,3.9c36.345,45.446,69.485,50.352,82.046,50.352,24.415,0,46.561-15.186,60.84-27.926a186.81,186.81,0,0,0,24.509-26.712A186.822,186.822,0,0,0,201.349,76.7c-14.279-12.74-36.425-27.926-60.84-27.926-25.2,0-48.021,16.113-62.724,29.63l-3.8-4.131c15.437-14.192,39.509-31.11,66.52-31.11,20.756,0,43.119,10.178,64.671,29.434a184.084,184.084,0,0,1,26.45,29.217l1.1,1.6-1.1,1.6a184.038,184.038,0,0,1-26.45,29.217c-21.552,19.256-43.915,29.435-64.671,29.435-40.141,0-73.813-36.685-86.426-52.457a12.372,12.372,0,0,1-2.571-6.9l-.122-.6v-.283A103.41,103.41,0,0,1,154.741,0c.677,0,1.352.006,2.031.02a102.644,102.644,0,0,1,73.94,33.17c36.5,39.375,36.5,101.065,0,140.442a103.412,103.412,0,0,1-145.785,6.014,1.79,1.79,0,0,0-2.478.08l-9.724,9.727a15.676,15.676,0,0,1-1.806,19.952L26.686,253.635a15.592,15.592,0,0,1-11.056,4.573" transform="translate(0)" fill="#ed2525"/>
          <path id="Path_8517" data-name="Path 8517" d="M148.367,145.691a37.724,37.724,0,1,1,20.739-69.276l1.009.662-9.206,20.057,19.955-8.459.611,1.11a37.71,37.71,0,0,1-33.107,55.907m.13-72.654a35.259,35.259,0,0,0-7.19.745,34.929,34.929,0,1,0,38.3,18.474L155.34,102.542l11.21-24.422A34.643,34.643,0,0,0,148.5,73.037" transform="translate(-7.19 -4.562)" fill="#ed2525"/>
        </g>
      </g>
      <text id="Auditing" transform="translate(0 283.55)" fill="#ed2525" font-size="24" font-family="Arial-BoldMT, Arial" font-weight="700"><tspan x="-48.65" y="22">Auditing</tspan></text>
      <text id="surfing_histories_consumption_comparisons_health_logging" data-name="surfing histories, consumption comparisons, health logging" transform="translate(0 315.55)" fill="#ed2525" font-size="16" font-family="ArialMT, Arial"><tspan x="-105.828" y="14">surfing histories, consumption </tspan><tspan x="-99.617" y="32">comparisons, health logging</tspan></text>
    </g>
    <g id="Component_37_1" data-name="Component 37 – 1" transform="translate(622.499 3385)">
      <g id="Group_6009" data-name="Group 6009">
        <g id="Group_6008" data-name="Group 6008" clip-path="url(#clip-path-3)">
          <path id="Path_8492" data-name="Path 8492" d="M233.593,298.434H26.431A34.827,34.827,0,0,1,9.824,294.55C4.141,291.4.758,286.58.043,280.622a5.56,5.56,0,0,1,1.31-4.362,4.55,4.55,0,0,1,3.432-1.578H105.641a3.7,3.7,0,0,1,3.594,3.788.907.907,0,0,0,.2.616h41.15a.907.907,0,0,0,.2-.616,3.7,3.7,0,0,1,3.594-3.788H255.239a4.55,4.55,0,0,1,3.432,1.578,5.56,5.56,0,0,1,1.31,4.362c-.715,5.958-4.1,10.774-9.781,13.928a34.829,34.829,0,0,1-16.607,3.884M5.115,279.78a.722.722,0,0,0-.01.234c1.181,9.833,12.226,13.321,21.326,13.321H233.593c9.1,0,20.145-3.488,21.326-13.321a.747.747,0,0,0-.01-.234H155.748a5.356,5.356,0,0,1-5.083,4.4H109.359a5.355,5.355,0,0,1-5.083-4.4Z" transform="translate(0 -41.272)" fill="#ed2525"/>
          <path id="Path_8493" data-name="Path 8493" d="M236.387,238.158H27.583a14.462,14.462,0,0,1-14.446-14.446V97.323A14.462,14.462,0,0,1,27.583,82.877H48.767v5.1H27.583a9.358,9.358,0,0,0-9.347,9.347V223.712a9.358,9.358,0,0,0,9.347,9.347h208.8a9.358,9.358,0,0,0,9.347-9.347V97.323a9.358,9.358,0,0,0-9.347-9.347H215.2v-5.1h21.185a14.462,14.462,0,0,1,14.446,14.446V223.712a14.462,14.462,0,0,1-14.446,14.446" transform="translate(-1.974 -12.453)" fill="#ed2525"/>
          <path id="Path_8494" data-name="Path 8494" d="M85.073,113.514a13.005,13.005,0,1,1,13.005-13,13.02,13.02,0,0,1-13.005,13m0-20.912a7.907,7.907,0,1,0,7.907,7.908A7.917,7.917,0,0,0,85.073,92.6" transform="translate(-10.828 -13.148)" fill="#ed2525"/>
          <path id="Path_8495" data-name="Path 8495" d="M128.824,62.47a13,13,0,1,1,13.006-13,13.02,13.02,0,0,1-13.006,13m0-20.911a7.906,7.906,0,1,0,7.908,7.907,7.916,7.916,0,0,0-7.908-7.907" transform="translate(-17.402 -5.478)" fill="#ed2525"/>
          <path id="Path_8496" data-name="Path 8496" d="M172.576,84.346a13.005,13.005,0,1,1,13.005-13,13.02,13.02,0,0,1-13.005,13m0-20.912a7.907,7.907,0,1,0,7.907,7.908,7.916,7.916,0,0,0-7.907-7.908" transform="translate(-23.976 -8.765)" fill="#ed2525"/>
          <path id="Path_8497" data-name="Path 8497" d="M216.327,26.011a13.005,13.005,0,1,1,13.006-13,13.02,13.02,0,0,1-13.006,13m0-20.912a7.907,7.907,0,1,0,7.908,7.908A7.916,7.916,0,0,0,216.327,5.1" transform="translate(-30.55)" fill="#ed2525"/>
          <rect id="Rectangle_618" data-name="Rectangle 618" width="41.049" height="2.55" transform="translate(153.851 53.442) rotate(-53.115)" fill="#ed2525"/>
          <rect id="Rectangle_619" data-name="Rectangle 619" width="2.55" height="20.649" transform="matrix(0.447, -0.894, 0.894, 0.447, 120.207, 49.804)" fill="#ed2525"/>
          <rect id="Rectangle_620" data-name="Rectangle 620" width="36.216" height="2.549" transform="translate(80.077 78.59) rotate(-49.38)" fill="#ed2525"/>
          <path id="Path_8498" data-name="Path 8498" d="M140.781,164.49h-2.549V84.43H119.869v80.06H117.32V81.881h23.461Z" transform="translate(-17.628 -12.303)" fill="#ed2525"/>
          <path id="Path_8499" data-name="Path 8499" d="M184.532,166.4h-2.549V97.153H163.62V166.4h-2.549V94.6h23.461Z" transform="translate(-24.202 -14.215)" fill="#ed2525"/>
          <path id="Path_8500" data-name="Path 8500" d="M228.284,159.9h-2.549V53.865H207.372V159.9h-2.549V51.316h23.461Z" transform="translate(-30.776 -7.71)" fill="#ed2525"/>
          <path id="Path_8501" data-name="Path 8501" d="M97.029,170.825H94.48V126.592H76.117v44.233H73.568V124.043H97.029Z" transform="translate(-11.054 -18.638)" fill="#ed2525"/>
          <rect id="Rectangle_621" data-name="Rectangle 621" width="177.471" height="2.549" transform="translate(41.276 159.41)" fill="#ed2525"/>
        </g>
      </g>
      <text id="Instrumentation" transform="translate(0 283.55)" fill="#ed2525" font-size="24" font-family="Arial-BoldMT, Arial" font-weight="700"><tspan x="-90.668" y="22">Instrumentation</tspan></text>
      <text id="real-time_graphs_node_monitoring_resource_consumption_dashboards" data-name="real-time graphs, node monitoring, resource consumption dashboards" transform="translate(0 315.55)" fill="#ed2525" font-size="16" font-family="ArialMT, Arial"><tspan x="-121.84" y="14">real-time graphs, node monitoring, </tspan><tspan x="-122.738" y="32">resource consumption dashboards</tspan></text>
    </g>
    <g id="Component_36_1" data-name="Component 36 – 1" transform="translate(208.988 3389)">
      <text id="Stateful_Firewall" data-name="Stateful Firewall" transform="translate(0 251.342)" fill="#ed2525" font-size="24" font-family="Arial-BoldMT, Arial" font-weight="700"><tspan x="-92.021" y="22">Stateful Firewall</tspan></text>
      <text id="filter_fowarding_intrusion_protection" data-name="filter fowarding intrusion protection" transform="translate(0 283.342)" fill="#ed2525" font-size="16" font-family="ArialMT, Arial"><tspan x="-121.84" y="14">filter fowarding intrusion protection</tspan></text>
      <g id="Group_6016" data-name="Group 6016">
        <g id="Group_6015" data-name="Group 6015" clip-path="url(#clip-path-4)">
          <path id="Path_8502" data-name="Path 8502" d="M63.9,41.253H6.428A6.434,6.434,0,0,1,0,34.828V6.427A6.435,6.435,0,0,1,6.428,0H63.9a6.434,6.434,0,0,1,6.427,6.427v28.4A6.432,6.432,0,0,1,63.9,41.253M6.428,4.271A2.159,2.159,0,0,0,4.271,6.427v28.4a2.159,2.159,0,0,0,2.158,2.154H63.9a2.158,2.158,0,0,0,2.156-2.154V6.427A2.158,2.158,0,0,0,63.9,4.271Z" fill="#ed2525"/>
          <path id="Path_8503" data-name="Path 8503" d="M109.83,41.253H52.353a6.434,6.434,0,0,1-6.428-6.425V6.427A6.435,6.435,0,0,1,52.353,0H109.83a6.432,6.432,0,0,1,6.427,6.427v28.4a6.431,6.431,0,0,1-6.427,6.425M52.353,4.271A2.159,2.159,0,0,0,50.2,6.427v28.4a2.159,2.159,0,0,0,2.158,2.154H109.83a2.158,2.158,0,0,0,2.156-2.154V6.427a2.158,2.158,0,0,0-2.156-2.156Z" transform="translate(32.528)" fill="#ed2525"/>
          <path id="Path_8504" data-name="Path 8504" d="M155.756,41.253H98.279a6.434,6.434,0,0,1-6.428-6.425V6.427A6.435,6.435,0,0,1,98.279,0h57.477a6.434,6.434,0,0,1,6.427,6.427v28.4a6.432,6.432,0,0,1-6.427,6.425M98.279,4.271a2.159,2.159,0,0,0-2.158,2.156v28.4a2.159,2.159,0,0,0,2.158,2.154h57.477a2.158,2.158,0,0,0,2.156-2.154V6.427a2.158,2.158,0,0,0-2.156-2.156Z" transform="translate(65.056)" fill="#ed2525"/>
          <path id="Path_8505" data-name="Path 8505" d="M86.868,71.024H29.391A6.434,6.434,0,0,1,22.963,64.6V36.2a6.435,6.435,0,0,1,6.428-6.427H86.868A6.434,6.434,0,0,1,93.295,36.2V64.6a6.432,6.432,0,0,1-6.427,6.425M29.391,34.042A2.159,2.159,0,0,0,27.234,36.2V64.6a2.159,2.159,0,0,0,2.158,2.154H86.868A2.158,2.158,0,0,0,89.024,64.6V36.2a2.158,2.158,0,0,0-2.156-2.156Z" transform="translate(16.264 21.086)" fill="#ed2525"/>
          <path id="Path_8506" data-name="Path 8506" d="M132.793,71.024H75.316A6.434,6.434,0,0,1,68.888,64.6V36.2a6.435,6.435,0,0,1,6.428-6.427h57.477A6.434,6.434,0,0,1,139.22,36.2V64.6a6.432,6.432,0,0,1-6.427,6.425M75.316,34.042A2.159,2.159,0,0,0,73.159,36.2V64.6a2.159,2.159,0,0,0,2.158,2.154h57.477a2.158,2.158,0,0,0,2.156-2.154V36.2a2.158,2.158,0,0,0-2.156-2.156Z" transform="translate(48.792 21.086)" fill="#ed2525"/>
          <path id="Path_8507" data-name="Path 8507" d="M63.9,100.8H6.428A6.434,6.434,0,0,1,0,94.371V65.97a6.435,6.435,0,0,1,6.428-6.427H63.9a6.434,6.434,0,0,1,6.427,6.427v28.4A6.432,6.432,0,0,1,63.9,100.8M6.428,63.814A2.159,2.159,0,0,0,4.271,65.97v28.4a2.159,2.159,0,0,0,2.158,2.154H63.9a2.158,2.158,0,0,0,2.156-2.154V65.97A2.158,2.158,0,0,0,63.9,63.814Z" transform="translate(0 42.173)" fill="#ed2525"/>
          <path id="Path_8508" data-name="Path 8508" d="M109.83,100.8H52.353a6.434,6.434,0,0,1-6.428-6.425V65.97a6.435,6.435,0,0,1,6.428-6.427H109.83a6.432,6.432,0,0,1,6.427,6.427v28.4a6.431,6.431,0,0,1-6.427,6.425M52.353,63.814A2.159,2.159,0,0,0,50.2,65.97v28.4a2.159,2.159,0,0,0,2.158,2.154H109.83a2.158,2.158,0,0,0,2.156-2.154V65.97a2.158,2.158,0,0,0-2.156-2.156Z" transform="translate(32.528 42.173)" fill="#ed2525"/>
          <path id="Path_8509" data-name="Path 8509" d="M86.868,130.567H29.391a6.434,6.434,0,0,1-6.428-6.425v-28.4a6.435,6.435,0,0,1,6.428-6.427H86.868a6.434,6.434,0,0,1,6.427,6.427v28.4a6.432,6.432,0,0,1-6.427,6.425M29.391,93.585a2.159,2.159,0,0,0-2.158,2.156v28.4a2.159,2.159,0,0,0,2.158,2.154H86.868a2.158,2.158,0,0,0,2.156-2.154v-28.4a2.158,2.158,0,0,0-2.156-2.156Z" transform="translate(16.264 63.259)" fill="#ed2525"/>
          <path id="Path_8510" data-name="Path 8510" d="M23.792,71.025H1.25V66.755H23.792a2.458,2.458,0,0,0,2.156-2.668V36.711a2.458,2.458,0,0,0-2.156-2.668H1.25V29.772H23.792a6.705,6.705,0,0,1,6.427,6.939V64.086a6.705,6.705,0,0,1-6.427,6.939" transform="translate(0.885 21.087)" fill="#ed2525"/>
          <path id="Path_8511" data-name="Path 8511" d="M23.792,130.568H1.25V126.3H23.792a2.458,2.458,0,0,0,2.156-2.668V96.254a2.458,2.458,0,0,0-2.156-2.668H1.25V89.315H23.792a6.705,6.705,0,0,1,6.427,6.939v27.375a6.705,6.705,0,0,1-6.427,6.939" transform="translate(0.885 63.26)" fill="#ed2525"/>
          <path id="Path_8512" data-name="Path 8512" d="M143.784,71.025H121.243a6.7,6.7,0,0,1-6.428-6.939V36.711a6.7,6.7,0,0,1,6.428-6.939h22.541v4.271H121.243a2.457,2.457,0,0,0-2.158,2.668V64.086a2.457,2.457,0,0,0,2.158,2.668h22.541Z" transform="translate(81.321 21.087)" fill="#ed2525"/>
          <path id="Path_8513" data-name="Path 8513" d="M155.361,182.956a3.66,3.66,0,0,1-3.1-1.739,3.894,3.894,0,0,1,.152-4.272c2.053-2.843,2.824-6.777,1.874-9.565-1.329-3.91-5.6-6.022-5.644-6.042a10.629,10.629,0,0,0-1.8-.642,20.8,20.8,0,0,1-4.489-1.8,15.7,15.7,0,0,1-5.595-4.281,16.332,16.332,0,0,1-2.865-5.962q-.205-.746-.352-1.5a31.75,31.75,0,0,0-1.954,3.09,23.949,23.949,0,0,0-2.714,6.789,23.017,23.017,0,0,0-.232,8.982,32.692,32.692,0,0,0,4.9,10.839,3.881,3.881,0,0,1,.044,4.583,3.606,3.606,0,0,1-4.517,1.158c-16.991-8.292-26.929-29.032-26.393-43.489.458-12.253,7.921-26.075,15.118-34.34l.265-.3A81.558,81.558,0,0,0,128.965,89a38.489,38.489,0,0,0,3.818-10.88,33.627,33.627,0,0,0,.574-5.058,30.015,30.015,0,0,0-1.1-8.922l-.526-1.884a2.135,2.135,0,0,1,3.2-2.38l1.584,1c7.248,4.588,16.546,12.681,19.679,25.183,2.523,10.06.615,21.352.2,23.513a68.931,68.931,0,0,1-2.134,8.186c-1.092,3.505-1.693,5.436-.931,8.251.893,3.306,3.56,7.569,8.142,8.711,5.96,1.483,10.344-3.492,10.528-3.705,3.71-4.877,2.721-12.732,2.711-12.81l-.366-2.661a2.136,2.136,0,0,1,3.792-1.614l1.628,2.062c.253.321,6.31,8.049,7.638,17.93a47.921,47.921,0,0,1-6.461,30.67A43.292,43.292,0,0,1,156.3,182.829a3.451,3.451,0,0,1-.936.126m-24.42-4.2,0,0,0,0m4.119-39.113a2.175,2.175,0,0,1,.6.087,2.133,2.133,0,0,1,1.519,1.828l.366,3.522a14.99,14.99,0,0,0,.461,2.434,12.13,12.13,0,0,0,2.1,4.459,11.726,11.726,0,0,0,4.238,3.152,16.4,16.4,0,0,0,3.642,1.459,15.471,15.471,0,0,1,2.5.905c.615.3,5.97,3.027,7.838,8.517a15.137,15.137,0,0,1-1.676,12.255A38.988,38.988,0,0,0,177.336,162.3a43.4,43.4,0,0,0,5.832-27.816,34.082,34.082,0,0,0-4.114-11.753,20.392,20.392,0,0,1-3.686,10.9c-.022.029-.092.116-.116.142-.061.072-6.216,7.228-14.812,5.084-6.379-1.589-10.038-7.318-11.234-11.741-1.085-4.014-.174-6.936.979-10.632a65.26,65.26,0,0,0,2.012-7.711c.381-2.007,2.156-12.486-.152-21.683-2.388-9.537-8.926-16.268-14.894-20.624a34.223,34.223,0,0,1,.473,6.71,37.527,37.527,0,0,1-.644,5.726,42.688,42.688,0,0,1-4.233,12.071,85.742,85.742,0,0,1-11.476,16.294l-.263.3c-6.7,7.692-13.649,20.479-14.068,31.689-.465,12.554,7.785,30.33,22.028,38.452a37.22,37.22,0,0,1-4.525-10.907A27.437,27.437,0,0,1,124.7,156.1a28.182,28.182,0,0,1,3.147-7.928,35.832,35.832,0,0,1,3.388-5.043l2.156-2.685a2.135,2.135,0,0,1,1.666-.8" transform="translate(72.706 42.173)" fill="#ed2525"/>
          <path id="Path_8514" data-name="Path 8514" d="M121.656,100.8H98.279a6.7,6.7,0,0,1-6.427-6.939V66.482a6.7,6.7,0,0,1,6.427-6.939H132.9v4.271H98.279a2.457,2.457,0,0,0-2.156,2.668V93.857a2.457,2.457,0,0,0,2.156,2.668h23.378Z" transform="translate(65.057 42.173)" fill="#ed2525"/>
          <path id="Path_8515" data-name="Path 8515" d="M121.154,130.568H75.316a6.706,6.706,0,0,1-6.428-6.939V96.254a6.706,6.706,0,0,1,6.428-6.939h52.9v4.271h-52.9a2.458,2.458,0,0,0-2.158,2.668v27.375a2.458,2.458,0,0,0,2.158,2.668h45.838Z" transform="translate(48.792 63.26)" fill="#ed2525"/>
        </g>
      </g>
    </g>
  </g>
</svg>
