<svg id="Group_6016" data-name="Group 6016" xmlns="http://www.w3.org/2000/svg" xmlns:xlink="http://www.w3.org/1999/xlink" width="138.516" height="119.703" viewBox="0 0 138.516 119.703">
  <defs>
    <clipPath id="clip-path">
      <rect id="Rectangle_623" data-name="Rectangle 623" width="138.516" height="119.703" fill="none"/>
    </clipPath>
  </defs>
  <g id="Group_6015" data-name="Group 6015" clip-path="url(#clip-path)">
    <path id="Path_8502" data-name="Path 8502" d="M33.979,21.935H3.418A3.421,3.421,0,0,1,0,18.519V3.417A3.422,3.422,0,0,1,3.418,0H33.979A3.421,3.421,0,0,1,37.4,3.417v15.1a3.42,3.42,0,0,1-3.417,3.416M3.418,2.271A1.148,1.148,0,0,0,2.271,3.417v15.1a1.148,1.148,0,0,0,1.147,1.145H33.979a1.147,1.147,0,0,0,1.146-1.145V3.417a1.147,1.147,0,0,0-1.146-1.146Z" fill="#ed2525"/>
    <path id="Path_8503" data-name="Path 8503" d="M79.9,21.935H49.343a3.421,3.421,0,0,1-3.418-3.416V3.417A3.422,3.422,0,0,1,49.343,0H79.9a3.42,3.42,0,0,1,3.417,3.417v15.1A3.419,3.419,0,0,1,79.9,21.935M49.343,2.271A1.148,1.148,0,0,0,48.2,3.417v15.1a1.148,1.148,0,0,0,1.147,1.145H79.9a1.147,1.147,0,0,0,1.146-1.145V3.417A1.147,1.147,0,0,0,79.9,2.271Z" transform="translate(-4.211)" fill="#ed2525"/>
    <path id="Path_8504" data-name="Path 8504" d="M125.83,21.935H95.269a3.421,3.421,0,0,1-3.418-3.416V3.417A3.422,3.422,0,0,1,95.269,0H125.83a3.421,3.421,0,0,1,3.417,3.417v15.1a3.42,3.42,0,0,1-3.417,3.416M95.269,2.271a1.148,1.148,0,0,0-1.147,1.146v15.1a1.148,1.148,0,0,0,1.147,1.145H125.83a1.147,1.147,0,0,0,1.146-1.145V3.417a1.147,1.147,0,0,0-1.146-1.146Z" transform="translate(-8.422)" fill="#ed2525"/>
    <path id="Path_8505" data-name="Path 8505" d="M56.942,51.706H26.381a3.421,3.421,0,0,1-3.418-3.416v-15.1a3.422,3.422,0,0,1,3.418-3.417H56.942a3.421,3.421,0,0,1,3.417,3.417v15.1a3.42,3.42,0,0,1-3.417,3.416M26.381,32.042a1.148,1.148,0,0,0-1.147,1.146v15.1a1.148,1.148,0,0,0,1.147,1.145H56.942a1.147,1.147,0,0,0,1.146-1.145v-15.1a1.147,1.147,0,0,0-1.146-1.146Z" transform="translate(-2.106 -2.73)" fill="#ed2525"/>
    <path id="Path_8506" data-name="Path 8506" d="M102.867,51.706H72.306a3.421,3.421,0,0,1-3.418-3.416v-15.1a3.422,3.422,0,0,1,3.418-3.417h30.561a3.421,3.421,0,0,1,3.417,3.417v15.1a3.42,3.42,0,0,1-3.417,3.416M72.306,32.042a1.148,1.148,0,0,0-1.147,1.146v15.1a1.148,1.148,0,0,0,1.147,1.145h30.561a1.147,1.147,0,0,0,1.146-1.145v-15.1a1.147,1.147,0,0,0-1.146-1.146Z" transform="translate(-6.317 -2.73)" fill="#ed2525"/>
    <path id="Path_8507" data-name="Path 8507" d="M33.979,81.478H3.418A3.421,3.421,0,0,1,0,78.062V62.96a3.422,3.422,0,0,1,3.418-3.417H33.979A3.421,3.421,0,0,1,37.4,62.96v15.1a3.42,3.42,0,0,1-3.417,3.416M3.418,61.814A1.148,1.148,0,0,0,2.271,62.96v15.1a1.148,1.148,0,0,0,1.147,1.145H33.979a1.147,1.147,0,0,0,1.146-1.145V62.96a1.147,1.147,0,0,0-1.146-1.146Z" transform="translate(0 -5.46)" fill="#ed2525"/>
    <path id="Path_8508" data-name="Path 8508" d="M79.9,81.478H49.343a3.421,3.421,0,0,1-3.418-3.416V62.96a3.422,3.422,0,0,1,3.418-3.417H79.9a3.42,3.42,0,0,1,3.417,3.417v15.1A3.419,3.419,0,0,1,79.9,81.478M49.343,61.814A1.148,1.148,0,0,0,48.2,62.96v15.1a1.148,1.148,0,0,0,1.147,1.145H79.9a1.147,1.147,0,0,0,1.146-1.145V62.96A1.147,1.147,0,0,0,79.9,61.814Z" transform="translate(-4.211 -5.46)" fill="#ed2525"/>
    <path id="Path_8509" data-name="Path 8509" d="M56.942,111.249H26.381a3.421,3.421,0,0,1-3.418-3.416v-15.1a3.422,3.422,0,0,1,3.418-3.417H56.942a3.421,3.421,0,0,1,3.417,3.417v15.1a3.42,3.42,0,0,1-3.417,3.416M26.381,91.585a1.148,1.148,0,0,0-1.147,1.146v15.1a1.148,1.148,0,0,0,1.147,1.145H56.942a1.147,1.147,0,0,0,1.146-1.145v-15.1a1.147,1.147,0,0,0-1.146-1.146Z" transform="translate(-2.106 -8.19)" fill="#ed2525"/>
    <path id="Path_8510" data-name="Path 8510" d="M13.236,51.707H1.25V49.436H13.236a1.307,1.307,0,0,0,1.146-1.419V33.462a1.307,1.307,0,0,0-1.146-1.419H1.25V29.772H13.236a3.565,3.565,0,0,1,3.417,3.69V48.017a3.565,3.565,0,0,1-3.417,3.69" transform="translate(-0.115 -2.73)" fill="#ed2525"/>
    <path id="Path_8511" data-name="Path 8511" d="M13.236,111.25H1.25v-2.271H13.236a1.307,1.307,0,0,0,1.146-1.419V93a1.307,1.307,0,0,0-1.146-1.419H1.25V89.315H13.236A3.565,3.565,0,0,1,16.653,93V107.56a3.565,3.565,0,0,1-3.417,3.69" transform="translate(-0.115 -8.19)" fill="#ed2525"/>
    <path id="Path_8512" data-name="Path 8512" d="M130.218,51.707H118.233a3.565,3.565,0,0,1-3.418-3.69V33.462a3.565,3.565,0,0,1,3.418-3.69h11.985v2.271H118.233a1.306,1.306,0,0,0-1.147,1.419V48.017a1.306,1.306,0,0,0,1.147,1.419h11.985Z" transform="translate(-10.528 -2.73)" fill="#ed2525"/>
    <path id="Path_8513" data-name="Path 8513" d="M130.678,125.163a1.946,1.946,0,0,1-1.647-.925,2.07,2.07,0,0,1,.081-2.272,6.014,6.014,0,0,0,1-5.086,6.469,6.469,0,0,0-3-3.213,5.651,5.651,0,0,0-.959-.342,11.058,11.058,0,0,1-2.387-.956,8.349,8.349,0,0,1-2.975-2.276,8.684,8.684,0,0,1-1.523-3.17q-.109-.4-.187-.8a16.878,16.878,0,0,0-1.039,1.643,12.733,12.733,0,0,0-1.443,3.61,12.238,12.238,0,0,0-.124,4.776,17.382,17.382,0,0,0,2.6,5.763,2.064,2.064,0,0,1,.024,2.437,1.918,1.918,0,0,1-2.4.616c-9.034-4.409-14.319-15.437-14.033-23.124.243-6.515,4.212-13.864,8.038-18.259l.141-.162a43.366,43.366,0,0,0,5.8-8.22,20.465,20.465,0,0,0,2.03-5.785,17.879,17.879,0,0,0,.305-2.689,15.959,15.959,0,0,0-.586-4.744l-.28-1a1.135,1.135,0,0,1,1.7-1.265l.842.532c3.854,2.44,8.8,6.742,10.464,13.39a32.352,32.352,0,0,1,.109,12.5,36.65,36.65,0,0,1-1.134,4.353c-.58,1.864-.9,2.89-.5,4.387a6.436,6.436,0,0,0,4.329,4.631c3.169.788,5.5-1.857,5.6-1.97,1.973-2.593,1.447-6.77,1.441-6.811l-.194-1.415a1.136,1.136,0,0,1,2.016-.858l.866,1.1a21.692,21.692,0,0,1,4.061,9.534A25.48,25.48,0,0,1,144.28,115.4a23.019,23.019,0,0,1-13.1,9.7,1.835,1.835,0,0,1-.5.067m-12.984-2.234h0m2.19-20.8a1.156,1.156,0,0,1,.322.046,1.134,1.134,0,0,1,.807.972l.194,1.873a7.97,7.97,0,0,0,.245,1.294,6.449,6.449,0,0,0,1.118,2.371,6.235,6.235,0,0,0,2.254,1.676,8.72,8.72,0,0,0,1.937.776,8.225,8.225,0,0,1,1.331.481,8.63,8.63,0,0,1,4.167,4.529,8.048,8.048,0,0,1-.891,6.516,20.73,20.73,0,0,0,11-8.484,23.079,23.079,0,0,0,3.1-14.79,18.121,18.121,0,0,0-2.187-6.249,10.842,10.842,0,0,1-1.96,5.8c-.012.015-.049.062-.062.075-.033.038-3.305,3.843-7.876,2.7a8.737,8.737,0,0,1-5.973-6.243c-.577-2.135-.093-3.688.52-5.653a34.7,34.7,0,0,0,1.07-4.1,29.919,29.919,0,0,0-.081-11.529A19.845,19.845,0,0,0,121,63.227a18.2,18.2,0,0,1,.252,3.568,19.953,19.953,0,0,1-.342,3.045,22.7,22.7,0,0,1-2.251,6.418,45.591,45.591,0,0,1-6.1,8.663l-.14.159c-3.561,4.09-7.257,10.889-7.48,16.849-.247,6.675,4.139,16.127,11.713,20.445a19.79,19.79,0,0,1-2.406-5.8,14.588,14.588,0,0,1,.139-5.693,14.985,14.985,0,0,1,1.673-4.215,19.052,19.052,0,0,1,1.8-2.681L119,102.557a1.135,1.135,0,0,1,.886-.425" transform="translate(-9.413 -5.46)" fill="#ed2525"/>
    <path id="Path_8514" data-name="Path 8514" d="M107.7,81.478H95.269a3.565,3.565,0,0,1-3.417-3.69V63.233a3.565,3.565,0,0,1,3.417-3.69h18.406v2.271H95.269a1.306,1.306,0,0,0-1.146,1.419V77.788a1.306,1.306,0,0,0,1.146,1.419H107.7Z" transform="translate(-8.422 -5.46)" fill="#ed2525"/>
    <path id="Path_8515" data-name="Path 8515" d="M96.679,111.25H72.306a3.565,3.565,0,0,1-3.418-3.69V93a3.565,3.565,0,0,1,3.418-3.69h28.125v2.271H72.306A1.307,1.307,0,0,0,71.159,93V107.56a1.307,1.307,0,0,0,1.147,1.419H96.679Z" transform="translate(-6.317 -8.19)" fill="#ed2525"/>
  </g>
</svg>
