<svg xmlns="http://www.w3.org/2000/svg" xmlns:xlink="http://www.w3.org/1999/xlink" width="461.985" height="74.117" viewBox="0 0 461.985 74.117">
  <defs>
    <clipPath id="clip-path">
      <path id="Path_990" data-name="Path 990" d="M33.31,22.258a2.76,2.76,0,0,1-2.723,1.578c-3.08.1-6.23.027-9.392-.044A98.129,98.129,0,0,0,5.9,24.2c-1.973,2.8-3.8,5.7-5.9,8.9,12.093-.011,23.973-.1,36.039-.071a2.985,2.985,0,0,0,2.981-1.775c5.611-7.343,9.036-24.138,20.822-21.42C55.432,17.463,51.037,25.053,46.434,33c2.932.011,5.836-.016,8.729-.044,5.721-.06,11.392-.121,17.151.148,7.156.778,7.463-4.51,10.707-9.436H62.6C67.437,15.694,72.079,8.028,76.786.241,70.643.2,65.777,0,61.772,0,47.777,0,44.281,2.411,33.31,22.258" fill="none"/>
    </clipPath>
    <linearGradient id="linear-gradient" x1="0.033" y1="1.312" x2="0.094" y2="1.312" gradientUnits="objectBoundingBox">
      <stop offset="0" stop-color="#ed2525"/>
      <stop offset="1" stop-color="#cc2525"/>
    </linearGradient>
    <clipPath id="clip-path-2">
      <path id="Path_991" data-name="Path 991" d="M35.111,7.457c-5.052.071-10.088.049-15.118.033C13.34,7.462,6.688,7.441.014,7.61c1.512,2.7,2.954,5.156,4.252,7.677A2.338,2.338,0,0,0,6.7,16.69c3.726-.022,7.458-.022,11.184-.022,3.891,0,7.787.005,11.677-.033a2.763,2.763,0,0,1,2.745,1.556c2.871,4.784,5.923,9.469,8.833,14.236,4.077,6.943,12.3,8.28,20.549,8.285h.06c4.97,0,9.94-.482,14.022-.515C71.09,32.455,66.427,24.751,61.544,16.69H81.983C80.389,13.917,78.9,11.506,77.594,9a2.6,2.6,0,0,0-2.729-1.534c-4.23.06-8.439.044-12.647.027-5.551-.022-11.107-.044-16.691.1,4.537,7.841,8.959,15.474,13.5,23.321C46.815,32.7,43.8,17.046,37.971,9.084a2.807,2.807,0,0,0-2.838-1.627h-.022" transform="translate(-0.014 -7.457)" fill="none"/>
    </clipPath>
    <linearGradient id="linear-gradient-2" x1="0.031" y1="0.731" x2="0.094" y2="0.731" xlink:href="#linear-gradient"/>
    <clipPath id="clip-path-3">
      <path id="Path_992" data-name="Path 992" d="M37.565,1V14.052H21.723V1H16.934V31.888h4.789V18.206H37.565V31.888h4.817V1Z" transform="translate(-16.934 -1)" fill="none"/>
    </clipPath>
    <linearGradient id="linear-gradient-3" x1="-2.315" y1="1.848" x2="-2.169" y2="1.848" xlink:href="#linear-gradient"/>
    <clipPath id="clip-path-4">
      <path id="Path_993" data-name="Path 993" d="M27.837,21.18a2.794,2.794,0,0,1-1.118-2.334V18.8a2.773,2.773,0,0,1,1.118-2.3,5.732,5.732,0,0,1,3.206-1l5.5-.345v1.753a4.767,4.767,0,0,1-.751,2.625,5.168,5.168,0,0,1-2.044,1.83,6.3,6.3,0,0,1-2.921.663,4.824,4.824,0,0,1-2.992-.855M27.426,3.306a7.634,7.634,0,0,0-3.145,2.449,6.844,6.844,0,0,0-1.31,3.507l-.016.23h4.362l.044-.192a3.593,3.593,0,0,1,1.512-2.208,5.463,5.463,0,0,1,3.2-.849A4.709,4.709,0,0,1,35.383,7.3a3.738,3.738,0,0,1,1.162,2.921V11.9l-6.126.373a10.886,10.886,0,0,0-6.175,1.962,5.635,5.635,0,0,0-2.192,4.674v.044a6.687,6.687,0,0,0,.942,3.551,6.361,6.361,0,0,0,2.63,2.395,8.592,8.592,0,0,0,3.945.86,8.211,8.211,0,0,0,2.811-.482,7.716,7.716,0,0,0,2.367-1.37,7.26,7.26,0,0,0,1.71-2.11h.088v3.556h4.663V9.837A6.865,6.865,0,0,0,40.1,5.919a7.315,7.315,0,0,0-3.123-2.592A11.392,11.392,0,0,0,32.2,2.407a11.646,11.646,0,0,0-4.773.9" transform="translate(-22.051 -2.407)" fill="none"/>
    </clipPath>
    <linearGradient id="linear-gradient-4" x1="-4.113" y1="2.153" x2="-3.92" y2="2.153" xlink:href="#linear-gradient"/>
    <clipPath id="clip-path-5">
      <path id="Path_994" data-name="Path 994" d="M33.055,3.54A5.653,5.653,0,0,0,31.1,6.582h-.088V2.855H26.518V25.377h4.669V11.826a6.133,6.133,0,0,1,.575-2.762,4.139,4.139,0,0,1,1.666-1.786A5.062,5.062,0,0,1,36,6.647a9.466,9.466,0,0,1,1.244.071,4.6,4.6,0,0,1,.833.181V2.6a5.024,5.024,0,0,0-.669-.121,7.972,7.972,0,0,0-.932-.055A5.447,5.447,0,0,0,33.055,3.54" transform="translate(-26.518 -2.428)" fill="none"/>
    </clipPath>
    <linearGradient id="linear-gradient-5" x1="-6.533" y1="2.424" x2="-6.278" y2="2.424" xlink:href="#linear-gradient"/>
    <clipPath id="clip-path-6">
      <path id="Path_995" data-name="Path 995" d="M32.918,1.4V7.258H29.685v3.677h3.233V23.823c0,2.258.542,3.885,1.638,4.893a7.148,7.148,0,0,0,4.975,1.507,12.689,12.689,0,0,0,1.326-.06c.416-.044.762-.088,1.025-.132V26.459c-.164.011-.356.033-.564.055s-.427.027-.674.027a3.367,3.367,0,0,1-2.225-.63,2.966,2.966,0,0,1-.751-2.345V10.935h4.214V7.258H37.669V1.4Z" transform="translate(-29.685 -1.395)" fill="none"/>
    </clipPath>
    <linearGradient id="linear-gradient-6" x1="-6.257" y1="2.17" x2="-6.037" y2="2.17" xlink:href="#linear-gradient"/>
    <clipPath id="clip-path-7">
      <path id="Path_996" data-name="Path 996" d="M37.34,3.189a7.141,7.141,0,0,0-3.063,2.378,5.971,5.971,0,0,0-1.09,3.567v.016a5.408,5.408,0,0,0,1.595,4.017,9.738,9.738,0,0,0,4.806,2.3l3.682.838A5.91,5.91,0,0,1,45.8,17.414a2.315,2.315,0,0,1,.7,1.753v.027a2.457,2.457,0,0,1-.532,1.584,3.388,3.388,0,0,1-1.518,1.014,7.149,7.149,0,0,1-2.4.356,5.465,5.465,0,0,1-3.3-.871,3.941,3.941,0,0,1-1.518-2.406l-.044-.214H32.606l.027.192a7.327,7.327,0,0,0,1.386,3.611A7.6,7.6,0,0,0,37.2,24.872a12.251,12.251,0,0,0,4.849.871,11.935,11.935,0,0,0,4.718-.877,7.734,7.734,0,0,0,3.244-2.444,5.848,5.848,0,0,0,1.178-3.611v-.027A5.266,5.266,0,0,0,49.746,14.9a10.136,10.136,0,0,0-4.893-2.236l-3.682-.855a5.552,5.552,0,0,1-2.564-1.134,2.322,2.322,0,0,1-.778-1.759V8.893a2.632,2.632,0,0,1,.493-1.573A3.157,3.157,0,0,1,39.74,6.285,5.729,5.729,0,0,1,41.9,5.923a4.716,4.716,0,0,1,3.08.932A3.553,3.553,0,0,1,46.3,9.26l.027.148h4.345V9.151a6.654,6.654,0,0,0-1.189-3.458A7.408,7.408,0,0,0,46.48,3.244a10.792,10.792,0,0,0-4.581-.9,11.566,11.566,0,0,0-4.559.844" transform="translate(-32.606 -2.345)" fill="none"/>
    </clipPath>
    <linearGradient id="linear-gradient-7" x1="-6.263" y1="2.178" x2="-6.066" y2="2.178" xlink:href="#linear-gradient"/>
    <clipPath id="clip-path-8">
      <path id="Path_997" data-name="Path 997" d="M41.095,2.47a6.524,6.524,0,0,0-1.606,4.849V9.714h-3.1V13.4h3.1V32.235h4.663V13.4h4.477V9.714H44.07V7.4a2.975,2.975,0,0,1,.751-2.23,3.131,3.131,0,0,1,2.285-.74c.29,0,.575.005.86.016s.532.033.751.066V1.089A9.555,9.555,0,0,0,47.55.952C47.068.919,46.6.9,46.125.9q-3.419,0-5.03,1.573" transform="translate(-36.388 -0.897)" fill="none"/>
    </clipPath>
    <linearGradient id="linear-gradient-8" x1="-7.302" y1="2.1" x2="-7.094" y2="2.1" xlink:href="#linear-gradient"/>
    <clipPath id="clip-path-9">
      <path id="Path_998" data-name="Path 998" d="M40.009,32.175h4.663V9.659H40.009Zm.422-30.543a2.551,2.551,0,0,0-.789,1.9,2.543,2.543,0,0,0,.789,1.874,2.725,2.725,0,0,0,3.825,0,2.558,2.558,0,0,0,.784-1.874,2.567,2.567,0,0,0-.784-1.9,2.753,2.753,0,0,0-3.825,0" transform="translate(-39.642 -0.859)" fill="none"/>
    </clipPath>
    <linearGradient id="linear-gradient-9" x1="-10.316" y1="2.305" x2="-10.047" y2="2.305" xlink:href="#linear-gradient"/>
    <clipPath id="clip-path-10">
      <path id="Path_999" data-name="Path 999" d="M46.84,9.227a5.328,5.328,0,0,1,5.008-3.195,5.6,5.6,0,0,1,2.943.767A5.1,5.1,0,0,1,56.78,9.145a8.11,8.11,0,0,1,.663,2.685H46.15a7.856,7.856,0,0,1,.69-2.6M46.347,3.71a9.727,9.727,0,0,0-3.617,4.11,13.86,13.86,0,0,0-1.288,6.154v.022a14.028,14.028,0,0,0,1.271,6.17,9.3,9.3,0,0,0,3.666,4.049,10.893,10.893,0,0,0,5.682,1.419,11.662,11.662,0,0,0,3.721-.553,9.387,9.387,0,0,0,2.9-1.529,8.776,8.776,0,0,0,2-2.2,7.684,7.684,0,0,0,1.052-2.543l.038-.236H57.367l-.06.17a3.884,3.884,0,0,1-.975,1.551,5.014,5.014,0,0,1-1.743,1.112,6.471,6.471,0,0,1-2.416.422A6.187,6.187,0,0,1,48.934,21a5.4,5.4,0,0,1-2.1-2.373,8.505,8.505,0,0,1-.74-3.523H62.041V13.545A13.442,13.442,0,0,0,60.8,7.606a9.258,9.258,0,0,0-3.523-3.962,10.16,10.16,0,0,0-5.447-1.4,10.087,10.087,0,0,0-5.48,1.469" transform="translate(-41.443 -2.241)" fill="none"/>
    </clipPath>
    <linearGradient id="linear-gradient-10" x1="-7.538" y1="2.141" x2="-7.352" y2="2.141" xlink:href="#linear-gradient"/>
    <clipPath id="clip-path-11">
      <rect id="Rectangle_325" data-name="Rectangle 325" width="4.647" height="30.889" fill="none"/>
    </clipPath>
    <linearGradient id="linear-gradient-11" x1="-12.625" y1="2.369" x2="-12.343" y2="2.369" xlink:href="#linear-gradient"/>
    <clipPath id="clip-path-12">
      <path id="Path_1000" data-name="Path 1000" d="M55.615,27.2a5.788,5.788,0,0,1-2.044-2.663,10.822,10.822,0,0,1-.718-4.121V20.4a10.647,10.647,0,0,1,.718-4.1,5.977,5.977,0,0,1,2.044-2.658,5.38,5.38,0,0,1,3.145-.926,5.143,5.143,0,0,1,3.085.953,6.452,6.452,0,0,1,2.1,2.674,9.841,9.841,0,0,1,.773,4.055v.022a10.025,10.025,0,0,1-.762,4.066,6.291,6.291,0,0,1-2.1,2.685,5.2,5.2,0,0,1-3.1.959,5.38,5.38,0,0,1-3.145-.926M64.694.792v12.2h-.088a7.774,7.774,0,0,0-2.882-3.123A7.916,7.916,0,0,0,57.5,8.732a8.557,8.557,0,0,0-4.932,1.425,9.261,9.261,0,0,0-3.277,4.033A15.142,15.142,0,0,0,48.124,20.4v.022a15.31,15.31,0,0,0,1.156,6.219,9.288,9.288,0,0,0,3.277,4.055,8.688,8.688,0,0,0,4.986,1.43,7.633,7.633,0,0,0,7.063-4.252h.088v3.808h4.663V.792Z" transform="translate(-48.124 -0.792)" fill="none"/>
    </clipPath>
    <linearGradient id="linear-gradient-12" x1="-7.555" y1="1.924" x2="-7.394" y2="1.924" xlink:href="#linear-gradient"/>
    <clipPath id="clip-path-13">
      <rect id="Rectangle_328" data-name="Rectangle 328" width="13.765" height="4.219" fill="none"/>
    </clipPath>
    <linearGradient id="linear-gradient-13" x1="-20.614" y1="5.381" x2="-20.224" y2="5.381" xlink:href="#linear-gradient"/>
    <clipPath id="clip-path-14">
      <path id="Path_1001" data-name="Path 1001" d="M68.4.792V22.475a5.842,5.842,0,0,1-1.255,4.044,5.364,5.364,0,0,1-6.011.822,4.007,4.007,0,0,1-1.507-1.518,5.182,5.182,0,0,1-.641-2.132l-.022-.17H54.23l.022.263a9.363,9.363,0,0,0,1.255,4.351,7.8,7.8,0,0,0,3.167,2.975,10.364,10.364,0,0,0,4.888,1.079,9.58,9.58,0,0,0,7.1-2.543A9.673,9.673,0,0,0,73.2,22.513V.792Z" transform="translate(-54.23 -0.792)" fill="none"/>
    </clipPath>
    <linearGradient id="linear-gradient-14" x1="-9.044" y1="1.966" x2="-8.874" y2="1.966" xlink:href="#linear-gradient"/>
    <clipPath id="clip-path-15">
      <path id="Path_1002" data-name="Path 1002" d="M64.207,21.014a2.77,2.77,0,0,1-1.123-2.334v-.044a2.766,2.766,0,0,1,1.123-2.3,5.77,5.77,0,0,1,3.2-.992l5.5-.34v1.753a4.749,4.749,0,0,1-.751,2.619,5.167,5.167,0,0,1-2.044,1.83,6.356,6.356,0,0,1-2.926.663,4.8,4.8,0,0,1-2.981-.855M63.791,3.145A7.6,7.6,0,0,0,60.64,5.595a6.879,6.879,0,0,0-1.3,3.5l-.022.236h4.367l.044-.192a3.566,3.566,0,0,1,1.507-2.2,5.407,5.407,0,0,1,3.2-.86,4.75,4.75,0,0,1,3.321,1.063,3.773,3.773,0,0,1,1.156,2.921v1.688l-6.121.367a10.917,10.917,0,0,0-6.181,1.956,5.646,5.646,0,0,0-2.192,4.68v.038a6.707,6.707,0,0,0,.942,3.556,6.45,6.45,0,0,0,2.63,2.4,8.621,8.621,0,0,0,3.94.855,8.068,8.068,0,0,0,2.817-.482,7.707,7.707,0,0,0,2.362-1.37,7.239,7.239,0,0,0,1.715-2.1h.088V25.19h4.663V9.666a6.872,6.872,0,0,0-1.112-3.912,7.245,7.245,0,0,0-3.123-2.592,12.94,12.94,0,0,0-9.545-.016" transform="translate(-58.415 -2.241)" fill="none"/>
    </clipPath>
    <linearGradient id="linear-gradient-15" x1="-11.163" y1="2.184" x2="-10.969" y2="2.184" xlink:href="#linear-gradient"/>
    <clipPath id="clip-path-16">
      <path id="Path_1003" data-name="Path 1003" d="M67.441,3.666A9.583,9.583,0,0,0,63.732,7.7a13.606,13.606,0,0,0-1.321,6.186v.022a14.079,14.079,0,0,0,1.293,6.23,9.525,9.525,0,0,0,3.7,4.066,10.941,10.941,0,0,0,5.682,1.43A10.379,10.379,0,0,0,77.9,24.576a9.02,9.02,0,0,0,3.359-2.866,8.566,8.566,0,0,0,1.534-4.06V17.5H78.34l-.022.175a5.34,5.34,0,0,1-1.748,2.937,5.127,5.127,0,0,1-3.458,1.123,5.4,5.4,0,0,1-3.134-.915,5.983,5.983,0,0,1-2.088-2.669,10.637,10.637,0,0,1-.745-4.2v-.022a10.635,10.635,0,0,1,.74-4.154,6.116,6.116,0,0,1,2.071-2.707,5.226,5.226,0,0,1,3.112-.953,5.015,5.015,0,0,1,3.567,1.211,5.412,5.412,0,0,1,1.655,2.86l.049.192h4.428l-.022-.175a8.431,8.431,0,0,0-1.392-3.94,8.636,8.636,0,0,0-3.31-2.915,10.568,10.568,0,0,0-4.992-1.107,10.747,10.747,0,0,0-5.611,1.425" transform="translate(-62.411 -2.241)" fill="none"/>
    </clipPath>
    <linearGradient id="linear-gradient-16" x1="-11.501" y1="2.144" x2="-11.315" y2="2.144" xlink:href="#linear-gradient"/>
    <clipPath id="clip-path-17">
      <path id="Path_1004" data-name="Path 1004" d="M66.459.792V31.68h4.647V23.565l1.907-1.907L80.651,31.68h5.37l-9.595-12.8,9.255-9.721H80.224L71.21,18.754h-.1V.792Z" transform="translate(-66.459 -0.792)" fill="none"/>
    </clipPath>
    <linearGradient id="linear-gradient-17" x1="-11.047" y1="1.996" x2="-10.878" y2="1.996" xlink:href="#linear-gradient"/>
    <clipPath id="clip-path-18">
      <path id="Path_1005" data-name="Path 1005" d="M74.818,3.09A7.064,7.064,0,0,0,71.76,5.463a5.929,5.929,0,0,0-1.09,3.562v.027a5.371,5.371,0,0,0,1.589,4.006,9.767,9.767,0,0,0,4.806,2.307l3.682.833a5.78,5.78,0,0,1,2.526,1.112,2.287,2.287,0,0,1,.707,1.759v.016a2.436,2.436,0,0,1-.532,1.584,3.371,3.371,0,0,1-1.523,1.019,7.124,7.124,0,0,1-2.395.351,5.5,5.5,0,0,1-3.3-.866,3.941,3.941,0,0,1-1.518-2.406l-.049-.214H70.089l.022.192A7.262,7.262,0,0,0,71.5,22.351a7.527,7.527,0,0,0,3.178,2.417,12.217,12.217,0,0,0,4.849.866,11.935,11.935,0,0,0,4.718-.877,7.765,7.765,0,0,0,3.238-2.433A5.816,5.816,0,0,0,88.67,18.7V18.68a5.278,5.278,0,0,0-1.447-3.885,10.136,10.136,0,0,0-4.893-2.236L78.654,11.7a5.521,5.521,0,0,1-2.57-1.134,2.325,2.325,0,0,1-.773-1.753V8.789A2.607,2.607,0,0,1,75.8,7.216a3.071,3.071,0,0,1,1.414-1.036,5.877,5.877,0,0,1,2.159-.367,4.666,4.666,0,0,1,3.08.937,3.627,3.627,0,0,1,1.332,2.406l.022.153h4.345V9.052a6.558,6.558,0,0,0-1.189-3.458,7.321,7.321,0,0,0-3.008-2.449,10.691,10.691,0,0,0-4.581-.9,11.373,11.373,0,0,0-4.559.849" transform="translate(-70.089 -2.241)" fill="none"/>
    </clipPath>
    <linearGradient id="linear-gradient-18" x1="-13.655" y1="2.198" x2="-13.458" y2="2.198" xlink:href="#linear-gradient"/>
    <clipPath id="clip-path-19">
      <path id="Path_1006" data-name="Path 1006" d="M81.48,20.822a5.837,5.837,0,0,1-2.088-2.669,10.8,10.8,0,0,1-.74-4.225v-.044A10.54,10.54,0,0,1,79.4,9.693a5.934,5.934,0,0,1,2.088-2.652A5.333,5.333,0,0,1,84.6,6.115a5.483,5.483,0,0,1,3.145.91,5.75,5.75,0,0,1,2.077,2.658,10.849,10.849,0,0,1,.729,4.2v.044a10.907,10.907,0,0,1-.729,4.225,5.852,5.852,0,0,1-2.055,2.669,5.328,5.328,0,0,1-3.123.915,5.467,5.467,0,0,1-3.167-.915M79,3.655a9.681,9.681,0,0,0-3.743,4.028,13.4,13.4,0,0,0-1.337,6.2v.044a13.669,13.669,0,0,0,1.326,6.236,9.591,9.591,0,0,0,3.737,4.049,11.845,11.845,0,0,0,11.244,0,9.7,9.7,0,0,0,3.737-4.038,13.512,13.512,0,0,0,1.342-6.247v-.044a13.537,13.537,0,0,0-1.342-6.23,9.574,9.574,0,0,0-3.743-4.011A11.883,11.883,0,0,0,79,3.655" transform="translate(-73.924 -2.241)" fill="none"/>
    </clipPath>
    <linearGradient id="linear-gradient-19" x1="-13.259" y1="2.12" x2="-13.078" y2="2.12" xlink:href="#linear-gradient"/>
    <clipPath id="clip-path-20">
      <path id="Path_1007" data-name="Path 1007" d="M86.264,3.3a7.13,7.13,0,0,0-2.63,2.773h-.082v-3.4H78.883V25.19h4.669V12.071A6.832,6.832,0,0,1,84.2,8.986a4.874,4.874,0,0,1,1.869-2.038A5.406,5.406,0,0,1,88.9,6.225a4.49,4.49,0,0,1,3.584,1.364,5.828,5.828,0,0,1,1.189,3.923V25.19h4.647V10.608a8.745,8.745,0,0,0-2.038-6.126,7.346,7.346,0,0,0-5.732-2.241A8.13,8.13,0,0,0,86.264,3.3" transform="translate(-78.883 -2.241)" fill="none"/>
    </clipPath>
    <linearGradient id="linear-gradient-20" x1="-15.114" y1="2.211" x2="-14.92" y2="2.211" xlink:href="#linear-gradient"/>
    <clipPath id="clip-path-21">
      <path id="Path_1008" data-name="Path 1008" d="M25.179,11.248h.049l3.129,8.844H22.045Zm.614-2.893H24.012l-7.184,19.31H19.36l1.956-5.518h7.77l1.951,5.518h2.526L26.39,8.355Z" transform="translate(-16.828 -8.355)" fill="none"/>
    </clipPath>
    <linearGradient id="linear-gradient-21" x1="-3.665" y1="1.276" x2="-3.438" y2="1.276" xlink:href="#linear-gradient"/>
    <clipPath id="clip-path-22">
      <path id="Path_1009" data-name="Path 1009" d="M22.3,8.655v3.754H20.272v1.929H22.3v8.444a3.846,3.846,0,0,0,.953,2.9,3.984,3.984,0,0,0,2.86.91,5.714,5.714,0,0,0,.69-.033c.225-.016.416-.044.559-.06V24.612c-.1.005-.214.022-.345.033a3.292,3.292,0,0,1-.405.022,2.224,2.224,0,0,1-1.419-.395,1.879,1.879,0,0,1-.482-1.507V14.337h2.652V12.409H24.71V8.655Z" transform="translate(-20.272 -8.655)" fill="none"/>
    </clipPath>
    <linearGradient id="linear-gradient-22" x1="-7.087" y1="1.421" x2="-6.725" y2="1.421" xlink:href="#linear-gradient"/>
    <clipPath id="clip-path-23">
      <rect id="Rectangle_339" data-name="Rectangle 339" width="2.329" height="19.305" fill="none"/>
    </clipPath>
    <linearGradient id="linear-gradient-23" x1="-10.107" y1="1.545" x2="-9.637" y2="1.545" xlink:href="#linear-gradient"/>
    <clipPath id="clip-path-24">
      <path id="Path_1010" data-name="Path 1010" d="M26.729,21.128a1.909,1.909,0,0,1-.756-1.589v-.033a1.85,1.85,0,0,1,.767-1.556,3.783,3.783,0,0,1,2.159-.674l3.721-.225V18.18a3.263,3.263,0,0,1-.515,1.814,3.6,3.6,0,0,1-1.392,1.26,4.11,4.11,0,0,1-1.973.46,3.2,3.2,0,0,1-2.011-.586m.044-11.282A4.756,4.756,0,0,0,24.91,11.33a4.178,4.178,0,0,0-.784,2.093l-.016.148h2.252l.022-.121a2.462,2.462,0,0,1,1.025-1.518,3.665,3.665,0,0,1,2.164-.581,3.234,3.234,0,0,1,2.252.723,2.589,2.589,0,0,1,.795,2v1.167l-3.984.225a6.39,6.39,0,0,0-3.721,1.2,3.463,3.463,0,0,0-1.326,2.838v.033a4.188,4.188,0,0,0,.581,2.208A3.869,3.869,0,0,0,25.8,23.21a5.254,5.254,0,0,0,2.422.526,5.044,5.044,0,0,0,1.775-.312,5.19,5.19,0,0,0,1.507-.882,4.689,4.689,0,0,0,1.069-1.326h.049v2.252h2.329V13.846a4.423,4.423,0,0,0-.652-2.411,4.328,4.328,0,0,0-1.858-1.584,6.649,6.649,0,0,0-2.844-.559,6.682,6.682,0,0,0-2.822.553" transform="translate(-23.589 -9.292)" fill="none"/>
    </clipPath>
    <linearGradient id="linear-gradient-24" x1="-7.41" y1="1.38" x2="-7.089" y2="1.38" xlink:href="#linear-gradient"/>
    <clipPath id="clip-path-25">
      <path id="Path_1011" data-name="Path 1011" d="M30.482,9.928a4.431,4.431,0,0,0-1.633,1.611h-.055V9.555H26.465V23.468h2.329V15.281a4.529,4.529,0,0,1,.449-2.077,3.349,3.349,0,0,1,1.26-1.37,3.693,3.693,0,0,1,1.918-.482,3.049,3.049,0,0,1,2.4.9,3.812,3.812,0,0,1,.795,2.6v8.614h2.329v-9.03a5.376,5.376,0,0,0-1.266-3.764,4.556,4.556,0,0,0-3.551-1.381,5.09,5.09,0,0,0-2.647.636" transform="translate(-26.465 -9.292)" fill="none"/>
    </clipPath>
    <linearGradient id="linear-gradient-25" x1="-8.353" y1="1.409" x2="-8.031" y2="1.409" xlink:href="#linear-gradient"/>
    <clipPath id="clip-path-26">
      <path id="Path_1012" data-name="Path 1012" d="M31.293,8.655v3.754H29.26v1.929h2.033v8.444a3.846,3.846,0,0,0,.948,2.9,3.984,3.984,0,0,0,2.86.91,5.714,5.714,0,0,0,.69-.033c.23-.016.416-.044.559-.06V24.612c-.1.005-.214.022-.345.033a3.177,3.177,0,0,1-.405.022,2.235,2.235,0,0,1-1.419-.395,1.9,1.9,0,0,1-.482-1.507V14.337h2.652V12.409H33.7V8.655Z" transform="translate(-29.26 -8.655)" fill="none"/>
    </clipPath>
    <linearGradient id="linear-gradient-26" x1="-10.347" y1="1.421" x2="-9.984" y2="1.421" xlink:href="#linear-gradient"/>
    <clipPath id="clip-path-27">
      <path id="Path_1013" data-name="Path 1013" d="M34.329,21.128a1.909,1.909,0,0,1-.756-1.589v-.033a1.855,1.855,0,0,1,.773-1.556,3.769,3.769,0,0,1,2.159-.674l3.715-.225V18.18a3.3,3.3,0,0,1-.51,1.814,3.636,3.636,0,0,1-1.392,1.26,4.147,4.147,0,0,1-1.978.46,3.213,3.213,0,0,1-2.011-.586m.049-11.282A4.775,4.775,0,0,0,32.51,11.33a4.178,4.178,0,0,0-.784,2.093l-.011.148h2.241l.033-.121a2.41,2.41,0,0,1,1.019-1.518,3.676,3.676,0,0,1,2.164-.581,3.234,3.234,0,0,1,2.252.723,2.589,2.589,0,0,1,.795,2v1.167l-3.984.225a6.386,6.386,0,0,0-3.715,1.2,3.452,3.452,0,0,0-1.332,2.838v.033a4.142,4.142,0,0,0,.586,2.208A3.837,3.837,0,0,0,33.4,23.21a5.223,5.223,0,0,0,2.422.526,5.036,5.036,0,0,0,1.77-.312,5.162,5.162,0,0,0,1.5-.882,4.421,4.421,0,0,0,1.069-1.326h.055v2.252h2.329V13.846a4.377,4.377,0,0,0-.652-2.411,4.328,4.328,0,0,0-1.858-1.584,7.479,7.479,0,0,0-5.66-.005" transform="translate(-31.189 -9.292)" fill="none"/>
    </clipPath>
    <linearGradient id="linear-gradient-27" x1="-9.851" y1="1.38" x2="-9.53" y2="1.38" xlink:href="#linear-gradient"/>
    <clipPath id="clip-path-28">
      <rect id="Rectangle_345" data-name="Rectangle 345" width="2.411" height="19.305" fill="none"/>
    </clipPath>
    <linearGradient id="linear-gradient-28" x1="-16.147" y1="1.542" x2="-15.68" y2="1.542" xlink:href="#linear-gradient"/>
    <clipPath id="clip-path-29">
      <path id="Path_1014" data-name="Path 1014" d="M40.807,9.928a4.456,4.456,0,0,0-1.627,1.611h-.055V9.555H36.8V23.468h2.329V15.281a4.6,4.6,0,0,1,.444-2.077,3.35,3.35,0,0,1,1.277-1.37,3.626,3.626,0,0,1,1.907-.482,3.041,3.041,0,0,1,2.4.9,3.812,3.812,0,0,1,.795,2.6v8.614h2.334v-9.03a5.379,5.379,0,0,0-1.271-3.764,4.548,4.548,0,0,0-3.551-1.381,5.125,5.125,0,0,0-2.652.636" transform="translate(-36.796 -9.292)" fill="none"/>
    </clipPath>
    <linearGradient id="linear-gradient-29" x1="-11.674" y1="1.409" x2="-11.352" y2="1.409" xlink:href="#linear-gradient"/>
    <clipPath id="clip-path-30">
      <path id="Path_1015" data-name="Path 1015" d="M41.638,8.655v3.754H39.6v1.929h2.033v8.444a3.868,3.868,0,0,0,.948,2.9,4.023,4.023,0,0,0,2.871.91,5.677,5.677,0,0,0,.685-.033c.23-.016.411-.044.559-.06V24.612c-.1.005-.219.022-.345.033a3.234,3.234,0,0,1-.406.022,2.213,2.213,0,0,1-1.419-.395,1.879,1.879,0,0,1-.482-1.507V14.337H46.7V12.409H44.049V8.655Z" transform="translate(-39.605 -8.655)" fill="none"/>
    </clipPath>
    <linearGradient id="linear-gradient-30" x1="-14.095" y1="1.42" x2="-13.732" y2="1.42" xlink:href="#linear-gradient"/>
    <clipPath id="clip-path-31">
      <path id="Path_1016" data-name="Path 1016" d="M44.381,13.495a3.687,3.687,0,0,1,1.392-1.606,3.776,3.776,0,0,1,1.995-.537,3.735,3.735,0,0,1,1.967.51,3.438,3.438,0,0,1,1.337,1.573,5.5,5.5,0,0,1,.46,1.89H43.91a5.5,5.5,0,0,1,.471-1.83m.1-3.288a6.057,6.057,0,0,0-2.186,2.553,8.817,8.817,0,0,0-.778,3.8v.011a8.769,8.769,0,0,0,.773,3.792A5.792,5.792,0,0,0,44.5,22.854a6.421,6.421,0,0,0,3.425.882,6.936,6.936,0,0,0,2.121-.312,6.031,6.031,0,0,0,1.737-.882,5.088,5.088,0,0,0,1.249-1.321,4.438,4.438,0,0,0,.663-1.606l.027-.132H51.433l-.044.121a2.785,2.785,0,0,1-.669,1.074,3.32,3.32,0,0,1-1.162.734,4.59,4.59,0,0,1-1.584.263,4.168,4.168,0,0,1-2.175-.553,3.689,3.689,0,0,1-1.425-1.6,5.62,5.62,0,0,1-.5-2.378H53.893v-.855a8.594,8.594,0,0,0-.74-3.671,5.622,5.622,0,0,0-2.1-2.449,5.991,5.991,0,0,0-3.271-.877,5.847,5.847,0,0,0-3.3.915" transform="translate(-41.515 -9.292)" fill="none"/>
    </clipPath>
    <linearGradient id="linear-gradient-31" x1="-12.524" y1="1.354" x2="-12.218" y2="1.354" xlink:href="#linear-gradient"/>
    <clipPath id="clip-path-32">
      <path id="Path_1017" data-name="Path 1017" d="M47.932,9.977a3.482,3.482,0,0,0-1.249,1.83h-.055V9.555H44.436V23.468h2.329v-8.7a3.766,3.766,0,0,1,.367-1.715,2.758,2.758,0,0,1,1.041-1.14,2.962,2.962,0,0,1,1.573-.405c.285,0,.542.016.773.038a2.386,2.386,0,0,1,.477.093V9.385a3.812,3.812,0,0,0-.384-.066,4.384,4.384,0,0,0-.559-.027,3.391,3.391,0,0,0-2.121.685" transform="translate(-44.436 -9.292)" fill="none"/>
    </clipPath>
    <linearGradient id="linear-gradient-32" x1="-18.827" y1="1.536" x2="-18.398" y2="1.536" xlink:href="#linear-gradient"/>
    <clipPath id="clip-path-33">
      <path id="Path_1018" data-name="Path 1018" d="M50.382,9.928a4.334,4.334,0,0,0-1.627,1.611H48.7V9.555H46.365V23.468H48.7V15.281a4.529,4.529,0,0,1,.444-2.077,3.361,3.361,0,0,1,1.266-1.37,3.66,3.66,0,0,1,1.912-.482,3.053,3.053,0,0,1,2.406.9,3.839,3.839,0,0,1,.789,2.6v8.614h2.329v-9.03a5.351,5.351,0,0,0-1.266-3.764,4.543,4.543,0,0,0-3.545-1.381,5.07,5.07,0,0,0-2.652.636" transform="translate(-46.365 -9.292)" fill="none"/>
    </clipPath>
    <linearGradient id="linear-gradient-33" x1="-14.756" y1="1.409" x2="-14.434" y2="1.409" xlink:href="#linear-gradient"/>
    <clipPath id="clip-path-34">
      <path id="Path_1019" data-name="Path 1019" d="M52.31,21.128a1.924,1.924,0,0,1-.756-1.589v-.033a1.865,1.865,0,0,1,.767-1.556,3.783,3.783,0,0,1,2.159-.674l3.721-.225V18.18a3.263,3.263,0,0,1-.515,1.814,3.581,3.581,0,0,1-1.386,1.26,4.125,4.125,0,0,1-1.973.46,3.208,3.208,0,0,1-2.016-.586m.044-11.282a4.8,4.8,0,0,0-1.863,1.485,4.178,4.178,0,0,0-.784,2.093l-.011.148h2.247l.022-.121a2.462,2.462,0,0,1,1.025-1.518,3.676,3.676,0,0,1,2.164-.581,3.234,3.234,0,0,1,2.252.723,2.608,2.608,0,0,1,.795,2v1.167l-3.984.225a6.4,6.4,0,0,0-3.721,1.2,3.458,3.458,0,0,0-1.321,2.838v.033a4.186,4.186,0,0,0,.575,2.208,3.869,3.869,0,0,0,1.627,1.463,5.247,5.247,0,0,0,2.417.526,4.978,4.978,0,0,0,1.775-.312,5.119,5.119,0,0,0,1.507-.882,4.6,4.6,0,0,0,1.069-1.326H58.2v2.252H60.53V13.846a4.423,4.423,0,0,0-.652-2.411A4.328,4.328,0,0,0,58.02,9.851a7.493,7.493,0,0,0-5.666-.005" transform="translate(-49.176 -9.292)" fill="none"/>
    </clipPath>
    <linearGradient id="linear-gradient-34" x1="-15.633" y1="1.38" x2="-15.312" y2="1.38" xlink:href="#linear-gradient"/>
    <clipPath id="clip-path-35">
      <path id="Path_1020" data-name="Path 1020" d="M53.884,8.655v3.754H51.851v1.929h2.033v8.444a3.867,3.867,0,0,0,.943,2.9,4,4,0,0,0,2.871.91,5.677,5.677,0,0,0,.685-.033c.23-.016.411-.044.553-.06V24.612c-.093.005-.214.022-.34.033a3.178,3.178,0,0,1-.406.022,2.224,2.224,0,0,1-1.419-.395,1.9,1.9,0,0,1-.482-1.507V14.337h2.647V12.409H56.289V8.655Z" transform="translate(-51.851 -8.655)" fill="none"/>
    </clipPath>
    <linearGradient id="linear-gradient-35" x1="-18.547" y1="1.421" x2="-18.184" y2="1.421" xlink:href="#linear-gradient"/>
    <clipPath id="clip-path-36">
      <path id="Path_1021" data-name="Path 1021" d="M54.256,27.562h2.329V13.649H54.256ZM54.387,8.8a1.463,1.463,0,0,0,1.036,2.5,1.381,1.381,0,0,0,1.03-.427,1.482,1.482,0,0,0,0-2.071,1.4,1.4,0,0,0-1.03-.422,1.418,1.418,0,0,0-1.036.422" transform="translate(-53.96 -8.378)" fill="none"/>
    </clipPath>
    <linearGradient id="linear-gradient-36" x1="-24.023" y1="1.533" x2="-23.571" y2="1.533" xlink:href="#linear-gradient"/>
    <clipPath id="clip-path-37">
      <path id="Path_1022" data-name="Path 1022" d="M59.4,21.068A3.947,3.947,0,0,1,57.98,19.3a6.864,6.864,0,0,1-.51-2.784v-.027a6.818,6.818,0,0,1,.51-2.778A3.989,3.989,0,0,1,59.4,11.955a4.1,4.1,0,0,1,4.269-.005A3.929,3.929,0,0,1,65.087,13.7a6.942,6.942,0,0,1,.5,2.784v.027a6.961,6.961,0,0,1-.5,2.784,3.964,3.964,0,0,1-1.408,1.77,3.713,3.713,0,0,1-2.137.608,3.78,3.78,0,0,1-2.143-.608m-1.238-10.9A5.888,5.888,0,0,0,55.9,12.651a8.443,8.443,0,0,0-.811,3.836v.027a8.452,8.452,0,0,0,.811,3.83,5.961,5.961,0,0,0,2.263,2.51,6.888,6.888,0,0,0,6.745,0,6.046,6.046,0,0,0,2.252-2.5,8.467,8.467,0,0,0,.806-3.841v-.027a8.443,8.443,0,0,0-.806-3.836A5.911,5.911,0,0,0,64.9,10.169a6.915,6.915,0,0,0-6.74,0" transform="translate(-55.087 -9.292)" fill="none"/>
    </clipPath>
    <linearGradient id="linear-gradient-37" x1="-16.279" y1="1.343" x2="-15.981" y2="1.343" xlink:href="#linear-gradient"/>
    <clipPath id="clip-path-38">
      <path id="Path_1023" data-name="Path 1023" d="M62.255,9.928a4.374,4.374,0,0,0-1.627,1.611h-.055V9.555H58.238V23.468h2.334V15.281a4.6,4.6,0,0,1,.444-2.077,3.338,3.338,0,0,1,1.271-1.37,3.626,3.626,0,0,1,1.907-.482,3.053,3.053,0,0,1,2.406.9,3.812,3.812,0,0,1,.795,2.6v8.614h2.329v-9.03a5.376,5.376,0,0,0-1.266-3.764,4.564,4.564,0,0,0-3.551-1.381,5.07,5.07,0,0,0-2.652.636" transform="translate(-58.238 -9.292)" fill="none"/>
    </clipPath>
    <linearGradient id="linear-gradient-38" x1="-18.571" y1="1.409" x2="-18.249" y2="1.409" xlink:href="#linear-gradient"/>
    <clipPath id="clip-path-39">
      <path id="Path_1024" data-name="Path 1024" d="M64.151,21.128a1.924,1.924,0,0,1-.756-1.589v-.033a1.855,1.855,0,0,1,.773-1.556,3.783,3.783,0,0,1,2.159-.674l3.721-.225V18.18a3.308,3.308,0,0,1-.515,1.814,3.559,3.559,0,0,1-1.392,1.26,4.1,4.1,0,0,1-1.978.46,3.2,3.2,0,0,1-2.011-.586m.044-11.282a4.777,4.777,0,0,0-1.858,1.485,4.128,4.128,0,0,0-.784,2.093l-.016.148h2.252l.022-.121a2.432,2.432,0,0,1,1.019-1.518A3.683,3.683,0,0,1,67,11.352a3.21,3.21,0,0,1,2.247.723,2.592,2.592,0,0,1,.8,2v1.167l-3.984.225a6.39,6.39,0,0,0-3.721,1.2,3.458,3.458,0,0,0-1.321,2.838v.033a4.186,4.186,0,0,0,.575,2.208,3.869,3.869,0,0,0,1.627,1.463,5.247,5.247,0,0,0,2.417.526,5.022,5.022,0,0,0,1.775-.312,5.119,5.119,0,0,0,1.507-.882,4.6,4.6,0,0,0,1.069-1.326h.055v2.252h2.329V13.846a4.422,4.422,0,0,0-.652-2.411,4.343,4.343,0,0,0-1.863-1.584,6.606,6.606,0,0,0-2.838-.559,6.725,6.725,0,0,0-2.827.553" transform="translate(-61.022 -9.292)" fill="none"/>
    </clipPath>
    <linearGradient id="linear-gradient-39" x1="-19.439" y1="1.38" x2="-19.118" y2="1.38" xlink:href="#linear-gradient"/>
    <linearGradient id="linear-gradient-40" x1="-29.66" y1="1.544" x2="-29.19" y2="1.544" xlink:href="#linear-gradient"/>
    <clipPath id="clip-path-41">
      <path id="Path_1025" data-name="Path 1025" d="M74.849,11.248H74.9l3.134,8.844H71.715Zm.625-2.893H73.688L66.5,27.665H69.03l1.956-5.518h7.776l1.956,5.518h2.521L76.071,8.355Z" transform="translate(-66.504 -8.355)" fill="none"/>
    </clipPath>
    <linearGradient id="linear-gradient-41" x1="-14.938" y1="1.276" x2="-14.711" y2="1.276" xlink:href="#linear-gradient"/>
    <clipPath id="clip-path-42">
      <path id="Path_1026" data-name="Path 1026" d="M70.483,27.562h2.329V13.649H70.483ZM70.62,8.8a1.455,1.455,0,0,0,0,2.071,1.462,1.462,0,0,0,2.066,0,1.5,1.5,0,0,0,0-2.071,1.475,1.475,0,0,0-2.066,0" transform="translate(-70.187 -8.378)" fill="none"/>
    </clipPath>
    <linearGradient id="linear-gradient-42" x1="-31.361" y1="1.532" x2="-30.909" y2="1.532" xlink:href="#linear-gradient"/>
    <clipPath id="clip-path-43">
      <path id="Path_1027" data-name="Path 1027" d="M75.115,9.977a3.474,3.474,0,0,0-1.244,1.83h-.055V9.555h-2.2V23.468h2.334v-8.7a3.765,3.765,0,0,1,.367-1.715,2.783,2.783,0,0,1,1.036-1.14,2.982,2.982,0,0,1,1.578-.405c.285,0,.543.016.773.038a2.4,2.4,0,0,1,.471.093V9.385a3.546,3.546,0,0,0-.384-.066,4.385,4.385,0,0,0-.559-.027,3.412,3.412,0,0,0-2.121.685" transform="translate(-71.619 -9.292)" fill="none"/>
    </clipPath>
    <linearGradient id="linear-gradient-43" x1="-30.493" y1="1.536" x2="-30.064" y2="1.536" xlink:href="#linear-gradient"/>
    <clipPath id="clip-path-44">
      <path id="Path_1028" data-name="Path 1028" d="M77.713,21.035a4.463,4.463,0,0,1-1.43-1.8,6.672,6.672,0,0,1-.515-2.712v-.011a6.617,6.617,0,0,1,.515-2.723,4.172,4.172,0,0,1,1.43-1.8,3.475,3.475,0,0,1,2.082-.641,3.667,3.667,0,0,1,2.126.619A3.915,3.915,0,0,1,83.3,13.752a7.116,7.116,0,0,1,.482,2.762v.011a7.078,7.078,0,0,1-.482,2.74,3.931,3.931,0,0,1-1.375,1.786,3.631,3.631,0,0,1-2.126.625,3.475,3.475,0,0,1-2.082-.641m.7-11.425a4.745,4.745,0,0,0-1.49.9,5.126,5.126,0,0,0-1.09,1.4h-.049V9.555H73.45v18.6h2.334V21.139h.049a5.083,5.083,0,0,0,1.107,1.386,4.8,4.8,0,0,0,1.518.9,5.284,5.284,0,0,0,1.83.312,5.375,5.375,0,0,0,3.074-.888,5.916,5.916,0,0,0,2.06-2.51,9.212,9.212,0,0,0,.74-3.814v-.011a9.17,9.17,0,0,0-.734-3.819,5.826,5.826,0,0,0-2.066-2.515,5.493,5.493,0,0,0-3.118-.888,5.118,5.118,0,0,0-1.83.318" transform="translate(-73.45 -9.292)" fill="none"/>
    </clipPath>
    <linearGradient id="linear-gradient-44" x1="-19.502" y1="1.123" x2="-19.234" y2="1.123" xlink:href="#linear-gradient"/>
    <clipPath id="clip-path-45">
      <path id="Path_1029" data-name="Path 1029" d="M80.537,21.068a3.921,3.921,0,0,1-1.425-1.77,6.958,6.958,0,0,1-.51-2.784v-.027a6.911,6.911,0,0,1,.51-2.778,3.963,3.963,0,0,1,1.425-1.753,4.1,4.1,0,0,1,4.269-.005A3.929,3.929,0,0,1,86.225,13.7a7.038,7.038,0,0,1,.5,2.784v.027a7.057,7.057,0,0,1-.5,2.784,3.964,3.964,0,0,1-1.408,1.77,3.707,3.707,0,0,1-2.132.608,3.786,3.786,0,0,1-2.148-.608m-1.244-10.9a5.888,5.888,0,0,0-2.263,2.482,8.444,8.444,0,0,0-.806,3.836v.027a8.452,8.452,0,0,0,.806,3.83,5.961,5.961,0,0,0,2.263,2.51,6.4,6.4,0,0,0,3.381.882,6.326,6.326,0,0,0,3.364-.882,6.058,6.058,0,0,0,2.258-2.5,8.467,8.467,0,0,0,.805-3.841v-.027a8.444,8.444,0,0,0-.805-3.836,5.947,5.947,0,0,0-2.258-2.482,6.925,6.925,0,0,0-6.745,0" transform="translate(-76.225 -9.292)" fill="none"/>
    </clipPath>
    <linearGradient id="linear-gradient-45" x1="-22.583" y1="1.343" x2="-22.284" y2="1.343" xlink:href="#linear-gradient"/>
    <clipPath id="clip-path-46">
      <path id="Path_1030" data-name="Path 1030" d="M82.874,9.977a3.513,3.513,0,0,0-1.249,1.83h-.049V9.555h-2.2V23.468h2.334v-8.7a3.838,3.838,0,0,1,.362-1.715,2.8,2.8,0,0,1,1.041-1.14,2.982,2.982,0,0,1,1.578-.405c.285,0,.542.016.767.038a2.385,2.385,0,0,1,.477.093V9.385a3.544,3.544,0,0,0-.384-.066,4.384,4.384,0,0,0-.559-.027,3.412,3.412,0,0,0-2.121.685" transform="translate(-79.378 -9.292)" fill="none"/>
    </clipPath>
    <linearGradient id="linear-gradient-46" x1="-33.823" y1="1.536" x2="-33.394" y2="1.536" xlink:href="#linear-gradient"/>
    <clipPath id="clip-path-47">
      <path id="Path_1031" data-name="Path 1031" d="M83.145,8.655v3.754H81.107v1.929h2.038v8.444a3.846,3.846,0,0,0,.948,2.9,3.984,3.984,0,0,0,2.86.91,5.714,5.714,0,0,0,.69-.033c.23-.016.411-.044.553-.06V24.612c-.093.005-.208.022-.34.033a3.209,3.209,0,0,1-.411.022,2.218,2.218,0,0,1-1.414-.395,1.9,1.9,0,0,1-.482-1.507V14.337H88.2V12.409H85.551V8.655Z" transform="translate(-81.107 -8.655)" fill="none"/>
    </clipPath>
    <linearGradient id="linear-gradient-47" x1="-29.152" y1="1.421" x2="-28.789" y2="1.421" xlink:href="#linear-gradient"/>
    <clipPath id="clip-path-48">
      <path id="Path_1032" data-name="Path 1032" d="M85.435,12.77a1.415,1.415,0,0,0-.373,1.047v.005a1.415,1.415,0,0,0,.373,1.047,1.329,1.329,0,0,0,1,.384,1.445,1.445,0,0,0,.619-.137,1.248,1.248,0,0,0,.438-.367,1.159,1.159,0,0,0,.2-.537v-.016h-.553l-.005.016a.646.646,0,0,1-.241.373.754.754,0,0,1-.449.137.719.719,0,0,1-.575-.241,1.135,1.135,0,0,1,0-1.326.743.743,0,0,1,.57-.23.717.717,0,0,1,.46.137.6.6,0,0,1,.225.356l.016.027h.553v-.011a1.137,1.137,0,0,0-.2-.537,1.263,1.263,0,0,0-.438-.373,1.508,1.508,0,0,0-.619-.132,1.326,1.326,0,0,0-1,.378m-.148,3.578a2.568,2.568,0,0,1-.86-.581,2.8,2.8,0,0,1-.581-.86,2.663,2.663,0,0,1-.208-1.074v-.038a2.6,2.6,0,0,1,.208-1.058,2.727,2.727,0,0,1,.581-.871,2.636,2.636,0,0,1,.86-.575,2.678,2.678,0,0,1,1.069-.214h.038a2.658,2.658,0,0,1,1.069.214,2.743,2.743,0,0,1,.871.575,2.743,2.743,0,0,1,.784,1.929v.038a2.759,2.759,0,0,1-.208,1.074,2.788,2.788,0,0,1-.575.86,2.669,2.669,0,0,1-.871.581,2.749,2.749,0,0,1-1.069.2h-.038a2.769,2.769,0,0,1-1.069-.2m1.069-5.781a3.2,3.2,0,0,0-2.3.937,3.173,3.173,0,0,0-.937,2.29v.038a3.2,3.2,0,0,0,.937,2.3,3.335,3.335,0,0,0,1.03.69,3.241,3.241,0,0,0,1.266.252h.038a3.221,3.221,0,0,0,1.266-.252,3.186,3.186,0,0,0,1.025-.69,3.125,3.125,0,0,0,.69-1.03,3.191,3.191,0,0,0,.252-1.271v-.038a3.165,3.165,0,0,0-.252-1.266,3.1,3.1,0,0,0-.69-1.025,3.02,3.02,0,0,0-1.025-.69,3.124,3.124,0,0,0-1.266-.247Z" transform="translate(-83.123 -10.567)" fill="none"/>
    </clipPath>
    <linearGradient id="linear-gradient-48" x1="-51.114" y1="1.957" x2="-50.498" y2="1.957" xlink:href="#linear-gradient"/>
  </defs>
  <g id="Group_6097" data-name="Group 6097" transform="translate(-167.015 -4851.813)">
    <g id="Group_747" data-name="Group 747" transform="translate(167.015 4851.813)" clip-path="url(#clip-path)">
      <rect id="Rectangle_314" data-name="Rectangle 314" width="88.842" height="70.857" transform="translate(-14.673 8.47) rotate(-30)" fill="url(#linear-gradient)"/>
    </g>
    <g id="Group_749" data-name="Group 749" transform="translate(167.092 4892.674)" clip-path="url(#clip-path-2)">
      <rect id="Rectangle_315" data-name="Rectangle 315" width="87.624" height="69.799" transform="translate(-14.407 8.301) rotate(-30)" fill="url(#linear-gradient-2)"/>
    </g>
    <g id="Group_751" data-name="Group 751" transform="translate(259.806 4857.291)" clip-path="url(#clip-path-3)">
      <rect id="Rectangle_316" data-name="Rectangle 316" width="37.482" height="39.474" transform="translate(-13.375 7.722) rotate(-30)" fill="url(#linear-gradient-3)"/>
    </g>
    <g id="Group_753" data-name="Group 753" transform="translate(287.846 4865.002)" clip-path="url(#clip-path-4)">
      <rect id="Rectangle_317" data-name="Rectangle 317" width="28.267" height="29.804" transform="translate(-10.113 5.837) rotate(-30)" fill="url(#linear-gradient-4)"/>
    </g>
    <g id="Group_755" data-name="Group 755" transform="translate(312.323 4865.118)" clip-path="url(#clip-path-5)">
      <rect id="Rectangle_318" data-name="Rectangle 318" width="21.482" height="25.652" transform="translate(-9.937 5.736) rotate(-30)" fill="url(#linear-gradient-5)"/>
    </g>
    <g id="Group_757" data-name="Group 757" transform="translate(329.677 4859.457)" clip-path="url(#clip-path-6)">
      <rect id="Rectangle_319" data-name="Rectangle 319" width="24.977" height="31.065" transform="matrix(0.866, -0.5, 0.5, 0.866, -12.483, 7.206)" fill="url(#linear-gradient-6)"/>
    </g>
    <g id="Group_759" data-name="Group 759" transform="translate(345.683 4864.663)" clip-path="url(#clip-path-7)">
      <rect id="Rectangle_320" data-name="Rectangle 320" width="27.791" height="29.554" transform="matrix(0.866, -0.5, 0.5, 0.866, -10.132, 5.848)" fill="url(#linear-gradient-7)"/>
    </g>
    <g id="Group_761" data-name="Group 761" transform="translate(366.407 4856.728)" clip-path="url(#clip-path-8)">
      <rect id="Rectangle_321" data-name="Rectangle 321" width="26.346" height="33.304" transform="translate(-13.57 7.833) rotate(-30)" fill="url(#linear-gradient-8)"/>
    </g>
    <g id="Group_763" data-name="Group 763" transform="translate(384.237 4856.52)" clip-path="url(#clip-path-9)">
      <rect id="Rectangle_322" data-name="Rectangle 322" width="20.332" height="29.819" transform="translate(-13.56 7.828) rotate(-30)" fill="url(#linear-gradient-9)"/>
    </g>
    <g id="Group_765" data-name="Group 765" transform="translate(394.106 4864.092)" clip-path="url(#clip-path-10)">
      <rect id="Rectangle_323" data-name="Rectangle 323" width="29.534" height="30.557" transform="translate(-10.129 5.847) rotate(-30)" fill="url(#linear-gradient-10)"/>
    </g>
    <g id="Group_767" data-name="Group 767" transform="translate(420.205 4856.152)" clip-path="url(#clip-path-11)">
      <rect id="Rectangle_324" data-name="Rectangle 324" width="19.468" height="29.074" transform="translate(-13.375 7.722) rotate(-30)" fill="url(#linear-gradient-11)"/>
    </g>
    <g id="Group_769" data-name="Group 769" transform="translate(430.715 4856.153)" clip-path="url(#clip-path-12)">
      <rect id="Rectangle_326" data-name="Rectangle 326" width="34.055" height="37.751" transform="translate(-13.567 7.832) rotate(-30)" fill="url(#linear-gradient-12)"/>
    </g>
    <g id="Group_771" data-name="Group 771" transform="translate(456.371 4872.394)" clip-path="url(#clip-path-13)">
      <rect id="Rectangle_327" data-name="Rectangle 327" width="14.03" height="10.536" transform="matrix(0.866, -0.5, 0.5, 0.866, -1.827, 1.055)" fill="url(#linear-gradient-13)"/>
    </g>
    <g id="Group_773" data-name="Group 773" transform="translate(464.174 4856.153)" clip-path="url(#clip-path-14)">
      <rect id="Rectangle_329" data-name="Rectangle 329" width="32.128" height="36.677" transform="translate(-13.596 7.848) rotate(-30)" fill="url(#linear-gradient-14)"/>
    </g>
    <g id="Group_775" data-name="Group 775" transform="translate(487.106 4864.092)" clip-path="url(#clip-path-15)">
      <rect id="Rectangle_330" data-name="Rectangle 330" width="28.267" height="29.804" transform="translate(-10.113 5.837) rotate(-30)" fill="url(#linear-gradient-15)"/>
    </g>
    <g id="Group_777" data-name="Group 777" transform="translate(509.002 4864.092)" clip-path="url(#clip-path-16)">
      <rect id="Rectangle_331" data-name="Rectangle 331" width="29.345" height="30.448" transform="translate(-10.129 5.847) rotate(-30)" fill="url(#linear-gradient-16)"/>
    </g>
    <g id="Group_779" data-name="Group 779" transform="translate(531.184 4856.152)" clip-path="url(#clip-path-17)">
      <rect id="Rectangle_332" data-name="Rectangle 332" width="32.386" height="36.531" transform="translate(-13.375 7.722) rotate(-30)" fill="url(#linear-gradient-17)"/>
    </g>
    <g id="Group_781" data-name="Group 781" transform="translate(551.075 4864.092)" clip-path="url(#clip-path-18)">
      <rect id="Rectangle_333" data-name="Rectangle 333" width="27.788" height="29.549" transform="translate(-10.129 5.847) rotate(-30)" fill="url(#linear-gradient-18)"/>
    </g>
    <g id="Group_783" data-name="Group 783" transform="translate(572.089 4864.092)" clip-path="url(#clip-path-19)">
      <rect id="Rectangle_334" data-name="Rectangle 334" width="30.218" height="30.952" transform="matrix(0.866, -0.5, 0.5, 0.866, -10.129, 5.847)" fill="url(#linear-gradient-19)"/>
    </g>
    <g id="Group_785" data-name="Group 785" transform="translate(599.262 4864.092)" clip-path="url(#clip-path-20)">
      <rect id="Rectangle_335" data-name="Rectangle 335" width="28.306" height="29.592" transform="matrix(0.866, -0.5, 0.5, 0.866, -9.937, 5.736)" fill="url(#linear-gradient-20)"/>
    </g>
    <g id="Group_787" data-name="Group 787" transform="translate(259.226 4897.595)" clip-path="url(#clip-path-21)">
      <rect id="Rectangle_336" data-name="Rectangle 336" width="24.148" height="25.09" transform="translate(-8.362 4.826) rotate(-30)" fill="url(#linear-gradient-21)"/>
    </g>
    <g id="Group_789" data-name="Group 789" transform="translate(278.097 4899.239)" clip-path="url(#clip-path-22)">
      <rect id="Rectangle_337" data-name="Rectangle 337" width="15.108" height="19.077" transform="translate(-7.766 4.483) rotate(-30)" fill="url(#linear-gradient-22)"/>
    </g>
    <g id="Group_791" data-name="Group 791" transform="translate(289.621 4897.6)" clip-path="url(#clip-path-23)">
      <rect id="Rectangle_338" data-name="Rectangle 338" width="11.669" height="17.883" transform="matrix(0.866, -0.5, 0.5, 0.866, -8.359, 4.826)" fill="url(#linear-gradient-23)"/>
    </g>
    <g id="Group_793" data-name="Group 793" transform="translate(296.273 4902.729)" clip-path="url(#clip-path-24)">
      <rect id="Rectangle_340" data-name="Rectangle 340" width="17.059" height="18.189" transform="translate(-6.255 3.61) rotate(-30)" fill="url(#linear-gradient-24)"/>
    </g>
    <g id="Group_795" data-name="Group 795" transform="translate(312.033 4902.729)" clip-path="url(#clip-path-25)">
      <rect id="Rectangle_341" data-name="Rectangle 341" width="17.03" height="18.016" transform="translate(-6.138 3.543) rotate(-30)" fill="url(#linear-gradient-25)"/>
    </g>
    <g id="Group_797" data-name="Group 797" transform="translate(327.348 4899.239)" clip-path="url(#clip-path-26)">
      <rect id="Rectangle_342" data-name="Rectangle 342" width="15.108" height="19.077" transform="translate(-7.766 4.483) rotate(-30)" fill="url(#linear-gradient-26)"/>
    </g>
    <g id="Group_799" data-name="Group 799" transform="translate(337.918 4902.729)" clip-path="url(#clip-path-27)">
      <rect id="Rectangle_343" data-name="Rectangle 343" width="17.059" height="18.189" transform="matrix(0.866, -0.5, 0.5, 0.866, -6.255, 3.61)" fill="url(#linear-gradient-27)"/>
    </g>
    <g id="Group_801" data-name="Group 801" transform="translate(361.25 4897.6)" clip-path="url(#clip-path-28)">
      <rect id="Rectangle_344" data-name="Rectangle 344" width="11.74" height="17.924" transform="matrix(0.866, -0.5, 0.5, 0.866, -8.359, 4.826)" fill="url(#linear-gradient-28)"/>
    </g>
    <g id="Group_803" data-name="Group 803" transform="translate(368.642 4902.729)" clip-path="url(#clip-path-29)">
      <rect id="Rectangle_346" data-name="Rectangle 346" width="17.034" height="18.019" transform="translate(-6.138 3.543) rotate(-30)" fill="url(#linear-gradient-29)"/>
    </g>
    <g id="Group_805" data-name="Group 805" transform="translate(384.034 4899.239)" clip-path="url(#clip-path-30)">
      <rect id="Rectangle_347" data-name="Rectangle 347" width="15.113" height="19.08" transform="translate(-7.766 4.483) rotate(-30)" fill="url(#linear-gradient-30)"/>
    </g>
    <g id="Group_807" data-name="Group 807" transform="translate(394.5 4902.729)" clip-path="url(#clip-path-31)">
      <rect id="Rectangle_348" data-name="Rectangle 348" width="17.942" height="18.698" transform="translate(-6.255 3.61) rotate(-30)" fill="url(#linear-gradient-31)"/>
    </g>
    <g id="Group_809" data-name="Group 809" transform="translate(410.506 4902.729)" clip-path="url(#clip-path-32)">
      <rect id="Rectangle_349" data-name="Rectangle 349" width="12.768" height="15.556" transform="translate(-6.138 3.543) rotate(-30)" fill="url(#linear-gradient-32)"/>
    </g>
    <g id="Group_811" data-name="Group 811" transform="translate(421.077 4902.729)" clip-path="url(#clip-path-33)">
      <rect id="Rectangle_350" data-name="Rectangle 350" width="17.03" height="18.016" transform="matrix(0.866, -0.5, 0.5, 0.866, -6.138, 3.543)" fill="url(#linear-gradient-33)"/>
    </g>
    <g id="Group_813" data-name="Group 813" transform="translate(436.48 4902.729)" clip-path="url(#clip-path-34)">
      <rect id="Rectangle_351" data-name="Rectangle 351" width="17.055" height="18.186" transform="translate(-6.255 3.61) rotate(-30)" fill="url(#linear-gradient-34)"/>
    </g>
    <g id="Group_815" data-name="Group 815" transform="translate(451.138 4899.239)" clip-path="url(#clip-path-35)">
      <rect id="Rectangle_352" data-name="Rectangle 352" width="15.103" height="19.074" transform="matrix(0.866, -0.5, 0.5, 0.866, -7.766, 4.483)" fill="url(#linear-gradient-35)"/>
    </g>
    <g id="Group_817" data-name="Group 817" transform="translate(462.694 4897.721)" clip-path="url(#clip-path-36)">
      <rect id="Rectangle_353" data-name="Rectangle 353" width="12.117" height="18.071" transform="matrix(0.866, -0.5, 0.5, 0.866, -8.307, 4.795)" fill="url(#linear-gradient-36)"/>
    </g>
    <g id="Group_819" data-name="Group 819" transform="translate(468.87 4902.729)" clip-path="url(#clip-path-37)">
      <rect id="Rectangle_354" data-name="Rectangle 354" width="18.374" height="18.948" transform="translate(-6.255 3.61) rotate(-30)" fill="url(#linear-gradient-37)"/>
    </g>
    <g id="Group_821" data-name="Group 821" transform="translate(486.136 4902.729)" clip-path="url(#clip-path-38)">
      <rect id="Rectangle_355" data-name="Rectangle 355" width="17.034" height="18.019" transform="matrix(0.866, -0.5, 0.5, 0.866, -6.138, 3.543)" fill="url(#linear-gradient-38)"/>
    </g>
    <g id="Group_823" data-name="Group 823" transform="translate(501.391 4902.729)" clip-path="url(#clip-path-39)">
      <rect id="Rectangle_356" data-name="Rectangle 356" width="17.055" height="18.186" transform="translate(-6.255 3.61) rotate(-30)" fill="url(#linear-gradient-39)"/>
    </g>
    <g id="Group_825" data-name="Group 825" transform="translate(517.791 4897.6)" clip-path="url(#clip-path-23)">
      <rect id="Rectangle_357" data-name="Rectangle 357" width="11.669" height="17.883" transform="matrix(0.866, -0.5, 0.5, 0.866, -8.359, 4.826)" fill="url(#linear-gradient-40)"/>
    </g>
    <g id="Group_827" data-name="Group 827" transform="translate(531.43 4897.595)" clip-path="url(#clip-path-41)">
      <rect id="Rectangle_359" data-name="Rectangle 359" width="24.148" height="25.09" transform="translate(-8.362 4.826) rotate(-30)" fill="url(#linear-gradient-41)"/>
    </g>
    <g id="Group_829" data-name="Group 829" transform="translate(551.611 4897.721)" clip-path="url(#clip-path-42)">
      <rect id="Rectangle_360" data-name="Rectangle 360" width="12.117" height="18.071" transform="matrix(0.866, -0.5, 0.5, 0.866, -8.307, 4.795)" fill="url(#linear-gradient-42)"/>
    </g>
    <g id="Group_831" data-name="Group 831" transform="translate(559.458 4902.729)" clip-path="url(#clip-path-43)">
      <rect id="Rectangle_361" data-name="Rectangle 361" width="12.768" height="15.556" transform="matrix(0.866, -0.5, 0.5, 0.866, -6.138, 3.543)" fill="url(#linear-gradient-43)"/>
    </g>
    <g id="Group_833" data-name="Group 833" transform="translate(569.491 4902.729)" clip-path="url(#clip-path-44)">
      <rect id="Rectangle_362" data-name="Rectangle 362" width="20.44" height="22.69" transform="matrix(0.866, -0.5, 0.5, 0.866, -8.167, 4.714)" fill="url(#linear-gradient-44)"/>
    </g>
    <g id="Group_835" data-name="Group 835" transform="translate(584.697 4902.729)" clip-path="url(#clip-path-45)">
      <rect id="Rectangle_363" data-name="Rectangle 363" width="18.374" height="18.948" transform="matrix(0.866, -0.5, 0.5, 0.866, -6.255, 3.61)" fill="url(#linear-gradient-45)"/>
    </g>
    <g id="Group_837" data-name="Group 837" transform="translate(601.975 4902.729)" clip-path="url(#clip-path-46)">
      <rect id="Rectangle_364" data-name="Rectangle 364" width="12.768" height="15.556" transform="translate(-6.138 3.543) rotate(-30)" fill="url(#linear-gradient-46)"/>
    </g>
    <g id="Group_839" data-name="Group 839" transform="translate(611.449 4899.239)" clip-path="url(#clip-path-47)">
      <rect id="Rectangle_365" data-name="Rectangle 365" width="15.108" height="19.077" transform="matrix(0.866, -0.5, 0.5, 0.866, -7.766, 4.483)" fill="url(#linear-gradient-47)"/>
    </g>
    <g id="Group_841" data-name="Group 841" transform="translate(622.496 4909.716)" clip-path="url(#clip-path-48)">
      <rect id="Rectangle_366" data-name="Rectangle 366" width="8.888" height="8.89" transform="translate(-2.819 1.626) rotate(-30)" fill="url(#linear-gradient-48)"/>
    </g>
  </g>
</svg>
