<svg id="Component_45_1" data-name="Component 45 – 1" xmlns="http://www.w3.org/2000/svg" xmlns:xlink="http://www.w3.org/1999/xlink" width="37.078" height="37.012" viewBox="0 0 37.078 37.012">
  <defs>
    <clipPath id="clip-path">
      <rect id="Rectangle_699" data-name="Rectangle 699" width="37.078" height="37.012" fill="none"/>
    </clipPath>
  </defs>
  <g id="Group_6136" data-name="Group 6136" clip-path="url(#clip-path)">
    <path id="Path_8592" data-name="Path 8592" d="M39.92,32.691c2.432-4.11,7.694-4.846,11.793-3.113a7.069,7.069,0,0,1,4.193,5.52,22.426,22.426,0,0,1,.493,4.287c.06,4.692.023,9.385.022,14.077,0,.684,0,.686-.7.687q-3.231,0-6.462,0c-.591,0-.628-.039-.629-.632-.006-4.435.019-8.871-.039-13.306-.116-2.171-.849-4.561-3.436-4.556-4.118-.281-4.959,2.714-4.931,6.17-.021,3.889-.009,7.778-.009,11.667,0,.646-.007.657-.633.657-2.186,0-4.373-.007-6.558.008-.444,0-.622-.121-.621-.6q.019-11.787,0-23.575c0-.453.119-.613.594-.608q3.182.034,6.366,0c.459,0,.58.157.568.585-.024.867-.007,1.735-.007,2.733" transform="translate(-19.355 -17.146)" fill="#ed2525"/>
    <path id="Path_8593" data-name="Path 8593" d="M1.491,42.769q0-5.879,0-11.759c0-.628,0-.63.637-.63,2.2,0,4.4.012,6.6-.01.454,0,.571.15.571.581q-.015,11.807,0,23.614c0,.446-.15.589-.583.587-2.218-.013-4.435-.017-6.652,0-.481,0-.586-.183-.585-.626.014-3.92.008-7.839.008-11.759" transform="translate(-0.886 -18.143)" fill="#ed2525"/>
    <path id="Path_8594" data-name="Path 8594" d="M4.512,8.951A4.516,4.516,0,0,1,0,4.482a4.5,4.5,0,1,1,9,.033A4.444,4.444,0,0,1,4.512,8.951" transform="translate(0 0)" fill="#ed2525"/>
  </g>
</svg>
