<svg id="Group_6009" data-name="Group 6009" xmlns="http://www.w3.org/2000/svg" xmlns:xlink="http://www.w3.org/1999/xlink" width="138.256" height="136.735" viewBox="0 0 138.256 136.735">
  <defs>
    <clipPath id="clip-path">
      <rect id="Rectangle_622" data-name="Rectangle 622" width="138.256" height="136.735" fill="none"/>
    </clipPath>
  </defs>
  <g id="Group_6008" data-name="Group 6008" clip-path="url(#clip-path)">
    <path id="Path_8492" data-name="Path 8492" d="M124.2,287.311H14.053a18.518,18.518,0,0,1-8.83-2.065,9.6,9.6,0,0,1-5.2-7.406,2.956,2.956,0,0,1,.7-2.319,2.419,2.419,0,0,1,1.825-.839H56.17a1.967,1.967,0,0,1,1.911,2.014.482.482,0,0,0,.107.328h21.88a.482.482,0,0,0,.107-.328,1.967,1.967,0,0,1,1.911-2.014h53.626a2.419,2.419,0,0,1,1.825.839,2.956,2.956,0,0,1,.7,2.319,9.6,9.6,0,0,1-5.2,7.406,18.519,18.519,0,0,1-8.83,2.065M2.72,277.393a.384.384,0,0,0-.005.124c.628,5.228,6.5,7.083,11.339,7.083H124.2c4.838,0,10.711-1.855,11.339-7.083a.4.4,0,0,0-.005-.124H82.813a2.848,2.848,0,0,1-2.7,2.342H58.147a2.847,2.847,0,0,1-2.7-2.342Z" transform="translate(0 -150.576)" fill="#ed2525"/>
    <path id="Path_8493" data-name="Path 8493" d="M131.841,165.441H20.818a7.689,7.689,0,0,1-7.681-7.681v-67.2a7.689,7.689,0,0,1,7.681-7.681H32.082v2.711H20.818a4.976,4.976,0,0,0-4.97,4.97v67.2a4.976,4.976,0,0,0,4.97,4.97H131.841a4.976,4.976,0,0,0,4.97-4.97v-67.2a4.976,4.976,0,0,0-4.97-4.97H120.577V82.877h11.264a7.689,7.689,0,0,1,7.681,7.681v67.2a7.689,7.689,0,0,1-7.681,7.681" transform="translate(-7.201 -45.432)" fill="#ed2525"/>
    <path id="Path_8494" data-name="Path 8494" d="M78.982,101.333A6.915,6.915,0,1,1,85.9,94.418a6.923,6.923,0,0,1-6.915,6.915m0-11.119a4.2,4.2,0,1,0,4.2,4.2,4.21,4.21,0,0,0-4.2-4.2" transform="translate(-39.506 -47.968)" fill="#ed2525"/>
    <path id="Path_8495" data-name="Path 8495" d="M122.734,50.29a6.915,6.915,0,1,1,6.916-6.915,6.923,6.923,0,0,1-6.916,6.915m0-11.119a4.2,4.2,0,1,0,4.2,4.2,4.209,4.209,0,0,0-4.2-4.2" transform="translate(-63.49 -19.987)" fill="#ed2525"/>
    <path id="Path_8496" data-name="Path 8496" d="M166.486,72.165A6.915,6.915,0,1,1,173.4,65.25a6.923,6.923,0,0,1-6.915,6.915m0-11.119a4.2,4.2,0,1,0,4.2,4.2,4.209,4.209,0,0,0-4.2-4.2" transform="translate(-87.474 -31.978)" fill="#ed2525"/>
    <path id="Path_8497" data-name="Path 8497" d="M210.237,13.83a6.915,6.915,0,1,1,6.915-6.915,6.923,6.923,0,0,1-6.915,6.915m0-11.119a4.2,4.2,0,1,0,4.2,4.2,4.209,4.209,0,0,0-4.2-4.2" transform="translate(-111.458)" fill="#ed2525"/>
    <rect id="Rectangle_618" data-name="Rectangle 618" width="21.826" height="1.356" transform="translate(81.804 28.415) rotate(-53.115)" fill="#ed2525"/>
    <rect id="Rectangle_619" data-name="Rectangle 619" width="1.356" height="10.979" transform="matrix(0.447, -0.894, 0.894, 0.447, 63.915, 26.481)" fill="#ed2525"/>
    <rect id="Rectangle_620" data-name="Rectangle 620" width="19.256" height="1.355" transform="translate(42.577 41.787) rotate(-49.38)" fill="#ed2525"/>
    <path id="Path_8498" data-name="Path 8498" d="M129.794,125.8h-1.355V83.236h-9.764V125.8H117.32V81.881h12.475Z" transform="translate(-64.313 -44.886)" fill="#ed2525"/>
    <path id="Path_8499" data-name="Path 8499" d="M173.545,132.779H172.19V95.959h-9.764v36.82h-1.355V94.6h12.475Z" transform="translate(-88.296 -51.86)" fill="#ed2525"/>
    <path id="Path_8500" data-name="Path 8500" d="M217.3,109.049h-1.355V52.671h-9.764v56.378h-1.355V51.316H217.3Z" transform="translate(-112.28 -28.131)" fill="#ed2525"/>
    <path id="Path_8501" data-name="Path 8501" d="M86.043,148.917H84.687V125.4H74.923v23.519H73.568V124.043H86.043Z" transform="translate(-40.329 -67.998)" fill="#ed2525"/>
    <rect id="Rectangle_621" data-name="Rectangle 621" width="94.363" height="1.355" transform="translate(21.947 84.759)" fill="#ed2525"/>
  </g>
</svg>
