<svg xmlns="http://www.w3.org/2000/svg" xmlns:xlink="http://www.w3.org/1999/xlink" width="239.347" height="42.942" viewBox="0 0 239.347 42.942">
  <defs>
    <clipPath id="clip-path">
      <path id="Path_1047" data-name="Path 1047" d="M118.864,24.464,0,10.844,117.89,27.87,230.428,11.652l8.918-3.078Z" transform="translate(0 -8.574)" fill="none"/>
    </clipPath>
    <linearGradient id="linear-gradient" x1="-0.052" y1="0.57" x2="-0.039" y2="0.57" gradientUnits="objectBoundingBox">
      <stop offset="0" stop-color="#ed2525"/>
      <stop offset="1" stop-color="#cc2525"/>
    </linearGradient>
    <clipPath id="clip-path-2">
      <rect id="Rectangle_384" data-name="Rectangle 384" width="239.347" height="42.94" fill="none"/>
    </clipPath>
    <clipPath id="clip-path-3">
      <path id="Path_1068" data-name="Path 1068" d="M43.05,0V1.453H45.1V7.644h1.735V1.453h2.088V0Z" transform="translate(-43.05 0.001)" fill="none"/>
    </clipPath>
    <linearGradient id="linear-gradient-2" x1="-13.155" y1="4.46" x2="-12.846" y2="4.46" xlink:href="#linear-gradient"/>
    <clipPath id="clip-path-4">
      <path id="Path_1069" data-name="Path 1069" d="M50.092,0v2.94H47.244V0H45.512V7.644h1.732v-3.2h2.849v3.2h1.724V0Z" transform="translate(-45.512 0.001)" fill="none"/>
    </clipPath>
    <linearGradient id="linear-gradient-3" x1="-13.362" y1="4.404" x2="-13.065" y2="4.404" xlink:href="#linear-gradient"/>
    <clipPath id="clip-path-5">
      <path id="Path_1070" data-name="Path 1070" d="M48.344,0V7.644H53.22V6.226H50.079V4.412h2.813V3.005H50.079V1.42H53.06V0Z" transform="translate(-48.344 0.001)" fill="none"/>
    </clipPath>
    <linearGradient id="linear-gradient-4" x1="-16.376" y1="4.745" x2="-16.033" y2="4.745" xlink:href="#linear-gradient"/>
    <clipPath id="clip-path-6">
      <rect id="Rectangle_389" data-name="Rectangle 389" width="1.737" height="7.644" fill="none"/>
    </clipPath>
    <linearGradient id="linear-gradient-5" x1="-22.058" y1="4.294" x2="-21.54" y2="4.294" xlink:href="#linear-gradient"/>
    <clipPath id="clip-path-7">
      <path id="Path_1071" data-name="Path 1071" d="M49.169,3.315V5.549a28.431,28.431,0,0,0,.149,3.188h-.033a21.931,21.931,0,0,0-1.249-2.62l-1.588-2.8H44.431v7.644h1.586v-2.3c0-1.249-.022-2.327-.066-3.337l.036-.014a29.219,29.219,0,0,0,1.321,2.7l1.635,2.948h1.812V3.315Z" transform="translate(-44.431 -3.315)" fill="none"/>
    </clipPath>
    <linearGradient id="linear-gradient-6" x1="-13.017" y1="3.429" x2="-12.721" y2="3.429" xlink:href="#linear-gradient"/>
    <clipPath id="clip-path-8">
      <path id="Path_1072" data-name="Path 1072" d="M47.057,3.315V4.766h2.054V10.96h1.735V4.766h2.088V3.315Z" transform="translate(-47.057 -3.315)" fill="none"/>
    </clipPath>
    <linearGradient id="linear-gradient-7" x1="-14.392" y1="3.529" x2="-14.082" y2="3.529" xlink:href="#linear-gradient"/>
    <clipPath id="clip-path-9">
      <path id="Path_1073" data-name="Path 1073" d="M49.521,3.315V10.96h4.873V9.542H51.256V7.728h2.81V6.321h-2.81V4.736h2.981V3.315Z" transform="translate(-49.521 -3.315)" fill="none"/>
    </clipPath>
    <linearGradient id="linear-gradient-8" x1="-16.784" y1="3.726" x2="-16.441" y2="3.726" xlink:href="#linear-gradient"/>
    <clipPath id="clip-path-10">
      <path id="Path_1074" data-name="Path 1074" d="M53.429,4.632a4.3,4.3,0,0,1,.78-.058c.794.011,1.271.364,1.271,1.064,0,.673-.51,1.1-1.373,1.1h-.678ZM51.716,3.455v7.539h1.713V7.989h.521c.7.011,1.029.273,1.235,1.224a9.618,9.618,0,0,0,.532,1.781h1.768c-.146-.3-.383-1.293-.623-2.154a1.922,1.922,0,0,0-1.02-1.431V7.376a2.03,2.03,0,0,0,1.351-1.883,1.95,1.95,0,0,0-.7-1.6,3.906,3.906,0,0,0-2.471-.6,14.749,14.749,0,0,0-2.3.16" transform="translate(-51.716 -3.295)" fill="none"/>
    </clipPath>
    <linearGradient id="linear-gradient-9" x1="-15.948" y1="3.591" x2="-15.637" y2="3.591" xlink:href="#linear-gradient"/>
    <clipPath id="clip-path-11">
      <path id="Path_1075" data-name="Path 1075" d="M58.893,3.315V5.549a28.432,28.432,0,0,0,.149,3.188h-.036a21.5,21.5,0,0,0-1.246-2.62l-1.586-2.8H54.153v7.644h1.591v-2.3c0-1.249-.025-2.327-.072-3.337l.036-.014a27.311,27.311,0,0,0,1.329,2.7l1.63,2.948h1.815V3.315Z" transform="translate(-54.153 -3.315)" fill="none"/>
    </clipPath>
    <linearGradient id="linear-gradient-10" x1="-15.892" y1="3.545" x2="-15.596" y2="3.545" xlink:href="#linear-gradient"/>
    <clipPath id="clip-path-12">
      <path id="Path_1076" data-name="Path 1076" d="M59.828,6.081c.127-.441.24-1.02.353-1.473H60.2c.11.452.251,1.02.383,1.473L61.063,7.7H59.376Zm-.7-2.766-2.336,7.644h1.792L59.125,9h2.19l.59,1.963H63.76L61.392,3.315Z" transform="translate(-56.789 -3.315)" fill="none"/>
    </clipPath>
    <linearGradient id="linear-gradient-11" x1="-15.737" y1="3.481" x2="-15.457" y2="3.481" xlink:href="#linear-gradient"/>
    <clipPath id="clip-path-13">
      <path id="Path_1077" data-name="Path 1077" d="M59.137,3.315V4.766h2.052V10.96h1.735V4.766h2.088V3.315Z" transform="translate(-59.137 -3.315)" fill="none"/>
    </clipPath>
    <linearGradient id="linear-gradient-12" x1="-18.135" y1="3.678" x2="-17.825" y2="3.678" xlink:href="#linear-gradient"/>
    <linearGradient id="linear-gradient-13" x1="-31.553" y1="4.583" x2="-31.036" y2="4.583" xlink:href="#linear-gradient"/>
    <clipPath id="clip-path-15">
      <path id="Path_1078" data-name="Path 1078" d="M64.47,7.238c0-1.484.678-2.595,1.848-2.595,1.191,0,1.845,1.178,1.845,2.551,0,1.484-.667,2.595-1.837,2.595-1.153,0-1.856-1.051-1.856-2.551m-1.826.033c0,2.179,1.324,3.891,3.6,3.891,2.231,0,3.75-1.519,3.75-4.026A3.562,3.562,0,0,0,66.364,3.27a3.7,3.7,0,0,0-3.72,4" transform="translate(-62.644 -3.27)" fill="none"/>
    </clipPath>
    <linearGradient id="linear-gradient-14" x1="-16.615" y1="3.433" x2="-16.347" y2="3.433" xlink:href="#linear-gradient"/>
    <clipPath id="clip-path-16">
      <path id="Path_1079" data-name="Path 1079" d="M70.459,3.315V5.549a28.46,28.46,0,0,0,.146,3.188H70.57a21.9,21.9,0,0,0-1.244-2.62l-1.588-2.8H65.719v7.644H67.3v-2.3c0-1.249-.022-2.327-.066-3.337l.033-.014a29.253,29.253,0,0,0,1.326,2.7l1.635,2.948h1.812V3.315Z" transform="translate(-65.719 -3.315)" fill="none"/>
    </clipPath>
    <linearGradient id="linear-gradient-15" x1="-19.326" y1="3.685" x2="-19.029" y2="3.685" xlink:href="#linear-gradient"/>
    <clipPath id="clip-path-17">
      <path id="Path_1080" data-name="Path 1080" d="M71.4,6.081c.121-.441.234-1.02.347-1.473h.025c.113.452.248,1.02.386,1.473L72.633,7.7H70.94Zm-.706-2.766-2.338,7.644h1.792L70.691,9h2.187l.59,1.963H75.33L72.961,3.315Z" transform="translate(-68.353 -3.315)" fill="none"/>
    </clipPath>
    <linearGradient id="linear-gradient-16" x1="-18.962" y1="3.615" x2="-18.683" y2="3.615" xlink:href="#linear-gradient"/>
    <clipPath id="clip-path-18">
      <path id="Path_1081" data-name="Path 1081" d="M71.252,3.315V10.96h4.776V9.506H72.987V3.315Z" transform="translate(-71.252 -3.315)" fill="none"/>
    </clipPath>
    <linearGradient id="linear-gradient-17" x1="-24.489" y1="4.028" x2="-24.143" y2="4.028" xlink:href="#linear-gradient"/>
    <clipPath id="clip-path-19">
      <path id="Path_1082" data-name="Path 1082" d="M43.132,10.644a3.635,3.635,0,0,0,4,3.825,4.879,4.879,0,0,0,1.961-.331l-.256-1.349a4.355,4.355,0,0,1-1.442.248,2.28,2.28,0,0,1-2.449-2.493,2.3,2.3,0,0,1,2.438-2.529,3.788,3.788,0,0,1,1.453.281l.35-1.371A4.505,4.505,0,0,0,47.3,6.585a3.9,3.9,0,0,0-4.172,4.059" transform="translate(-43.132 -6.585)" fill="none"/>
    </clipPath>
    <linearGradient id="linear-gradient-18" x1="-12.777" y1="2.441" x2="-12.477" y2="2.441" xlink:href="#linear-gradient"/>
    <clipPath id="clip-path-20">
      <path id="Path_1083" data-name="Path 1083" d="M45.706,6.63v7.644h4.876V12.857H47.438V11.043h2.813V9.636H47.438V8.048h2.987V6.63Z" transform="translate(-45.706 -6.63)" fill="none"/>
    </clipPath>
    <linearGradient id="linear-gradient-19" x1="-15.471" y1="2.642" x2="-15.128" y2="2.642" xlink:href="#linear-gradient"/>
    <clipPath id="clip-path-21">
      <path id="Path_1084" data-name="Path 1084" d="M52.641,6.63V8.864a28.458,28.458,0,0,0,.146,3.188h-.036a22.078,22.078,0,0,0-1.246-2.617L49.92,6.63H47.9v7.644h1.588v-2.3c0-1.246-.025-2.325-.069-3.331l.033-.014a27.574,27.574,0,0,0,1.329,2.7l1.63,2.948H54.23V6.63Z" transform="translate(-47.901 -6.63)" fill="none"/>
    </clipPath>
    <linearGradient id="linear-gradient-20" x1="-14.039" y1="2.513" x2="-13.743" y2="2.513" xlink:href="#linear-gradient"/>
    <clipPath id="clip-path-22">
      <path id="Path_1085" data-name="Path 1085" d="M50.528,6.63V8.084h2.049v6.191h1.735V8.084H56.4V6.63Z" transform="translate(-50.528 -6.63)" fill="none"/>
    </clipPath>
    <linearGradient id="linear-gradient-21" x1="-15.474" y1="2.592" x2="-15.164" y2="2.592" xlink:href="#linear-gradient"/>
    <clipPath id="clip-path-23">
      <path id="Path_1086" data-name="Path 1086" d="M54.7,7.95a4.085,4.085,0,0,1,.783-.058c.794.011,1.269.361,1.269,1.064,0,.67-.51,1.1-1.371,1.1H54.7ZM52.99,6.767v7.542H54.7v-3h.521c.7.008,1.034.27,1.235,1.222a9.691,9.691,0,0,0,.535,1.781h1.768a22.152,22.152,0,0,1-.62-2.157,1.935,1.935,0,0,0-1.02-1.426v-.036a2.029,2.029,0,0,0,1.349-1.881,1.947,1.947,0,0,0-.7-1.6,3.909,3.909,0,0,0-2.474-.6,15.576,15.576,0,0,0-2.3.157" transform="translate(-52.99 -6.61)" fill="none"/>
    </clipPath>
    <linearGradient id="linear-gradient-22" x1="-16.341" y1="2.626" x2="-16.03" y2="2.626" xlink:href="#linear-gradient"/>
    <clipPath id="clip-path-24">
      <path id="Path_1087" data-name="Path 1087" d="M55.428,6.63v7.644h4.878V12.857H57.163V11.043h2.813V9.636H57.163V8.048h2.984V6.63Z" transform="translate(-55.428 -6.63)" fill="none"/>
    </clipPath>
    <linearGradient id="linear-gradient-23" x1="-18.798" y1="2.768" x2="-18.456" y2="2.768" xlink:href="#linear-gradient"/>
  </defs>
  <g id="Group_6060" data-name="Group 6060" transform="translate(-631 -2327.125)">
    <g id="Group_873" data-name="Group 873" transform="translate(631 2350.772)" clip-path="url(#clip-path)">
      <rect id="Rectangle_381" data-name="Rectangle 381" width="216.928" height="136.384" transform="translate(-8.355 4.824) rotate(-30)" fill="url(#linear-gradient)"/>
    </g>
    <path id="Path_1048" data-name="Path 1048" d="M43.05,0V1.453H45.1V7.644h1.735V1.453h2.088V0Z" transform="translate(706.667 2327.126)"/>
    <path id="Path_1049" data-name="Path 1049" d="M50.092,0v2.94H47.246V0H45.512V7.644h1.735v-3.2h2.846v3.2h1.724V0Z" transform="translate(710.994 2327.126)"/>
    <path id="Path_1050" data-name="Path 1050" d="M48.344,0V7.644H53.22V6.226H50.079V4.412h2.813V3.005H50.079V1.42H53.06V0Z" transform="translate(715.974 2327.126)"/>
    <rect id="Rectangle_382" data-name="Rectangle 382" width="1.737" height="7.644" transform="translate(750.291 2336.269)"/>
    <g id="Group_875" data-name="Group 875" transform="translate(631 2327.128)" clip-path="url(#clip-path-2)">
      <path id="Path_1051" data-name="Path 1051" d="M44.431,10.958V3.316h2.016l1.591,2.8a22.326,22.326,0,0,1,1.246,2.62h.033a28.437,28.437,0,0,1-.146-3.185V3.316h1.586v7.642H48.945L47.31,8.01a28.864,28.864,0,0,1-1.326-2.7l-.033.014c.044,1.007.066,2.085.066,3.334v2.3Z" transform="translate(78.095 5.827)"/>
      <path id="Path_1052" data-name="Path 1052" d="M49.11,4.766H47.058V3.316h5.874V4.766H50.844v6.191H49.11Z" transform="translate(82.712 5.827)"/>
      <path id="Path_1053" data-name="Path 1053" d="M54.066,7.727H51.253V9.542h3.141v1.417H49.521V3.315h4.716v1.42H51.253V6.321h2.813Z" transform="translate(87.042 5.826)"/>
      <path id="Path_1054" data-name="Path 1054" d="M51.716,3.455a15.1,15.1,0,0,1,2.3-.16,3.891,3.891,0,0,1,2.468.6,1.941,1.941,0,0,1,.706,1.6,2.026,2.026,0,0,1-1.351,1.881v.036a1.922,1.922,0,0,1,1.02,1.428c.24.86.477,1.859.626,2.154h-1.77a9.543,9.543,0,0,1-.532-1.781C54.978,8.262,54.65,8,53.947,7.991h-.518v3H51.716Zm1.713,3.287h.678c.863,0,1.373-.43,1.373-1.1,0-.7-.477-1.053-1.271-1.064a4.4,4.4,0,0,0-.78.055Z" transform="translate(90.9 5.79)"/>
      <path id="Path_1055" data-name="Path 1055" d="M54.153,10.958V3.316h2.019l1.588,2.8a21.894,21.894,0,0,1,1.246,2.62h.033a28.439,28.439,0,0,1-.146-3.185V3.316h1.588v7.642H58.667L57.035,8.01a28.208,28.208,0,0,1-1.329-2.7l-.033.014c.044,1.007.069,2.085.069,3.334v2.3Z" transform="translate(95.183 5.827)"/>
      <path id="Path_1056" data-name="Path 1056" d="M59.125,9l-.543,1.961H56.789l2.336-7.642h2.267l2.372,7.642H61.9L61.314,9ZM61.063,7.7l-.477-1.622c-.135-.452-.27-1.02-.383-1.475h-.022c-.113.455-.226,1.034-.353,1.475L59.376,7.7Z" transform="translate(99.816 5.827)"/>
      <path id="Path_1057" data-name="Path 1057" d="M61.189,4.766H59.137V3.316h5.874V4.766H62.923v6.191H61.189Z" transform="translate(103.943 5.827)"/>
      <rect id="Rectangle_383" data-name="Rectangle 383" width="1.737" height="7.642" transform="translate(169.87 9.144)"/>
      <path id="Path_1058" data-name="Path 1058" d="M69.99,7.136c0,2.507-1.519,4.026-3.75,4.026-2.272,0-3.6-1.713-3.6-3.891a3.7,3.7,0,0,1,3.72-4A3.562,3.562,0,0,1,69.99,7.136m-5.521.1c0,1.5.7,2.551,1.859,2.551s1.837-1.111,1.837-2.6c0-1.371-.656-2.551-1.848-2.551-1.169,0-1.848,1.111-1.848,2.6" transform="translate(110.108 5.746)"/>
      <path id="Path_1059" data-name="Path 1059" d="M65.719,10.958V3.316h2.016l1.591,2.8a22.327,22.327,0,0,1,1.246,2.62h.033a27.8,27.8,0,0,1-.146-3.185V3.316h1.586v7.642H70.233L68.6,8.01a28.862,28.862,0,0,1-1.326-2.7l-.033.014c.044,1.007.066,2.085.066,3.334v2.3Z" transform="translate(115.512 5.827)"/>
      <path id="Path_1060" data-name="Path 1060" d="M70.691,9l-.546,1.961H68.353l2.338-7.642h2.267l2.372,7.642H73.468L72.878,9ZM72.63,7.7l-.477-1.622c-.138-.452-.27-1.02-.383-1.475h-.025c-.113.455-.226,1.034-.35,1.475L70.94,7.7Z" transform="translate(120.142 5.827)"/>
      <path id="Path_1061" data-name="Path 1061" d="M71.252,3.315h1.735V9.506h3.039v1.451H71.252Z" transform="translate(125.238 5.826)"/>
      <path id="Path_1062" data-name="Path 1062" d="M49.1,14.139a4.891,4.891,0,0,1-1.961.328,3.637,3.637,0,0,1-4-3.822,3.9,3.9,0,0,1,4.175-4.059,4.525,4.525,0,0,1,1.881.339L48.837,8.3a3.756,3.756,0,0,0-1.451-.284,2.3,2.3,0,0,0-2.441,2.529,2.284,2.284,0,0,0,2.452,2.5,4.351,4.351,0,0,0,1.44-.248Z" transform="translate(75.81 11.575)"/>
      <path id="Path_1063" data-name="Path 1063" d="M50.25,11.043H47.437v1.815h3.144v1.417H45.706V6.63h4.716v1.42H47.437V9.636H50.25Z" transform="translate(80.335 11.653)"/>
      <path id="Path_1064" data-name="Path 1064" d="M47.9,14.275V6.631h2.016l1.588,2.8a22.117,22.117,0,0,1,1.246,2.62h.036a28.433,28.433,0,0,1-.149-3.188V6.631h1.588v7.644H52.413L50.78,11.327a27.866,27.866,0,0,1-1.326-2.7l-.036.011c.044,1.009.069,2.085.069,3.334v2.3Z" transform="translate(84.194 11.654)"/>
      <path id="Path_1065" data-name="Path 1065" d="M52.579,8.082H50.528V6.631H56.4V8.082H54.314v6.194H52.579Z" transform="translate(88.811 11.655)"/>
      <path id="Path_1066" data-name="Path 1066" d="M52.99,6.77a15.126,15.126,0,0,1,2.3-.16,3.905,3.905,0,0,1,2.471.6,1.947,1.947,0,0,1,.7,1.6,2.028,2.028,0,0,1-1.349,1.881v.036a1.935,1.935,0,0,1,1.02,1.428,22.09,22.09,0,0,0,.623,2.154h-1.77a9.774,9.774,0,0,1-.532-1.781c-.2-.951-.535-1.211-1.238-1.222H54.7v3H52.99ZM54.7,10.057h.678c.863,0,1.373-.43,1.373-1.1,0-.7-.477-1.053-1.271-1.064a4.4,4.4,0,0,0-.78.055Z" transform="translate(93.139 11.617)"/>
      <path id="Path_1067" data-name="Path 1067" d="M59.976,11.043H57.163v1.815H60.3v1.417H55.428V6.63h4.718v1.42H57.163V9.636h2.813Z" transform="translate(97.425 11.653)"/>
    </g>
    <g id="Group_877" data-name="Group 877" transform="translate(749.718 2327.125)" clip-path="url(#clip-path-3)">
      <rect id="Rectangle_385" data-name="Rectangle 385" width="8.909" height="9.557" transform="translate(-3.31 1.911) rotate(-30)" fill="url(#linear-gradient-2)"/>
    </g>
    <g id="Group_879" data-name="Group 879" transform="translate(756.507 2327.125)" clip-path="url(#clip-path-4)">
      <rect id="Rectangle_386" data-name="Rectangle 386" width="9.282" height="9.772" transform="translate(-3.31 1.911) rotate(-30)" fill="url(#linear-gradient-3)"/>
    </g>
    <g id="Group_881" data-name="Group 881" transform="translate(764.317 2327.125)" clip-path="url(#clip-path-5)">
      <rect id="Rectangle_387" data-name="Rectangle 387" width="8.044" height="9.058" transform="translate(-3.31 1.911) rotate(-30)" fill="url(#linear-gradient-4)"/>
    </g>
    <g id="Group_883" data-name="Group 883" transform="translate(750.291 2336.269)" clip-path="url(#clip-path-6)">
      <rect id="Rectangle_388" data-name="Rectangle 388" width="5.327" height="7.489" transform="matrix(0.866, -0.5, 0.5, 0.866, -3.31, 1.911)" fill="url(#linear-gradient-5)"/>
    </g>
    <g id="Group_885" data-name="Group 885" transform="translate(753.526 2336.268)" clip-path="url(#clip-path-7)">
      <rect id="Rectangle_390" data-name="Rectangle 390" width="9.298" height="9.782" transform="matrix(0.866, -0.5, 0.5, 0.866, -3.31, 1.912)" fill="url(#linear-gradient-6)"/>
    </g>
    <g id="Group_887" data-name="Group 887" transform="translate(760.768 2336.269)" clip-path="url(#clip-path-8)">
      <rect id="Rectangle_391" data-name="Rectangle 391" width="8.911" height="9.558" transform="matrix(0.866, -0.5, 0.5, 0.866, -3.31, 1.911)" fill="url(#linear-gradient-7)"/>
    </g>
    <g id="Group_889" data-name="Group 889" transform="translate(767.563 2336.269)" clip-path="url(#clip-path-9)">
      <rect id="Rectangle_392" data-name="Rectangle 392" width="8.042" height="9.057" transform="translate(-3.31 1.911) rotate(-30)" fill="url(#linear-gradient-8)"/>
    </g>
    <g id="Group_891" data-name="Group 891" transform="translate(773.616 2336.213)" clip-path="url(#clip-path-10)">
      <rect id="Rectangle_393" data-name="Rectangle 393" width="8.846" height="9.552" transform="translate(-3.334 1.926) rotate(-30)" fill="url(#linear-gradient-9)"/>
    </g>
    <g id="Group_893" data-name="Group 893" transform="translate(780.336 2336.268)" clip-path="url(#clip-path-11)">
      <rect id="Rectangle_394" data-name="Rectangle 394" width="9.303" height="9.785" transform="translate(-3.31 1.912) rotate(-30)" fill="url(#linear-gradient-10)"/>
    </g>
    <g id="Group_895" data-name="Group 895" transform="translate(787.605 2336.268)" clip-path="url(#clip-path-12)">
      <rect id="Rectangle_395" data-name="Rectangle 395" width="9.86" height="10.106" transform="translate(-3.31 1.912) rotate(-30)" fill="url(#linear-gradient-11)"/>
    </g>
    <g id="Group_897" data-name="Group 897" transform="translate(794.08 2336.269)" clip-path="url(#clip-path-13)">
      <rect id="Rectangle_396" data-name="Rectangle 396" width="8.909" height="9.557" transform="translate(-3.31 1.911) rotate(-30)" fill="url(#linear-gradient-12)"/>
    </g>
    <g id="Group_899" data-name="Group 899" transform="translate(800.87 2336.269)" clip-path="url(#clip-path-6)">
      <rect id="Rectangle_397" data-name="Rectangle 397" width="5.327" height="7.489" transform="translate(-3.31 1.911) rotate(-30)" fill="url(#linear-gradient-13)"/>
    </g>
    <g id="Group_901" data-name="Group 901" transform="translate(803.752 2336.144)" clip-path="url(#clip-path-15)">
      <rect id="Rectangle_399" data-name="Rectangle 399" width="10.308" height="10.508" transform="translate(-3.418 1.974) rotate(-30)" fill="url(#linear-gradient-14)"/>
    </g>
    <g id="Group_903" data-name="Group 903" transform="translate(812.231 2336.268)" clip-path="url(#clip-path-16)">
      <rect id="Rectangle_400" data-name="Rectangle 400" width="9.301" height="9.783" transform="translate(-3.31 1.912) rotate(-30)" fill="url(#linear-gradient-15)"/>
    </g>
    <g id="Group_905" data-name="Group 905" transform="translate(819.495 2336.268)" clip-path="url(#clip-path-17)">
      <rect id="Rectangle_401" data-name="Rectangle 401" width="9.864" height="10.109" transform="matrix(0.866, -0.5, 0.5, 0.866, -3.31, 1.912)" fill="url(#linear-gradient-16)"/>
    </g>
    <g id="Group_907" data-name="Group 907" transform="translate(827.49 2336.269)" clip-path="url(#clip-path-18)">
      <rect id="Rectangle_402" data-name="Rectangle 402" width="7.959" height="9.008" transform="translate(-3.31 1.911) rotate(-30)" fill="url(#linear-gradient-17)"/>
    </g>
    <g id="Group_909" data-name="Group 909" transform="translate(749.944 2345.286)" clip-path="url(#clip-path-19)">
      <rect id="Rectangle_403" data-name="Rectangle 403" width="9.187" height="9.856" transform="translate(-3.414 1.972) rotate(-30)" fill="url(#linear-gradient-18)"/>
    </g>
    <g id="Group_911" data-name="Group 911" transform="translate(757.042 2345.411)" clip-path="url(#clip-path-20)">
      <rect id="Rectangle_404" data-name="Rectangle 404" width="8.044" height="9.058" transform="matrix(0.866, -0.5, 0.5, 0.866, -3.31, 1.911)" fill="url(#linear-gradient-19)"/>
    </g>
    <g id="Group_913" data-name="Group 913" transform="translate(763.095 2345.41)" clip-path="url(#clip-path-21)">
      <rect id="Rectangle_405" data-name="Rectangle 405" width="9.303" height="9.785" transform="matrix(0.866, -0.5, 0.5, 0.866, -3.31, 1.912)" fill="url(#linear-gradient-20)"/>
    </g>
    <g id="Group_915" data-name="Group 915" transform="translate(770.34 2345.411)" clip-path="url(#clip-path-22)">
      <rect id="Rectangle_406" data-name="Rectangle 406" width="8.907" height="9.556" transform="translate(-3.31 1.911) rotate(-30)" fill="url(#linear-gradient-21)"/>
    </g>
    <g id="Group_917" data-name="Group 917" transform="translate(777.129 2345.355)" clip-path="url(#clip-path-23)">
      <rect id="Rectangle_407" data-name="Rectangle 407" width="8.848" height="9.554" transform="translate(-3.334 1.926) rotate(-30)" fill="url(#linear-gradient-22)"/>
    </g>
    <g id="Group_919" data-name="Group 919" transform="translate(783.852 2345.411)" clip-path="url(#clip-path-24)">
      <rect id="Rectangle_408" data-name="Rectangle 408" width="8.047" height="9.059" transform="translate(-3.31 1.911) rotate(-30)" fill="url(#linear-gradient-23)"/>
    </g>
  </g>
</svg>
