<svg xmlns="http://www.w3.org/2000/svg" xmlns:xlink="http://www.w3.org/1999/xlink" width="178.02" height="43.141" viewBox="0 0 178.02 43.141">
  <defs>
    <clipPath id="clip-path">
      <path id="Path_1033" data-name="Path 1033" d="M43.893,2.1c-.171,1.21-.3,2.422-.436,3.639q-.937,8.1-1.879,16.2c-.142,1.2-.493,1.506-1.719,1.645a3.922,3.922,0,0,0-.567.15c0,.063,0,.123.005.189a2.693,2.693,0,0,0,.593.15q2.625.02,5.248,0a2.8,2.8,0,0,0,.64-.15c-.005-.084-.01-.168-.018-.249-.407-.073-.816-.142-1.225-.218a.951.951,0,0,1-.9-1.092c.029-.425.013-.853.047-1.278q.559-6.518,1.134-13.028a2.951,2.951,0,0,1,.113-.352l.307.622q3.7,7.332,7.4,14.665a5.639,5.639,0,0,0,.827.994,6.415,6.415,0,0,0,.834-1.052q3.656-7.423,7.268-14.867c.092-.189.194-.373.328-.64A1.327,1.327,0,0,1,62,7.685q.689,7.116,1.372,14.232c.055.588.3,1.21-.38,1.727a2.091,2.091,0,0,0,.538.2c1.91.084,3.823.165,5.736.22.165.005.336-.157.5-.236-.018-.066-.034-.126-.052-.186-.189-.018-.38-.047-.572-.052-2.1-.087-2.855-.79-3.1-2.9Q65,11.577,63.936,2.474a4.72,4.72,0,0,0-.449-1.12,5.138,5.138,0,0,0-.719.9q-4.231,8.671-8.431,17.357c-.066.134-.144.262-.249.451-.094-.176-.157-.278-.21-.383Q50.849,13.65,47.818,7.619c-.95-1.892-1.894-3.789-2.871-5.665-.136-.252-.449-.412-.682-.611a2.736,2.736,0,0,0-.373.756" transform="translate(-39.293 -1.343)" fill="none"/>
    </clipPath>
    <linearGradient id="linear-gradient" x1="-3.383" y1="1.742" x2="-3.297" y2="1.742" gradientUnits="objectBoundingBox">
      <stop offset="0" stop-color="#ed2525"/>
      <stop offset="1" stop-color="#cc2525"/>
    </linearGradient>
    <clipPath id="clip-path-2">
      <path id="Path_1034" data-name="Path 1034" d="M41.042,13.415c-.845-.113-1.692-.22-2.537-.338-.5-.068-.714-.32-.711-.863q.035-4.4,0-8.793c-.005-.517.171-.753.687-.769.711-.024,1.422-.118,2.133-.089a4.727,4.727,0,0,1,4.665,3.9,7.967,7.967,0,0,1,.042,3.511c-.525,2.482-1.732,3.437-4.245,3.437h-.037M32.52,1.673c.087.129.115.215.155.22.378.066.758.118,1.136.168.8.1,1.12.4,1.22,1.191a12.3,12.3,0,0,1,.1,1.585c.013,4.036.034,8.068.005,12.1q-.02,2.531-.234,5.061c-.089,1.026-.331,1.165-1.346,1.328a1.8,1.8,0,0,0-.517.268,1.9,1.9,0,0,0,.572.218q3.267.024,6.536,0a2.374,2.374,0,0,0,.619-.171c-.005-.076-.01-.157-.021-.239-.3-.037-.6-.079-.9-.118-1.6-.213-1.847-.4-1.915-2.015-.1-2.157-.084-4.316-.129-6.476-.01-.4.189-.47.533-.459a28.285,28.285,0,0,0,2.868.05,1.424,1.424,0,0,1,1.572,1.01c.842,1.921,1.74,3.815,2.613,5.72a32.363,32.363,0,0,0,3.568,6.457,9.888,9.888,0,0,0,2.718,2.606,4.659,4.659,0,0,0,6.507-2.133c-.142.1-.239.165-.331.236a3.392,3.392,0,0,1-3.673.506A6.9,6.9,0,0,1,52.207,27.5a19.723,19.723,0,0,1-4.245-6.575c-1.1-2.472-1.831-5.1-3.4-7.389.157-.144.3-.283.449-.42a10.845,10.845,0,0,0,2.632-3.411,5.442,5.442,0,0,0-1.157-6.652A6.082,6.082,0,0,0,42.6,1.618c-3.178-.1-6.355-.092-9.533-.118h-.005a1.971,1.971,0,0,0-.546.173" transform="translate(-32.52 -1.5)" fill="none"/>
    </clipPath>
    <linearGradient id="linear-gradient-2" x1="-3.325" y1="1.304" x2="-3.223" y2="1.304" xlink:href="#linear-gradient"/>
    <clipPath id="clip-path-3">
      <path id="Path_1035" data-name="Path 1035" d="M.457,0C.3,0,.152.15,0,.228L.063.443c.215.024.43.05.648.068C2.5.672,2.954,1.081,2.96,2.86c.018,6.678-.005,13.358-.031,20.039A9.539,9.539,0,0,1,2.7,24.591,1.225,1.225,0,0,1,1.509,25.7c-.325.026-.645.108-.968.165-.008.066-.01.131-.018.2a1.8,1.8,0,0,0,.556.192q3.786.02,7.578,0c.181,0,.365-.168.546-.255a1.771,1.771,0,0,0-.541-.226C6.46,25.63,6.04,25.3,6.014,23.1c-.079-7.048-.092-14.1-.134-21.143a.689.689,0,0,1,.645-.8c3-.449,5.639.383,7.108,3.448a6.6,6.6,0,0,1-.777,7.276,6.273,6.273,0,0,1-4.844,1.931c-.2,0-.391.186-.585.283.181.094.359.265.548.27,4.379.223,8.294-2.22,8.992-6.969A5.94,5.94,0,0,0,12.45.449,6.839,6.839,0,0,0,10.9.131C7.42.063,3.938.029.462,0Z" fill="none"/>
    </clipPath>
    <linearGradient id="linear-gradient-3" x1="0" y1="1.642" x2="0.15" y2="1.642" xlink:href="#linear-gradient"/>
    <clipPath id="clip-path-4">
      <path id="Path_1036" data-name="Path 1036" d="M19.771,1.69c.008.081.016.163.021.244.428.042.858.076,1.283.131a1.158,1.158,0,0,1,1.176,1.1,4.517,4.517,0,0,1,.068.729c.021,4.44.055,8.879.052,13.321,0,1.425-.052,2.855-.165,4.272-.118,1.472-.352,1.826-1.648,1.842a.213.213,0,0,0-.118.018c-.068.066-.171.142-.168.215a.281.281,0,0,0,.173.2,1.308,1.308,0,0,0,.42.05c2.18,0,4.356.008,6.536,0a3.942,3.942,0,0,0,.722-.16c-.142-.186-.163-.241-.189-.249-.441-.068-.876-.134-1.317-.194-.882-.121-1.249-.425-1.333-1.312-.1-1.092-.163-2.194-.168-3.29-.021-4.749-.013-9.5-.016-14.242,0-1.766,0-1.766,1.758-1.887a5.111,5.111,0,0,1,4.642,1.8,5.634,5.634,0,0,1,1.115,5.5c-.63,1.968-2.23,2.873-4.172,3.227-.5.094-1.015.063-1.519.136-.163.021-.3.186-.454.289.152.1.307.283.464.286a17.544,17.544,0,0,0,2.133-.071A6.93,6.93,0,0,0,35.234,8.68c.858-3.13-.446-5.746-3.359-6.678a6.763,6.763,0,0,0-1.847-.386c-3.256-.071-6.515-.092-9.771-.115h-.005a1.464,1.464,0,0,0-.48.189" transform="translate(-19.771 -1.501)" fill="none"/>
    </clipPath>
    <linearGradient id="linear-gradient-4" x1="-3.179" y1="1.756" x2="-3.018" y2="1.756" xlink:href="#linear-gradient"/>
    <clipPath id="clip-path-5">
      <path id="Path_1037" data-name="Path 1037" d="M13.668,1.515a1.655,1.655,0,0,0-.378.226c.118.084.228.218.354.244.3.06.611.055.913.092a1.149,1.149,0,0,1,1.17,1.173,14.392,14.392,0,0,1,.108,1.645q.016,6.541,0,13.077c0,1.141-.039,2.283-.131,3.419-.131,1.572-.2,1.606-1.682,1.957-.108.026-.194.155-.289.236a1.233,1.233,0,0,0,.312.231,1.427,1.427,0,0,0,.425.018q3.113,0,6.229,0a1.654,1.654,0,0,0,.485-.026c.11-.034.2-.16.291-.247a1.344,1.344,0,0,0-.317-.213,2.252,2.252,0,0,0-.425-.031c-1.716-.186-1.994-.485-2.078-2.209,0-.06-.008-.123-.008-.184V12.31h-.094v-8.5c0-.142.01-.286,0-.428-.031-.464.136-.74.638-.764.69-.034,1.383-.144,2.07-.126a4.8,4.8,0,0,1,4.39,2.826c1.551,3.107.677,6.573-3.214,7.594-.606.157-1.254.131-1.876.231a2.563,2.563,0,0,0-.632.31,1.916,1.916,0,0,0,.661.3,15.107,15.107,0,0,0,1.95-.084,6.845,6.845,0,0,0,6.408-6.484A4.844,4.844,0,0,0,25.52,2.069,12.381,12.381,0,0,0,21.364,1.5H14.093c-.081,0-.168-.008-.252-.008a.627.627,0,0,0-.173.021" transform="translate(-13.29 -1.494)" fill="none"/>
    </clipPath>
    <linearGradient id="linear-gradient-5" x1="-2.209" y1="1.754" x2="-2.043" y2="1.754" xlink:href="#linear-gradient"/>
    <clipPath id="clip-path-6">
      <path id="Path_1038" data-name="Path 1038" d="M36.658,1.65c-3.157,0-6.316-.045-9.472-.073a3.137,3.137,0,0,0-.609.031c-.092.018-.163.142-.247.218.081.076.152.2.241.22.278.05.567.06.85.092.963.1,1.3.433,1.372,1.38.05.729.087,1.464.089,2.2.01,3.87.021,7.74,0,11.613-.008,1.4-.034,2.813-.168,4.209-.144,1.5-.2,1.49-1.666,1.884-.108.029-.189.163-.283.247.1.079.2.2.32.22a3.358,3.358,0,0,0,.609.01c2.078,0,4.154,0,6.232.01,1.608.008,3.217.052,4.825.047.787,0,1.008-.2,1.147-.979.144-.8.252-1.611.346-2.417a2.333,2.333,0,0,0-.094-.648l-.236-.021c-.081.27-.176.535-.236.811a2.036,2.036,0,0,1-1.921,1.842,34.882,34.882,0,0,1-4.505.018,1.463,1.463,0,0,1-1.524-1.65c-.058-2.608-.052-5.216-.045-7.822,0-.142.234-.412.357-.409,1.587.031,3.178.05,4.757.181.987.084,1.257.478,1.375,1.488.024.2.079.4.121.6h.268q.228-2.141.462-4.287a5.242,5.242,0,0,1-1.522.651c-1.805.113-3.618.121-5.434.136a.549.549,0,0,1-.38-.373q-.035-3.912,0-7.822c0-.139.244-.4.37-.391,1.666.045,3.34.06,5,.223,1.2.115,1.4.446,1.535,1.658a1.542,1.542,0,0,0,.249.483c.1-.157.276-.3.3-.47.15-1.047.268-2.1.388-3.149a.327.327,0,0,0-.05-.163c-.968.073-1.894.2-2.821.2" transform="translate(-26.33 -1.448)" fill="none"/>
    </clipPath>
    <linearGradient id="linear-gradient-6" x1="-4.955" y1="1.747" x2="-4.767" y2="1.747" xlink:href="#linear-gradient"/>
    <clipPath id="clip-path-7">
      <path id="Path_1039" data-name="Path 1039" d="M17.349,1.645c-3.178,0-6.358-.05-9.535-.06a2.679,2.679,0,0,0-.787.247,3.574,3.574,0,0,0,.74.252c1.448.155,1.732.388,1.753,1.86.05,4.5.081,9.008.068,13.51-.005,1.606-.16,3.209-.27,4.815a1.039,1.039,0,0,1-1.089,1.078,4.861,4.861,0,0,0-.8.184c.008.092.013.184.024.273a7.4,7.4,0,0,0,.832.092c2.238.013,4.479.01,6.717.018,1.488.01,2.975.045,4.463.031a1.4,1.4,0,0,0,.837-.265c.446-.383.769-3.214.317-3.789-.076.252-.171.5-.228.761a2.047,2.047,0,0,1-1.942,1.892,33.915,33.915,0,0,1-4.442.024,1.475,1.475,0,0,1-1.572-1.674c-.06-2.606-.055-5.214-.052-7.822,0-.139.207-.4.31-.4,1.69.058,3.377.121,5.061.239a1.171,1.171,0,0,1,1.086,1.2c.031.278.092.554.142.829.094,0,.194-.005.289-.005q.22-2.153.449-4.3c-.06-.029-.115-.058-.173-.087a2.147,2.147,0,0,1-1.892.842c-1.69.026-3.382.039-5.072.052-.05,0-.1-.05-.215-.1V9.48c0-2.02-.01-4.036.016-6.053,0-.2.218-.562.325-.559,1.768.052,3.54.1,5.3.27.931.089,1.186.5,1.278,1.433.024.226.079.449.123.711.391-.265.895-3.3.735-3.831-.939.068-1.866.194-2.794.194" transform="translate(-7.027 -1.451)" fill="none"/>
    </clipPath>
    <linearGradient id="linear-gradient-7" x1="-1.313" y1="1.748" x2="-1.126" y2="1.748" xlink:href="#linear-gradient"/>
    <clipPath id="clip-path-8">
      <path id="Path_1040" data-name="Path 1040" d="M62.382,1.521c-.1.026-.178.134-.262.2.092.084.171.226.276.249.276.055.564.058.85.089.913.1,1.249.433,1.33,1.357.045.527.079,1.055.081,1.587.013,3.952.039,7.9.013,11.857-.011,1.645-.089,3.3-.22,4.941-.1,1.217-.3,1.351-1.477,1.538a1.332,1.332,0,0,0-.422.236,1.734,1.734,0,0,0,.428.241,2.369,2.369,0,0,0,.546,0q3.393.008,6.78.016,2.629.012,5.258.031a.943.943,0,0,0,1.063-.863c.1-.562.2-1.123.307-1.682.071-.394.178-.785.213-1.181.011-.131-.163-.273-.252-.412a1.722,1.722,0,0,0-.352.336,3.236,3.236,0,0,0-.144.527,2.351,2.351,0,0,1-1.776,1.831,14.662,14.662,0,0,1-5.825-.1,1.276,1.276,0,0,1-1.063-1.123,11.961,11.961,0,0,1-.2-1.692Q67.492,11.6,67.5,3.683c0-1.267.383-1.611,1.643-1.711.236-.018.472-.073.7-.113,0-.087-.005-.176-.01-.265A6.484,6.484,0,0,0,69.1,1.5c-2.076-.005-4.154,0-6.232,0h-.21a1.2,1.2,0,0,0-.275.024" transform="translate(-62.12 -1.497)" fill="none"/>
    </clipPath>
    <linearGradient id="linear-gradient-8" x1="-10.841" y1="1.752" x2="-10.667" y2="1.752" xlink:href="#linear-gradient"/>
    <clipPath id="clip-path-9">
      <path id="Path_1041" data-name="Path 1041" d="M55.588,1.712c-.008.071-.016.139-.026.21.407.042.813.081,1.223.129.829.1,1.157.4,1.262,1.22a11.388,11.388,0,0,1,.087,1.464c.01,4.256.037,8.512.01,12.77-.01,1.524-.1,3.052-.247,4.571-.087.924-.331,1.071-1.236,1.231a3.172,3.172,0,0,0-.624.236c.239.092.472.189.716.265a1.078,1.078,0,0,0,.3,0l6.838.021c1.692.01,3.382.042,5.072.026.813-.005,1-.157,1.165-.96.171-.855.281-1.727.394-2.592a2.26,2.26,0,0,0-.089-.606c-.066-.008-.129-.021-.192-.029a4.033,4.033,0,0,0-.27.6,2.542,2.542,0,0,1-2.616,2.285,24.737,24.737,0,0,1-3.844-.021c-2.034-.165-2.411-.548-2.456-2.571-.084-3.642-.092-7.289-.113-10.934-.01-1.771-.018-3.545.039-5.313.045-1.367.383-1.656,1.74-1.753a6.553,6.553,0,0,0,.724-.147,18.394,18.394,0,0,0-4.379-.3,16.04,16.04,0,0,0-3.482.207" transform="translate(-55.562 -1.505)" fill="none"/>
    </clipPath>
    <linearGradient id="linear-gradient-9" x1="-9.726" y1="1.753" x2="-9.551" y2="1.753" xlink:href="#linear-gradient"/>
    <clipPath id="clip-path-10">
      <path id="Path_1042" data-name="Path 1042" d="M52.257,1.512a2.447,2.447,0,0,0-.729.247,3.24,3.24,0,0,0,.674.265c1.055.163,1.325.425,1.43,1.48.037.4.055.811.055,1.217.013,3.889.042,7.78.018,11.671-.011,1.85-.094,3.7-.213,5.55-.066,1.023-.346,1.238-1.362,1.38a.336.336,0,0,1-.1.005.3.3,0,0,0-.139.018,2.112,2.112,0,0,0-.3.236,1.554,1.554,0,0,0,.312.228.976.976,0,0,0,.362.021q3.208,0,6.413,0a1.027,1.027,0,0,0,.362-.021,1.469,1.469,0,0,0,.312-.234,1.361,1.361,0,0,0-.3-.234.627.627,0,0,0-.223-.021,1.264,1.264,0,0,1-.142,0c-1.771-.165-1.984-.388-2.089-2.159-.005-.06-.01-.121-.01-.181-.031-4.2-.071-8.391-.089-12.584-.005-1.65.005-3.3.071-4.949.042-1.026.362-1.291,1.383-1.438.223-.034.441-.1.659-.144,0-.081,0-.163.005-.244a4.6,4.6,0,0,0-.743-.118c-.9,0-1.8-.008-2.7-.008-.971,0-1.944.005-2.915.016" transform="translate(-51.528 -1.496)" fill="none"/>
    </clipPath>
    <linearGradient id="linear-gradient-10" x1="-17.28" y1="1.754" x2="-16.944" y2="1.754" xlink:href="#linear-gradient"/>
    <clipPath id="clip-path-11">
      <path id="Path_1043" data-name="Path 1043" d="M55.825,12.764v9.506h.895V14.21c.223.312.344.472.457.638,1.572,2.28,3.159,4.547,4.691,6.854a1.119,1.119,0,0,0,1.409.538v-9.5H62.4v8.04c-.218-.3-.341-.451-.451-.611-1.556-2.264-3.13-4.518-4.66-6.8-.273-.407-.551-.687-.989-.687a1.387,1.387,0,0,0-.47.089" transform="translate(-55.825 -12.675)" fill="none"/>
    </clipPath>
    <linearGradient id="linear-gradient-11" x1="-19.657" y1="1.013" x2="-19.304" y2="1.013" xlink:href="#linear-gradient"/>
    <clipPath id="clip-path-12">
      <path id="Path_1044" data-name="Path 1044" d="M47.23,17.155V13.5c1.315,0,2.569-.042,3.826.016a1.634,1.634,0,0,1,1.6,1.679,1.707,1.707,0,0,1-1.4,1.929c-.533.047-1.065.063-1.6.063-.8,0-1.606-.034-2.419-.034M46.9,12.684c-.192,0-.386.024-.583.034v9.53h.908V18.029c1.157,0,2.251-.005,3.345,0a1.671,1.671,0,0,1,1.892,1.635c.079.583.1,1.175.155,1.763.084.9.176.966,1.036.813-.076-.706-.178-1.406-.226-2.11-.076-1.068-.192-2.1-1.564-2.474l.325-.152a2.432,2.432,0,0,0,1.37-2.671,2.263,2.263,0,0,0-1.847-2.015,5.1,5.1,0,0,0-1.147-.129q-.854-.012-1.708-.01-.976,0-1.957.005" transform="translate(-46.314 -12.679)" fill="none"/>
    </clipPath>
    <linearGradient id="linear-gradient-12" x1="-16.482" y1="1.015" x2="-16.126" y2="1.015" xlink:href="#linear-gradient"/>
    <clipPath id="clip-path-13">
      <path id="Path_1045" data-name="Path 1045" d="M65.254,21.813A3.337,3.337,0,0,1,61.93,19.2a5.414,5.414,0,0,1,.189-3.7,3.234,3.234,0,0,1,3.2-2.11,3.165,3.165,0,0,1,3.143,2.086,14.181,14.181,0,0,1,.517,2.01c-.121.669-.176,1.22-.325,1.742a3.3,3.3,0,0,1-3.359,2.587h-.039m-4.337-5.5c-.084.415-.11.845-.181,1.425a14.143,14.143,0,0,0,.359,1.829,4.21,4.21,0,0,0,3.744,3.062,4.3,4.3,0,0,0,4.358-2.32,6.077,6.077,0,0,0,.538-3.747,4.314,4.314,0,0,0-4.245-3.954c-.058,0-.115,0-.171,0a4.262,4.262,0,0,0-4.4,3.708" transform="translate(-60.736 -12.608)" fill="none"/>
    </clipPath>
    <linearGradient id="linear-gradient-13" x1="-17.343" y1="0.977" x2="-17.058" y2="0.977" xlink:href="#linear-gradient"/>
    <clipPath id="clip-path-14">
      <path id="Path_1046" data-name="Path 1046" d="M51.26,12.7v9.527h6.61v-.764h-5.7V17.686h5.282v-.8H52.168V13.454h5.647V12.7Z" transform="translate(-51.26 -12.698)" fill="none"/>
    </clipPath>
    <linearGradient id="linear-gradient-14" x1="-20.349" y1="1.031" x2="-19.952" y2="1.031" xlink:href="#linear-gradient"/>
  </defs>
  <g id="Group_6057" data-name="Group 6057" transform="translate(-666 -2058)">
    <g id="Group_845" data-name="Group 845" transform="translate(769.1 2061.524)">
      <g id="Group_844" data-name="Group 844" clip-path="url(#clip-path)">
        <rect id="Rectangle_367" data-name="Rectangle 367" width="30.474" height="22.744" transform="translate(0 0.001)" fill="url(#linear-gradient)"/>
      </g>
    </g>
    <g id="Group_847" data-name="Group 847" transform="translate(751.328 2061.936)">
      <g id="Group_846" data-name="Group 846" clip-path="url(#clip-path-2)">
        <rect id="Rectangle_368" data-name="Rectangle 368" width="25.662" height="30.03" transform="translate(0 0.001)" fill="url(#linear-gradient-2)"/>
      </g>
    </g>
    <g id="Group_849" data-name="Group 849" transform="translate(666 2058)">
      <g id="Group_848" data-name="Group 848" clip-path="url(#clip-path-3)">
        <rect id="Rectangle_369" data-name="Rectangle 369" width="17.459" height="26.268" transform="translate(0 0.001)" fill="url(#linear-gradient-3)"/>
      </g>
    </g>
    <g id="Group_851" data-name="Group 851" transform="translate(717.877 2061.938)">
      <g id="Group_850" data-name="Group 850" clip-path="url(#clip-path-4)">
        <rect id="Rectangle_370" data-name="Rectangle 370" width="16.321" height="22.329" transform="translate(0 0.001)" fill="url(#linear-gradient-4)"/>
      </g>
    </g>
    <g id="Group_853" data-name="Group 853" transform="translate(700.871 2061.92)">
      <g id="Group_852" data-name="Group 852" clip-path="url(#clip-path-5)">
        <rect id="Rectangle_371" data-name="Rectangle 371" width="15.788" height="22.363" transform="translate(0 0.001)" fill="url(#linear-gradient-5)"/>
      </g>
    </g>
    <g id="Group_855" data-name="Group 855" transform="translate(735.087 2061.8)">
      <g id="Group_854" data-name="Group 854" clip-path="url(#clip-path-6)">
        <rect id="Rectangle_372" data-name="Rectangle 372" width="13.943" height="22.515" transform="translate(0 0.001)" fill="url(#linear-gradient-6)"/>
      </g>
    </g>
    <g id="Group_857" data-name="Group 857" transform="translate(684.438 2061.807)">
      <g id="Group_856" data-name="Group 856" clip-path="url(#clip-path-7)">
        <rect id="Rectangle_373" data-name="Rectangle 373" width="14.046" height="22.508" transform="translate(0 0.001)" fill="url(#linear-gradient-7)"/>
      </g>
    </g>
    <g id="Group_859" data-name="Group 859" transform="translate(828.995 2061.927)">
      <g id="Group_858" data-name="Group 858" clip-path="url(#clip-path-8)">
        <rect id="Rectangle_374" data-name="Rectangle 374" width="15.035" height="22.382" transform="translate(0 -0.001)" fill="url(#linear-gradient-8)"/>
      </g>
    </g>
    <g id="Group_861" data-name="Group 861" transform="translate(811.788 2061.949)">
      <g id="Group_860" data-name="Group 860" clip-path="url(#clip-path-9)">
        <rect id="Rectangle_375" data-name="Rectangle 375" width="14.99" height="22.363" transform="translate(0 0.001)" fill="url(#linear-gradient-9)"/>
      </g>
    </g>
    <g id="Group_863" data-name="Group 863" transform="translate(801.203 2061.925)">
      <g id="Group_862" data-name="Group 862" clip-path="url(#clip-path-10)">
        <rect id="Rectangle_376" data-name="Rectangle 376" width="7.824" height="22.358" transform="translate(0 0.001)" fill="url(#linear-gradient-10)"/>
      </g>
    </g>
    <g id="Group_865" data-name="Group 865" transform="translate(812.478 2091.258)">
      <g id="Group_864" data-name="Group 864" clip-path="url(#clip-path-11)">
        <rect id="Rectangle_377" data-name="Rectangle 377" width="7.452" height="9.737" transform="translate(0 0.001)" fill="url(#linear-gradient-11)"/>
      </g>
    </g>
    <g id="Group_867" data-name="Group 867" transform="translate(787.522 2091.268)">
      <g id="Group_866" data-name="Group 866" clip-path="url(#clip-path-12)">
        <rect id="Rectangle_378" data-name="Rectangle 378" width="7.373" height="9.714" transform="translate(0 0.001)" fill="url(#linear-gradient-12)"/>
      </g>
    </g>
    <g id="Group_869" data-name="Group 869" transform="translate(825.364 2091.082)">
      <g id="Group_868" data-name="Group 868" clip-path="url(#clip-path-13)">
        <rect id="Rectangle_379" data-name="Rectangle 379" width="9.189" height="10.265" transform="translate(0 0.001)" fill="url(#linear-gradient-13)"/>
      </g>
    </g>
    <g id="Group_871" data-name="Group 871" transform="translate(800.5 2091.319)">
      <g id="Group_870" data-name="Group 870" clip-path="url(#clip-path-14)">
        <rect id="Rectangle_380" data-name="Rectangle 380" width="6.61" height="9.527" fill="url(#linear-gradient-14)"/>
      </g>
    </g>
  </g>
</svg>
