<svg xmlns="http://www.w3.org/2000/svg" xmlns:xlink="http://www.w3.org/1999/xlink" width="156.311" height="149.081" viewBox="0 0 156.311 149.081">
  <defs>
    <clipPath id="clip-path">
      <path id="Path_8924" data-name="Path 8924" d="M122.634,172.444a7.925,7.925,0,0,1-5.122-1.878,2.621,2.621,0,0,1-2.462,1.368,7.607,7.607,0,0,1-3.387-1.023c-4.191-2.135-1.832-7.077-1.808-7.126.026-.091,3.935-12.609.266-22.3-3.427-7.108-7.21-8.172-9.159-8.172a4.01,4.01,0,0,0-1.262.175c-.045.016-3.913,1.422-6.825,8.858-.935,2.387-1.486,4.13-1.927,5.53-.961,3.044-1.321,4.183-3.782,5.628A29.155,29.155,0,0,1,73.8,156.755a21.619,21.619,0,0,1-6.009-.8.258.258,0,0,1-.082-.04,2.087,2.087,0,0,1-.92-1.307l-1.407-.277a.254.254,0,0,1-.2-.31,19.355,19.355,0,0,1,4.317-7.54c2.631-2.549,5.245-9.383,7.571-19.776,1.2-5.364,1.793-10.169,1.9-11.06-1.682-1.2-17.432-12.451-19.638-15.1-2.368-2.121-4.852-4.683-5.2-5.048a8.539,8.539,0,0,1-3.007-2.058c-1.4-1.439-3.106-4.1-3.269-8.6a15.112,15.112,0,0,1,3.867-9.129,34.5,34.5,0,0,1-.751-9.836c-1.3-.56-8.845-4.017-11.3-9.768a.252.252,0,0,1-.018-.129c.022-.189.638-4.669,7.987-8.019a25.037,25.037,0,0,1,10.308-2.5,10.407,10.407,0,0,1,1.921.142.283.283,0,0,1,.05.016l.914.4c.947-.937,7.1-6.717,15.478-7.49,3.27-.3,6.259-.454,8.882-.454a38.336,38.336,0,0,1,4.192.179c.975-1.311,8.853-11.74,13.767-13.247a10.293,10.293,0,0,1,4.512-1.141,7.449,7.449,0,0,1,2.789.53l-.032.259.09-.237a11.952,11.952,0,0,1,7.508,9.748,29.872,29.872,0,0,1-.147,8.322c1.95-.67,9.834-3.256,15.268-3.256.309,0,.612.009.9.026l.536.031c5.928.348,11.527.675,19.08,4.137,1.064.459,2.347,1.012,2.382,1.03s1.451.905,4.179,2.624c.024.017.817.655,1.909,1.565.113.094.785.521,1.182.768.229.2,4.811,4.267,5.845,5.6l.129.167c5.517,7.072,9.332,14.731,10.744,21.568a125.742,125.742,0,0,1,3.3,20.531l.056.689c.265,3.149.838,16.088.844,16.218,0,.92.071,22.293-.434,23.81a.256.256,0,0,1-.118.142,19.285,19.285,0,0,1-7.19,1.951h0a3.846,3.846,0,0,1-1.95-.423,3.7,3.7,0,0,1-1.545-1.612,6.146,6.146,0,0,1-2.212.4,6.436,6.436,0,0,1-3.221-.876,1.127,1.127,0,0,1-.825-.653c-.782-1.73,1.863-6.32,2.342-7.126-.074-.811-.744-7.516-2.8-9-2.083-1.51-8.954-7.278-10.173-8.3l-3.965,4.289-3.381,2.81-4.652,3.216-4.335,2.032-.428.932a12.6,12.6,0,0,1-.747,2.129l-5.034,12.563c-.029.089-3.41,10.359-3.753,13.615a88.965,88.965,0,0,0-.184,9.4l.011.576c0,.138.009.292.016.46.072,1.731.205,4.954-3.232,7.05A9.171,9.171,0,0,1,122.634,172.444Z" transform="translate(-39.65 -23.87)" fill="none"/>
    </clipPath>
  </defs>
  <g id="Group_6516" data-name="Group 6516" transform="translate(-15.544 -23.337)">
    <g id="Group_6401" data-name="Group 6401" transform="translate(28.417 96.848)">
      <path id="Path_8913" data-name="Path 8913" d="M50.891,195.714l-1.093-.641c.734-1.249,1.585-6.26,1.851-8.086.144-1.579.173-6.079-1.45-7.515a1.894,1.894,0,0,0-1.766-.378c-4.321.934-4.572,6.038-4.58,6.255l-1.266-.048c0-.063.29-6.3,5.579-7.446a3.122,3.122,0,0,1,2.874.668c2.434,2.157,1.892,8.351,1.868,8.613C52.8,187.867,51.883,194.027,50.891,195.714Z" transform="translate(-42.587 -177.76)" fill="#d7d7d7"/>
    </g>
    <g id="Group_6402" data-name="Group 6402" transform="translate(28.934 104.068)">
      <path id="Path_8914" data-name="Path 8914" d="M46.086,195.8l-.721-.106-.021-.233.488-.042-.021-.467h-.742l-.021-.424h.509v-.467l-.467.021v-.361h.361l-.021-.658-1.611.05.337,3.975,1.062-.122-.042-.573.849-.085Z" transform="translate(-43.749 -192.997)" fill="#fff"/>
      <path id="Path_8915" data-name="Path 8915" d="M44.022,197.086l-.006-.065-.343-4.042,1.741-.055.025.787h-.363v.23l.467-.021v.6h-.506l.015.3H45.8l.027.588-.485.042.011.12.734.108-.078.621-.837.083.042.572Zm-.211-3.983.326,3.843.936-.108-.042-.574.86-.086.05-.4-.709-.1-.032-.347.491-.042-.016-.346h-.743l-.028-.551h.512v-.337l-.467.021v-.49h.359l-.017-.529Z" transform="translate(-43.673 -192.925)" fill="#d7d8d8"/>
    </g>
    <g id="Group_6403" data-name="Group 6403" transform="translate(27.453 104.183)">
      <path id="Path_8916" data-name="Path 8916" d="M41.008,193.2l-.021.552h.255l-.021.509-.4.021v.467l.467.021v.339l-.636.042.064.488.445.021.021.53-.615.064.021.424,1.018-.042.064.594.784-.09-.337-3.975Z" transform="translate(-40.562 -193.168)" fill="#d7d7d7"/>
    </g>
    <g id="Group_6404" data-name="Group 6404" transform="translate(28.364 107.704)">
      <path id="Path_8917" data-name="Path 8917" d="M45.541,200.706l-2.927.212.212,4.794,2.906-.233-.021-.573h.318l-.127-2.44Z" transform="translate(-42.547 -200.638)" fill="#fff"/>
      <path id="Path_8918" data-name="Path 8918" d="M42.693,205.706l-.218-4.921,3.044-.221.011.054.361,1.761.132,2.515H45.7l.021.568Zm-.086-4.8.206,4.667,2.781-.224-.021-.577h.317l-.124-2.373-.348-1.7Z" transform="translate(-42.475 -200.564)" fill="#d7d8d8"/>
    </g>
    <g id="Group_6405" data-name="Group 6405" transform="translate(26.796 107.899)">
      <path id="Path_8919" data-name="Path 8919" d="M39.733,205.767l-.552-2.312.658-2.227,1.124-.255.064,1.952.036,2.761Z" transform="translate(-39.182 -200.973)" fill="#d7d7d7"/>
    </g>
    <g id="Group_6406" data-name="Group 6406" transform="translate(35.165 94.248)">
      <path id="Path_8920" data-name="Path 8920" d="M60.7,187.747c-.221-.286-5.4-7.057-3.541-11.678.822-2.04,2.826-3.309,5.96-3.772l.221,1.5c-2.561.378-4.166,1.332-4.771,2.835-1.276,3.17,1.973,8.423,3.333,10.179Z" transform="translate(-56.761 -172.298)" fill="#657080"/>
    </g>
    <g id="Group_6407" data-name="Group 6407" transform="translate(35.848 94.978)">
      <path id="Path_8921" data-name="Path 8921" d="M61.994,188.164c-.052-.067-5.158-6.737-3.446-10.991.722-1.794,2.543-2.918,5.414-3.342l.019.126c-2.823.417-4.611,1.515-5.315,3.263-1.685,4.187,3.377,10.8,3.428,10.867Z" transform="translate(-58.197 -173.831)" fill="#fff"/>
    </g>
    <g id="Group_6411" data-name="Group 6411" transform="translate(38.252 108.507)">
      <g id="Group_6408" data-name="Group 6408" transform="translate(0.454 0)">
        <rect id="Rectangle_1203" data-name="Rectangle 1203" width="3.332" height="3.102" transform="translate(0 0.359) rotate(-6.188)" fill="#acddf3"/>
      </g>
      <g id="Group_6409" data-name="Group 6409" transform="translate(0 0.359)">
        <path id="Path_8922" data-name="Path 8922" d="M64.035,206.09l-.489.167-.3-2.76.454-.49" transform="translate(-63.247 -203.006)" fill="#acddf3"/>
      </g>
      <g id="Group_6410" data-name="Group 6410" transform="translate(0.437 0.775)">
        <path id="Path_8923" data-name="Path 8923" d="M64.446,206.464c-.066-.594-.281-2.533-.28-2.585l.127,0-.063,0h.063c0,.071.2,1.879.279,2.57Z" transform="translate(-64.166 -203.879)" fill="#fff"/>
      </g>
    </g>
    <g id="Group_6470" data-name="Group 6470" transform="translate(26.766 23.337)">
      <g id="Group_6416" data-name="Group 6416">
        <g id="Group_6414" data-name="Group 6414" transform="translate(0.253 0.254)">
          <g id="Group_6413" data-name="Group 6413">
            <g id="Group_6412" data-name="Group 6412" clip-path="url(#clip-path)">
              <rect id="Rectangle_1204" data-name="Rectangle 1204" width="144.652" height="148.574" transform="translate(-0.004 0)" fill="#c23238"/>
              <circle id="Ellipse_22" data-name="Ellipse 22" cx="73.296" cy="73.296" r="73.296" transform="translate(-1.005 0.991)" fill="#c23238"/>
              <circle id="Ellipse_23" data-name="Ellipse 23" cx="71.55" cy="71.55" r="71.55" transform="translate(0.74 2.736)" fill="#c63238"/>
              <circle id="Ellipse_24" data-name="Ellipse 24" cx="69.805" cy="69.805" r="69.805" transform="translate(2.485 4.482)" fill="#c93237"/>
              <circle id="Ellipse_25" data-name="Ellipse 25" cx="68.06" cy="68.06" r="68.06" transform="translate(4.23 6.227)" fill="#cd3238"/>
              <circle id="Ellipse_26" data-name="Ellipse 26" cx="66.315" cy="66.315" r="66.315" transform="translate(5.976 7.972)" fill="#cf3238"/>
              <circle id="Ellipse_27" data-name="Ellipse 27" cx="64.57" cy="64.57" r="64.57" transform="translate(7.721 9.717)" fill="#d23238"/>
              <circle id="Ellipse_28" data-name="Ellipse 28" cx="62.825" cy="62.825" r="62.825" transform="translate(9.466 11.462)" fill="#d53237"/>
              <circle id="Ellipse_29" data-name="Ellipse 29" cx="61.08" cy="61.08" r="61.08" transform="translate(11.211 13.207)" fill="#d83237"/>
              <circle id="Ellipse_30" data-name="Ellipse 30" cx="59.335" cy="59.335" r="59.335" transform="translate(12.956 14.952)" fill="#da3238"/>
              <circle id="Ellipse_31" data-name="Ellipse 31" cx="57.589" cy="57.589" r="57.589" transform="translate(14.701 16.697)" fill="#db3237"/>
              <circle id="Ellipse_32" data-name="Ellipse 32" cx="55.844" cy="55.844" r="55.844" transform="translate(16.446 18.443)" fill="#dd3237"/>
              <circle id="Ellipse_33" data-name="Ellipse 33" cx="54.099" cy="54.099" r="54.099" transform="translate(18.192 20.188)" fill="#df3238"/>
              <circle id="Ellipse_34" data-name="Ellipse 34" cx="52.354" cy="52.354" r="52.354" transform="translate(19.937 21.933)" fill="#e03237"/>
              <circle id="Ellipse_35" data-name="Ellipse 35" cx="50.609" cy="50.609" r="50.609" transform="translate(21.682 23.678)" fill="#e23238"/>
              <circle id="Ellipse_36" data-name="Ellipse 36" cx="48.864" cy="48.864" r="48.864" transform="translate(23.427 25.423)" fill="#e33238"/>
              <circle id="Ellipse_37" data-name="Ellipse 37" cx="47.119" cy="47.119" r="47.119" transform="translate(25.172 27.168)" fill="#e43238"/>
              <circle id="Ellipse_38" data-name="Ellipse 38" cx="45.373" cy="45.373" r="45.373" transform="translate(26.917 28.913)" fill="#e63338"/>
              <circle id="Ellipse_39" data-name="Ellipse 39" cx="43.628" cy="43.628" r="43.628" transform="translate(28.662 30.658)" fill="#e73338"/>
              <circle id="Ellipse_40" data-name="Ellipse 40" cx="41.883" cy="41.883" r="41.883" transform="translate(30.407 32.404)" fill="#e73238"/>
              <circle id="Ellipse_41" data-name="Ellipse 41" cx="40.138" cy="40.138" r="40.138" transform="translate(32.153 34.149)" fill="#e83237"/>
              <circle id="Ellipse_42" data-name="Ellipse 42" cx="38.393" cy="38.393" r="38.393" transform="translate(33.898 35.894)" fill="#ea3338"/>
              <circle id="Ellipse_43" data-name="Ellipse 43" cx="36.648" cy="36.648" r="36.648" transform="translate(35.643 37.639)" fill="#eb3338"/>
              <circle id="Ellipse_44" data-name="Ellipse 44" cx="34.903" cy="34.903" r="34.903" transform="translate(37.388 39.384)" fill="#eb3338"/>
              <circle id="Ellipse_45" data-name="Ellipse 45" cx="33.158" cy="33.158" r="33.158" transform="translate(39.133 41.129)" fill="#eb3338"/>
              <circle id="Ellipse_46" data-name="Ellipse 46" cx="31.412" cy="31.412" r="31.412" transform="translate(40.878 42.874)" fill="#ec3337"/>
              <circle id="Ellipse_47" data-name="Ellipse 47" cx="29.667" cy="29.667" r="29.667" transform="translate(42.623 44.62)" fill="#ec3337"/>
              <circle id="Ellipse_48" data-name="Ellipse 48" cx="27.922" cy="27.922" r="27.922" transform="translate(44.369 46.365)" fill="#ec3337"/>
              <circle id="Ellipse_49" data-name="Ellipse 49" cx="26.177" cy="26.177" r="26.177" transform="translate(46.114 48.11)" fill="#ec3337"/>
              <circle id="Ellipse_50" data-name="Ellipse 50" cx="24.432" cy="24.432" r="24.432" transform="translate(47.859 49.855)" fill="#ec3337"/>
              <circle id="Ellipse_51" data-name="Ellipse 51" cx="22.687" cy="22.687" r="22.687" transform="translate(49.604 51.6)" fill="#ec3337"/>
              <circle id="Ellipse_52" data-name="Ellipse 52" cx="20.942" cy="20.942" r="20.942" transform="translate(51.349 53.345)" fill="#ec3337"/>
              <circle id="Ellipse_53" data-name="Ellipse 53" cx="19.196" cy="19.196" r="19.196" transform="translate(53.094 55.09)" fill="#ec3337"/>
              <circle id="Ellipse_54" data-name="Ellipse 54" cx="17.451" cy="17.451" r="17.451" transform="translate(54.839 56.835)" fill="#ec3337"/>
              <circle id="Ellipse_55" data-name="Ellipse 55" cx="15.706" cy="15.706" r="15.706" transform="translate(56.584 58.581)" fill="#ec3337"/>
              <circle id="Ellipse_56" data-name="Ellipse 56" cx="13.961" cy="13.961" r="13.961" transform="translate(58.33 60.326)" fill="#ec3337"/>
              <circle id="Ellipse_57" data-name="Ellipse 57" cx="12.216" cy="12.216" r="12.216" transform="translate(60.075 62.071)" fill="#ec3337"/>
              <circle id="Ellipse_58" data-name="Ellipse 58" cx="10.471" cy="10.471" r="10.471" transform="translate(61.82 63.816)" fill="#ec3337"/>
              <circle id="Ellipse_59" data-name="Ellipse 59" cx="8.726" cy="8.726" r="8.726" transform="translate(63.565 65.561)" fill="#ec3337"/>
              <circle id="Ellipse_60" data-name="Ellipse 60" cx="6.981" cy="6.981" r="6.981" transform="translate(65.31 67.306)" fill="#ec3337"/>
              <circle id="Ellipse_61" data-name="Ellipse 61" cx="5.235" cy="5.235" r="5.235" transform="translate(67.055 69.051)" fill="#ec3337"/>
              <circle id="Ellipse_62" data-name="Ellipse 62" cx="3.49" cy="3.49" r="3.49" transform="translate(68.8 70.797)" fill="#ec3337"/>
              <circle id="Ellipse_63" data-name="Ellipse 63" cx="1.745" cy="1.745" r="1.745" transform="translate(70.546 72.542)" fill="#ec3337"/>
            </g>
          </g>
        </g>
        <g id="Group_6415" data-name="Group 6415">
          <path id="Path_8925" data-name="Path 8925" d="M107.385,23.844a7.183,7.183,0,0,1,2.736.528,11.72,11.72,0,0,1,7.368,9.558c.537,6.358-.258,8.678-.258,8.678s9.392-3.4,15.628-3.4q.457,0,.89.025c6.187.365,11.792.6,19.525,4.146,0,0,2.338,1.008,2.374,1.026.056.028,4.157,2.613,4.157,2.613s.793.636,1.882,1.545c.169.14,1.21.788,1.21.788s4.747,4.21,5.778,5.542S177.246,65.6,179.5,76.525a125.726,125.726,0,0,1,3.35,21.19c.268,3.18.843,16.208.843,16.208s.077,22.224-.421,23.718a19.085,19.085,0,0,1-7.068,1.919,3.636,3.636,0,0,1-1.822-.387c-1.538-1.011-1.5-1.749-1.5-1.749a5.579,5.579,0,0,1-2.389.506,6.188,6.188,0,0,1-3.13-.864c-2.528-.464,1.685-7.479,1.685-7.479s-.611-7.605-2.907-9.269-10.344-8.448-10.344-8.448l-4.129,4.466-3.357,2.788-4.635,3.2-4.382,2.051-.477,1.039a12.246,12.246,0,0,1-.737,2.106L133.047,140.1s-3.42,10.361-3.77,13.681a95.67,95.67,0,0,0-.175,10.012c.025,1.523.549,5.068-3.1,7.29a8.858,8.858,0,0,1-3.652.831,7.629,7.629,0,0,1-5.212-2.054,2.31,2.31,0,0,1-2.372,1.543,7.256,7.256,0,0,1-3.27-.994c-4.02-2.047-1.7-6.791-1.7-6.791s4.02-12.612.276-22.5c-3.5-7.261-7.4-8.335-9.4-8.335a4.184,4.184,0,0,0-1.349.19s-3.973,1.343-6.973,9-2.144,9-5.6,11.031a28.842,28.842,0,0,1-13.238,3.218,21.386,21.386,0,0,1-5.939-.789c-.914-.686-.829-1.314-.829-1.314l-1.6-.315a19.282,19.282,0,0,1,4.258-7.43c3.63-3.515,6.288-13.889,7.631-19.891s1.918-11.235,1.918-11.235-17.426-12.4-19.712-15.14C56.656,97.782,53.989,95,53.989,95s-5.853-1.893-6.163-10.444a14.861,14.861,0,0,1,3.891-9.04s-1.332-5.864-.752-10.074c0,0-8.721-3.566-11.342-9.709,0,0,.537-4.489,7.84-7.818a24.857,24.857,0,0,1,10.2-2.479,10.2,10.2,0,0,1,1.869.137l1.074.473s6.358-6.7,15.444-7.54c3.811-.351,6.74-.453,8.859-.453a34.562,34.562,0,0,1,4.309.2s8.613-11.707,13.726-13.275a10.064,10.064,0,0,1,4.438-1.13m0-.507A10.618,10.618,0,0,0,102.76,24.5c-4.866,1.533-12.483,11.49-13.77,13.21-.556-.058-1.886-.165-4.077-.165-2.631,0-5.627.153-8.9.456-8.265.762-14.222,6.174-15.512,7.44l-.755-.332a.5.5,0,0,0-.1-.032,10.633,10.633,0,0,0-1.972-.148,25.289,25.289,0,0,0-10.413,2.524c-7.476,3.408-8.11,8.025-8.133,8.22a.508.508,0,0,0,.037.259c1.126,2.641,3.427,5.124,6.84,7.382a31.789,31.789,0,0,0,4.418,2.443,34.973,34.973,0,0,0,.749,9.6,15.417,15.417,0,0,0-3.844,9.162c0,.018,0,.035,0,.053.3,8.208,5.481,10.521,6.387,10.864.472.488,2.864,2.946,5.176,5.022,2.267,2.667,17.339,13.457,19.539,15.026-.142,1.184-.732,5.782-1.875,10.886-2.925,13.069-5.687,17.892-7.489,19.638l-.023.024a19.636,19.636,0,0,0-4.374,7.648.507.507,0,0,0,.394.62l1.247.245a2.485,2.485,0,0,0,.976,1.292.51.51,0,0,0,.163.081,21.892,21.892,0,0,0,6.08.809,29.436,29.436,0,0,0,13.494-3.288c2.545-1.494,2.94-2.746,3.9-5.771.441-1.4.99-3.135,1.921-5.513,2.288-5.84,5.361-8.25,6.666-8.708a3.785,3.785,0,0,1,1.184-.163c1.888,0,5.557,1.044,8.93,8.029,3.53,9.358-.061,21.393-.283,22.113-.871,1.811-1.567,5.643,1.94,7.43a7.836,7.836,0,0,0,3.5,1.049,2.948,2.948,0,0,0,2.532-1.235,8.212,8.212,0,0,0,5.051,1.746,9.406,9.406,0,0,0,3.859-.875.531.531,0,0,0,.056-.03c3.566-2.174,3.428-5.493,3.354-7.276-.007-.167-.013-.319-.016-.455l-.011-.572a88.659,88.659,0,0,1,.183-9.378c.334-3.171,3.594-13.11,3.742-13.56l5.032-12.56a12.725,12.725,0,0,0,.748-2.129l.379-.825,4.213-1.972a.533.533,0,0,0,.073-.042l4.635-3.2a.388.388,0,0,0,.036-.027L152,116.727a.551.551,0,0,0,.049-.046l3.8-4.111c1.624,1.365,7.973,6.688,10,8.159,1.684,1.221,2.493,6.572,2.686,8.74-.694,1.175-3.119,5.5-2.313,7.29a1.365,1.365,0,0,0,.963.787,6.674,6.674,0,0,0,3.313.892,6.494,6.494,0,0,0,2.08-.34,4.386,4.386,0,0,0,1.527,1.5,4.093,4.093,0,0,0,2.1.47,19.617,19.617,0,0,0,7.313-1.983.509.509,0,0,0,.235-.283c.509-1.529.455-21.6.447-23.881-.006-.151-.579-13.095-.845-16.249l-.057-.69a125.985,125.985,0,0,0-3.306-20.576c-1.416-6.858-5.249-14.555-10.789-21.656l-.129-.165c-1.048-1.354-5.647-5.438-5.842-5.611a.561.561,0,0,0-.069-.051c-.481-.3-1.059-.671-1.153-.747-1.08-.9-1.881-1.544-1.889-1.55a.424.424,0,0,0-.047-.034c-4.122-2.6-4.171-2.622-4.2-2.637s-.049-.024-2.4-1.038c-7.585-3.477-13.208-3.806-19.161-4.154l-.536-.031c-.292-.018-.6-.026-.92-.026-5.217,0-12.457,2.288-14.938,3.128a32.915,32.915,0,0,0,.073-7.944c0-.012,0-.024,0-.036a12.2,12.2,0,0,0-7.668-9.946l-.057-.022a7.69,7.69,0,0,0-2.88-.547Z" transform="translate(-39.118 -23.337)"/>
        </g>
      </g>
      <g id="Group_6417" data-name="Group 6417" transform="translate(114.199 17.404)">
        <path id="Path_8926" data-name="Path 8926" d="M279.012,62.4s.955-2.57,2.907-2.5a11.019,11.019,0,0,1,3.132.506l.941.674,1.559,1.236,1.166,2.023a7.082,7.082,0,0,1,.491,1.966c-.1.393-.323,1.1-.323,1.1l-.323.365-.379.576A45.011,45.011,0,0,0,279.012,62.4Z" transform="translate(-279.012 -59.897)" fill="#bf272d"/>
      </g>
      <g id="Group_6418" data-name="Group 6418" transform="translate(98.975 93)">
        <path id="Path_8927" data-name="Path 8927" d="M248.225,226.529,247.031,230s2.247,1.04,8.6-.506,5.337-1.91,5.379-2.415-.393-8.378-.393-8.378S253.14,225.265,248.225,226.529Z" transform="translate(-247.031 -218.699)" fill="#bf272d"/>
      </g>
      <g id="Group_6461" data-name="Group 6461" transform="translate(0.329 0.293)">
        <g id="Group_6420" data-name="Group 6420" transform="translate(8.133 46.197)">
          <g id="Group_6419" data-name="Group 6419">
            <path id="Path_8928" data-name="Path 8928" d="M74.884,121c-5.691-.114-11.5,2.008-15.036,6.615a13.987,13.987,0,0,0-2.908,7.235,12.542,12.542,0,0,0,1.709,7.49A9.912,9.912,0,0,0,64.775,147a6.771,6.771,0,0,0,3.937-.232,13.3,13.3,0,0,0,3.264-2.035,14.089,14.089,0,0,1,3.444-2.182,14.872,14.872,0,0,1,4.537-.781,78.73,78.73,0,0,0,8.91-.887,39.426,39.426,0,0,0,8.68-2.458,29.006,29.006,0,0,0,3.86-1.965,11.457,11.457,0,0,0,3.106-2.6,6.6,6.6,0,0,0,.946-1.645h-.488a1.821,1.821,0,0,0,1.383,1.391c.318.071.454-.418.135-.488a1.324,1.324,0,0,1-1.03-1.037c-.058-.269-.405-.21-.488,0-1,2.525-3.711,4.011-6.021,5.15A35.347,35.347,0,0,1,90.8,140a58.772,58.772,0,0,1-8.673,1.149c-2.8.181-5.738.107-8.229,1.6-2.156,1.289-3.92,3.433-6.507,3.867a8.133,8.133,0,0,1-7.057-2.846,11.617,11.617,0,0,1-2.9-6.932,12.787,12.787,0,0,1,1.758-7.332c2.813-4.85,8.141-7.534,13.621-7.939.689-.051,1.38-.067,2.071-.053a.253.253,0,0,0,0-.507Z" transform="translate(-56.893 -120.997)" fill="#221f1f"/>
          </g>
        </g>
        <g id="Group_6421" data-name="Group 6421" transform="translate(22.281 52.688)">
          <ellipse id="Ellipse_64" data-name="Ellipse 64" cx="2.117" cy="5.504" rx="2.117" ry="5.504" transform="matrix(0.97, -0.242, 0.242, 0.97, 0, 1.027)" fill="#221f1f"/>
        </g>
        <g id="Group_6422" data-name="Group 6422" transform="translate(11.543 55.559)">
          <ellipse id="Ellipse_65" data-name="Ellipse 65" cx="2.117" cy="5.504" rx="2.117" ry="5.504" transform="matrix(0.97, -0.242, 0.242, 0.97, 0, 1.027)" fill="#221f1f"/>
        </g>
        <g id="Group_6424" data-name="Group 6424" transform="translate(21.269 73.291)">
          <g id="Group_6423" data-name="Group 6423">
            <path id="Path_8929" data-name="Path 8929" d="M84.555,178.352a7.1,7.1,0,0,0,5.426,2.335.254.254,0,0,0,0-.507,6.6,6.6,0,0,1-5.067-2.187c-.218-.244-.576.116-.358.358Z" transform="translate(-84.487 -177.912)" fill="#221f1f"/>
          </g>
        </g>
        <g id="Group_6426" data-name="Group 6426" transform="translate(11.18 25.89)">
          <g id="Group_6425" data-name="Group 6425">
            <path id="Path_8930" data-name="Path 8930" d="M70.44,78.422a29.461,29.461,0,0,0-6.452,25.588c.07.318.559.184.489-.135A28.967,28.967,0,0,1,70.8,78.781c.211-.247-.145-.606-.358-.358Z" transform="translate(-63.295 -78.339)" fill="#221f1f"/>
          </g>
        </g>
        <g id="Group_6428" data-name="Group 6428" transform="translate(49.47)">
          <g id="Group_6427" data-name="Group 6427">
            <path id="Path_8931" data-name="Path 8931" d="M144.21,38.84a52.03,52.03,0,0,1,8.579-9.719c2.985-2.631,6.591-5.385,10.819-4.492a11.123,11.123,0,0,1,7.964,7.608c1.373,4.159.825,8.626-.345,12.76-.629,2.223-1.49,4.358-2.21,6.548a4.287,4.287,0,0,0-.09,2.889,6.09,6.09,0,0,0,1.562,2.186c.341.327.7.633,1.067.934.249.206.61-.15.358-.358a10.376,10.376,0,0,1-2.044-2.051,3.474,3.474,0,0,1-.513-2.967c.292-1.118.765-2.2,1.148-3.29.39-1.11.763-2.226,1.094-3.355,1.223-4.175,1.856-8.677.617-12.928a11.92,11.92,0,0,0-7.556-8.221,8.945,8.945,0,0,0-5.63.048,17.38,17.38,0,0,0-5.33,3.248,52.231,52.231,0,0,0-8.964,9.536q-.493.677-.964,1.369c-.184.27.255.524.437.256Z" transform="translate(-143.728 -23.953)" fill="#221f1f"/>
          </g>
        </g>
        <g id="Group_6430" data-name="Group 6430" transform="translate(20.904 14.116)">
          <g id="Group_6429" data-name="Group 6429">
            <path id="Path_8932" data-name="Path 8932" d="M112.58,53.847a56.707,56.707,0,0,0-13.154.294,29.856,29.856,0,0,0-10.8,3.8,22.346,22.346,0,0,0-4.833,3.905c-.222.239.136.6.358.358a23.714,23.714,0,0,1,9.132-5.947,36.872,36.872,0,0,1,11.974-2.123,71.917,71.917,0,0,1,7.325.223c.326.025.324-.482,0-.507Z" transform="translate(-83.72 -53.607)" fill="#221f1f"/>
          </g>
        </g>
        <g id="Group_6432" data-name="Group 6432" transform="translate(0 21.514)">
          <g id="Group_6431" data-name="Group 6431">
            <path id="Path_8933" data-name="Path 8933" d="M61.1,69.84a6.745,6.745,0,0,0-3.812-.663,29.006,29.006,0,0,0-4.164.721,24.935,24.935,0,0,0-7.906,3.091A16.147,16.147,0,0,0,42.248,75.4a10.51,10.51,0,0,0-2.2,3.129,2.685,2.685,0,0,0-.111,1.9,5.45,5.45,0,0,0,1,1.63,24.574,24.574,0,0,0,2.71,2.871A25.379,25.379,0,0,0,51.12,89.6c.3.122.434-.368.135-.488a24.634,24.634,0,0,1-6.389-3.8A24.893,24.893,0,0,1,42.2,82.765a17.989,17.989,0,0,1-1.224-1.479,2.8,2.8,0,0,1-.664-1.755,3.975,3.975,0,0,1,.763-1.842,12.355,12.355,0,0,1,1.087-1.446,14.924,14.924,0,0,1,2.717-2.419,22.5,22.5,0,0,1,7.243-3.159,35.591,35.591,0,0,1,4.521-.914,6.871,6.871,0,0,1,4.2.527c.286.157.542-.281.256-.437Z" transform="translate(-39.808 -69.146)" fill="#221f1f"/>
          </g>
        </g>
        <g id="Group_6434" data-name="Group 6434" transform="translate(38.47 91.031)">
          <g id="Group_6433" data-name="Group 6433">
            <path id="Path_8934" data-name="Path 8934" d="M145.3,220.183a67.51,67.51,0,0,1-11.22-.224,30.806,30.806,0,0,1-10.6-3.219c-.926-.483-1.827-1.009-2.712-1.56l-.149.5c.531.328,1.066.65,1.611.956a31.088,31.088,0,0,0,10.4,3.625,62.684,62.684,0,0,0,12.669.426C145.627,220.675,145.629,220.168,145.3,220.183Z" transform="translate(-120.622 -215.179)" fill="#221f1f"/>
          </g>
        </g>
        <g id="Group_6436" data-name="Group 6436" transform="translate(25.503 96.347)">
          <g id="Group_6435" data-name="Group 6435">
            <path id="Path_8935" data-name="Path 8935" d="M106.387,226.53a135.872,135.872,0,0,1-3.3,14.637,42.178,42.178,0,0,1-2.31,6.566,20.857,20.857,0,0,1-1.748,3.02c-.7.994-1.463,1.934-2.207,2.891a15.459,15.459,0,0,0-3.437,6.552.257.257,0,0,0,.177.312l1.355.2c.319.048.457-.44.135-.489l-1.355-.2.177.312A14.212,14.212,0,0,1,96.9,254.37a38.543,38.543,0,0,0,4.043-5.821,37.025,37.025,0,0,0,2.392-6.4q1.048-3.582,1.89-7.22.954-4.105,1.652-8.264c.054-.319-.435-.457-.489-.135Z" transform="translate(-93.382 -226.347)" fill="#221f1f"/>
          </g>
        </g>
        <g id="Group_6438" data-name="Group 6438" transform="translate(27.197 108.838)">
          <g id="Group_6437" data-name="Group 6437">
            <path id="Path_8936" data-name="Path 8936" d="M148.929,277.619l-.918,6.563-.455,3.25-.227,1.625a3.372,3.372,0,0,1-.376,1.365,2.259,2.259,0,0,1-2.076.788,6.948,6.948,0,0,1-2.355-.546,4.164,4.164,0,0,1-2.851-3.748,10.062,10.062,0,0,1,.613-3.008c.316-1.016.6-2.037.821-3.078a47.8,47.8,0,0,0,.854-6.185c.33-4.1.43-8.347-.842-12.312a15.554,15.554,0,0,0-6.324-8.425,9.123,9.123,0,0,0-2.323-1.061,4.681,4.681,0,0,0-2.087-.217,6.083,6.083,0,0,0-1.984.914,10.9,10.9,0,0,0-1.9,1.52c-2.644,2.633-3.9,6.2-5.022,9.673a38,38,0,0,1-2.113,5.732,5.528,5.528,0,0,1-1.872,2.149,14.147,14.147,0,0,1-2.643,1.281,30.914,30.914,0,0,1-11.728,2.144c-.991-.013-1.981-.074-2.966-.183a4.314,4.314,0,0,1-2.329-.647c-.833-.714-.112-1.871.292-2.615q.725-1.336,1.558-2.61.815-1.249,1.727-2.43c.2-.258-.241-.511-.437-.256a38.03,38.03,0,0,0-3.4,5.245c-.409.765-.908,1.711-.458,2.571a2.425,2.425,0,0,0,1.764,1.071,20.736,20.736,0,0,0,2.876.312c1.008.059,2.02.067,3.029.027a31.637,31.637,0,0,0,6.007-.824,29.48,29.48,0,0,0,5.694-1.954,7.429,7.429,0,0,0,2.336-1.582,7.959,7.959,0,0,0,1.422-2.4c1.587-3.767,2.313-7.9,4.407-11.45a13.061,13.061,0,0,1,3.38-3.911,8.929,8.929,0,0,1,2.218-1.216,3.4,3.4,0,0,1,2.039.131,10.611,10.611,0,0,1,4.491,2.841,15.165,15.165,0,0,1,3.208,4.612c1.724,3.883,1.828,8.234,1.569,12.405a54.541,54.541,0,0,1-.74,6.506,32.5,32.5,0,0,1-.745,3.18,24.889,24.889,0,0,0-.819,3.013,4.829,4.829,0,0,0,.278,2.771,4.486,4.486,0,0,0,1.45,1.728,6.854,6.854,0,0,0,4.522,1.32,2.432,2.432,0,0,0,1.887-1.021,3.331,3.331,0,0,0,.4-1.318c.078-.535.149-1.071.225-1.605l.944-6.751.455-3.25c.044-.319-.444-.457-.489-.135Z" transform="translate(-96.94 -252.585)" fill="#221f1f"/>
          </g>
        </g>
        <g id="Group_6440" data-name="Group 6440" transform="translate(77.607 74.694)">
          <g id="Group_6439" data-name="Group 6439" transform="translate(0)">
            <path id="Path_8937" data-name="Path 8937" d="M227.1,181.173a36.108,36.108,0,0,1,.162,16.749,95,95,0,0,1-5.3,16.245,141.958,141.958,0,0,0-5.811,16.182,50.646,50.646,0,0,0-1.531,8.366,37.508,37.508,0,0,0-.154,4.2c.03,1.423.215,2.837.251,4.259a7.254,7.254,0,0,1-.785,3.817,6.47,6.47,0,0,1-2.332,2.358,6.97,6.97,0,0,1-6.806.019,7.77,7.77,0,0,1-1.516-1.06c-.243-.217-.6.14-.358.358a7.991,7.991,0,0,0,6.7,1.971,6.984,6.984,0,0,0,5.011-3.906,8.539,8.539,0,0,0,.582-3.9c-.065-1.446-.232-2.881-.245-4.331a41.962,41.962,0,0,1,.923-8.843,99.621,99.621,0,0,1,5.548-16.832,124.176,124.176,0,0,0,5.856-16.7,39.7,39.7,0,0,0,.8-16.977q-.21-1.065-.5-2.11a.254.254,0,0,0-.489.135Z" transform="translate(-202.835 -180.86)" fill="#221f1f"/>
          </g>
        </g>
        <g id="Group_6442" data-name="Group 6442" transform="translate(99.893 72.5)">
          <g id="Group_6441" data-name="Group 6441" transform="translate(0)">
            <path id="Path_8938" data-name="Path 8938" d="M250.038,204.608a41.639,41.639,0,0,0,12.286-8.161,49.226,49.226,0,0,0,9.142-11.986,58.743,58.743,0,0,0,3.6-7.9c.113-.306-.377-.438-.489-.135a55.209,55.209,0,0,1-7.126,13.419,44.9,44.9,0,0,1-10.485,10.34,39.879,39.879,0,0,1-7.178,3.988c-.3.128-.041.565.256.438Z" transform="translate(-249.65 -176.251)" fill="#221f1f"/>
          </g>
        </g>
        <g id="Group_6444" data-name="Group 6444" transform="translate(98.46 92.422)">
          <g id="Group_6443" data-name="Group 6443" transform="translate(0)">
            <path id="Path_8939" data-name="Path 8939" d="M246.812,229.849a9.02,9.02,0,0,0,4.421.31,45.591,45.591,0,0,0,4.736-.9q1.184-.285,2.354-.625a8.007,8.007,0,0,0,2-.712,1.715,1.715,0,0,0,.786-1.537c.006-.806-.116-1.623-.164-2.427q-.168-2.8-.13-5.612a.254.254,0,0,0-.507,0q-.029,2.339.08,4.678.055,1.152.144,2.3c.049.629.254,1.5-.258,2a4.658,4.658,0,0,1-1.915.767q-1.051.31-2.115.575c-1.491.372-3,.68-4.518.913a9.323,9.323,0,0,1-4.784-.22c-.305-.117-.437.373-.135.489Z" transform="translate(-246.641 -218.1)" fill="#221f1f"/>
          </g>
        </g>
        <g id="Group_6446" data-name="Group 6446" transform="translate(77.66 15.396)">
          <g id="Group_6445" data-name="Group 6445">
            <path id="Path_8940" data-name="Path 8940" d="M203.25,60.123a44.945,44.945,0,0,1,49.117,10.142c6.163,6.249,10.1,14.186,12.453,22.579,2.484,8.871,3.36,18.122,3.944,27.287a281.059,281.059,0,0,1,.262,31.051q-.089,1.916-.206,3.83c-.02.326.487.325.507,0a281.955,281.955,0,0,0,.132-31.626c-.491-9.418-1.246-18.947-3.487-28.133-2.071-8.492-5.592-16.7-11.384-23.336A45.447,45.447,0,0,0,206.348,58.46q-1.639.524-3.232,1.174c-.3.121-.168.612.135.489Z" transform="translate(-202.947 -56.294)" fill="#221f1f"/>
          </g>
        </g>
        <g id="Group_6448" data-name="Group 6448" transform="translate(116.246 88.084)">
          <g id="Group_6447" data-name="Group 6447">
            <path id="Path_8941" data-name="Path 8941" d="M284.09,209.407l7.134,5.786,1.82,1.477a12.874,12.874,0,0,1,1.52,1.354,8.969,8.969,0,0,1,1.656,3.767,25.261,25.261,0,0,1,.794,4.878c.021.324.527.326.507,0a26.064,26.064,0,0,0-.651-4.376,12.765,12.765,0,0,0-1.438-3.963,13.735,13.735,0,0,0-3.112-2.9l-3.739-3.033-4.133-3.352c-.251-.2-.612.152-.358.358Z" transform="translate(-284.003 -208.988)" fill="#221f1f"/>
          </g>
        </g>
        <g id="Group_6450" data-name="Group 6450" transform="translate(126.872 105.688)">
          <g id="Group_6449" data-name="Group 6449">
            <path id="Path_8942" data-name="Path 8942" d="M308.835,246.1q-.726,1.415-1.36,2.875-.311.719-.6,1.447a8.494,8.494,0,0,0-.511,1.5,1.918,1.918,0,0,0,.947,2.094,5.74,5.74,0,0,0,2.562.779,6.346,6.346,0,0,0,3.12-.561c.3-.134.039-.571-.256-.437a5.831,5.831,0,0,1-3.132.465,5.575,5.575,0,0,1-1.628-.463,2.027,2.027,0,0,1-1.053-.885,2.237,2.237,0,0,1,.179-1.682c.206-.552.426-1.1.655-1.641q.693-1.644,1.512-3.231c.149-.29-.288-.546-.438-.256Z" transform="translate(-306.324 -245.968)" fill="#221f1f"/>
          </g>
        </g>
        <g id="Group_6452" data-name="Group 6452" transform="translate(132.955 103.307)">
          <g id="Group_6451" data-name="Group 6451">
            <path id="Path_8943" data-name="Path 8943" d="M319.111,241.282a32.449,32.449,0,0,1,.832,4.683,13.2,13.2,0,0,1,0,2.257,15.467,15.467,0,0,1-.46,2.23,2.446,2.446,0,0,0,.175,1.868,2.783,2.783,0,0,0,1.362,1.139,6.84,6.84,0,0,0,3.832.047,25.879,25.879,0,0,0,4.987-1.46c.3-.121.168-.611-.135-.489a25.944,25.944,0,0,1-4.117,1.284,8.958,8.958,0,0,1-3.911.3,2.462,2.462,0,0,1-1.556-1.033,2.348,2.348,0,0,1-.029-1.959,12,12,0,0,0,.36-4.182,33.444,33.444,0,0,0-.85-4.818c-.073-.318-.562-.183-.489.135Z" transform="translate(-319.103 -240.966)" fill="#221f1f"/>
          </g>
        </g>
        <g id="Group_6454" data-name="Group 6454" transform="translate(113.653 16.671)">
          <g id="Group_6453" data-name="Group 6453">
            <path id="Path_8944" data-name="Path 8944" d="M279.018,62.123A4.692,4.692,0,0,1,280.69,59.8a3.845,3.845,0,0,1,3.161.06,7.751,7.751,0,0,1,4.2,3.712c.517,1,1.076,2.521.164,3.464-.227.235.131.594.358.358a3.07,3.07,0,0,0,.249-3.338,8.133,8.133,0,0,0-1.766-2.711,8.244,8.244,0,0,0-2.689-1.826,5,5,0,0,0-3.452-.374,4.482,4.482,0,0,0-2.332,2.72c-.132.3.305.554.438.256Z" transform="translate(-278.556 -58.972)" fill="#221f1f"/>
          </g>
        </g>
        <g id="Group_6456" data-name="Group 6456" transform="translate(118.056 19.634)">
          <g id="Group_6455" data-name="Group 6455">
            <path id="Path_8945" data-name="Path 8945" d="M293.168,70.877a3.73,3.73,0,0,0-1.2-3.573,9.56,9.56,0,0,0-3.844-1.895l.177.312.048-.208c.074-.318-.415-.453-.488-.135l-.049.208a.259.259,0,0,0,.177.312,9.438,9.438,0,0,1,3.5,1.653,3.273,3.273,0,0,1,1.192,3.191.254.254,0,0,0,.489.135Z" transform="translate(-287.805 -65.197)" fill="#221f1f"/>
          </g>
        </g>
        <g id="Group_6457" data-name="Group 6457" transform="translate(77.208 17.008)">
          <path id="Path_8946" data-name="Path 8946" d="M202,65.468a17.442,17.442,0,0,1,4.415.344s15.568-7.059,20.825-5.964C227.236,59.848,217.538,58.167,202,65.468Z" transform="translate(-201.996 -59.681)" fill="#221f1f"/>
        </g>
        <g id="Group_6458" data-name="Group 6458" transform="translate(41.542 33.377)">
          <circle id="Ellipse_66" data-name="Ellipse 66" cx="2.711" cy="2.711" r="2.711" fill="#221f1f"/>
        </g>
        <g id="Group_6460" data-name="Group 6460" transform="translate(38.442 91.732)">
          <g id="Group_6459" data-name="Group 6459">
            <path id="Path_8947" data-name="Path 8947" d="M121.054,221.945l.795-4.977c.051-.319-.437-.457-.489-.135l-.795,4.977c-.051.319.437.457.488.135Z" transform="translate(-120.562 -216.651)" fill="#221f1f"/>
          </g>
        </g>
      </g>
      <g id="Group_6462" data-name="Group 6462" transform="translate(32.765 32.627)">
        <path id="Path_8948" data-name="Path 8948" d="M129.371,92.212c-1.283-.4-2.638.45-3.494,1.488a26.282,26.282,0,0,1-2.453,3.191,7.617,7.617,0,0,1-5.046,1.575c-1.8.016-3.6-.265-5.4-.146a6.59,6.59,0,0,0-4.8,2.124l-.237.166c1.524-3.554,4.936-6.03,8.6-7.273A37.133,37.133,0,0,1,128,91.876a3.05,3.05,0,0,1,2.344.636" transform="translate(-107.945 -91.874)"/>
      </g>
      <g id="Group_6463" data-name="Group 6463" transform="translate(11.569 44.669)">
        <path id="Path_8949" data-name="Path 8949" d="M63.658,118.189c.309-.358.773-.088,1.119.334a12.255,12.255,0,0,0,1.014,1.321,1.386,1.386,0,0,0,1.555.193c.5-.208.962-.565,1.469-.72a1.362,1.362,0,0,1,1.545.5l.082.055a4.486,4.486,0,0,0-3.138-2.651,6.132,6.132,0,0,0-3.305.632.831.831,0,0,0-.577.6" transform="translate(-63.421 -117.173)"/>
      </g>
      <g id="Group_6465" data-name="Group 6465" transform="translate(30.165 29.558)">
        <g id="Group_6464" data-name="Group 6464">
          <path id="Path_8950" data-name="Path 8950" d="M103,97.214c3.041-3.917,8.041-5.4,11.778-8.481a13.19,13.19,0,0,0,2.685-2.941c.183-.28-.245-.506-.438-.256-2.993,3.879-7.844,5.571-11.632,8.487a15.977,15.977,0,0,0-2.846,2.758c-.2.253.157.615.358.358,3.042-3.866,7.876-5.559,11.675-8.5a15.921,15.921,0,0,0,2.883-2.843l-.438-.256c-2.694,4.122-7.673,5.708-11.472,8.537a14.9,14.9,0,0,0-2.911,2.781c-.2.255.159.616.358.358Z" transform="translate(-102.484 -85.429)"/>
        </g>
      </g>
      <g id="Group_6467" data-name="Group 6467" transform="translate(11.694 43.181)">
        <g id="Group_6466" data-name="Group 6466">
          <path id="Path_8951" data-name="Path 8951" d="M71.021,116.134c-2.152-1.238-4.9-.63-6.967-2.051l-.256.437c2.154,1.25,4.836.786,6.991,2.01a.254.254,0,0,0,.256-.437c-2.161-1.228-4.846-.765-6.992-2.01-.286-.166-.521.255-.256.437,2.079,1.431,4.818.814,6.967,2.051a.253.253,0,0,0,.256-.437Z" transform="translate(-63.682 -114.045)"/>
        </g>
      </g>
      <g id="Group_6469" data-name="Group 6469" transform="translate(98.456 33.637)">
        <g id="Group_6468" data-name="Group 6468">
          <path id="Path_8952" data-name="Path 8952" d="M253.953,97.9c-.159-1.559-.236-2.339-.39-3.9,1.742.026,2.615.061,4.367.176.161,1.47.241,2.205.4,3.675,4.984.675,8.5,3.136,10.358,6.668a71.208,71.208,0,0,0-6.935,2.124A4.714,4.714,0,0,0,257,104.031c-1.885.073-2.765.738-2.633,1.954a1.594,1.594,0,0,0,.6,1.1,6.768,6.768,0,0,0,2.733.761,61.581,61.581,0,0,1,7.215,1.363,8.148,8.148,0,0,1,3.727,2.271,5.949,5.949,0,0,1,1.639,3.934,9.041,9.041,0,0,1-2.316,6.248,15.285,15.285,0,0,1-6.727,4.744c.146,1.522.218,2.283.361,3.8-1.527.438-2.292.637-3.827,1-.2-1.565-.3-2.348-.495-3.914-5.042.437-9.2-2.846-11.03-7.38,2.984-.938,4.484-1.434,7.5-2.424.957,2.272,2.746,3.206,5.363,2.76,2.041-.348,3.009-1.108,2.906-2.235a1.5,1.5,0,0,0-.851-1.278,7.556,7.556,0,0,0-2.661-.518c-4.953-.343-8.257-1.358-9.793-2.833a8.676,8.676,0,0,1-2.7-5.38,9.257,9.257,0,0,1,1.537-6.407,9.08,9.08,0,0,1,6.406-3.7Z" transform="translate(-245.94 -93.997)"/>
        </g>
      </g>
    </g>
    <g id="Group_6472" data-name="Group 6472" transform="translate(64.951 89.588)">
      <g id="Group_6471" data-name="Group 6471">
        <path id="Path_8953" data-name="Path 8953" d="M119.578,163.025a13.792,13.792,0,0,1,9.556,3.395c.244.215.6-.142.358-.358a14.314,14.314,0,0,0-9.914-3.544c-.325.012-.327.519,0,.507Z" transform="translate(-119.333 -162.508)" fill="#221f1f"/>
      </g>
    </g>
    <g id="Group_6474" data-name="Group 6474" transform="translate(67.019 88.956)">
      <g id="Group_6473" data-name="Group 6473">
        <path id="Path_8954" data-name="Path 8954" d="M123.988,162.154a11.054,11.054,0,0,1,8.431.861c.287.156.543-.281.256-.437a11.574,11.574,0,0,0-8.821-.912.254.254,0,0,0,.135.489Z" transform="translate(-123.676 -161.18)" fill="#221f1f"/>
      </g>
    </g>
    <g id="Group_6476" data-name="Group 6476" transform="translate(62.511 89.6)">
      <g id="Group_6475" data-name="Group 6475" transform="translate(0)">
        <path id="Path_8955" data-name="Path 8955" d="M117.192,162.539a4.7,4.7,0,0,0-2.945,2.074c-.175.277.264.531.437.256a4.2,4.2,0,0,1,2.642-1.841c.318-.07.184-.558-.135-.488Z" transform="translate(-114.207 -162.533)" fill="#221f1f"/>
      </g>
    </g>
    <g id="Group_6477" data-name="Group 6477" transform="translate(20.617 110.998)">
      <path id="Path_8956" data-name="Path 8956" d="M26.747,212.923l3.344,28.769a1.477,1.477,0,0,0,1.67,1.293l29.981-4.146a1.758,1.758,0,0,0,1.5-1.954l-3.267-26.878a2.268,2.268,0,0,0-2.467-1.983l-29.054,2.781A1.906,1.906,0,0,0,26.747,212.923Z" transform="translate(-26.48 -207.761)" fill="#221f1f"/>
      <path id="Path_8957" data-name="Path 8957" d="M31.275,242.975a1.732,1.732,0,0,1-1.716-1.532l-3.344-28.769a2.161,2.161,0,0,1,1.939-2.4l29.054-2.781a2.511,2.511,0,0,1,2.742,2.205l3.267,26.878a2.02,2.02,0,0,1-1.721,2.236l-29.981,4.147A1.788,1.788,0,0,1,31.275,242.975ZM26.72,212.616l3.344,28.769a1.223,1.223,0,0,0,1.383,1.072l29.981-4.146a1.512,1.512,0,0,0,1.288-1.672L59.449,209.76A2,2,0,0,0,57.257,208L28.2,210.78a1.651,1.651,0,0,0-1.484,1.836Z" transform="translate(-26.201 -207.483)"/>
    </g>
    <g id="Group_6478" data-name="Group 6478" transform="translate(15.544 110.796)">
      <path id="Path_8958" data-name="Path 8958" d="M52.305,207.413s.28-.6-3.44-.24-27.289,1.875-27.289,1.875-6.164.313-6.031,3.619,3.474,29.379,3.474,29.379.253,2.65,5.39,1.946,31.6-4.951,31.6-4.951a2.416,2.416,0,0,0,1.439-2.443,1.712,1.712,0,0,1-1.574,1.74c-1.673.3-29.772,4.07-29.772,4.07a1.664,1.664,0,0,1-2.044-1.693c-.191-2.107-3.179-28.293-3.179-28.293s-.557-2.01,3.339-2.265,24.747-2.331,24.747-2.331Z" transform="translate(-15.544 -207.058)" fill="#060508"/>
    </g>
    <g id="Group_6479" data-name="Group 6479" transform="translate(26.152 115.877)">
      <rect id="Rectangle_1205" data-name="Rectangle 1205" width="0.405" height="2.52" rx="0.196" transform="translate(0.011 0.041) rotate(-4.282)" fill="#4c4b4c"/>
      <path id="Path_8959" data-name="Path 8959" d="M38.214,220.3a.229.229,0,0,1-.149-.055.226.226,0,0,1-.078-.156l-.159-2.109a.229.229,0,0,1,.21-.245h.016a.229.229,0,0,1,.229.211l.158,2.109a.229.229,0,0,1-.21.245h-.017Zm-.159-2.514h-.012a.178.178,0,0,0-.164.19l.159,2.109a.176.176,0,0,0,.061.121.168.168,0,0,0,.129.043h0a.178.178,0,0,0,.164-.19l-.158-2.109A.178.178,0,0,0,38.056,217.782Z" transform="translate(-37.829 -217.732)" fill="#fff"/>
    </g>
    <g id="Group_6480" data-name="Group 6480" transform="translate(28.282 115.622)">
      <rect id="Rectangle_1206" data-name="Rectangle 1206" width="0.405" height="2.52" rx="0.196" transform="translate(0.011 0.041) rotate(-4.282)" fill="#4c4b4c"/>
      <path id="Path_8960" data-name="Path 8960" d="M42.69,219.762a.229.229,0,0,1-.228-.211l-.158-2.109a.229.229,0,0,1,.21-.245h.017a.227.227,0,0,1,.227.211l.158,2.109a.228.228,0,0,1-.21.245H42.69Zm-.159-2.514h-.013a.177.177,0,0,0-.164.19l.158,2.109a.177.177,0,0,0,.178.164H42.7a.177.177,0,0,0,.163-.19l-.158-2.109a.176.176,0,0,0-.061-.121A.173.173,0,0,0,42.532,217.247Z" transform="translate(-42.304 -217.197)" fill="#fff"/>
    </g>
    <g id="Group_6481" data-name="Group 6481" transform="translate(30.217 115.487)">
      <rect id="Rectangle_1207" data-name="Rectangle 1207" width="0.405" height="2.52" rx="0.196" transform="matrix(0.997, -0.075, 0.075, 0.997, 0.011, 0.041)" fill="#4c4b4c"/>
      <path id="Path_8961" data-name="Path 8961" d="M46.754,219.478a.228.228,0,0,1-.227-.211l-.158-2.109a.228.228,0,0,1,.21-.245H46.6a.228.228,0,0,1,.228.211l.158,2.109a.229.229,0,0,1-.21.245h-.017Zm-.159-2.514h-.012a.177.177,0,0,0-.163.19l.158,2.109a.175.175,0,0,0,.061.121.166.166,0,0,0,.128.043h0a.178.178,0,0,0,.164-.19l-.158-2.109A.178.178,0,0,0,46.6,216.963Z" transform="translate(-46.369 -216.913)" fill="#fff"/>
    </g>
    <g id="Group_6482" data-name="Group 6482" transform="translate(32.183 115.412)">
      <rect id="Rectangle_1208" data-name="Rectangle 1208" width="0.405" height="2.52" rx="0.196" transform="translate(0.011 0.041) rotate(-4.282)" fill="#4c4b4c"/>
      <path id="Path_8962" data-name="Path 8962" d="M50.882,219.32a.229.229,0,0,1-.227-.21L50.5,217a.227.227,0,0,1,.054-.166.229.229,0,0,1,.156-.079h.018a.228.228,0,0,1,.227.21l.158,2.109a.229.229,0,0,1-.21.244h-.018Zm-.157-2.514h-.013a.175.175,0,0,0-.121.061.171.171,0,0,0-.042.128l.158,2.109a.178.178,0,0,0,.177.164H50.9a.178.178,0,0,0,.164-.19L50.9,216.97A.177.177,0,0,0,50.725,216.806Z" transform="translate(-50.497 -216.756)" fill="#fff"/>
    </g>
    <g id="Group_6483" data-name="Group 6483" transform="translate(34.132 115.232)">
      <rect id="Rectangle_1209" data-name="Rectangle 1209" width="0.405" height="2.52" rx="0.196" transform="translate(0.011 0.041) rotate(-4.282)" fill="#4c4b4c"/>
      <path id="Path_8963" data-name="Path 8963" d="M54.979,218.942a.228.228,0,0,1-.228-.211l-.158-2.109a.228.228,0,0,1,.21-.244h.017a.227.227,0,0,1,.227.211l.158,2.109a.228.228,0,0,1-.21.244h-.016Zm-.159-2.514h-.013a.177.177,0,0,0-.164.19l.158,2.109a.177.177,0,1,0,.353-.026L55,216.593a.176.176,0,0,0-.061-.121A.172.172,0,0,0,54.821,216.428Z" transform="translate(-54.593 -216.378)" fill="#fff"/>
    </g>
    <g id="Group_6484" data-name="Group 6484" transform="translate(35.947 115.081)">
      <rect id="Rectangle_1210" data-name="Rectangle 1210" width="0.405" height="2.52" rx="0.196" transform="matrix(0.997, -0.075, 0.075, 0.997, 0.011, 0.041)" fill="#4c4b4c"/>
      <path id="Path_8964" data-name="Path 8964" d="M58.791,218.627a.229.229,0,0,1-.228-.211l-.158-2.109a.229.229,0,0,1,.21-.244.215.215,0,0,1,.166.055.228.228,0,0,1,.078.156l.158,2.109a.228.228,0,0,1-.209.244h-.017Zm-.158-2.514H58.62a.178.178,0,0,0-.164.19l.158,2.109a.178.178,0,0,0,.178.164H58.8a.177.177,0,0,0,.163-.19l-.158-2.109a.177.177,0,0,0-.176-.164Z" transform="translate(-58.405 -216.061)" fill="#fff"/>
    </g>
    <g id="Group_6485" data-name="Group 6485" transform="translate(37.913 114.887)">
      <rect id="Rectangle_1211" data-name="Rectangle 1211" width="0.405" height="2.52" rx="0.196" transform="translate(0.011 0.041) rotate(-4.282)" fill="#4c4b4c"/>
      <path id="Path_8965" data-name="Path 8965" d="M62.919,218.218a.225.225,0,0,1-.149-.056.222.222,0,0,1-.079-.155l-.158-2.109a.228.228,0,0,1,.21-.245h.017a.227.227,0,0,1,.227.211l.158,2.109a.229.229,0,0,1-.21.245h-.017Zm-.158-2.514h-.013a.177.177,0,0,0-.163.19L62.743,218a.178.178,0,0,0,.189.164h0a.178.178,0,0,0,.164-.19l-.158-2.109a.176.176,0,0,0-.061-.121A.175.175,0,0,0,62.761,215.7Z" transform="translate(-62.534 -215.653)" fill="#fff"/>
    </g>
    <g id="Group_6486" data-name="Group 6486" transform="translate(39.878 114.751)">
      <rect id="Rectangle_1212" data-name="Rectangle 1212" width="0.405" height="2.52" rx="0.196" transform="translate(0.011 0.042) rotate(-4.282)" fill="#4c4b4c"/>
      <path id="Path_8966" data-name="Path 8966" d="M67.047,217.933a.229.229,0,0,1-.227-.211l-.158-2.109a.228.228,0,1,1,.454-.034l.158,2.109a.229.229,0,0,1-.21.245h-.018Zm-.159-2.514h-.012a.177.177,0,0,0-.163.19l.158,2.109a.178.178,0,0,0,.177.164h.013a.178.178,0,0,0,.164-.19l-.158-2.109A.178.178,0,0,0,66.888,215.419Z" transform="translate(-66.662 -215.368)" fill="#fff"/>
    </g>
    <g id="Group_6487" data-name="Group 6487" transform="translate(41.678 114.617)">
      <rect id="Rectangle_1213" data-name="Rectangle 1213" width="0.405" height="2.52" rx="0.196" transform="translate(0.011 0.041) rotate(-4.282)" fill="#4c4b4c"/>
      <path id="Path_8967" data-name="Path 8967" d="M70.828,217.65a.227.227,0,0,1-.227-.21l-.158-2.109a.228.228,0,0,1,.21-.244h.017a.228.228,0,0,1,.227.21l.158,2.109a.227.227,0,0,1-.21.244h-.017Zm-.158-2.514h-.013a.177.177,0,0,0-.163.19l.158,2.109a.178.178,0,0,0,.189.163h0a.178.178,0,0,0,.164-.189l-.158-2.109A.177.177,0,0,0,70.67,215.136Z" transform="translate(-70.443 -215.086)" fill="#fff"/>
    </g>
    <g id="Group_6488" data-name="Group 6488" transform="translate(43.597 114.422)">
      <rect id="Rectangle_1214" data-name="Rectangle 1214" width="0.405" height="2.52" rx="0.196" transform="translate(0.011 0.041) rotate(-4.282)" fill="#4c4b4c"/>
      <path id="Path_8968" data-name="Path 8968" d="M74.861,217.241a.228.228,0,0,1-.228-.21l-.158-2.109a.227.227,0,0,1,.21-.244H74.7a.227.227,0,0,1,.227.21L75.088,217a.227.227,0,0,1-.21.244h-.017Zm-.158-2.513H74.69a.177.177,0,0,0-.164.189l.158,2.109a.177.177,0,0,0,.177.164h.013a.177.177,0,0,0,.163-.189l-.158-2.109A.177.177,0,0,0,74.7,214.727Z" transform="translate(-74.476 -214.677)" fill="#fff"/>
    </g>
    <g id="Group_6489" data-name="Group 6489" transform="translate(45.412 114.212)">
      <rect id="Rectangle_1215" data-name="Rectangle 1215" width="0.405" height="2.52" rx="0.196" transform="translate(0.011 0.041) rotate(-4.282)" fill="#4c4b4c"/>
      <path id="Path_8969" data-name="Path 8969" d="M78.674,216.8a.227.227,0,0,1-.227-.21l-.158-2.109a.229.229,0,0,1,.21-.244h.017a.229.229,0,0,1,.227.211l.158,2.109a.227.227,0,0,1-.209.244Zm-.158-2.514H78.5a.178.178,0,0,0-.164.19l.158,2.109a.176.176,0,0,0,.061.121.167.167,0,0,0,.129.042.177.177,0,0,0,.163-.19l-.158-2.109a.177.177,0,0,0-.177-.164Z" transform="translate(-78.288 -214.235)" fill="#fff"/>
    </g>
    <g id="Group_6490" data-name="Group 6490" transform="translate(47.347 114.152)">
      <rect id="Rectangle_1216" data-name="Rectangle 1216" width="0.405" height="2.52" rx="0.196" transform="translate(0.011 0.041) rotate(-4.282)" fill="#4c4b4c"/>
      <path id="Path_8970" data-name="Path 8970" d="M82.739,216.674a.23.23,0,0,1-.228-.211l-.158-2.109a.229.229,0,0,1,.21-.245h.018a.228.228,0,0,1,.227.211l.158,2.109a.229.229,0,0,1-.21.245h-.017Zm-.159-2.514h-.013a.177.177,0,0,0-.163.19l.158,2.109a.179.179,0,0,0,.178.165h.012a.178.178,0,0,0,.164-.19l-.158-2.109A.178.178,0,0,0,82.581,214.159Z" transform="translate(-82.353 -214.109)" fill="#fff"/>
    </g>
    <g id="Group_6491" data-name="Group 6491" transform="translate(49.027 113.956)">
      <rect id="Rectangle_1217" data-name="Rectangle 1217" width="0.405" height="2.52" rx="0.196" transform="matrix(0.997, -0.075, 0.075, 0.997, 0.011, 0.042)" fill="#4c4b4c"/>
      <path id="Path_8971" data-name="Path 8971" d="M86.268,216.263a.228.228,0,0,1-.227-.211l-.159-2.109a.229.229,0,0,1,.21-.245.22.22,0,0,1,.166.055.226.226,0,0,1,.079.155l.158,2.109a.229.229,0,0,1-.21.245h-.017Zm-.158-2.514H86.1a.179.179,0,0,0-.164.19l.159,2.109a.177.177,0,0,0,.177.164h.013a.178.178,0,0,0,.164-.19l-.158-2.109a.178.178,0,0,0-.177-.165Z" transform="translate(-85.882 -213.698)" fill="#fff"/>
    </g>
    <g id="Group_6496" data-name="Group 6496" transform="translate(70.783 88.894)">
      <g id="Group_6493" data-name="Group 6493" transform="translate(0.005)">
        <g id="Group_6492" data-name="Group 6492">
          <path id="Path_8972" data-name="Path 8972" d="M148.537,211.765a1.871,1.871,0,0,1-.8-.248c-1.941-.99-7.914-5.864-3.283-27.037,1.744-7.974.991-14-2.24-17.9a14.836,14.836,0,0,0-9.275-5.341l-1.343-.121c.3,0,7.3-.925,11.778,4.48,3.554,4.286,4.416,10.75,2.565,19.213-4.906,22.426,2.632,25.431,2.71,25.451a.731.731,0,0,0-.717.3l.615.437.637-.424-.065.934A.744.744,0,0,1,148.537,211.765Z" transform="translate(-131.593 -161.051)" fill="#657080"/>
        </g>
      </g>
      <g id="Group_6495" data-name="Group 6495" transform="translate(0 0.063)">
        <g id="Group_6494" data-name="Group 6494">
          <path id="Path_8973" data-name="Path 8973" d="M148.527,211.14a1.51,1.51,0,0,1-.478-.17c-1.3-.664-7.56-5.049-2.919-26.266,1.794-8.2.989-14.43-2.393-18.51a14.456,14.456,0,0,0-10.758-4.977l-.4-.031c.066,0,6.986-.217,11.25,4.927,3.41,4.112,4.224,10.376,2.421,18.619-1.514,6.924-3.363,19.355,1.272,24.809a4.165,4.165,0,0,0,2,1.477h0l0,.061.066-.043-.005.084A.087.087,0,0,1,148.527,211.14Zm-.036-.093a.058.058,0,0,0,0,.058l.039-.026Z" transform="translate(-131.583 -161.184)" fill="#fff"/>
        </g>
      </g>
    </g>
    <g id="Group_6497" data-name="Group 6497" transform="translate(31.495 123.296)">
      <g id="Page-1" transform="translate(0 0)">
        <g id="_724-Portal" data-name="724-Portal">
          <g id="shortcuts">
            <g id="att_icon_wifi_lg" data-name="att icon wifi lg">
              <path id="Path_8974" data-name="Path 8974" d="M60.88,240.724a5.819,5.819,0,0,0-7.217.753.755.755,0,0,0-.009,1.074.77.77,0,0,0,1.084.007A4.276,4.276,0,0,1,60.046,242a.772.772,0,0,0,1.06-.227.755.755,0,0,0-.226-1.051m1.658-2.694a8.872,8.872,0,0,0-11.056,1.116.754.754,0,0,0-.011,1.074.771.771,0,0,0,1.085.009A7.329,7.329,0,0,1,61.7,239.3a.772.772,0,0,0,1.062-.223.755.755,0,0,0-.222-1.051m1.7-2.684a11.773,11.773,0,0,0-5.538-1.982,11.545,11.545,0,0,0-9.443,3.617.755.755,0,0,0,.034,1.074.771.771,0,0,0,1.083-.035,10.017,10.017,0,0,1,8.186-3.143,10.221,10.221,0,0,1,4.81,1.724.771.771,0,0,0,1.066-.2.755.755,0,0,0-.2-1.056m-5.327,9.049a1.289,1.289,0,1,1-1.415-1.136,1.284,1.284,0,0,1,1.415,1.136" transform="translate(-49.052 -233.318)" fill="#4c4b4c" fill-rule="evenodd"/>
            </g>
          </g>
        </g>
      </g>
    </g>
  </g>
</svg>
