<svg id="Group_3" data-name="Group 3" xmlns="http://www.w3.org/2000/svg" xmlns:xlink="http://www.w3.org/1999/xlink" width="78.475" height="26.073" viewBox="0 0 78.475 26.073">
  <defs>
    <clipPath id="clip-path">
      <rect id="Rectangle_14" data-name="Rectangle 14" width="78.475" height="26.073" fill="none"/>
    </clipPath>
  </defs>
  <g id="Group_2" data-name="Group 2" clip-path="url(#clip-path)">
    <path id="Path_198" data-name="Path 198" d="M6.022,6.949c0-1.059.434-1.756,1.735-2.556,2.011-1.187,4.679-1.369,7.94-1.369H28.2V0H14.122C6.943,0,4.351.622,1.354,3.617A4,4,0,0,0,0,6.82V18.627H6.022V6.949" transform="translate(0 0)" fill="#fff"/>
    <path id="Path_199" data-name="Path 199" d="M18.457,17.344c-3.366,0-4.581.292-5.989,1.7a1.88,1.88,0,0,0-.635,1.5v5.6a1.879,1.879,0,0,0,.635,1.5c1.408,1.409,2.623,1.7,5.989,1.7H22.6c-.086.884-.554,1.516-1.722,2.237-2.009,1.185-4.675,1.365-7.938,1.365H.443v3.022H14.52c7.178,0,9.771-.618,12.763-3.615a3.994,3.994,0,0,0,1.357-3.2V17.344Zm4.164,9.775H19.195a7.367,7.367,0,0,1-3.722-.644c-.61-.373-.816-.7-.816-1.2V21.414c0-.5.206-.824.816-1.2a7.376,7.376,0,0,1,3.722-.644h3.426Z" transform="translate(-0.253 -9.898)" fill="#fff"/>
    <path id="Path_200" data-name="Path 200" d="M78.07,17.955h3.315l4.326,6.357V17.955h3.347v11.49H85.711l-4.3-6.309v6.309H78.07Z" transform="translate(-44.554 -10.247)" fill="#fff"/>
    <path id="Path_201" data-name="Path 201" d="M107.142,17.955h9.515v2.453H110.7v1.826h5.526v2.344H110.7v2.265h6.129v2.6h-9.687Z" transform="translate(-61.146 -10.247)" fill="#fff"/>
    <path id="Path_202" data-name="Path 202" d="M132.268,17.955H143.06v2.837h-3.621v8.653h-3.55V20.792h-3.621Z" transform="translate(-75.485 -10.247)" fill="#fff"/>
    <path id="Path_203" data-name="Path 203" d="M158.515,25.383l3.378-.212a2.572,2.572,0,0,0,.447,1.254,1.877,1.877,0,0,0,1.568.7,1.737,1.737,0,0,0,1.171-.356,1.068,1.068,0,0,0,.412-.827,1.056,1.056,0,0,0-.392-.8,4.544,4.544,0,0,0-1.818-.666,7.73,7.73,0,0,1-3.331-1.4,2.8,2.8,0,0,1-1-2.218,3.012,3.012,0,0,1,.513-1.673A3.405,3.405,0,0,1,161,17.949a7.206,7.206,0,0,1,2.826-.451,5.776,5.776,0,0,1,3.358.82,3.534,3.534,0,0,1,1.375,2.606l-3.346.2a1.563,1.563,0,0,0-1.74-1.481,1.424,1.424,0,0,0-.932.262.8.8,0,0,0-.314.639.637.637,0,0,0,.259.494,2.9,2.9,0,0,0,1.191.423,14.921,14.921,0,0,1,3.335,1.015,3.51,3.51,0,0,1,1.466,1.274,3.228,3.228,0,0,1,.458,1.7,3.642,3.642,0,0,1-.611,2.038,3.826,3.826,0,0,1-1.709,1.415,6.9,6.9,0,0,1-2.766.482q-2.932,0-4.06-1.129a4.45,4.45,0,0,1-1.278-2.869" transform="translate(-90.464 -9.986)" fill="#fff"/>
  </g>
</svg>
