<svg xmlns="http://www.w3.org/2000/svg" width="398" height="132.232" viewBox="0 0 398 132.232">
  <g id="rgnets_logo" transform="translate(-16.2 -5.4)">
    <path id="Path_8992" data-name="Path 8992" d="M46.648,40.633c0-5.437,2.175-8.917,8.7-13.049,10.222-6.09,23.706-6.96,40.235-6.96h63.289V5.4H87.753c-36.32,0-49.587,3.045-64.593,18.269-5.437,5.655-6.96,9.787-6.96,16.311V99.789H46.648V40.633" transform="translate(0 0)" fill="#ed2525"/>
    <path id="Path_8993" data-name="Path 8993" d="M107.944,22.8c-16.964,0-23.271,1.522-30.448,8.7-2.61,2.61-3.262,4.567-3.262,7.612V67.385c0,3.045.652,5,3.262,7.612,7.177,7.177,13.267,8.7,30.448,8.7h21.1v0h0c-.435,4.567-2.827,7.612-8.7,11.309-10.222,6.09-23.706,6.96-40.235,6.96H16.6v15.224H87.936c36.32,0,49.587-3.045,64.593-18.269,5.437-5.872,6.96-9.787,6.96-16.311V22.8Zm3.7,49.587c-7.83,0-14.137-.435-18.921-3.262-3.045-1.957-4.132-3.48-4.132-6.09V43.461c0-2.61,1.087-4.132,4.132-6.09,4.785-2.827,11.092-3.262,18.921-3.262h17.4V72.387Z" transform="translate(0.47 20.443)" fill="#ed2525"/>
    <g id="Group_6554" data-name="Group 6554" transform="translate(185.839 43.46)">
      <path id="Path_8994" data-name="Path 8994" d="M94.2,23.4h16.746l21.966,32.188V23.4h16.964V81.686H132.913l-21.749-31.97v31.97H94.2Z" transform="translate(-94.2 -22.313)" fill="#ed2525"/>
      <path id="Path_8995" data-name="Path 8995" d="M123.3,23.4h48.282V35.8H141.351v9.352h28.056V57.11H141.351V68.637h31.1V81.9H123.3V23.4Z" transform="translate(-60.011 -22.313)" fill="#ed2525"/>
      <path id="Path_8996" data-name="Path 8996" d="M148.4,23.4h54.589V37.754H184.72V81.686H166.669V37.754H148.4V23.4Z" transform="translate(-30.522 -22.313)" fill="#ed2525"/>
      <path id="Path_8997" data-name="Path 8997" d="M174.7,62.917l17.181-1.087c.435,2.827,1.087,5,2.175,6.307,1.957,2.392,4.567,3.48,8.047,3.48a9,9,0,0,0,5.872-1.74c1.3-1.3,2.175-2.61,2.175-4.132a5.7,5.7,0,0,0-1.957-4.132c-1.3-1.087-4.35-2.392-9.134-3.48-7.83-1.74-13.484-4.132-16.964-6.96a14.133,14.133,0,0,1-5-11.309,14.993,14.993,0,0,1,2.61-8.482,17.7,17.7,0,0,1,7.829-6.307c3.48-1.522,8.264-2.175,14.354-2.175,7.395,0,13.049,1.3,16.964,4.132s6.307,7.177,6.96,13.267l-16.964,1.087c-.435-2.61-1.3-4.567-2.827-5.655a9.9,9.9,0,0,0-5.872-1.74,7.391,7.391,0,0,0-4.785,1.3,3.913,3.913,0,0,0-1.522,3.262,3.005,3.005,0,0,0,1.3,2.392c.87.87,2.827,1.522,6.09,2.175q11.744,2.61,16.964,5.22a16.526,16.526,0,0,1,9.787,15.224,18.775,18.775,0,0,1-3.045,10.222,21.821,21.821,0,0,1-8.7,7.177,37.157,37.157,0,0,1-13.919,2.392c-10,0-16.746-1.957-20.661-5.655A21.594,21.594,0,0,1,174.7,62.917Z" transform="translate(0.377 -22.9)" fill="#ed2525"/>
    </g>
  </g>
</svg>
