<svg xmlns="http://www.w3.org/2000/svg" width="182.797" height="60.732" viewBox="0 0 182.797 60.732">
  <path id="Path_8595" data-name="Path 8595" d="M30.194,21.631c0-2.467,1.011-4.09,4.041-5.953,4.684-2.767,10.9-3.189,18.494-3.189H81.852V5.446H49.062C32.34,5.446,26.3,6.894,19.323,13.87c-2.52,2.646-3.156,4.457-3.156,7.462v27.5H30.194v-27.2" transform="translate(-16.168 -5.446)" fill="#ff0601"/>
  <path id="Path_8596" data-name="Path 8596" d="M68.274,49.989V22.794H82.29V50.3c0,3-.628,4.809-3.156,7.457-6.969,6.978-13.013,8.421-29.733,8.421H16.608V59.141H45.727c7.6,0,13.81-.424,18.495-3.186,3.034-1.873,4.052-3.494,4.052-5.966M49.722,32.268c0-1.158.474-1.92,1.894-2.793,2.2-1.3,5.112-1.5,8.678-1.5h7.987V22.794H58.573c-7.844,0-10.677.679-13.95,3.952a4.37,4.37,0,0,0-1.481,3.5v12.9h6.58V32.268m0,9V30.4h-6.58v12.9a4.37,4.37,0,0,0,1.481,3.5c3.273,3.273,6.106,3.953,13.95,3.953H68.25l.031-5.186H60.294c-3.566,0-6.479-.2-8.678-1.5-1.42-.871-1.894-1.635-1.894-2.792" transform="translate(-16.168 -5.446)" fill="#3f3f3f"/>
  <g id="Group_6140" data-name="Group 6140" transform="translate(-16.168 -5.446)">
    <path id="Path_8597" data-name="Path 8597" d="M94.237,23.4h7.722l10.078,14.808V23.4h7.8V50.165h-7.8l-10.023-14.7v14.7H94.237Z" fill="#ff0001"/>
    <path id="Path_8598" data-name="Path 8598" d="M123.309,23.4h22.163v5.715H131.6v4.254h12.871v5.458H131.6V44.1h14.277v6.061H123.309Z" fill="#ff0001"/>
    <path id="Path_8599" data-name="Path 8599" d="M148.435,23.4h25.139v6.609H165.14V50.165h-8.271V30.009h-8.434Z" fill="#ff0001"/>
    <path id="Path_8600" data-name="Path 8600" d="M174.682,41.311l7.869-.494a5.976,5.976,0,0,0,1.041,2.921,4.368,4.368,0,0,0,3.651,1.625,4.042,4.042,0,0,0,2.729-.83,2.489,2.489,0,0,0,.959-1.927,2.46,2.46,0,0,0-.913-1.862,10.606,10.606,0,0,0-4.236-1.552q-5.44-1.223-7.759-3.249a6.535,6.535,0,0,1-2.337-5.167,7.023,7.023,0,0,1,1.2-3.9,7.933,7.933,0,0,1,3.6-2.884,16.79,16.79,0,0,1,6.582-1.05q5.13,0,7.823,1.908a8.236,8.236,0,0,1,3.2,6.07l-7.795.457a3.644,3.644,0,0,0-4.054-3.451,3.314,3.314,0,0,0-2.172.612,1.873,1.873,0,0,0-.73,1.488,1.489,1.489,0,0,0,.6,1.15,6.772,6.772,0,0,0,2.775.986,34.726,34.726,0,0,1,7.768,2.364,8.162,8.162,0,0,1,3.414,2.967,7.523,7.523,0,0,1,1.069,3.961A8.486,8.486,0,0,1,197.54,46.2a8.914,8.914,0,0,1-3.98,3.3,16.1,16.1,0,0,1-6.445,1.122q-6.83,0-9.457-2.629A10.362,10.362,0,0,1,174.682,41.311Z" fill="#3f3f3f"/>
  </g>
</svg>
