<svg xmlns="http://www.w3.org/2000/svg" xmlns:xlink="http://www.w3.org/1999/xlink" width="129.573" height="102.756" viewBox="0 0 129.573 102.756">
  <defs>
    <clipPath id="clip-path">
      <rect id="Rectangle_678" data-name="Rectangle 678" width="129.573" height="102.756" fill="none"/>
    </clipPath>
  </defs>
  <g id="Group_6033" data-name="Group 6033" clip-path="url(#clip-path)">
    <path id="Path_8570" data-name="Path 8570" d="M124.37,53.656c-13.471,0-24.432-12.035-24.432-26.828S110.9,0,124.37,0,148.8,12.035,148.8,26.828s-10.96,26.828-24.432,26.828m0-51.115c-12.071,0-21.892,10.9-21.892,24.287s9.82,24.287,21.892,24.287,21.891-10.9,21.891-24.287S136.441,2.541,124.37,2.541" transform="translate(-57.62)" fill="#ed2525"/>
    <path id="Path_8571" data-name="Path 8571" d="M66.7,176.644H64.155V155.821a27.045,27.045,0,0,1,22.81-26.493,5.078,5.078,0,0,1,4.018,1.034,20.159,20.159,0,0,0,25.512,0,5.078,5.078,0,0,1,4.019-1.034A27.713,27.713,0,0,1,135,136.572l-1.751,1.841a25.181,25.181,0,0,0-13.162-6.58,2.535,2.535,0,0,0-2.007.516,22.7,22.7,0,0,1-28.679,0,2.535,2.535,0,0,0-2.006-.517,24.512,24.512,0,0,0-20.7,23.988Z" transform="translate(-36.989 -74.523)" fill="#ed2525"/>
    <path id="Path_8572" data-name="Path 8572" d="M227.895,124.456a4.727,4.727,0,1,1,.716-.054,4.812,4.812,0,0,1-.716.054m.015-6.886a2.225,2.225,0,0,0-.33.025,2.171,2.171,0,1,0,2.472,1.822h0a2.173,2.173,0,0,0-2.143-1.847" transform="translate(-128.683 -66.321)" fill="#ed2525"/>
    <path id="Path_8573" data-name="Path 8573" d="M249.656,80.061a4.713,4.713,0,1,1,4.669-5.42h0a4.718,4.718,0,0,1-3.953,5.365,4.809,4.809,0,0,1-.716.054m.015-6.886a2.227,2.227,0,0,0-.33.025,2.163,2.163,0,1,0,.33-.025" transform="translate(-141.23 -40.725)" fill="#ed2525"/>
    <path id="Path_8574" data-name="Path 8574" d="M288.442,84.6a4.727,4.727,0,1,1,.716-.054,4.807,4.807,0,0,1-.716.054m.015-6.886a2.227,2.227,0,0,0-.33.025,2.171,2.171,0,1,0,2.473,1.822h0a2.172,2.172,0,0,0-2.143-1.847" transform="translate(-163.592 -43.339)" fill="#ed2525"/>
    <rect id="Rectangle_671" data-name="Rectangle 671" width="1.27" height="9.842" transform="matrix(0.308, -0.951, 0.951, 0.308, 86.389, 49.932)" fill="#ed2525"/>
    <rect id="Rectangle_672" data-name="Rectangle 672" width="14.053" height="1.27" transform="translate(100.167 50.052) rotate(-63.888)" fill="#ed2525"/>
    <rect id="Rectangle_673" data-name="Rectangle 673" width="1.27" height="9.65" transform="matrix(0.116, -0.993, 0.993, 0.116, 111.783, 35.653)" fill="#ed2525"/>
    <path id="Path_8575" data-name="Path 8575" d="M4.7,152.726a4.726,4.726,0,1,1,.716-.054,4.752,4.752,0,0,1-.716.054m.014-6.886a2.221,2.221,0,0,0-.33.025,2.171,2.171,0,1,0,2.473,1.822h0a2.173,2.173,0,0,0-2.143-1.847" transform="translate(0 -82.62)" fill="#ed2525"/>
    <path id="Path_8576" data-name="Path 8576" d="M31.655,108.2a4.726,4.726,0,1,1,.716-.054,4.81,4.81,0,0,1-.716.054m.015-6.886a2.222,2.222,0,0,0-.33.025,2.172,2.172,0,0,0-.963,3.9,2.172,2.172,0,0,0,3.436-2.074h0a2.173,2.173,0,0,0-2.143-1.847" transform="translate(-15.54 -56.95)" fill="#ed2525"/>
    <path id="Path_8577" data-name="Path 8577" d="M70.775,120.715a4.719,4.719,0,1,1,.716-.054,4.759,4.759,0,0,1-.716.054m.011-6.885a2.179,2.179,0,0,0-1.75.884,2.172,2.172,0,1,0,1.75-.884" transform="translate(-38.094 -64.165)" fill="#ed2525"/>
    <rect id="Rectangle_674" data-name="Rectangle 674" width="15.154" height="1.27" transform="matrix(0.518, -0.855, 0.855, 0.518, 5.951, 62.118)" fill="#ed2525"/>
    <rect id="Rectangle_675" data-name="Rectangle 675" width="1.27" height="10.508" transform="translate(19.207 48.206) rotate(-72.407)" fill="#ed2525"/>
    <rect id="Rectangle_676" data-name="Rectangle 676" width="10.642" height="1.27" transform="translate(34.994 49.202) rotate(-38.341)" fill="#ed2525"/>
    <rect id="Rectangle_677" data-name="Rectangle 677" width="1.27" height="19.012" transform="translate(44.528 83.109)" fill="#ed2525"/>
    <path id="Path_8578" data-name="Path 8578" d="M227.247,212.912h-8.683V191.057h8.683Zm-7.413-1.27h6.142V192.327h-6.142Z" transform="translate(-126.015 -110.155)" fill="#ed2525"/>
    <path id="Path_8579" data-name="Path 8579" d="M253,203.578H244.32v-28.71H253Zm-7.413-1.27h6.142V176.138H245.59Z" transform="translate(-140.865 -100.822)" fill="#ed2525"/>
    <path id="Path_8580" data-name="Path 8580" d="M201.491,224.274h-8.684V210.765h8.684ZM194.077,223h6.143V212.035h-6.143Z" transform="translate(-111.164 -121.518)" fill="#ed2525"/>
    <path id="Path_8581" data-name="Path 8581" d="M278.76,194.752h-8.684V159.56h8.684Zm-7.413-1.27h6.143V160.83h-6.143Z" transform="translate(-155.715 -91.996)" fill="#ed2525"/>
    <path id="Path_8582" data-name="Path 8582" d="M194.124,155.859l-1.015-.763,6.016-8.015,4.327,1.924,7.283-9.7,4.814,2.14,6.625-8.826,5.054,1.6,6.145-8.559,1.032.741-6.682,9.307-5.074-1.608-6.691,8.914-4.815-2.14-7.283,9.7-4.327-1.924Z" transform="translate(-111.338 -72.45)" fill="#ed2525"/>
  </g>
</svg>
